<?xml version="1.0" standalone="no"?>
<!DOCTYPE svg PUBLIC "-//W3C//DTD SVG 1.1//EN" "http://www.w3.org/Graphics/SVG/1.1/DTD/svg11.dtd" >
<svg>
<metadata>
Created by FontForge 20090622 at Sat Sep 30 13:01:48 2017
 By deploy user
Copyright (c) 1990-1996 ParaGraph
</metadata>
<defs>
<font id="PragmaticaC" horiz-adv-x="580" >
  <font-face 
    font-family="PragmaticaC"
    font-weight="400"
    font-stretch="normal"
    units-per-em="1000"
    panose-1="0 0 5 0 0 0 0 0 0 0"
    ascent="776"
    descent="-224"
    x-height="508"
    cap-height="700"
    bbox="-414 -224 1245 900"
    underline-thickness="50"
    underline-position="-50"
    unicode-range="U+0020-U+2122"
  />
<missing-glyph horiz-adv-x="233" 
 />
    <glyph glyph-name=".notdef" horiz-adv-x="233" 
 />
    <glyph glyph-name=".null" horiz-adv-x="0" 
 />
    <glyph glyph-name="nonmarkingreturn" horiz-adv-x="333" 
 />
    <glyph glyph-name="space" unicode=" " horiz-adv-x="233" 
 />
    <glyph glyph-name="space" unicode="&#xa0;" horiz-adv-x="233" 
 />
    <glyph glyph-name="exclam" unicode="!" horiz-adv-x="311" 
d="M106 700h99v-269l-25 -230h-49l-25 230v269zM106 0v109h99v-109h-99z" />
    <glyph glyph-name="quotedbl" unicode="&#x22;" horiz-adv-x="420" 
d="M182 700l-40 -192h-52l-40 192h132zM370 700l-40 -192h-52l-40 192h132z" />
    <glyph glyph-name="numbersign" unicode="#" horiz-adv-x="701" 
d="M437 10h-68l26 168h-143l-26 -168h-68l26 168h-134l13 85h134l28 179h-134l13 85h134l26 167h68l-26 -167h143l26 167h68l-26 -167h134l-13 -85h-134l-28 -179h134l-13 -85h-134zM408 263l28 179h-143l-28 -179h143z" />
    <glyph glyph-name="dollar" unicode="$" horiz-adv-x="611" 
d="M53 208h89q2 -43 16.5 -73.5t36.5 -46.5t44 -23t45 -8v266q-68 15 -112 36t-65 48.5t-28.5 53.5t-7.5 62q0 46 15 81t37.5 55t52.5 32.5t56 16.5t52 4v65h53v-65q31 -1 62 -9t64.5 -26.5t53.5 -56.5t18 -90h-86q-1 46 -32 80.5t-80 35.5v-247q57 -10 99.5 -28.5t65 -39
t36 -47.5t17 -47.5t3.5 -44.5q0 -50 -17 -88t-41 -59t-57 -34t-57 -17.5t-49 -5.5v-81h-53v81q-111 5 -167.5 58t-63.5 162zM337 314v-257q61 -1 96.5 39t35.5 96q0 60 -40.5 88t-91.5 34zM284 408v238q-20 0 -38.5 -5t-40 -16.5t-34.5 -37t-13 -61.5q0 -49 31 -77.5
t95 -40.5z" />
    <glyph glyph-name="percent" unicode="%" horiz-adv-x="911" 
d="M195 0l454 700h71l-454 -700h-71zM53 508q0 58 17.5 100t45 62.5t52.5 29t49 8.5t49 -8.5t52.5 -29t45 -62.5t17.5 -100q0 -31 -7.5 -62.5t-24 -64t-51 -53t-81.5 -20.5t-81.5 20.5t-51 53t-24 64t-7.5 62.5zM117 508q0 -21 3.5 -43t13.5 -47t31 -41t52 -16t52 16t31 41
t13.5 47t3.5 43q0 78 -31 112.5t-69 34.5t-69 -34.5t-31 -112.5zM530 192q0 58 17.5 100t45 62.5t52.5 29t49 8.5t49 -8.5t52.5 -29t45 -62.5t17.5 -100q0 -31 -7.5 -62.5t-24 -64t-51 -53t-81.5 -20.5t-81.5 20.5t-51 53t-24 64t-7.5 62.5zM594 192q0 -21 3.5 -43t13.5 -47
t31 -41t52 -16t52 16t31 41t13.5 47t3.5 43q0 78 -31 112.5t-69 34.5t-69 -34.5t-31 -112.5z" />
    <glyph glyph-name="ampersand" unicode="&#x26;" horiz-adv-x="683" 
d="M542 306h79q-17 -102 -58 -164l120 -142h-105l-69 82q-33 -51 -92 -77t-125 -26q-111 0 -165.5 62.5t-54.5 145.5q0 77 42.5 128t129.5 90q-69 80 -69 151q0 67 46.5 105.5t116.5 38.5q72 0 112.5 -41.5t40.5 -99.5q0 -60 -39 -104t-92 -70l153 -182q18 30 29 103z
M463 139l-173 209q-127 -52 -127 -160q0 -52 36.5 -93t104.5 -41q50 0 92.5 22t66.5 63zM317 438q41 14 67.5 47t26.5 76q0 30 -21 51.5t-53 21.5q-31 0 -55.5 -19t-24.5 -57q0 -22 10.5 -46t19.5 -36t30 -38z" />
    <glyph glyph-name="quotesingle" unicode="'" horiz-adv-x="232" 
d="M182 700l-40 -192h-52l-40 192h132z" />
    <glyph glyph-name="parenleft" unicode="(" horiz-adv-x="365" 
d="M216 700h66q-122 -236 -122 -442q0 -209 122 -442h-66q-86 147 -115.5 242.5t-29.5 199.5t29.5 199.5t115.5 242.5z" />
    <glyph glyph-name="parenright" unicode=")" horiz-adv-x="365" 
d="M149 -184h-66q122 236 122 442q0 207 -122 442h66q87 -140 116 -244t29 -198q0 -95 -29 -199t-116 -243z" />
    <glyph glyph-name="asterisk" unicode="*" horiz-adv-x="465" 
d="M233 511l-80 -108l-40 30l78 108l-125 40l16 47l126 -40v132h50v-132l125 40l16 -47l-124 -40l78 -108l-41 -30z" />
    <glyph glyph-name="plus" unicode="+" horiz-adv-x="600" 
d="M50 386h219v219h62v-219h219v-62h-219v-219h-62v219h-219v62z" />
    <glyph glyph-name="comma" unicode="," horiz-adv-x="311" 
d="M106 109h99v-140q0 -94 -99 -117v55q21 2 35.5 20.5t14.5 41.5v31h-50v109z" />
    <glyph glyph-name="hyphen" unicode="-" horiz-adv-x="422" 
d="M79 225v85h264v-85h-264z" />
    <glyph glyph-name="hyphen" unicode="&#xad;" horiz-adv-x="422" 
d="M79 225v85h264v-85h-264z" />
    <glyph glyph-name="period" unicode="." horiz-adv-x="311" 
d="M106 0v109h99v-109h-99z" />
    <glyph glyph-name="slash" unicode="/" horiz-adv-x="420" 
d="M0 -185l357 885h63l-357 -885h-63z" />
    <glyph glyph-name="zero" unicode="0" 
d="M290 -21q-24 0 -46.5 3.5t-61.5 24.5t-66.5 57t-49 110.5t-21.5 175.5t21.5 175.5t49 110.5t66.5 57t61.5 24.5t46.5 3.5t46.5 -3.5t61.5 -24.5t66.5 -57t49 -110.5t21.5 -175.5t-21.5 -175.5t-49 -110.5t-66.5 -57t-61.5 -24.5t-46.5 -3.5zM290 58q54 0 89 41t49 104
t14 147t-14 147t-49 104t-89 41t-89 -41t-49 -104t-14 -147t14 -147t49 -104t89 -41z" />
    <glyph glyph-name="one" unicode="1" 
d="M130 526v49h21q64 0 112 34.5t55 90.5h66v-700h-94v526h-160z" />
    <glyph glyph-name="two" unicode="2" 
d="M531 79v-79h-474q0 36 6.5 67t15.5 54.5t29 48.5t34.5 40.5t45.5 38t49 34.5t57 36q2 1 17.5 11l20 13l19 13t19.5 15t17 16t17 19l13 20.5t11 24.5t6 26.5t3 30.5q0 64 -38.5 99t-102.5 35q-66 0 -105.5 -38t-39.5 -101v-26h-92v21q0 23 4 47.5t19.5 57.5t40 58
t70.5 42.5t106 17.5q108 0 171 -56t63 -156q0 -39 -9 -70t-22 -53.5t-46 -50t-61 -46.5l-87 -57q-71 -45 -104 -79.5t-43 -73.5h370z" />
    <glyph glyph-name="three" unicode="3" 
d="M40 213h90l3 -23q21 -136 146 -136q51 0 85.5 16t49 42t19.5 47t5 43q0 58 -34.5 92t-93.5 34h-72v76h28q15 0 28 1t38 7.5t42.5 18t31 36t13.5 58.5q0 50 -31.5 85.5t-106.5 35.5q-15 0 -27.5 -1.5t-34.5 -10.5t-37 -24.5t-26 -47t-11 -75.5h-87q0 24 2.5 48t15.5 60
t35.5 62t67 45t105.5 19q55 0 97.5 -15t65 -36.5t37 -49.5t18.5 -49.5t4 -41.5q0 -57 -32 -98.5t-83 -56.5v-2q57 -8 96 -54.5t39 -122.5q0 -101 -67 -158.5t-174 -57.5q-72 0 -123 22.5t-75.5 60.5t-35 74t-11.5 77z" />
    <glyph glyph-name="four" unicode="4" 
d="M353 162h-330v79l329 459h95v-459h110v-79h-110v-162h-94v162zM113 241h240v336z" />
    <glyph glyph-name="five" unicode="5" 
d="M46 179h92q3 -20 10.5 -39.5t23 -40t44 -33t66.5 -12.5q163 0 163 173q0 86 -44.5 125.5t-109.5 39.5q-38 0 -79 -16.5t-58 -44.5h-88l49 369h378v-79h-309l-28 -207q61 53 158 53q98 0 158.5 -64.5t60.5 -174.5q0 -111 -63 -180t-188 -69q-64 0 -111.5 19.5t-72 51.5
t-37 63.5t-15.5 65.5z" />
    <glyph glyph-name="six" unicode="6" 
d="M525 546h-84q-23 100 -134 100q-52 0 -88 -24t-52.5 -65t-23 -82t-6.5 -88h2q56 74 171 74q99 0 162 -63t63 -172q0 -111 -64 -179t-176 -68q-60 0 -104.5 17.5t-78.5 58t-51 112t-17 174.5q0 77 12 138.5t29 100.5t43.5 67.5t49 42t51.5 21.5t44.5 9t34.5 1
q18 0 35 -1.5t49 -11.5t56 -27t46.5 -52t30.5 -83zM143 224q0 -71 40 -120.5t116 -49.5q72 0 109 50t37 123q0 68 -38.5 113.5t-109.5 45.5q-72 0 -113 -44.5t-41 -117.5z" />
    <glyph glyph-name="seven" unicode="7" 
d="M34 621v79h511v-64q-121 -134 -194 -314q-57 -141 -77 -322h-100q21 167 84 314q75 177 195 307h-419z" />
    <glyph glyph-name="eight" unicode="8" 
d="M181 379q-47 17 -74 59.5t-27 94.5q0 31 9.5 61t31.5 60t65.5 48.5t103.5 18.5t103.5 -18.5t65.5 -48.5t31.5 -60t9.5 -61q0 -52 -27 -94.5t-74 -59.5q58 -15 92.5 -66.5t34.5 -114.5q0 -96 -60 -157.5t-176 -61.5t-176 61.5t-60 157.5q0 63 34.5 114.5t92.5 66.5z
M290 412q63 0 93.5 33t30.5 85q0 17 -4.5 34t-16 37t-38.5 32.5t-65 12.5t-65 -12.5t-38.5 -32.5t-16 -37t-4.5 -34q0 -52 30.5 -85t93.5 -33zM290 54q58 0 102 38t44 111q0 54 -34 95.5t-112 41.5t-112 -41.5t-34 -95.5q0 -73 44 -111t102 -38z" />
    <glyph glyph-name="nine" unicode="9" 
d="M54 154h84q23 -100 134 -100q52 0 88 24t52.5 65t23 82t6.5 88h-2q-56 -74 -171 -74q-99 0 -162 63t-63 172q0 111 64 179t176 68q41 0 73 -6.5t67 -29t58 -60.5t38 -106t15 -160q0 -380 -264 -380q-18 0 -35 1.5t-49 11.5t-56 27t-46.5 52t-30.5 83zM436 476
q0 71 -40 120.5t-116 49.5q-72 0 -109 -50t-37 -123q0 -68 38.5 -113.5t109.5 -45.5q72 0 113 44.5t41 117.5z" />
    <glyph glyph-name="colon" unicode=":" horiz-adv-x="311" 
d="M106 399v109h99v-109h-99zM106 0v109h99v-109h-99z" />
    <glyph glyph-name="semicolon" unicode=";" horiz-adv-x="311" 
d="M106 399v109h99v-109h-99zM106 109h99v-140q0 -94 -99 -117v55q21 2 35.5 20.5t14.5 41.5v31h-50v109z" />
    <glyph glyph-name="less" unicode="&#x3c;" horiz-adv-x="669" 
d="M60 366l495 285l30 -54l-449 -255l449 -255l-30 -54l-495 285v48z" />
    <glyph glyph-name="equal" unicode="=" horiz-adv-x="600" 
d="M50 476h500v-62h-500v62zM50 276h500v-62h-500v62z" />
    <glyph glyph-name="greater" unicode="&#x3e;" horiz-adv-x="669" 
d="M609 318l-495 -285l-30 54l449 255l-449 255l30 54l495 -285v-48z" />
    <glyph glyph-name="question" unicode="?" horiz-adv-x="548" 
d="M220 0v109h99v-109h-99zM140 489h-87q-2 46 8 84.5t33.5 72t70.5 52.5t113 19q99 0 158 -47.5t59 -133.5q0 -55 -23.5 -93.5t-79.5 -85.5q-29 -24 -42.5 -37.5t-28 -40t-14.5 -55.5v-21h-73q-9 95 45 152q13 13 41 38t44 41t30 42.5t14 55.5q0 42 -31 77.5t-100 35.5
q-141 0 -137 -156z" />
    <glyph glyph-name="at" unicode="@" horiz-adv-x="863" 
d="M588 82l29 -53q-85 -50 -186 -50q-160 0 -265.5 98.5t-105.5 273.5q0 162 107 266t264 104q92 0 164.5 -28.5t117 -78t67.5 -111.5t23 -132q0 -86 -49.5 -155t-132.5 -69q-66 0 -89 48q-28 -54 -122 -54q-80 0 -126.5 53.5t-46.5 143.5q0 85 45 141t121 56q84 0 118 -55
h3v41h76v-252q0 -35 10 -46.5t28 -11.5q50 0 76 49t26 111q0 138 -87.5 216t-221.5 78q-138 0 -223 -92.5t-85 -221.5q0 -79 27.5 -141.5t72.5 -99t98.5 -55.5t109.5 -19q86 0 157 46zM517 337q0 61 -24 96.5t-72 35.5q-51 0 -75.5 -37.5t-24.5 -94.5q0 -32 7 -59
t30.5 -49.5t61.5 -22.5q29 0 49.5 12.5t30 34t13.5 41.5t4 43z" />
    <glyph glyph-name="A" unicode="A" horiz-adv-x="622" 
d="M163 181l-66 -181h-101l265 700h100l265 -700h-101l-66 181h-296zM189 260h244l-122 345z" />
    <glyph glyph-name="B" unicode="B" horiz-adv-x="689" 
d="M85 700h307q61 0 104 -15.5t64.5 -43t31 -56.5t9.5 -63q0 -56 -33.5 -98.5t-83.5 -51.5v-3q25 -4 48 -14t46.5 -29t38 -53t14.5 -78q0 -195 -250 -195h-296v700zM179 621v-218h189q72 0 104.5 30.5t32.5 78.5q0 18 -5 34.5t-17.5 34.5t-41 29t-70.5 11h-192zM179 324
v-245h195q24 0 42.5 2t42 9t39 20t26.5 36.5t11 56.5q0 121 -161 121h-195z" />
    <glyph glyph-name="C" unicode="C" horiz-adv-x="712" 
d="M580 232h94q-5 -44 -20.5 -83.5t-47 -80t-90.5 -65t-138 -24.5q-156 0 -244.5 95.5t-88.5 263.5q0 76 15.5 138t39 101t57 68t63 43t64.5 22t53.5 9.5t37.5 1.5q265 0 290 -237h-94q-2 24 -11 47t-28.5 50t-60 44t-96.5 17q-63 0 -109.5 -25t-71.5 -68.5t-37 -94.5
t-12 -112q0 -125 64 -204.5t173 -79.5q83 0 138 49t60 125z" />
    <glyph glyph-name="D" unicode="D" horiz-adv-x="719" 
d="M85 700h257q23 0 42 -1t55 -8.5t65 -20t62.5 -38.5t56 -61.5t37.5 -92t15 -126.5q0 -71 -15 -127.5t-36.5 -93t-56.5 -62.5t-64.5 -39t-71 -20t-66 -8.5t-58.5 -1.5h-222v700zM179 621v-542h131q135 0 200 66t65 205q0 76 -20 131t-55 84.5t-75 42.5t-88 13h-158z" />
    <glyph glyph-name="E" unicode="E" horiz-adv-x="612" 
d="M179 401h367v-79h-367v-243h416v-79h-510v700h499v-79h-405v-220z" />
    <glyph glyph-name="F" unicode="F" horiz-adv-x="568" 
d="M179 393h329v-79h-329v-314h-94v700h470v-79h-376v-228z" />
    <glyph glyph-name="G" unicode="G" horiz-adv-x="740" 
d="M396 365h286v-365h-73v113h-2q-30 -64 -90.5 -99t-142.5 -35q-66 0 -122.5 20t-104 62.5t-75 118.5t-27.5 177q0 176 91.5 270t250.5 94q131 0 202.5 -66t82.5 -162h-94q-5 59 -50 104t-143 45q-63 0 -109.5 -23.5t-70.5 -55.5t-38.5 -76t-18 -73.5t-3.5 -59.5
q0 -15 1.5 -33t7 -48t15 -57.5t27.5 -57t42.5 -51t62 -35.5t83.5 -14q50 0 88.5 15.5t61 39.5t37 56t20 60t5.5 57h-200v79z" />
    <glyph glyph-name="H" unicode="H" horiz-adv-x="710" 
d="M179 329v-329h-94v700h94v-292h352v292h94v-700h-94v329h-352z" />
    <glyph glyph-name="I" unicode="I" horiz-adv-x="264" 
d="M85 700h94v-700h-94v700z" />
    <glyph glyph-name="J" unicode="J" horiz-adv-x="520" 
d="M23 232h94q1 -89 27 -131.5t94 -42.5q69 0 92.5 44t23.5 131v467h94v-458q0 -139 -48.5 -201t-162.5 -62q-214 0 -214 217v36z" />
    <glyph glyph-name="K" unicode="K" horiz-adv-x="667" 
d="M179 353l346 347h127l-292 -288l311 -412h-125l-255 349l-112 -109v-240h-94v700h94v-347z" />
    <glyph glyph-name="L" unicode="L" horiz-adv-x="529" 
d="M535 79v-79h-450v700h94v-621h356z" />
    <glyph glyph-name="M" unicode="M" horiz-adv-x="890" 
d="M407 0l-228 588h-2l2 -27v-561h-94v700h141l219 -576l219 576h141v-700h-94v561l2 27h-3l-227 -588h-76z" />
    <glyph glyph-name="N" unicode="N" horiz-adv-x="740" 
d="M179 555v-555h-94v700h104l372 -555v555h94v-700h-103z" />
    <glyph glyph-name="O" unicode="O" horiz-adv-x="758" 
d="M45 350q0 179 91.5 275t242.5 96q49 0 94.5 -11t90 -38t77 -68t52.5 -106.5t20 -147.5q0 -75 -17 -135.5t-41.5 -98.5t-60 -65.5t-65.5 -41t-65.5 -21t-52 -8.5t-32.5 -1q-17 0 -33.5 1t-52 8.5t-65.5 21t-65.5 41t-60 65.5t-41 98.5t-16.5 135.5zM145 350q0 -39 5 -74.5
t20 -76.5t40 -71t68.5 -50t100.5 -20q15 0 29 1t38.5 7.5t45.5 17.5t44 33t39.5 51.5t27 76.5t10.5 105q0 131 -59 211.5t-175 80.5q-44 0 -80 -12.5t-60 -32t-42 -46.5t-27.5 -53.5t-15.5 -56.5t-7.5 -50.5t-1.5 -40.5z" />
    <glyph glyph-name="P" unicode="P" horiz-adv-x="639" 
d="M85 700h285q237 0 237 -201q0 -220 -246 -220h-182v-279h-94v700zM179 621v-263h172q160 0 160 139q0 64 -39 94t-121 30h-172z" />
    <glyph glyph-name="Q" unicode="Q" horiz-adv-x="758" 
d="M612 62l79 -87l-52 -49l-83 93q-65 -40 -177 -40q-78 0 -138.5 24.5t-96.5 62t-59 88.5t-31.5 98.5t-8.5 97.5q0 42 6.5 85t28.5 96.5t57 94t97.5 68t144.5 27.5q151 0 242.5 -96t91.5 -275q0 -180 -101 -288zM471 220l79 -89q63 79 63 219q0 74 -18 130t-43.5 86t-60 48
t-60.5 23t-52 5q-28 0 -54 -5t-60.5 -23.5t-59.5 -48t-42.5 -85.5t-17.5 -130q0 -37 5 -72.5t20 -77t39.5 -71.5t68.5 -50.5t101 -20.5q77 0 116 28l-78 87z" />
    <glyph glyph-name="R" unicode="R" horiz-adv-x="681" 
d="M85 0v700h310q232 0 232 -188q0 -62 -32.5 -112t-87.5 -61v-3q34 -12 55 -29.5t30.5 -42t12 -44t3.5 -53.5q0 -14 0.5 -37t1 -32t1.5 -24.5t2.5 -22t4.5 -17t7.5 -18t10.5 -16.5h-99q-18 22 -21.5 47.5t-4.5 100.5q0 27 -1.5 43.5t-9 39t-21 35.5t-39 22t-61.5 9h-200
v-297h-94zM179 621v-245h210q21 0 41.5 5t44 17t38 39t14.5 65q0 119 -152 119h-196z" />
    <glyph glyph-name="S" unicode="S" horiz-adv-x="656" 
d="M45 222h94q-2 -71 52 -117.5t148 -46.5q88 0 130 37t42 93q0 31 -12 53.5t-35 35.5t-43.5 20.5t-50.5 13.5q-13 3 -46.5 10t-46.5 9.5t-41.5 10t-40.5 12.5l-34.5 14.5t-32 19l-24 23.5t-20 29.5t-10.5 36t-5 44.5q0 97 72 149t193 52q122 0 187 -57.5t72 -145.5h-94
q-3 33 -18 57t-33 36.5t-42.5 20t-41 9t-33.5 1.5q-73 0 -117.5 -32t-44.5 -85q0 -24 10.5 -42.5t23 -29.5t41 -20.5t45.5 -13.5t55 -11q33 -6 48 -9.5l45.5 -11t46.5 -15t39.5 -19.5t36.5 -27t26.5 -34.5t19 -45t5.5 -56.5q0 -43 -13 -77.5t-31.5 -56t-47 -37t-52 -23
t-54 -12t-45.5 -5t-34 -0.5q-278 0 -289 243z" />
    <glyph glyph-name="T" unicode="T" horiz-adv-x="575" 
d="M241 621h-228v79h549v-79h-227v-621h-94v621z" />
    <glyph glyph-name="U" unicode="U" horiz-adv-x="696" 
d="M72 700h94v-417q0 -34 2 -57.5t12 -58t28 -56t54 -37.5t86 -16q100 0 141 55.5t41 169.5v417h94v-429q0 -59 -12 -106t-29.5 -77t-44 -52t-49.5 -32.5t-53.5 -16.5t-48 -7t-39.5 -1q-53 0 -95.5 10t-71 26.5t-49 41t-32 49t-18 55.5t-8.5 55.5t-2 54.5v429z" />
    <glyph glyph-name="V" unicode="V" horiz-adv-x="594" 
d="M297 97l198 603h103l-245 -700h-112l-245 700h103z" />
    <glyph glyph-name="W" unicode="W" horiz-adv-x="822" 
d="M411 589l-145 -589h-120l-186 700h106l146 -588l145 588h108l145 -588l146 588h106l-186 -700h-120z" />
    <glyph glyph-name="X" unicode="X" horiz-adv-x="570" 
d="M285 425l175 275h117l-232 -342l245 -358h-121l-184 291l-184 -291h-121l245 358l-232 342h117z" />
    <glyph glyph-name="Y" unicode="Y" horiz-adv-x="453" 
d="M227 376l194 324h112l-259 -408v-292h-94v292l-260 408h112z" />
    <glyph glyph-name="Z" unicode="Z" horiz-adv-x="593" 
d="M48 700h499v-75l-406 -546h426v-79h-541v86l411 535h-389v79z" />
    <glyph glyph-name="bracketleft" unicode="[" horiz-adv-x="370" 
d="M106 700h211v-62h-123v-761h123v-62h-211v885z" />
    <glyph glyph-name="backslash" unicode="\" horiz-adv-x="420" 
d="M420 -185h-63l-357 885h63z" />
    <glyph glyph-name="bracketright" unicode="]" horiz-adv-x="370" 
d="M53 700h211v-885h-211v62h122v761h-122v62z" />
    <glyph glyph-name="asciicircum" unicode="^" horiz-adv-x="442" 
d="M176 700h90l120 -218h-70l-95 175l-95 -175h-70z" />
    <glyph glyph-name="underscore" unicode="_" horiz-adv-x="497" 
d="M0 -185v52h497v-52h-497z" />
    <glyph glyph-name="grave" unicode="`" horiz-adv-x="312" 
d="M148 700l70 -132h-80l-96 132h106z" />
    <glyph glyph-name="a" unicode="a" horiz-adv-x="553" 
d="M139 358h-84q0 29 9 55.5t31 54t67.5 44t108.5 16.5q36 0 67.5 -6.5t64.5 -23t52 -52.5t18 -89l-5 -235q0 -18 0.5 -27t5.5 -18t16.5 -12.5t30.5 -2.5v-62q-16 -4 -40 -4q-42 0 -63 14t-28 60q-25 -46 -71.5 -68t-102.5 -22q-83 0 -131 38t-48 115q0 47 19 77t75 52.5
t155 31.5q65 5 79 13q20 13 20 57q0 102 -114 102q-135 0 -132 -108zM383 217l2 43q-10 -7 -22 -11.5t-22 -6t-31.5 -3.5t-36.5 -4q-83 -13 -107 -26q-38 -22 -38 -73q0 -43 27 -68.5t71 -25.5q39 0 70.5 13t57.5 54t29 108z" />
    <glyph glyph-name="b" unicode="b" horiz-adv-x="601" 
d="M72 700h88v-258q20 43 65 64.5t102 21.5q62 0 108 -23t68.5 -54t36 -73.5t16 -69t2.5 -53.5q0 -63 -15.5 -113t-39.5 -79.5t-56 -49t-61.5 -26.5t-60.5 -7q-107 0 -168 90h-3v-70h-82v700zM154 257q0 -111 44 -163t108 -52q69 0 114 51t45 162q0 107 -43 159t-111 52
q-69 0 -113 -52t-44 -157z" />
    <glyph glyph-name="c" unicode="c" horiz-adv-x="548" 
d="M428 181h84q-2 -23 -7.5 -44.5t-21 -51.5t-38 -52t-62.5 -37.5t-92 -15.5q-16 0 -30 1t-41 7t-48.5 16t-46.5 31t-42 49.5t-28.5 73t-11.5 100.5q0 49 10.5 92.5t36 85.5t75.5 67t120 25q101 0 157.5 -51t65.5 -128h-84q-19 117 -137 117q-78 0 -114.5 -57.5
t-36.5 -150.5t39 -154.5t118 -61.5q67 0 99.5 43t35.5 96z" />
    <glyph glyph-name="d" unicode="d" horiz-adv-x="599" 
d="M439 700h88v-700h-82v70h-3q-46 -90 -168 -90q-109 0 -170 75.5t-61 199.5q0 36 4.5 69.5t19.5 72t39.5 66.5t67 46.5t98.5 18.5q116 0 167 -86v258zM136 255q0 -55 12 -96t28.5 -62.5t40 -34.5t41 -16.5t35.5 -3.5q65 0 108.5 52.5t43.5 162.5q0 104 -44.5 156.5
t-112.5 52.5t-110 -52.5t-42 -158.5z" />
    <glyph glyph-name="e" unicode="e" horiz-adv-x="570" 
d="M438 147h84q-13 -68 -64.5 -117.5t-157.5 -49.5q-52 0 -93.5 13t-67.5 32.5t-45.5 47.5t-29 52t-14.5 53t-6 44t-1 30q0 23 2.5 45t9.5 56.5t24 63t43 55t69.5 41.5t99.5 15q58 0 101.5 -18t67.5 -44t39 -65.5t20 -71t7 -70.5q0 -4 0.5 -12.5t0.5 -12.5h-391
q1 -76 40.5 -134t120.5 -58q60 0 96.5 30t44.5 75zM136 296h298q-1 29 -7 55.5t-20.5 54t-43.5 44t-70 16.5q-37 0 -66 -12t-45.5 -29.5t-27.5 -41.5t-14.5 -45t-3.5 -42z" />
    <glyph glyph-name="f" unicode="f" horiz-adv-x="319" 
d="M306 508v-62h-111v-446h-88v446h-94v62h94v69q0 65 33 96t101 31q5 0 65 -4v-62q-21 1 -62 1q-49 0 -49 -70v-61h111z" />
    <glyph glyph-name="g" unicode="g" horiz-adv-x="600" 
d="M82 -57h84q19 -73 134 -73q33 0 58 9.5t39.5 26t24 33t13 37t4.5 31t1 21.5v55q-35 -58 -71.5 -80.5t-92.5 -22.5q-99 0 -164 69.5t-65 208.5q0 21 1.5 37.5t6.5 52.5t19.5 63.5t37 56t63 44.5t92.5 16q126 0 176 -90h3v70h82v-495q0 -55 -19.5 -96t-46 -61t-62 -32
t-57.5 -14.5t-43 -2.5h-26.5t-32 2.5t-38 7.5t-37 15t-36 24t-28 36.5t-20.5 50.5zM296 42q13 0 28.5 3.5t38 17t40 35.5t30.5 64t13 98q0 97 -41 151.5t-117 54.5q-148 0 -148 -205q0 -58 13 -101t30 -65t41 -34.5t40 -15.5t32 -3z" />
    <glyph glyph-name="h" unicode="h" horiz-adv-x="572" 
d="M72 700h88v-263q67 91 174 91q166 0 166 -190v-338h-88v311q0 27 -0.5 39.5t-5.5 39t-15.5 40t-32 25t-52.5 11.5q-23 0 -44 -6.5t-46 -24t-40.5 -58.5t-15.5 -100v-277h-88v700z" />
    <glyph glyph-name="i" unicode="i" horiz-adv-x="228" 
d="M70 508h88v-508h-88v508zM70 608v92h88v-92h-88z" />
    <glyph glyph-name="j" unicode="j" horiz-adv-x="231" 
d="M73 508h88v-555q0 -72 -26.5 -107t-93.5 -35q-9 0 -57 4v62q65 11 77 22.5t12 56.5v8v544zM73 608v92h88v-92h-88z" />
    <glyph glyph-name="k" unicode="k" horiz-adv-x="523" 
d="M160 266l242 242h105l-200 -196l220 -312h-102l-179 258l-86 -85v-173h-88v700h88v-434z" />
    <glyph glyph-name="l" unicode="l" horiz-adv-x="232" 
d="M72 700h88v-700h-88v700z" />
    <glyph glyph-name="m" unicode="m" horiz-adv-x="872" 
d="M72 508h88v-69l-1 -6q20 43 64 69t93 26q61 0 97 -31.5t48 -77.5q56 109 176 109q44 0 76 -16t48.5 -37.5t25.5 -52.5t11 -51t2 -43v-328h-88v322q0 144 -98 144q-54 0 -94 -37t-40 -126v-303h-88v321q0 145 -98 145q-56 0 -95 -45t-39 -118v-303h-88v508z" />
    <glyph glyph-name="n" unicode="n" horiz-adv-x="573" 
d="M72 508h88v-71q64 91 174 91q167 0 167 -190v-338h-88v311q0 26 -0.5 38t-5.5 38.5t-15.5 40.5t-32.5 26t-53 12q-23 0 -44 -6.5t-46 -24t-40.5 -58.5t-15.5 -100v-277h-88v508z" />
    <glyph glyph-name="o" unicode="o" horiz-adv-x="586" 
d="M43 254q0 53 13.5 100t41.5 87t78 63.5t117 23.5t117 -23.5t78 -63.5t41.5 -87t13.5 -100t-13.5 -100t-41.5 -87t-78 -63.5t-117 -23.5t-117 23.5t-78 63.5t-41.5 87t-13.5 100zM136 255q0 -58 13 -100t30.5 -63t42 -33t39.5 -14.5t32 -2.5t32 2.5t39.5 14.5t42 33
t30.5 63t13 100t-13 100t-30.5 63t-42 33t-39.5 14.5t-32 2.5t-32 -2.5t-39.5 -14.5t-42 -33t-30.5 -63t-13 -100z" />
    <glyph glyph-name="p" unicode="p" horiz-adv-x="597" 
d="M72 508h82v-70h3q61 90 168 90q100 0 164.5 -69t64.5 -205q0 -139 -65.5 -206.5t-161.5 -67.5q-13 0 -29.5 2.5t-43.5 10.5t-52.5 28.5t-41.5 51.5v-258h-88v693zM154 252q0 -107 48.5 -158.5t108.5 -51.5q62 0 106 50.5t44 161.5q0 98 -40.5 155t-114.5 57q-22 0 -44 -7
t-48.5 -27t-43 -66.5t-16.5 -113.5z" />
    <glyph glyph-name="q" unicode="q" horiz-adv-x="598" 
d="M444 508h82v-693h-88v257q-48 -92 -167 -92q-55 0 -97.5 19.5t-66.5 48.5t-39 68t-20 72t-5 66q0 119 59.5 196.5t171.5 77.5q111 0 167 -90h3v70zM136 254q0 -112 44.5 -162t107.5 -50q60 0 108 51t48 159q0 115 -44 164.5t-107 49.5q-68 0 -112.5 -51.5t-44.5 -160.5z
" />
    <glyph glyph-name="r" unicode="r" horiz-adv-x="369" 
d="M356 528v-62q-94 -5 -141.5 -45t-53.5 -133q-1 -18 -1 -54v-234h-88v508h88v-98h2q18 54 64.5 84.5t103.5 32.5z" />
    <glyph glyph-name="s" unicode="s" horiz-adv-x="506" 
d="M36 151h88q1 -56 41.5 -82.5t96.5 -26.5q33 0 57 8.5t35 19t17.5 26.5t7 23.5t0.5 18.5q0 15 -3 24.5t-13 21t-32.5 21t-58.5 17.5l-54 12q-39 9 -62.5 17t-48.5 24t-37 42.5t-12 64.5q0 41 17 70.5t45.5 45.5t61 23t69.5 7q49 0 87 -11t59.5 -27t35 -38t18.5 -39.5
t6 -37.5h-84q-1 14 -5.5 27t-16 29t-37 25.5t-60.5 9.5q-8 0 -15.5 -0.5t-25.5 -4.5t-30.5 -11.5t-23 -24t-10.5 -39.5q0 -13 3.5 -24t7.5 -18.5t14.5 -14.5l16.5 -11t22.5 -8.5t22.5 -6t26.5 -6t26.5 -5.5q38 -8 59.5 -14t48 -18t40.5 -26t23.5 -37t9.5 -53
q0 -45 -20.5 -78t-46 -49t-60 -25t-51.5 -10.5t-31 -1.5q-108 0 -165.5 48.5t-59.5 122.5z" />
    <glyph glyph-name="t" unicode="t" horiz-adv-x="320" 
d="M13 508h91v152h88v-152h108v-62h-108v-323v-5q0 -23 1.5 -34t14 -21t37.5 -10q24 0 55 9v-62q-47 -20 -92 -20q-30 0 -51 8.5t-31 19.5t-15.5 31t-6 31.5t-0.5 34.5v341h-91v62z" />
    <glyph glyph-name="u" unicode="u" horiz-adv-x="573" 
d="M501 0h-88v72h-2q-18 -31 -45 -51.5t-55 -28t-43.5 -10t-28.5 -2.5q-167 0 -167 191v337h88v-311q0 -89 27 -122t80 -33q146 0 146 189v277h88v-508z" />
    <glyph glyph-name="v" unicode="v" horiz-adv-x="470" 
d="M235 88l144 420h95l-188 -508h-102l-188 508h95z" />
    <glyph glyph-name="w" unicode="w" horiz-adv-x="720" 
d="M360 407l-106 -407h-94l-164 508h91l124 -407l106 407h86l106 -407l124 407h91l-164 -508h-94z" />
    <glyph glyph-name="x" unicode="x" horiz-adv-x="484" 
d="M242 320l130 188h98l-178 -243l192 -265h-98l-144 209l-144 -209h-98l192 265l-178 243h98z" />
    <glyph glyph-name="y" unicode="y" horiz-adv-x="498" 
d="M91 -184v65q32 -5 44 -5q19 0 32 6t22 20.5t14 25.5t12 34l12 38l-220 508h105l163 -411l135 411h88l-202 -568l-6 -16q-5 -17 -6.5 -20.5t-7.5 -18.5t-10.5 -19.5t-12.5 -16.5t-16.5 -16t-19.5 -10.5t-24.5 -9t-29.5 -2.5q-49 0 -72 5z" />
    <glyph glyph-name="z" unicode="z" horiz-adv-x="468" 
d="M47 508h380v-62l-295 -384h310v-62h-416v62l304 384h-283v62z" />
    <glyph glyph-name="braceleft" unicode="{" horiz-adv-x="366" 
d="M75 224v66q89 11 89 135q0 18 -2 54t-2 53q0 158 156 168v-53q-70 -15 -70 -95q0 -26 3 -53q3 -29 3 -57q0 -69 -27.5 -112.5t-88.5 -71.5v-2q61 -28 88.5 -71.5t27.5 -112.5q0 -28 -3 -57q-3 -27 -3 -53q0 -80 70 -95v-53q-156 10 -156 168q0 17 2 53t2 54
q0 124 -89 135z" />
    <glyph glyph-name="bar" unicode="|" horiz-adv-x="478" 
d="M208 -224v1053h62v-1053h-62z" />
    <glyph glyph-name="braceright" unicode="}" horiz-adv-x="366" 
d="M291 290v-66q-89 -11 -89 -135q0 -18 2 -54t2 -53q0 -158 -156 -168v53q70 15 70 95q0 26 -3 53q-3 29 -3 57q0 69 27.5 112.5t88.5 71.5v2q-61 28 -88.5 71.5t-27.5 112.5q0 28 3 57q3 27 3 53q0 80 -70 95v53q156 -10 156 -168q0 -17 -2 -53t-2 -54q0 -124 89 -135z
" />
    <glyph glyph-name="asciitilde" unicode="~" horiz-adv-x="600" 
d="M89 288l-39 16q47 128 133 128q44 0 87 -23l103 -55q1 -1 8 -4t19.5 -6t24.5 -3q54 0 86 81l39 -16q-47 -128 -133 -128q-44 0 -87 23l-103 55q-26 13 -53 13q-28 0 -51 -23.5t-34 -57.5z" />
    <glyph glyph-name="currency" unicode="&#xa4;" horiz-adv-x="825" 
d="M66 53l111 111q-52 74 -52 166q0 95 52 166l-111 112l66 66l110 -112q74 57 170 57q98 0 170 -57l111 112l66 -66l-111 -112q53 -72 53 -166q0 -91 -53 -166l111 -111l-66 -66l-111 111q-70 -56 -170 -56t-170 56l-110 -111zM199 330q0 -88 62.5 -151t150.5 -63
q89 0 152 63.5t63 150.5q0 88 -63.5 151.5t-151.5 63.5t-150.5 -63.5t-62.5 -151.5z" />
    <glyph glyph-name="brokenbar" unicode="&#xa6;" horiz-adv-x="478" 
d="M208 206h62v-430h-62v430zM270 399h-62v430h62v-430z" />
    <glyph glyph-name="section" unicode="&#xa7;" horiz-adv-x="579" 
d="M452 557h-74q-2 62 -26 82t-62 20q-37 0 -56 -19.5t-19 -51.5q0 -22 7 -38t26.5 -29.5t30.5 -19.5t44.5 -19.5t42.5 -17.5q75 -33 112 -76t37 -114q0 -40 -13.5 -71t-35 -48.5t-38.5 -26t-35 -13.5q61 -21 61 -112q0 -41 -15.5 -70.5t-35 -43.5t-48 -22.5t-44 -9.5
t-32.5 -1q-44 0 -77 14t-50 33.5t-27 46t-12 45.5t-2 38l74 -1q-2 -43 21 -76.5t72 -33.5q92 0 92 76q0 13 -3.5 24t-7 19t-13.5 16l-16 13t-21.5 12.5t-22.5 10.5t-27 11l-28 11q-33 14 -57 27t-52 36.5t-43 58t-15 77.5q0 66 33 107t86 52q-53 38 -53 117q0 57 41.5 96
t119.5 39q18 0 33 -1.5t41.5 -11t44 -26t30.5 -50t12 -79.5zM332 150q39 12 68.5 42.5t29.5 85.5q0 52 -38.5 86t-147.5 72q-96 -27 -96 -117q0 -15 2.5 -27.5t5.5 -22.5t11.5 -20.5t13 -17t18.5 -16l20 -13.5t25 -13t26 -12l30.5 -13.5t31.5 -13.5z" />
    <glyph glyph-name="copyright" unicode="&#xa9;" horiz-adv-x="806" 
d="M53 350q0 145 102 247.5t248 102.5t248 -102.5t102 -247.5t-102 -247.5t-248 -102.5t-248 102.5t-102 247.5zM119 350q0 -124 82.5 -210.5t201.5 -86.5t201.5 86.5t82.5 210.5t-82.5 210.5t-201.5 86.5t-201.5 -86.5t-82.5 -210.5zM485 297h66q-21 -125 -144 -125
q-48 0 -83 17.5t-52 46.5t-24 57t-7 58q0 54 15.5 93t41 58.5t51.5 28t54 8.5q52 0 95 -27.5t44 -87.5h-62q-6 65 -77 65q-94 0 -94 -138q0 -18 3.5 -36.5t13 -41t31 -37t51.5 -14.5q68 0 77 75z" />
    <glyph glyph-name="guillemotleft" unicode="&#xab;" horiz-adv-x="462" 
d="M105 272l106 -90v-82l-149 131v82l149 131v-82zM281 272l106 -90v-82l-149 131v82l149 131v-82z" />
    <glyph glyph-name="logicalnot" unicode="&#xac;" horiz-adv-x="600" 
d="M50 386h500v-202h-62v140h-438v62z" />
    <glyph glyph-name="registered" unicode="&#xae;" horiz-adv-x="806" 
d="M53 350q0 145 102 247.5t248 102.5t248 -102.5t102 -247.5t-102 -247.5t-248 -102.5t-248 102.5t-102 247.5zM119 350q0 -124 82.5 -210.5t201.5 -86.5t201.5 86.5t82.5 210.5t-82.5 210.5t-201.5 86.5t-201.5 -86.5t-82.5 -210.5zM275 178v350h155q18 0 34.5 -3.5
t36.5 -12.5t32 -31t12 -54q0 -56 -59 -80v-2q21 -4 32.5 -19t14 -28.5t3.5 -36.5q1 -11 1.5 -27t1 -21t1.5 -12.5t3.5 -12t6.5 -10.5h-67q-10 12 -12 43v21q-1 10 -1 16q0 16 -2 24.5t-9 19.5t-23.5 16t-42.5 5h-53v-145h-65zM340 480v-109h75q64 0 64 56q0 53 -71 53h-68z
" />
    <glyph glyph-name="degree" unicode="&#xb0;" horiz-adv-x="266" 
d="M37 605q0 40 28 68t68 28t68 -28t28 -68t-28 -68t-68 -28t-68 28t-28 68zM83 605q0 -20 15 -35t35 -15t35 15t15 35t-15 35t-35 15t-35 -15t-15 -35z" />
    <glyph glyph-name="plusminus" unicode="&#xb1;" horiz-adv-x="600" 
d="M50 451h219v199h62v-199h219v-62h-219v-179h-62v179h-219v62zM50 142h500v-62h-500v62z" />
    <glyph glyph-name="mu" unicode="&#xb5;" 
d="M173 52v-237h-88v693h88v-277q0 -181 117 -181t117 181v277h88v-386q0 -19 1.5 -30.5t12 -22t29.5 -8.5l10 1v-62q-40 -4 -43 -4q-98 0 -98 66q-42 -82 -117 -82q-34 0 -65.5 19t-51.5 53z" />
    <glyph glyph-name="mu" unicode="&#x3bc;" 
d="M173 52v-237h-88v693h88v-277q0 -181 117 -181t117 181v277h88v-386q0 -19 1.5 -30.5t12 -22t29.5 -8.5l10 1v-62q-40 -4 -43 -4q-98 0 -98 66q-42 -82 -117 -82q-34 0 -65.5 19t-51.5 53z" />
    <glyph glyph-name="paragraph" unicode="&#xb6;" horiz-adv-x="491" 
d="M205 -185v555q-70 2 -117.5 48.5t-47.5 116.5q0 69 48.5 117t116.5 48h62v-885h-62zM362 -185v885h62v-885h-62z" />
    <glyph glyph-name="periodcentered" unicode="&#xb7;" horiz-adv-x="250" 
d="M76 213v110h99v-110h-99z" />
    <glyph glyph-name="periodcentered" unicode="&#x2219;" horiz-adv-x="250" 
d="M76 213v110h99v-110h-99z" />
    <glyph glyph-name="guillemotright" unicode="&#xbb;" horiz-adv-x="462" 
d="M357 272l-106 90v82l149 -131v-82l-149 -131v82zM181 272l-106 90v82l149 -131v-82l-149 -131v82z" />
    <glyph glyph-name="afii10023" unicode="&#x401;" horiz-adv-x="613" 
d="M179 401h367v-79h-367v-243h417v-79h-511v700h500v-79h-406v-220zM187 772v79h94v-79h-94zM403 772v79h94v-79h-94z" />
    <glyph glyph-name="afii10051" unicode="&#x402;" horiz-adv-x="756" 
d="M13 621v79h527v-79h-227v-225q126 7 153 7q245 0 245 -204q0 -99 -56 -155.5t-155 -56.5q-43 0 -79 13v79q41 -13 71 -13q21 0 39 4t39.5 16t34 39t12.5 67q0 63 -35.5 97.5t-133.5 34.5q-30 0 -135 -7v-317h-94v621h-206z" />
    <glyph glyph-name="afii10052" unicode="&#x403;" horiz-adv-x="544" 
d="M179 621v-621h-94v700h446v-79h-352zM279 900h112l-102 -140h-84z" />
    <glyph glyph-name="afii10053" unicode="&#x404;" horiz-adv-x="724" 
d="M490 400v-79h-345q2 -71 21 -122.5t43 -77.5t59 -41.5t59 -18.5t52 -3q50 0 88.5 16.5t60.5 45t34 58.5t17 65h100q-4 -35 -14 -68t-32 -69.5t-54 -63.5t-83.5 -45t-116.5 -18q-84 0 -147 26.5t-98 65.5t-56 93.5t-27 99.5t-6 94q0 50 8 96t30 96t57.5 86.5t95 60.5
t137.5 24q75 0 132.5 -21.5t89 -56.5t48 -71.5t20.5 -75.5h-100q-5 26 -16 49t-31.5 46t-58 37t-86.5 14q-111 0 -167 -69t-59 -173h345z" />
    <glyph glyph-name="afii10054" unicode="&#x405;" horiz-adv-x="656" 
d="M45 222h94q-2 -71 52 -117.5t148 -46.5q88 0 130 37t42 93q0 31 -12 53.5t-35 35.5t-43.5 20.5t-50.5 13.5q-13 3 -46.5 10t-46.5 9.5t-41.5 10t-40.5 12.5l-34.5 14.5t-32 19l-24 23.5t-20 29.5t-10.5 36t-5 44.5q0 97 72 149t193 52q122 0 187 -57.5t72 -145.5h-94
q-3 33 -18 57t-33 36.5t-42.5 20t-41 9t-33.5 1.5q-73 0 -117.5 -32t-44.5 -85q0 -24 10.5 -42.5t23 -29.5t41 -20.5t45.5 -13.5t55 -11q33 -6 48 -9.5l45.5 -11t46.5 -15t39.5 -19.5t36.5 -27t26.5 -34.5t19 -45t5.5 -56.5q0 -43 -13 -77.5t-31.5 -56t-47 -37t-52 -23
t-54 -12t-45.5 -5t-34 -0.5q-278 0 -289 243z" />
    <glyph glyph-name="afii10055" unicode="&#x406;" horiz-adv-x="264" 
d="M85 700h94v-700h-94v700z" />
    <glyph glyph-name="afii10056" unicode="&#x407;" horiz-adv-x="304" 
d="M105 700h94v-700h-94v700zM27 772v79h94v-79h-94zM183 772v79h94v-79h-94z" />
    <glyph glyph-name="afii10057" unicode="&#x408;" horiz-adv-x="520" 
d="M23 232h94q1 -89 27 -131.5t94 -42.5q69 0 92.5 44t23.5 131v467h94v-458q0 -139 -48.5 -201t-162.5 -62q-214 0 -214 217v36z" />
    <glyph glyph-name="afii10058" unicode="&#x409;" horiz-adv-x="1078" 
d="M14 0v82q8 -2 25 -2q140 0 140 319v301h438v-285h201q19 0 39.5 -2t57 -14t63.5 -32.5t47.5 -62.5t20.5 -99q0 -22 -3.5 -43.5t-17.5 -52.5t-37 -53.5t-67 -39t-103 -16.5h-295v621h-251v-242q0 -85 -10.5 -150.5t-35 -119.5t-69.5 -83t-109 -29q-18 0 -34 3zM617 336
v-257h189q16 0 33 3.5t45 14t46 39.5t18 72q0 128 -154 128h-177z" />
    <glyph glyph-name="afii10059" unicode="&#x40a;" horiz-adv-x="1083" 
d="M179 336v-336h-94v700h94v-285h352v285h94v-285h201q17 0 36.5 -2t56 -14t63.5 -32.5t48 -62.5t21 -99q0 -37 -10 -70.5t-33.5 -65t-70 -50.5t-111.5 -19h-295v336h-352zM625 336v-257h190q15 0 32 3.5t44.5 14t45.5 39.5t18 72q0 128 -152 128h-178z" />
    <glyph glyph-name="afii10060" unicode="&#x40b;" horiz-adv-x="800" 
d="M710 0h-94v205q0 76 -36.5 97.5t-131.5 21.5q-37 0 -135 -7v-317h-94v621h-206v79h527v-79h-227v-225q129 7 153 7q145 0 194.5 -40t49.5 -143v-220z" />
    <glyph glyph-name="afii10061" unicode="&#x40c;" horiz-adv-x="627" 
d="M179 381l315 319h115l-333 -324l355 -376h-123l-329 365v-365h-94v700h94v-319zM320 900h112l-102 -140h-84z" />
    <glyph glyph-name="afii10062" unicode="&#x40e;" horiz-adv-x="588" 
d="M325 279l168 421h99l-237 -575q-20 -47 -42 -76.5t-48 -41t-43.5 -14.5t-44.5 -3q-42 0 -78 10v82q30 -11 66 -11q24 0 40.5 5t36 29.5t33.5 68.5l-266 526h115zM111 870h78q1 -38 30.5 -61t74.5 -23q55 0 78.5 26t26.5 58h78q-5 -25 -15 -46.5t-29.5 -44t-55 -36
t-83.5 -13.5t-83.5 13.5t-55 36t-29.5 44t-15 46.5z" />
    <glyph glyph-name="afii10145" unicode="&#x40f;" horiz-adv-x="724" 
d="M540 79v621h94v-700h-227v-189h-90v189h-227v700h94v-621h356z" />
    <glyph glyph-name="afii10017" unicode="&#x410;" horiz-adv-x="622" 
d="M163 181l-66 -181h-101l265 700h100l265 -700h-101l-66 181h-296zM189 260h244l-122 345z" />
    <glyph glyph-name="afii10018" unicode="&#x411;" horiz-adv-x="668" 
d="M179 621v-210h215q234 0 234 -208q0 -38 -10.5 -71.5t-34.5 -64.5t-72.5 -49t-115.5 -18h-310v700h497v-79h-403zM179 332v-253h196q157 0 157 123q0 130 -157 130h-196z" />
    <glyph glyph-name="afii10019" unicode="&#x412;" horiz-adv-x="689" 
d="M85 700h307q61 0 104 -15.5t64.5 -43t31 -56.5t9.5 -63q0 -56 -33.5 -98.5t-83.5 -51.5v-3q25 -4 48 -14t46.5 -29t38 -53t14.5 -78q0 -195 -250 -195h-296v700zM179 621v-218h189q72 0 104.5 30.5t32.5 78.5q0 18 -5 34.5t-17.5 34.5t-41 29t-70.5 11h-192zM179 324
v-245h195q24 0 42.5 2t42 9t39 20t26.5 36.5t11 56.5q0 121 -161 121h-195z" />
    <glyph glyph-name="afii10020" unicode="&#x413;" horiz-adv-x="544" 
d="M179 621v-621h-94v700h446v-79h-352z" />
    <glyph glyph-name="afii10021" unicode="&#x414;" horiz-adv-x="738" 
d="M624 79h101l-9 -237h-82v158h-544v-158h-82l-8 237h63q133 164 133 477v144h428v-621zM530 621h-240v-87q0 -146 -25 -252.5t-90 -202.5h355v542z" />
    <glyph glyph-name="afii10022" unicode="&#x415;" horiz-adv-x="612" 
d="M179 401h367v-79h-367v-243h416v-79h-510v700h499v-79h-405v-220z" />
    <glyph glyph-name="afii10024" unicode="&#x416;" horiz-adv-x="908" 
d="M407 0v349l-297 -349h-114l323 375l-309 325h112l285 -308v308h94v-308l285 308h112l-309 -325l323 -375h-114l-297 349v-349h-94z" />
    <glyph glyph-name="afii10025" unicode="&#x417;" horiz-adv-x="667" 
d="M45 215h94q11 -157 199 -157q94 0 134.5 41.5t40.5 97.5q0 132 -160 132h-92v79h83q19 0 36.5 2.5t44.5 12t43.5 34t16.5 62.5q0 42 -19.5 69.5t-51.5 37.5t-51 13t-39 3q-21 0 -40 -3t-53 -14t-56 -41.5t-24 -77.5h-94q14 215 274 215q117 0 183.5 -49.5t66.5 -146.5
q0 -58 -32.5 -100t-86.5 -52v-2q147 -34 147 -183q0 -38 -12 -72.5t-40 -66.5t-82.5 -51t-130.5 -19q-288 0 -299 236z" />
    <glyph glyph-name="afii10026" unicode="&#x418;" horiz-adv-x="731" 
d="M179 137l373 563h94v-700h-94v567l-373 -567h-94v700h94v-563z" />
    <glyph glyph-name="afii10027" unicode="&#x419;" horiz-adv-x="731" 
d="M179 137l373 563h94v-700h-94v567l-373 -567h-94v700h94v-563zM194 858h75q2 -33 26 -56t71 -23t71 23t26 56h75q-29 -132 -172 -132t-172 132z" />
    <glyph glyph-name="afii10028" unicode="&#x41a;" horiz-adv-x="627" 
d="M179 381l315 319h115l-333 -324l355 -376h-123l-329 365v-365h-94v700h94v-319z" />
    <glyph glyph-name="afii10029" unicode="&#x41b;" horiz-adv-x="702" 
d="M13 0v82q75 -14 120 58.5t45 258.5v301h439v-700h-94v621h-251v-242q0 -117 -20.5 -198.5t-57 -122t-81.5 -54t-100 -4.5z" />
    <glyph glyph-name="afii10030" unicode="&#x41c;" horiz-adv-x="890" 
d="M407 0l-228 588h-2l2 -27v-561h-94v700h141l219 -576l219 576h141v-700h-94v561l2 27h-3l-227 -588h-76z" />
    <glyph glyph-name="afii10031" unicode="&#x41d;" horiz-adv-x="710" 
d="M179 329v-329h-94v700h94v-292h352v292h94v-700h-94v329h-352z" />
    <glyph glyph-name="afii10032" unicode="&#x41e;" horiz-adv-x="758" 
d="M45 350q0 179 91.5 275t242.5 96q49 0 94.5 -11t90 -38t77 -68t52.5 -106.5t20 -147.5q0 -75 -17 -135.5t-41.5 -98.5t-60 -65.5t-65.5 -41t-65.5 -21t-52 -8.5t-32.5 -1q-17 0 -33.5 1t-52 8.5t-65.5 21t-65.5 41t-60 65.5t-41 98.5t-16.5 135.5zM145 350q0 -39 5 -74.5
t20 -76.5t40 -71t68.5 -50t100.5 -20q15 0 29 1t38.5 7.5t45.5 17.5t44 33t39.5 51.5t27 76.5t10.5 105q0 131 -59 211.5t-175 80.5q-44 0 -80 -12.5t-60 -32t-42 -46.5t-27.5 -53.5t-15.5 -56.5t-7.5 -50.5t-1.5 -40.5z" />
    <glyph glyph-name="afii10033" unicode="&#x41f;" horiz-adv-x="710" 
d="M179 621v-621h-94v700h540v-700h-94v621h-352z" />
    <glyph glyph-name="afii10034" unicode="&#x420;" horiz-adv-x="639" 
d="M85 700h285q237 0 237 -201q0 -220 -246 -220h-182v-279h-94v700zM179 621v-263h172q160 0 160 139q0 64 -39 94t-121 30h-172z" />
    <glyph glyph-name="afii10035" unicode="&#x421;" horiz-adv-x="712" 
d="M580 232h94q-5 -44 -20.5 -83.5t-47 -80t-90.5 -65t-138 -24.5q-156 0 -244.5 95.5t-88.5 263.5q0 76 15.5 138t39 101t57 68t63 43t64.5 22t53.5 9.5t37.5 1.5q265 0 290 -237h-94q-2 24 -11 47t-28.5 50t-60 44t-96.5 17q-63 0 -109.5 -25t-71.5 -68.5t-37 -94.5
t-12 -112q0 -125 64 -204.5t173 -79.5q83 0 138 49t60 125z" />
    <glyph glyph-name="afii10036" unicode="&#x422;" horiz-adv-x="575" 
d="M241 621h-228v79h549v-79h-227v-621h-94v621z" />
    <glyph glyph-name="afii10037" unicode="&#x423;" horiz-adv-x="588" 
d="M325 279l168 421h99l-237 -575q-20 -47 -42 -76.5t-48 -41t-43.5 -14.5t-44.5 -3q-42 0 -78 10v82q30 -11 66 -11q24 0 40.5 5t36 29.5t33.5 68.5l-266 526h115z" />
    <glyph glyph-name="afii10038" unicode="&#x424;" horiz-adv-x="890" 
d="M398 -26v105h-39q-18 0 -37 1.5t-52 7.5t-61.5 16.5t-60.5 31.5t-54 49.5t-37 72.5t-15 99q0 16 1.5 33t8.5 46t19.5 54t36.5 52.5t56 47t82.5 32t112.5 12.5h39v106h94v-106h39q41 0 80 -6t83.5 -24t77 -47.5t54.5 -81t22 -118.5q0 -71 -25 -124.5t-60 -81.5
t-82.5 -45.5t-82 -22t-67.5 -4.5h-39v-105h-94zM398 153v407h-26q-47 0 -84 -9t-61 -22t-41 -33.5t-25 -37.5t-13 -39.5t-5.5 -34t-0.5 -27.5t0.5 -28t5.5 -35t13 -40t25 -37t41 -33t61 -22t84 -9h26zM492 153h27q229 0 229 204q0 203 -229 203h-27v-407z" />
    <glyph glyph-name="afii10039" unicode="&#x425;" horiz-adv-x="610" 
d="M305 425l175 275h117l-232 -342l245 -358h-121l-184 291l-184 -291h-121l245 358l-232 342h117z" />
    <glyph glyph-name="afii10040" unicode="&#x426;" horiz-adv-x="739" 
d="M179 79h355v621h94v-621h98l-7 -237h-82v158h-552v700h94v-621z" />
    <glyph glyph-name="afii10041" unicode="&#x427;" horiz-adv-x="636" 
d="M58 700h94v-205q0 -76 37.5 -97.5t131.5 -21.5q21 0 136 7v317h94v-700h-94v304q-130 -7 -154 -7q-135 0 -190 37.5t-55 145.5v220z" />
    <glyph glyph-name="afii10042" unicode="&#x428;" horiz-adv-x="1018" 
d="M179 79h283v621h94v-621h283v621h94v-700h-848v700h94v-621z" />
    <glyph glyph-name="afii10043" unicode="&#x429;" horiz-adv-x="1050" 
d="M179 700v-621h283v621h94v-621h283v621h94v-621h104l-9 -237h-82v158h-861v700h94z" />
    <glyph glyph-name="afii10044" unicode="&#x42a;" horiz-adv-x="718" 
d="M259 700v-285h201q29 0 56 -4.5t59.5 -18t55.5 -36t39 -61.5t16 -90q0 -52 -17 -91.5t-41 -60t-57.5 -33.5t-58.5 -16.5t-52 -3.5h-295v621h-152v79h246zM259 336v-257h190q11 0 23.5 1.5t35 8.5t39.5 19.5t30 38.5t13 61q0 128 -154 128h-177z" />
    <glyph glyph-name="afii10045" unicode="&#x42b;" horiz-adv-x="858" 
d="M179 700v-285h202q107 0 166 -55t59 -155q0 -52 -16.5 -91.5t-40.5 -60.5t-57 -33.5t-58.5 -16t-52.5 -3.5h-296v700h94zM179 336v-257h189q17 0 34 2.5t37.5 11t35.5 22t25 38t10 55.5q0 27 -7.5 48t-17 34.5t-28.5 23t-32 13.5t-38 6.5t-35 2.5h-34h-139zM679 700h94
v-700h-94v700z" />
    <glyph glyph-name="afii10046" unicode="&#x42c;" horiz-adv-x="638" 
d="M179 700v-285h201q29 0 56 -4.5t59.5 -18t55.5 -36t39 -61.5t16 -90q0 -52 -17 -91.5t-41 -60t-57.5 -33.5t-58.5 -16.5t-52 -3.5h-295v700h94zM179 336v-257h190q11 0 23.5 1.5t35 8.5t39.5 19.5t30 38.5t13 61q0 128 -153 128h-178z" />
    <glyph glyph-name="afii10047" unicode="&#x42d;" horiz-adv-x="719" 
d="M244 401h330q-1 23 -4.5 46.5t-17.5 61t-36 65t-65.5 48t-101.5 20.5q-88 0 -140 -42t-60 -104h-94q7 92 79.5 158.5t205.5 66.5q80 0 141.5 -24.5t97 -61t58 -87.5t30 -96.5t7.5 -93.5q0 -49 -6 -93.5t-27 -99t-55.5 -93.5t-96.5 -66t-145 -27q-63 0 -114 17.5t-83 44.5
t-54.5 63.5t-33 70t-14.5 68.5h94q3 -20 9 -40.5t21.5 -48t37 -47.5t58.5 -34.5t83 -14.5q52 0 93 16t64.5 40t39 56.5t21.5 60.5t8 58q2 17 0 33h-330v79z" />
    <glyph glyph-name="afii10048" unicode="&#x42e;" horiz-adv-x="993" 
d="M179 408h105q4 60 25.5 114t60 99.5t101 72.5t142.5 27q150 0 242.5 -96.5t92.5 -274.5q0 -79 -19.5 -144.5t-58.5 -117t-104.5 -80.5t-152.5 -29q-74 0 -132.5 21.5t-94 55.5t-60 81.5t-34.5 93.5t-12 98h-101v-329h-94v700h94v-292zM614 58q58 0 101.5 20t68 50
t39.5 71.5t20 77t5 73.5q0 74 -17.5 130t-42.5 85.5t-59.5 48t-60.5 23.5t-54 5q-27 0 -53 -5t-60.5 -23t-59.5 -48t-43 -86t-18 -130q0 -60 13 -110.5t39.5 -92.5t73 -65.5t108.5 -23.5z" />
    <glyph glyph-name="afii10049" unicode="&#x42f;" horiz-adv-x="680" 
d="M501 278h-159l-171 -278h-116l190 288q-29 2 -58 11.5t-60.5 30t-51.5 62.5t-20 99q0 94 57 151.5t184 57.5h299v-700h-94v278zM501 621h-197q-85 0 -119 -39.5t-34 -91.5q0 -133 166 -133h184v264z" />
    <glyph glyph-name="afii10065" unicode="&#x430;" horiz-adv-x="553" 
d="M139 358h-84q0 29 9 55.5t31 54t67.5 44t108.5 16.5q36 0 67.5 -6.5t64.5 -23t52 -52.5t18 -89l-5 -235q0 -18 0.5 -27t5.5 -18t16.5 -12.5t30.5 -2.5v-62q-16 -4 -40 -4q-42 0 -63 14t-28 60q-25 -46 -71.5 -68t-102.5 -22q-83 0 -131 38t-48 115q0 47 19 77t75 52.5
t155 31.5q65 5 79 13q20 13 20 57q0 102 -114 102q-135 0 -132 -108zM383 217l2 43q-10 -7 -22 -11.5t-22 -6t-31.5 -3.5t-36.5 -4q-83 -13 -107 -26q-38 -22 -38 -73q0 -43 27 -68.5t71 -25.5q39 0 70.5 13t57.5 54t29 108z" />
    <glyph glyph-name="afii10066" unicode="&#x431;" horiz-adv-x="592" 
d="M433 733h75q-2 -38 -19.5 -62t-48 -35t-60 -15.5t-69 -9t-61.5 -10.5q-64 -18 -102 -66t-40 -144h2q49 129 197 129q63 0 111 -23t76 -62.5t41.5 -87t13.5 -101.5q0 -110 -63 -188t-187 -78q-50 0 -90.5 14t-66.5 36t-45.5 54t-29.5 62t-15.5 66.5t-7 60t-1.5 50.5
q0 78 10.5 137.5t28 97t44.5 63t54 38t63 20.5q35 8 70 13t52.5 6.5t33 5t23 10t11.5 19.5zM136 240q0 -33 7 -64.5t23 -63t50 -51t81 -19.5q77 0 118 52t41 142q0 29 -3 55t-13 58t-26 54.5t-46.5 38.5t-70.5 16q-50 0 -84.5 -22t-50 -58.5t-21 -69t-5.5 -68.5z" />
    <glyph glyph-name="afii10067" unicode="&#x432;" horiz-adv-x="539" 
d="M72 508h242q161 0 161 -121q0 -31 -11 -55t-29.5 -37t-29.5 -18.5t-22 -8.5v-3q111 -26 111 -133q0 -41 -16 -69t-45 -41t-57.5 -17.5t-64.5 -4.5h-239v508zM160 446v-150h122q56 0 80 23t24 55q0 72 -100 72h-126zM160 234v-172h129q114 0 114 78q0 94 -117 94h-126z
" />
    <glyph glyph-name="afii10068" unicode="&#x433;" horiz-adv-x="433" 
d="M160 446v-446h-88v508h348v-62h-260z" />
    <glyph glyph-name="afii10069" unicode="&#x434;" horiz-adv-x="603" 
d="M0 62h64q83 122 83 361v85h364v-446h88l-7 -194h-74v132h-436v-132h-74zM423 446h-194v-71q0 -81 -17.5 -168.5t-54.5 -144.5h266v384z" />
    <glyph glyph-name="afii10070" unicode="&#x435;" horiz-adv-x="570" 
d="M438 147h84q-13 -68 -64.5 -117.5t-157.5 -49.5q-52 0 -93.5 13t-67.5 32.5t-45.5 47.5t-29 52t-14.5 53t-6 44t-1 30q0 23 2.5 45t9.5 56.5t24 63t43 55t69.5 41.5t99.5 15q58 0 101.5 -18t67.5 -44t39 -65.5t20 -71t7 -70.5q0 -4 0.5 -12.5t0.5 -12.5h-391
q1 -76 40.5 -134t120.5 -58q60 0 96.5 30t44.5 75zM136 296h298q-1 29 -7 55.5t-20.5 54t-43.5 44t-70 16.5q-37 0 -66 -12t-45.5 -29.5t-27.5 -41.5t-14.5 -45t-3.5 -42z" />
    <glyph glyph-name="afii10072" unicode="&#x436;" horiz-adv-x="702" 
d="M307 0v251l-202 -251h-109l233 267l-220 241h104l194 -230v230h88v-230l194 230h104l-220 -241l233 -267h-109l-202 251v-251h-88z" />
    <glyph glyph-name="afii10073" unicode="&#x437;" horiz-adv-x="517" 
d="M32 156h84q1 -47 36 -80.5t99 -33.5q60 0 96 25t36 75q0 91 -115 91h-75v62h65q106 0 106 79q0 13 -3.5 26t-14 29.5t-35.5 26.5t-62 10q-66 0 -92.5 -31t-27.5 -67h-84q3 53 27.5 88t62 49t64.5 18.5t55 4.5q51 0 90 -11.5t59.5 -27.5t33 -38t15.5 -38t3 -33
q0 -52 -27.5 -77.5t-60.5 -33.5v-3q45 -8 76 -40t31 -90q0 -27 -9 -52t-31 -49.5t-67 -39.5t-109 -15q-56 0 -98 13t-65 32t-38 45t-19.5 45.5t-5.5 40.5z" />
    <glyph glyph-name="afii10074" unicode="&#x438;" horiz-adv-x="595" 
d="M160 103l265 405h98v-508h-88v406l-264 -406h-99v508h88v-405z" />
    <glyph glyph-name="afii10075" unicode="&#x439;" horiz-adv-x="595" 
d="M160 103l265 405h98v-508h-88v406l-264 -406h-99v508h88v-405zM392 700h75q-21 -112 -132 -129q-20 -3 -40 -3q-129 0 -165 105q-3 9 -7 27h75q-3 -26 18 -49q15 -16 35 -24q17 -6 44 -6q42 0 70.5 21.5t26.5 57.5z" />
    <glyph glyph-name="afii10076" unicode="&#x43a;" horiz-adv-x="489" 
d="M160 286l217 222h103l-238 -236l251 -272h-105l-228 254v-254h-88v508h88v-222z" />
    <glyph glyph-name="afii10077" unicode="&#x43b;" horiz-adv-x="559" 
d="M13 0v65q29 -6 50.5 1t34.5 28t21 42t11 57.5t4 60.5t1 63v191h352v-508h-88v446h-182v-129q0 -62 -3 -105.5t-15 -92t-33 -75.5t-60 -40.5t-93 -3.5z" />
    <glyph glyph-name="afii10078" unicode="&#x43c;" horiz-adv-x="732" 
d="M332 0l-172 408h-2l2 -27v-381h-88v508h121l173 -413l173 413h121v-508h-88v381l3 27h-3l-172 -408h-68z" />
    <glyph glyph-name="afii10079" unicode="&#x43d;" horiz-adv-x="571" 
d="M160 237v-237h-88v508h88v-209h251v209h88v-508h-88v237h-251z" />
    <glyph glyph-name="afii10080" unicode="&#x43e;" horiz-adv-x="586" 
d="M43 254q0 53 13.5 100t41.5 87t78 63.5t117 23.5t117 -23.5t78 -63.5t41.5 -87t13.5 -100t-13.5 -100t-41.5 -87t-78 -63.5t-117 -23.5t-117 23.5t-78 63.5t-41.5 87t-13.5 100zM136 255q0 -58 13 -100t30.5 -63t42 -33t39.5 -14.5t32 -2.5t32 2.5t39.5 14.5t42 33
t30.5 63t13 100t-13 100t-30.5 63t-42 33t-39.5 14.5t-32 2.5t-32 -2.5t-39.5 -14.5t-42 -33t-30.5 -63t-13 -100z" />
    <glyph glyph-name="afii10081" unicode="&#x43f;" horiz-adv-x="577" 
d="M160 446v-446h-88v508h433v-508h-88v446h-257z" />
    <glyph glyph-name="afii10082" unicode="&#x440;" horiz-adv-x="597" 
d="M72 508h82v-70h3q61 90 168 90q100 0 164.5 -69t64.5 -205q0 -139 -65.5 -206.5t-161.5 -67.5q-13 0 -29.5 2.5t-43.5 10.5t-52.5 28.5t-41.5 51.5v-258h-88v693zM154 252q0 -107 48.5 -158.5t108.5 -51.5q62 0 106 50.5t44 161.5q0 98 -40.5 155t-114.5 57q-22 0 -44 -7
t-48.5 -27t-43 -66.5t-16.5 -113.5z" />
    <glyph glyph-name="afii10083" unicode="&#x441;" horiz-adv-x="548" 
d="M428 181h84q-2 -23 -7.5 -44.5t-21 -51.5t-38 -52t-62.5 -37.5t-92 -15.5q-16 0 -30 1t-41 7t-48.5 16t-46.5 31t-42 49.5t-28.5 73t-11.5 100.5q0 49 10.5 92.5t36 85.5t75.5 67t120 25q101 0 157.5 -51t65.5 -128h-84q-19 117 -137 117q-78 0 -114.5 -57.5
t-36.5 -150.5t39 -154.5t118 -61.5q67 0 99.5 43t35.5 96z" />
    <glyph glyph-name="afii10084" unicode="&#x442;" horiz-adv-x="466" 
d="M189 446h-176v62h440v-62h-176v-446h-88v446z" />
    <glyph glyph-name="afii10085" unicode="&#x443;" horiz-adv-x="498" 
d="M91 -184v65q32 -5 44 -5q19 0 32 6t22 20.5t14 25.5t12 34l12 38l-220 508h105l163 -411l135 411h88l-202 -568l-6 -16q-5 -17 -6.5 -20.5t-7.5 -18.5t-10.5 -19.5t-12.5 -16.5t-16.5 -16t-19.5 -10.5t-24.5 -9t-29.5 -2.5q-49 0 -72 5z" />
    <glyph glyph-name="afii10086" unicode="&#x444;" horiz-adv-x="794" 
d="M353 -185v172q-70 1 -124.5 17t-88.5 41t-56.5 60t-31.5 72t-9 80q0 34 6 65.5t26 70.5t52 66.5t90.5 45.5t135.5 15v180h88v-180q39 1 77.5 -4t82 -22t75.5 -44.5t53.5 -77.5t21.5 -115q0 -122 -74 -194t-236 -76v-172h-88zM353 49v409q-36 3 -71 -5t-69.5 -28
t-55.5 -63t-21 -104q0 -52 15.5 -91.5t38.5 -61.5t54 -35t56.5 -17t52.5 -4zM441 458v-409q64 0 109.5 20t67.5 53t31 66t9 70q0 24 -4 48t-18 54t-36.5 52t-63.5 35.5t-95 10.5z" />
    <glyph glyph-name="afii10087" unicode="&#x445;" horiz-adv-x="484" 
d="M242 320l130 188h98l-178 -243l192 -265h-98l-144 209l-144 -209h-98l192 265l-178 243h98z" />
    <glyph glyph-name="afii10088" unicode="&#x446;" horiz-adv-x="596" 
d="M160 62h256v446h88v-446h88l-7 -194h-74v132h-439v508h88v-446z" />
    <glyph glyph-name="afii10089" unicode="&#x447;" horiz-adv-x="508" 
d="M45 508h88v-156q0 -25 2 -36t12 -24.5t34.5 -18t66.5 -4.5q20 0 58 2q14 1 42 1v236h88v-508h-88v210q-64 -3 -118 -3q-64 0 -104 9.5t-56.5 30.5t-20.5 39.5t-4 51.5v170z" />
    <glyph glyph-name="afii10090" unicode="&#x448;" horiz-adv-x="832" 
d="M160 62h212v446h88v-446h212v446h88v-508h-688v508h88v-446z" />
    <glyph glyph-name="afii10091" unicode="&#x449;" horiz-adv-x="850" 
d="M160 62h212v446h88v-446h212v446h88v-446h86l-8 -194h-74v132h-692v508h88v-446z" />
    <glyph glyph-name="afii10092" unicode="&#x44a;" horiz-adv-x="590" 
d="M13 446v62h220v-201h127q28 0 49.5 -1.5t53 -10.5t51.5 -24.5t35 -46t15 -72.5q0 -152 -173 -152h-246v446h-132zM233 245v-183h123q117 0 117 96q0 25 -9.5 43t-21 26t-32.5 12.5t-32 5t-30 0.5h-8h-107z" />
    <glyph glyph-name="afii10093" unicode="&#x44b;" horiz-adv-x="714" 
d="M72 508h88v-201h128q28 0 49.5 -1.5t52.5 -10.5t51.5 -24.5t35.5 -46t15 -72.5q0 -66 -40 -109t-134 -43h-246v508zM160 245v-183h123q118 0 118 96q0 25 -9.5 42.5t-21 26t-33.5 13t-34 5t-36 0.5h-107zM554 508h88v-508h-88v508z" />
    <glyph glyph-name="afii10094" unicode="&#x44c;" horiz-adv-x="514" 
d="M72 508h88v-202h127q37 0 65.5 -4t63.5 -17.5t55 -45.5t20 -81q0 -43 -14.5 -74.5t-33.5 -47t-46.5 -24.5t-44 -10.5t-35.5 -1.5h-245v508zM160 244v-182h122q33 0 56.5 7.5t35 17.5t18 25.5t7.5 24.5t1 21q0 25 -9.5 42.5t-20.5 26t-32 12.5t-31.5 4.5t-30.5 0.5h-9
h-107z" />
    <glyph glyph-name="afii10095" unicode="&#x44d;" horiz-adv-x="553" 
d="M198 233v62h219q-2 45 -14 78.5t-28 50.5t-37 27t-35.5 12.5t-29.5 2.5q-66 0 -105 -33t-43 -84h-84q6 48 27 84t45 53.5t57 27.5t52.5 12t41.5 2q246 0 246 -278q0 -270 -241 -270q-27 0 -48.5 2t-54.5 13t-56.5 30.5t-44 58t-28.5 92.5h84q17 -134 148 -134q40 0 69 16
t44 37.5t23.5 50.5t10 48.5t1.5 38.5h-219z" />
    <glyph glyph-name="afii10096" unicode="&#x44e;" horiz-adv-x="780" 
d="M160 299h80q9 94 70 161.5t177 67.5q108 0 179 -67t71 -206q0 -77 -24 -133t-54.5 -82t-72 -41t-60.5 -17t-37 -2q-55 0 -98 16.5t-69.5 41.5t-45 60.5t-26 68.5t-10.5 70h-80v-237h-88v508h88v-209zM333 255q0 -27 3 -52t13 -55.5t26 -53t45.5 -37.5t68.5 -15
q43 0 74 19t46 43t23.5 58.5t10 53.5t1.5 39t-1.5 39t-10 53t-23.5 58t-46 42.5t-74 18.5q-16 0 -31 -2t-39.5 -14t-42 -33t-30.5 -63t-13 -99z" />
    <glyph glyph-name="afii10097" unicode="&#x44f;" horiz-adv-x="543" 
d="M267 200l-133 -200h-97l140 201q-55 6 -92.5 44t-37.5 103q0 28 7 53t24 50.5t53 41t87 15.5h253v-508h-88v200h-116zM383 446h-127q-118 0 -118 -95q0 -36 27 -62.5t94 -26.5h124v184z" />
    <glyph glyph-name="afii10071" unicode="&#x451;" horiz-adv-x="572" 
d="M436 147h84q-7 -30 -19.5 -56t-36.5 -53t-66.5 -42.5t-98.5 -15.5q-70 0 -122 23t-80 63t-41 86t-13 100q0 52 10.5 96t35 87t75 68t121.5 25q120 0 182 -68.5t62 -200.5v-25h-393q1 -76 40.5 -134t119.5 -58q112 0 140 105zM136 296h300q-10 93 -44.5 131.5t-98.5 38.5
q-37 0 -65.5 -12.5t-45 -30t-27 -42t-14.5 -44.5t-5 -41zM131 608v92h88v-92h-88zM365 608v92h88v-92h-88z" />
    <glyph glyph-name="afii10099" unicode="&#x452;" horiz-adv-x="584" 
d="M80 700h88v-63h211v-62h-211v-158q64 91 167 91q48 0 82 -14.5t54.5 -39t32 -67t15 -87.5t3.5 -111q0 -40 -1 -65.5t-3.5 -64t-9 -64t-17 -56t-28 -50.5t-41 -38t-56.5 -27t-74 -9v65h22q21 0 38 6.5t28.5 22t20.5 30.5t14 41t8 45t4 52t1.5 51t0.5 52v7q0 134 -14 181
q-24 78 -103 78q-39 0 -67.5 -14t-43 -33t-22.5 -48t-9.5 -48.5t-1.5 -45.5v-257h-88v575h-80v62h80v63z" />
    <glyph glyph-name="afii10100" unicode="&#x453;" horiz-adv-x="433" 
d="M160 446v-446h-88v508h348v-62h-260zM224 700h106l-96 -132h-80z" />
    <glyph glyph-name="afii10101" unicode="&#x454;" horiz-adv-x="554" 
d="M369 295v-62h-233q5 -191 149 -191q132 0 148 135h84q-2 -33 -13 -63t-34.5 -62.5t-71 -52t-112.5 -19.5q-28 0 -51.5 2.5t-61.5 18t-64 42t-46 80t-20 127.5q0 278 240 278q65 0 112 -18t70.5 -47t34 -57t12.5 -57h-84q-1 56 -46 86.5t-107 30.5q-55 0 -95 -37.5
t-44 -133.5h233z" />
    <glyph glyph-name="afii10102" unicode="&#x455;" horiz-adv-x="506" 
d="M36 151h88q1 -56 41.5 -82.5t96.5 -26.5q33 0 57 8.5t35 19t17.5 26.5t7 23.5t0.5 18.5q0 29 -19.5 49t-86.5 36q-12 3 -44 9t-49.5 10.5t-44 16t-41 26t-25.5 39.5t-11 58q0 41 17 70.5t45.5 45.5t61 23t69.5 7q49 0 87 -11t59.5 -27t35 -38t18.5 -39.5t6 -37.5h-84
q-1 14 -5.5 27t-16 29t-37 25.5t-60.5 9.5q-8 0 -15.5 -0.5t-25.5 -4.5t-30.5 -11.5t-23 -24t-10.5 -39.5q0 -12 2 -21.5t7 -17t9.5 -13.5t14.5 -11l16 -8t20 -6.5l21.5 -5.5t25 -5.5t25.5 -5.5q47 -11 72.5 -19t54 -24t41 -41.5t12.5 -63.5q0 -45 -20.5 -78t-46 -49
t-60 -25t-51.5 -10.5t-31 -1.5q-108 0 -165.5 48.5t-59.5 122.5z" />
    <glyph glyph-name="afii10103" unicode="&#x456;" horiz-adv-x="228" 
d="M70 508h88v-508h-88v508zM70 608v92h88v-92h-88z" />
    <glyph glyph-name="afii10104" unicode="&#x457;" horiz-adv-x="273" 
d="M92 508h89v-508h-89v508zM23 608v92h88v-92h-88zM162 608v92h88v-92h-88z" />
    <glyph glyph-name="afii10105" unicode="&#x458;" horiz-adv-x="231" 
d="M73 508h88v-555q0 -72 -26.5 -107t-93.5 -35q-9 0 -57 4v62q65 11 77 22.5t12 56.5v8v544zM73 608v92h88v-92h-88z" />
    <glyph glyph-name="afii10106" unicode="&#x459;" horiz-adv-x="843" 
d="M13 0v65q12 -2 19 -2q28 0 47.5 14t30.5 34.5t16.5 57t7 68t1.5 80.5v191h353v-199h128q29 0 51 -2t52.5 -10.5t51 -24.5t35 -46.5t14.5 -73.5q0 -41 -13.5 -70.5t-32.5 -45t-45.5 -24t-44.5 -10.5t-38 -2h-246v446h-182v-129q0 -42 -0.5 -68t-4 -64t-10 -61t-19 -50
t-30 -42t-44.5 -25t-62 -10q-17 0 -35 3zM488 247v-185h123q118 0 118 96q0 51 -35.5 70t-97.5 19h-108z" />
    <glyph glyph-name="afii10107" unicode="&#x45a;" horiz-adv-x="855" 
d="M160 245v-245h-88v508h88v-201h252v201h88v-201h127q85 0 127 -19q78 -36 78 -136q0 -152 -174 -152h-246v245h-252zM500 245v-183h123q118 0 118 96q0 25 -10 43t-22 26t-33 12.5t-31.5 5t-29.5 0.5h-7h-108z" />
    <glyph glyph-name="afii10108" unicode="&#x45b;" 
d="M80 700h88v-63h211v-62h-211v-158q68 91 174 91q166 0 166 -190v-318h-88v291v6q0 20 -0.5 33.5t-6 37.5t-16 39t-32 27t-52.5 12q-41 0 -70.5 -17t-43.5 -38t-21.5 -52.5t-8.5 -47t-1 -34.5v-257h-88v575h-80v62h80v63z" />
    <glyph glyph-name="afii10109" unicode="&#x45c;" horiz-adv-x="489" 
d="M160 286l217 222h103l-238 -236l251 -272h-105l-228 254v-254h-88v508h88v-222zM252 700h106l-96 -132h-80z" />
    <glyph glyph-name="afii10110" unicode="&#x45e;" horiz-adv-x="498" 
d="M91 -184v65q32 -5 44 -5q19 0 32 6t22 20.5t14 25.5t12 34l12 38l-220 508h105l163 -411l135 411h88l-202 -568l-6 -16q-5 -17 -6.5 -20.5t-7.5 -18.5t-10.5 -19.5t-12.5 -16.5t-16.5 -16t-19.5 -10.5t-24.5 -9t-29.5 -2.5q-49 0 -72 5zM77 700h74q3 -33 27 -56t71 -23
t71 23t27 56h74q-9 -52 -49 -92t-123 -40t-123 40t-49 92z" />
    <glyph glyph-name="afii10193" unicode="&#x45f;" horiz-adv-x="578" 
d="M418 62v446h88v-508h-178v-185h-78v185h-178v508h88v-446h258z" />
    <glyph glyph-name="afii10050" unicode="&#x490;" horiz-adv-x="549" 
d="M179 621v-621h-94v700h357v158h87l7 -237h-357z" />
    <glyph glyph-name="afii10098" unicode="&#x491;" horiz-adv-x="433" 
d="M160 446v-446h-88v508h266v133h73l9 -195h-260z" />
    <glyph glyph-name="endash" unicode="&#x2013;" horiz-adv-x="600" 
d="M50 297h500v-62h-500v62z" />
    <glyph glyph-name="emdash" unicode="&#x2014;" horiz-adv-x="984" 
d="M50 235v62h884v-62h-884z" />
    <glyph glyph-name="quoteleft" unicode="&#x2018;" horiz-adv-x="311" 
d="M205 462h-99v140q0 94 99 117v-55q-21 -2 -35.5 -20.5t-14.5 -41.5v-31h50v-109z" />
    <glyph glyph-name="quoteright" unicode="&#x2019;" horiz-adv-x="311" 
d="M106 700h99v-140q0 -94 -99 -117v55q21 2 35.5 20.5t14.5 41.5v31h-50v109z" />
    <glyph glyph-name="quotesinglbase" unicode="&#x201a;" horiz-adv-x="311" 
d="M106 109h99v-140q0 -94 -99 -117v55q21 2 35.5 20.5t14.5 41.5v31h-50v109z" />
    <glyph glyph-name="quotedblleft" unicode="&#x201c;" horiz-adv-x="422" 
d="M343 462h-99v141q0 48 28.5 78.5t70.5 38.5v-54q-50 -15 -50 -63v-32h50v-109zM178 462h-99v141q0 49 28.5 79t70.5 38v-54q-50 -15 -50 -63v-32h50v-109z" />
    <glyph glyph-name="quotedblright" unicode="&#x201d;" horiz-adv-x="422" 
d="M79 700h99v-141q0 -48 -28.5 -78.5t-70.5 -38.5v54q50 15 50 63v32h-50v109zM244 700h99v-141q0 -49 -28.5 -79t-70.5 -38v54q50 15 50 63v32h-50v109z" />
    <glyph glyph-name="quotedblbase" unicode="&#x201e;" horiz-adv-x="422" 
d="M79 109h99v-140q0 -90 -99 -117v55q21 4 35.5 21t14.5 41v31h-50v109zM244 109h99v-140q0 -91 -99 -117v55q21 4 35.5 21t14.5 41v31h-50v109z" />
    <glyph glyph-name="dagger" unicode="&#x2020;" horiz-adv-x="500" 
d="M210 700h80v-192h185v-68h-185v-625h-80v625h-185v68h185v192z" />
    <glyph glyph-name="daggerdbl" unicode="&#x2021;" horiz-adv-x="500" 
d="M210 700h80v-192h185v-68h-185v-192h185v-68h-185v-365h-80v365h-185v68h185v192h-185v68h185v192z" />
    <glyph glyph-name="bullet" unicode="&#x2022;" horiz-adv-x="600" 
d="M200 350q0 42 29 71t71 29t71 -29t29 -71t-29 -71t-71 -29t-71 29t-29 71z" />
    <glyph glyph-name="ellipsis" unicode="&#x2026;" horiz-adv-x="931" 
d="M106 0v109h99v-109h-99zM416 0v109h99v-109h-99zM726 0v109h99v-109h-99z" />
    <glyph glyph-name="perthousand" unicode="&#x2030;" horiz-adv-x="1298" 
d="M196 0l454 700h71l-454 -700h-71zM53 508q0 58 17.5 100t45 62.5t53 29t49.5 8.5t49 -8.5t52.5 -29t45 -62.5t17.5 -100q0 -31 -7.5 -62.5t-24 -64t-51 -53t-81.5 -20.5q-48 0 -82.5 20.5t-51.5 53.5t-24 64t-7 62zM117 508q0 -21 4 -43t14 -47t31.5 -41t51.5 -16
q31 0 52 16t31 41t13.5 47t3.5 43q0 78 -31 112.5t-69 34.5q-42 0 -71.5 -38t-29.5 -109zM530 192q0 27 6 56t22 64t51 57.5t85 22.5q76 0 120 -53.5t44 -146.5q0 -58 -17 -100t-44 -62.5t-52.5 -29t-50.5 -8.5q-27 0 -53.5 10t-52.5 31.5t-42 62.5t-16 96zM594 192
q0 -75 30 -111t70 -36q41 0 70.5 36t29.5 111q0 64 -25 105.5t-75 41.5q-32 0 -54 -17.5t-31 -44.5t-12 -47t-3 -38zM917 192q0 31 7.5 62.5t24 64t51 53t81.5 20.5q76 0 120 -53.5t44 -146.5q0 -58 -17 -100t-44 -62.5t-52.5 -29t-50.5 -8.5q-24 0 -49 8.5t-52.5 29
t-45 62.5t-17.5 100zM981 192q0 -78 31 -112.5t69 -34.5q37 0 68.5 34.5t31.5 112.5q0 59 -24 103t-76 44q-31 0 -52 -16t-31 -41t-13.5 -47t-3.5 -43z" />
    <glyph glyph-name="guilsinglleft" unicode="&#x2039;" horiz-adv-x="286" 
d="M105 272l106 -90v-82l-149 131v82l149 131v-82z" />
    <glyph glyph-name="guilsinglright" unicode="&#x203a;" horiz-adv-x="286" 
d="M181 272l-106 90v82l149 -131v-82l-149 -131v82z" />
    <glyph glyph-name="Euro" unicode="&#x20ac;" 
d="M535 673v-93q-57 57 -158 57q-81 0 -127.5 -48t-58.5 -128h302l-25 -72h-287q0 -5 -0.5 -17t-0.5 -18q0 -8 0.5 -21t0.5 -17h261l-25 -72h-225q12 -86 59.5 -133t126.5 -47q96 0 157 57v-95q-53 -46 -168 -46q-110 0 -178 65.5t-87 198.5h-77l25 72h45q-1 9 -1 38
q0 25 1 35h-70l25 72h52q19 119 83.5 189.5t181.5 70.5q55 0 99.5 -14t68.5 -34z" />
    <glyph glyph-name="afii61352" unicode="&#x2116;" horiz-adv-x="1118" 
d="M179 555v-555h-94v700h104l372 -555v555h94v-700h-103zM730 514q0 29 7.5 58.5t24.5 59.5t51.5 49t81.5 19q76 0 120.5 -49t44.5 -137q0 -50 -15 -87t-34.5 -55t-45.5 -29t-41.5 -13t-28.5 -2q-23 0 -48 7.5t-53 26t-46 58t-18 94.5zM808 514q0 -58 24 -90.5t63 -32.5
q26 0 44.5 13.5t27 35t12 39.5t3.5 35q0 16 -3.5 34.5t-12 40t-27 35t-44.5 13.5q-39 0 -63 -32.5t-24 -90.5zM743 172v74h304v-74h-304z" />
    <glyph glyph-name="trademark" unicode="&#x2122;" horiz-adv-x="861" 
d="M133 645h-113v55h301v-55h-113v-295h-75v295zM577 350l-102 268h-5l4 -45v-223h-75v350h100l94 -241l9 -35h4l8 35l94 241h100v-350h-75v223l4 45h-5l-103 -268h-52z" />
    <glyph glyph-name="hyphenminus" horiz-adv-x="422" 
d="M79 225v85h264v-85h-264z" />
    <glyph glyph-name="accent" horiz-adv-x="2" 
d="M-267 700h106l-96 -132h-80z" />
    <glyph glyph-name="Accent" horiz-adv-x="2" 
d="M-340 900h112l-102 -140h-84z" />
    </font>
</defs>
</svg>
