<?xml version="1.0" standalone="no"?>
<!DOCTYPE svg PUBLIC "-//W3C//DTD SVG 1.1//EN" "http://www.w3.org/Graphics/SVG/1.1/DTD/svg11.dtd" >
<svg>
<metadata>
Created by FontForge 20090622 at Sat Sep 30 12:56:36 2017
 By deploy user
Copyright (c) 2012 by Sergio Ram&#195;&#173;rez - Manuel Corradine. All rights reserved.
</metadata>
<defs>
<font id="Neuron-DemiBoldItalic" horiz-adv-x="462" >
  <font-face 
    font-family="Neuron"
    font-weight="600"
    font-style="italic"
    font-stretch="normal"
    units-per-em="1000"
    panose-1="0 0 0 0 0 0 0 0 0 0"
    ascent="750"
    descent="-250"
    x-height="490"
    cap-height="618"
    bbox="-99 -232 889 865"
    underline-thickness="50"
    underline-position="-50"
    unicode-range="U+000D-U+2212"
  />
<missing-glyph horiz-adv-x="459" 
 />
    <glyph glyph-name=".notdef" horiz-adv-x="459" 
 />
    <glyph glyph-name=".null" horiz-adv-x="0" 
 />
    <glyph glyph-name="nonmarkingreturn" horiz-adv-x="333" 
 />
    <glyph glyph-name="CR" unicode="&#xd;" horiz-adv-x="424" 
 />
    <glyph glyph-name="space" unicode=" " horiz-adv-x="210" 
 />
    <glyph glyph-name="exclam" unicode="!" horiz-adv-x="196" 
d="M94 151q-22 0 -30.5 5.5t-8.5 20.5q0 8 5 77l25 334q1 18 12.5 24t40.5 6q28 0 37.5 -5t9.5 -21q0 -5 -6 -57l-41 -354q-2 -19 -10.5 -24.5t-33.5 -5.5zM88 98q28 0 38 -4.5t10 -18.5q0 -17 -3 -40q-3 -22 -13 -28.5t-42 -6.5q-28 0 -38 4.5t-10 18.5q0 17 3 40
q3 22 13 28.5t42 6.5z" />
    <glyph glyph-name="quotedbl" unicode="&#x22;" horiz-adv-x="275" 
d="M85 399q-19 0 -26 4.5t-7 16.5q0 101 5 166q2 19 11.5 25.5t41.5 6.5q27 0 36 -5t9 -19q0 -27 -33 -174q-3 -12 -10 -16.5t-27 -4.5zM222 399q-19 0 -26 4.5t-7 16.5q0 101 5 166q2 19 11.5 25.5t41.5 6.5q27 0 36 -5t9 -19q0 -27 -33 -174q-3 -12 -10 -16.5t-27 -4.5z
" />
    <glyph glyph-name="numbersign" unicode="#" 
d="M211 386l-15 -136h85l14 136h-84zM354 178l-11 -110q-2 -19 -10.5 -24.5t-33.5 -5.5q-22 0 -30 4t-8 17q0 5 5 49l7 70h-84l-12 -110q-2 -19 -10 -24.5t-33 -5.5q-22 0 -30 4t-8 17q0 6 5 52l7 67h-61q-10 0 -13.5 4t-3.5 14q0 29 6 41q5 13 21 13h59l14 136h-62
q-17 0 -17 18q0 29 6 41q5 13 21 13h59l11 98q2 19 10.5 24.5t33.5 5.5q22 0 30 -4t8 -17q0 -5 -5 -49l-6 -58h84l11 98q2 19 10 24.5t33 5.5q22 0 30 -4t8 -17q0 -6 -5 -52l-6 -55h63q18 0 18 -18q0 -23 -6 -41q-7 -13 -22 -13h-61l-14 -136h64q10 0 13.5 -3.5t3.5 -13.5
q0 -28 -5 -41q-6 -14 -22 -14h-62z" />
    <glyph glyph-name="dollar" unicode="$" 
d="M241 622l7 62q1 16 11 21.5t37 5.5q24 0 32.5 -4t8.5 -16q0 -8 -4 -45l-3 -27q49 -4 90 -16q19 -4 19 -26q0 -58 -23 -58q-4 0 -23 4.5t-49.5 9t-61.5 4.5q-40 0 -61.5 -6t-32.5 -24q-15 -23 -15 -66q0 -21 9 -32.5t33 -22.5l120 -54q44 -20 62.5 -46.5t18.5 -72.5
q0 -57 -19 -105.5t-54 -75.5t-90 -35l-7 -70q-1 -16 -11 -21.5t-37 -5.5q-24 0 -32.5 4t-8.5 16q0 7 4 44l3 29q-71 3 -118 17q-14 5 -19 11t-5 20q0 24 7 39.5t19 15.5q3 0 49 -9t87 -9q79 0 104 23q31 28 31 92q0 24 -9 38.5t-32 24.5l-115 51q-46 20 -66 47t-20 75
q0 79 34 130q36 57 130 63z" />
    <glyph glyph-name="percent" unicode="%" horiz-adv-x="569" 
d="M406 0q-60 0 -82.5 20t-22.5 71q0 108 30.5 147t105.5 39q59 0 81.5 -20t22.5 -73q0 -106 -29.5 -145t-105.5 -39zM413 61q32 0 44 23t12 95q0 21 -8.5 29t-31.5 8q-32 0 -43.5 -23t-11.5 -95q0 -21 8.5 -29t30.5 -8zM149 341q-61 0 -83 19.5t-22 72.5q0 107 30.5 146
t105.5 39q59 0 81.5 -20t22.5 -73q0 -106 -29.5 -145t-105.5 -39zM156 402q32 0 44 23t12 95q0 20 -8.5 28t-31.5 8q-32 0 -43.5 -23t-11.5 -94q0 -21 8 -29t31 -8zM88 0q-35 0 -35 14q0 10 13 29l381 555q8 11 18.5 15.5t36.5 4.5q34 0 34 -15q0 -9 -14 -29l-380 -554
q-8 -12 -18 -16t-36 -4z" />
    <glyph glyph-name="ampersand" unicode="&#x26;" horiz-adv-x="499" 
d="M398 434q23 0 30.5 -3.5t7.5 -15.5q0 -5 -3 -31l-4 -36h53q10 0 13.5 -4t3.5 -15q0 -32 -5.5 -42.5t-19.5 -10.5h-50l-14 -140q-8 -84 -59 -114t-149 -30q-101 0 -141 29t-40 101q0 47 12 92.5t35 66.5q32 29 100 34q-45 6 -68.5 33t-23.5 72q0 110 40 158q38 45 136 45
q74 0 152 -20q17 -4 17 -25q0 -57 -24 -57q-3 0 -53 8.5t-84 8.5q-54 0 -69 -25q-18 -28 -18 -95q0 -37 23.5 -53.5t87.5 -16.5h63l6 57q2 18 10 23.5t35 5.5zM211 75q63 0 86.5 15t27.5 61l13 125h-65q-91 0 -119 -25q-32 -27 -32 -115q0 -29 18 -45t71 -16z" />
    <glyph glyph-name="quotesingle" unicode="'" horiz-adv-x="138" 
d="M85 399q-19 0 -26 4.5t-7 16.5q0 101 5 166q2 19 11.5 25.5t41.5 6.5q27 0 36 -5t9 -19q0 -27 -33 -174q-3 -12 -10 -16.5t-27 -4.5z" />
    <glyph glyph-name="parenleft" unicode="(" horiz-adv-x="218" 
d="M239 656q0 -9 -16 -50t-34.5 -93.5t-34.5 -140.5t-16 -180q0 -78 14 -155t14 -78q0 -21 -40 -21q-24 0 -34.5 8.5t-16.5 30.5q-31 106 -31 230t30.5 236.5t70.5 190.5q11 22 23 30t35 8q36 0 36 -16z" />
    <glyph glyph-name="parenright" unicode=")" horiz-adv-x="218" 
d="M-3 -46q0 8 25 69.5t50.5 168.5t25.5 226q0 78 -14 155t-14 78q0 21 40 21q24 0 34.5 -8.5t16.5 -30.5q31 -106 31 -230t-30.5 -236.5t-70.5 -190.5q-11 -22 -23 -30t-35 -8q-36 0 -36 16z" />
    <glyph glyph-name="asterisk" unicode="*" horiz-adv-x="369" 
d="M117 290q-11 0 -29.5 15.5t-18.5 25.5q0 8 8 18l54 63q10 11 16 15q-7 0 -26 6l-64 22q-15 6 -15 16q0 11 9 32q13 28 26 28q7 0 82 -26q13 -5 20 -13q-3 7 -3 16t9 91q2 14 10 19t32 5q21 0 28.5 -4t7.5 -14q0 -32 -8 -88q-3 -16 -8 -25q7 8 23 14q77 25 85 25t13 -11
q11 -22 11 -44q0 -16 -19 -22l-74 -22q-15 -4 -22 -4q10 -7 16 -17l39 -64q5 -9 5 -13q0 -11 -24 -28q-22 -16 -33 -16q-7 0 -14 11l-42 66q-6 10 -8 23q-6 -14 -14 -23l-53 -65q-11 -12 -19 -12z" />
    <glyph glyph-name="plus" unicode="+" 
d="M253 447q24 0 32.5 -4t8.5 -16q0 -7 -5 -52l-7 -67h103q11 0 15 -4t4 -16q0 -34 -6.5 -46t-20.5 -12h-103l-11 -110q-1 -17 -10.5 -22.5t-35.5 -5.5q-24 0 -32.5 4t-8.5 16q0 7 5 52l7 66h-103q-10 0 -14 4.5t-4 16.5q0 34 6 45.5t20 11.5h103l11 111q1 17 10.5 22.5
t35.5 5.5z" />
    <glyph glyph-name="comma" unicode="," horiz-adv-x="175" 
d="M74 97q28 0 37 -5t9 -20q0 -8 -3 -38q-2 -32 -23 -84l-20 -51q-10 -23 -21 -30t-36 -7q-28 0 -28 16q0 9 11.5 54.5t14.5 72.5l6 56q2 22 12 29t41 7z" />
    <glyph glyph-name="hyphen" unicode="-" horiz-adv-x="311" 
d="M30 239q0 33 7 49t26 16h202q12 0 16.5 -4.5t4.5 -16.5q0 -33 -7 -49t-26 -16h-202q-12 0 -16.5 4.5t-4.5 16.5z" />
    <glyph glyph-name="period" unicode="." horiz-adv-x="178" 
d="M68 0q-29 0 -39 5t-10 21q0 5 5 43q3 23 13 29.5t42 6.5q29 0 39 -5t10 -21q0 -5 -5 -43q-3 -23 -13 -29.5t-42 -6.5z" />
    <glyph glyph-name="slash" unicode="/" horiz-adv-x="271" 
d="M278 672q41 0 41 -20q0 -9 -14 -45l-242 -640q-7 -18 -18.5 -23.5t-39.5 -5.5q-41 0 -41 20q0 9 14 45l242 640q7 18 18.5 23.5t39.5 5.5z" />
    <glyph glyph-name="zero" unicode="0" 
d="M216 76q48 0 70 13t34 52q10 32 23 150t13 154q0 55 -20 74.5t-71 19.5q-48 0 -70 -13t-34 -52q-10 -32 -23 -150t-13 -154q0 -55 20 -74.5t71 -19.5zM274 623q93 0 136 -34t43 -133q0 -46 -13.5 -169t-27.5 -169q-22 -73 -68.5 -99.5t-136.5 -26.5q-93 0 -136 34
t-43 133q0 46 13.5 169t27.5 169q22 73 68.5 99.5t136.5 26.5z" />
    <glyph glyph-name="one" unicode="1" 
d="M399 62q0 -36 -7 -49t-22 -13h-277q-11 0 -15.5 5t-4.5 20q0 62 29 62h90l44 428l-82 -23q-15 -4 -24 -4q-14 0 -14 24q0 58 28 66l107 32q24 8 45 8q27 0 36 -4.5t9 -18.5q0 -9 -10 -101l-42 -407h90q11 0 15.5 -5t4.5 -20z" />
    <glyph glyph-name="two" unicode="2" 
d="M403 62q0 -36 -7 -49t-22 -13h-309q-27 0 -27 22q0 4 7 73q6 54 29 89.5t74 73.5l149 113q46 35 46 114q0 34 -17 43.5t-68 9.5q-41 0 -87 -9.5t-49 -9.5q-14 0 -14 22q0 53 31 63q67 19 155 19q35 0 57.5 -3.5t46 -14t35 -34.5t11.5 -62q0 -78 -28 -130q-23 -42 -79 -83
l-131 -98q-24 -18 -36 -34.5t-15 -45.5l-3 -31h231q11 0 15.5 -5t4.5 -20z" />
    <glyph glyph-name="three" unicode="3" 
d="M120 604q79 19 171 19q70 0 105.5 -25.5t35.5 -95.5q0 -114 -63 -159q-31 -19 -67 -24q110 -8 110 -118q0 -209 -204 -209q-104 0 -161 19q-13 4 -18 9.5t-5 19.5q0 54 23 54q3 0 56 -8.5t95 -8.5q66 0 90.5 30.5t24.5 92.5q0 39 -30.5 57.5t-112.5 18.5q-25 0 -25 24
q0 31 7.5 43t25.5 12q80 0 114 24q40 27 40 101q0 35 -16.5 46.5t-57.5 11.5q-37 0 -93 -8.5t-58 -8.5q-8 0 -11.5 4.5t-3.5 17.5q0 54 28 61z" />
    <glyph glyph-name="four" unicode="4" 
d="M352 618q39 0 52 -5.5t13 -23.5q0 -10 -9 -92l-28 -262h37q14 0 19 -4.5t5 -19.5q0 -35 -8 -46.5t-25 -11.5h-36l-13 -123q-2 -19 -12 -24.5t-40 -5.5q-27 0 -36 4t-9 18q0 12 6 64l7 67h-219q-18 0 -24.5 5.5t-6.5 22.5q0 42 21 75l213 330q14 21 32 26.5t61 5.5z
M314 530l-184 -295h159q18 151 32 295h-7z" />
    <glyph glyph-name="five" unicode="5" 
d="M431 592q0 -35 -7.5 -48t-22.5 -13h-210l-17 -160q46 12 106 12q30 0 49.5 -3t42.5 -14t34.5 -37t11.5 -67q0 -28 -7 -90q-6 -47 -20 -80t-32.5 -52.5t-46.5 -30.5t-54 -14t-62 -3q-68 0 -132 19q-13 3 -18 8.5t-5 19.5q0 54 23 54l41 -9q41 -8 84 -8q70 0 94.5 19
t31.5 80q6 53 6 68q0 35 -16 46.5t-54 11.5q-36 0 -86.5 -8t-57.5 -8q-9 0 -14 1t-9.5 6t-4.5 15q0 13 6 70l23 213q2 17 9 22.5t27 5.5h267q20 0 20 -26z" />
    <glyph glyph-name="six" unicode="6" 
d="M152 324q39 57 142 57q72 0 104 -27t32 -104q0 -146 -52 -202t-165 -56q-86 0 -127.5 30.5t-41.5 125.5q0 47 19 217q8 68 25.5 117t38.5 76t52.5 42t57.5 19t62 4q59 0 115 -14q12 -3 16 -7.5t4 -18.5q0 -57 -23 -57q-2 0 -41.5 6.5t-70.5 6.5q-37 0 -57 -4t-39.5 -24
t-30.5 -59q-10 -35 -20 -128zM252 301q-65 0 -90.5 -32t-25.5 -112q0 -51 19 -66t69 -15q61 0 87.5 30t26.5 123q0 42 -18 57t-68 15z" />
    <glyph glyph-name="seven" unicode="7" 
d="M346 531h-238q-11 0 -15.5 5t-4.5 20q0 36 7 49t22 13h310q17 0 23.5 -5.5t6.5 -22.5q0 -38 -19 -77l-235 -488q-7 -16 -19.5 -20.5t-40.5 -4.5q-41 0 -41 19q0 11 14 40z" />
    <glyph glyph-name="eight" unicode="8" 
d="M209 -8q-96 0 -137.5 27t-41.5 107q0 91 25.5 137t74.5 63q-54 24 -54 102q0 65 14.5 105.5t45 59.5t61.5 24.5t81 5.5q38 0 62 -3.5t50 -15t38.5 -37.5t12.5 -68q0 -76 -20 -116.5t-61 -56.5q66 -25 66 -117q0 -124 -48.5 -170.5t-168.5 -46.5zM216 74q63 0 86 22
q28 28 28 120q0 43 -20 56.5t-69 13.5q-69 0 -92 -32t-23 -109q0 -43 19.5 -57t70.5 -14zM267 543q-57 0 -77 -22.5t-20 -97.5q0 -37 17 -47.5t61 -10.5q55 0 76 21.5t21 96.5q0 38 -17 49t-61 11z" />
    <glyph glyph-name="nine" unicode="9" 
d="M173 76q51 0 78.5 8.5t44.5 38.5q22 38 35 167q-35 -57 -139 -57q-72 0 -103 26t-31 104q0 146 49.5 203t161.5 57q87 0 128 -31t41 -126q0 -55 -18 -215q-8 -70 -25.5 -120t-38.5 -76.5t-53 -41t-58.5 -18t-66.5 -3.5q-64 0 -118 14q-13 3 -17 7.5t-4 18.5q0 57 22 57
q2 0 42 -6.5t70 -6.5zM233 313q65 0 89.5 33t24.5 119q0 47 -18 61.5t-68 14.5q-63 0 -87 -31t-24 -129q0 -39 17.5 -53.5t65.5 -14.5z" />
    <glyph glyph-name="colon" unicode=":" horiz-adv-x="174" 
d="M68 0q-29 0 -39 5t-10 21q0 5 5 43q3 23 13 29.5t42 6.5q29 0 39 -5t10 -21q0 -5 -5 -43q-3 -23 -13 -29.5t-42 -6.5zM108 389q-29 0 -39 5t-10 21q0 5 5 43q3 23 13 29.5t42 6.5q29 0 39 -5t10 -21q0 -5 -5 -43q-3 -23 -13 -29.5t-42 -6.5z" />
    <glyph glyph-name="semicolon" unicode=";" horiz-adv-x="174" 
d="M74 97q28 0 37 -5t9 -20q0 -8 -3 -38q-2 -32 -23 -84l-20 -51q-10 -23 -21 -30t-36 -7q-28 0 -28 16q0 9 11.5 54.5t14.5 72.5l6 56q2 22 12 29t41 7zM108 389q-29 0 -39 5t-10 21q0 5 5 43q3 23 13 29.5t42 6.5q29 0 39 -5t10 -21q0 -5 -5 -43q-3 -23 -13 -29.5
t-42 -6.5z" />
    <glyph glyph-name="less" unicode="&#x3c;" 
d="M154 263l192 -68q18 -6 23.5 -12t5.5 -20q0 -64 -26 -64q-7 0 -50 17l-199 79q-17 6 -23.5 14.5t-6.5 28.5q0 51 10.5 72.5t33.5 30.5l210 78q51 19 62 19q16 0 16 -20q0 -42 -8 -55.5t-32 -21.5l-207 -70z" />
    <glyph glyph-name="equal" unicode="=" 
d="M81 180q0 25 6 42q5 15 23 15h256q11 0 15 -4.5t4 -17.5q0 -29 -5 -41q-7 -16 -24 -16h-256q-11 0 -15 4.5t-4 17.5zM96 329q0 27 6 42q5 15 24 15h255q11 0 15.5 -4.5t4.5 -16.5q0 -25 -6 -42q-5 -15 -24 -15h-255q-11 0 -15.5 4.5t-4.5 16.5z" />
    <glyph glyph-name="greater" unicode="&#x3e;" 
d="M313 274l-192 68q-18 6 -23.5 12t-5.5 20q0 64 26 64q8 0 50 -17l199 -79q17 -6 23.5 -14.5t6.5 -28.5q0 -51 -10.5 -72.5t-33.5 -30.5l-210 -78q-51 -19 -62 -19q-16 0 -16 20q0 42 8 55.5t32 21.5l207 70z" />
    <glyph glyph-name="question" unicode="?" horiz-adv-x="358" 
d="M149 151q-24 0 -33 4.5t-9 18.5q0 9 5 50q6 54 45 93l77 77q39 39 39 96q0 30 -16.5 39t-61.5 9q-38 0 -82.5 -9t-47.5 -9q-15 0 -15 21q0 53 24 60q62 22 148 22q71 0 111 -22t40 -87q0 -50 -15.5 -86.5t-55.5 -76.5l-71 -70q-27 -27 -31 -67l-3 -33q-1 -18 -11.5 -24
t-36.5 -6zM144 98q28 0 38 -4.5t10 -18.5q0 -17 -3 -40q-3 -22 -13 -28.5t-42 -6.5q-28 0 -38 4.5t-10 18.5q0 17 3 40q3 22 13 28.5t42 6.5z" />
    <glyph glyph-name="at" unicode="@" horiz-adv-x="861" 
d="M28 74q0 54 20 241q11 110 39 179t82.5 108.5t126.5 54.5t185 15q99 0 163.5 -11.5t112.5 -40.5t69 -81.5t21 -133.5q0 -37 -18 -215q-10 -99 -53 -149q-44 -51 -136 -51q-51 0 -78.5 20.5t-34.5 68.5q-43 -89 -160 -89q-78 0 -107.5 30.5t-29.5 113.5q0 55 11 136
t26 123q22 63 62.5 86t109.5 23q94 0 117 -71l4 31q2 20 10.5 25t36.5 5q25 0 33.5 -4t8.5 -17q0 -9 -19 -188q-16 -154 -16 -163q0 -57 46 -57q34 0 50.5 22t24.5 92q20 188 20 227q0 114 -61 151t-222 37q-62 0 -104.5 -4t-80 -15t-60.5 -29t-41 -48.5t-28 -71t-16 -97.5
q-20 -194 -20 -240q0 -87 39 -129q32 -34 90.5 -46.5t157.5 -12.5q14 0 19.5 -5t5.5 -20q0 -24 -5 -41q-6 -16 -28 -16q-108 0 -179 13.5t-117 48.5q-77 59 -77 195zM403 72q62 0 89 30.5t37 128.5q8 79 8 104q0 47 -18.5 66t-68.5 19q-38 0 -58.5 -12t-33.5 -46
q-10 -26 -19.5 -96t-9.5 -110q0 -50 16 -67t58 -17z" />
    <glyph glyph-name="A" unicode="A" horiz-adv-x="525" 
d="M43 0q-45 0 -45 18q0 15 20 65l193 491q11 29 28 36.5t67 7.5t65.5 -7.5t20.5 -36.5l87 -477q11 -61 11 -70q0 -16 -9.5 -21.5t-39.5 -5.5q-31 0 -40 5t-13 24l-27 148h-205l-56 -150q-6 -17 -16.5 -22t-40.5 -5zM292 535l-107 -282h167l-47 282h-13z" />
    <glyph glyph-name="B" unicode="B" horiz-adv-x="512" 
d="M475 505q0 -145 -91 -179q42 -10 61.5 -37.5t19.5 -79.5q0 -123 -50.5 -170t-182.5 -47q-97 0 -165 8q-17 2 -23 7.5t-6 16.5q0 5 12 115l46 440q2 19 9.5 26.5t25.5 9.5q74 8 145 8q110 0 154.5 -21.5t44.5 -96.5zM162 287l-23 -214q43 -5 105 -5q73 0 97.5 30t24.5 115
q0 41 -20.5 57.5t-75.5 16.5h-108zM189 537l-19 -178h87q42 0 64 6t33 24q20 33 20 100q0 32 -19.5 42.5t-76.5 10.5q-52 0 -89 -5z" />
    <glyph glyph-name="C" unicode="C" horiz-adv-x="456" 
d="M224 -8q-44 0 -73 5.5t-56.5 22t-41 52.5t-13.5 91q0 72 14 174.5t31 154.5q14 43 34.5 70.5t49 40t54 16.5t64.5 4q77 0 146 -19q20 -7 20 -25q0 -59 -22 -59q-1 0 -47 8.5t-84 8.5q-56 0 -83 -13t-42 -59q-13 -41 -24.5 -129.5t-11.5 -156.5q0 -65 25.5 -83t90.5 -18
q44 0 86.5 8.5t45.5 8.5q13 0 13 -18q0 -34 -7 -47.5t-23 -18.5q-61 -19 -146 -19z" />
    <glyph glyph-name="D" unicode="D" horiz-adv-x="519" 
d="M273 542q-34 0 -84 -5l-48 -456q32 -4 96 -4q52 0 79.5 10t43.5 42q18 35 30 140.5t12 152.5q0 75 -26.5 97.5t-102.5 22.5zM500 438q0 -71 -15.5 -189.5t-43.5 -167.5q-31 -55 -81 -72t-133 -17q-85 0 -157 8q-32 4 -32 25q0 5 10 99l48 455q4 32 35 36q59 8 147 8
q47 0 77 -3t60.5 -13.5t47 -30.5t27 -54t10.5 -84z" />
    <glyph glyph-name="E" unicode="E" horiz-adv-x="453" 
d="M189 531l-18 -163h177q12 0 16.5 -5t4.5 -18q0 -37 -7 -49.5t-22 -12.5h-178l-20 -196h245q11 0 15.5 -5t4.5 -20q0 -62 -30 -62h-309q-16 0 -22.5 4t-6.5 15q0 10 8 80l51 491q1 16 8.5 22t27.5 6h299q20 0 20 -25q0 -36 -7 -49t-22 -13h-235z" />
    <glyph glyph-name="F" unicode="F" horiz-adv-x="429" 
d="M446 593q0 -36 -7 -49t-22 -13h-228l-18 -163h171q11 0 15.5 -5t4.5 -18q0 -37 -6.5 -49.5t-22.5 -12.5h-171l-26 -253q-2 -18 -12.5 -24t-39.5 -6q-26 0 -35.5 4.5t-9.5 17.5t14 144l44 424q1 16 8.5 22t27.5 6h293q20 0 20 -25z" />
    <glyph glyph-name="G" unicode="G" horiz-adv-x="495" 
d="M366 256h-85q-16 0 -16 22q0 61 25 61h136q20 0 26.5 -4.5t6.5 -16.5q0 -10 -1 -22l-13 -120q-12 -107 -57.5 -145.5t-154.5 -38.5q-49 0 -79 5t-58.5 22t-41.5 54t-13 97q0 70 15 181t38 165q29 66 76.5 86.5t127.5 20.5q72 0 141 -19q22 -6 22 -25q0 -59 -22 -59
q-2 0 -47 8.5t-84 8.5q-56 0 -84 -11t-44 -49q-15 -36 -28 -133.5t-13 -157.5q0 -70 24 -89t85 -19q58 0 81 22.5t31 95.5z" />
    <glyph glyph-name="H" unicode="H" horiz-adv-x="526" 
d="M383 360l24 228q2 18 12.5 24t39.5 6q26 0 35.5 -4.5t9.5 -17.5q0 -12 -14 -143l-44 -423q-2 -18 -12.5 -24t-39.5 -6q-26 0 -35.5 4.5t-9.5 17.5q0 11 14 142l12 112h-214l-25 -246q-2 -18 -12.5 -24t-39.5 -6q-26 0 -35.5 4.5t-9.5 17.5t14 144l44 422q2 18 12.5 24
t39.5 6q26 0 35.5 -4.5t9.5 -17.5q0 -12 -14 -143l-10 -93h213z" />
    <glyph glyph-name="I" unicode="I" horiz-adv-x="213" 
d="M149 618q26 0 35.5 -4.5t9.5 -17.5t-14 -144l-44 -422q-2 -18 -12.5 -24t-39.5 -6q-26 0 -35.5 4.5t-9.5 17.5t14 144l44 422q2 18 12.5 24t39.5 6z" />
    <glyph glyph-name="J" unicode="J" horiz-adv-x="356" 
d="M295 618q26 0 35.5 -4.5t9.5 -17.5q0 -12 -14 -143l-32 -295q-10 -89 -49.5 -127.5t-116.5 -38.5q-52 0 -98 13q-13 4 -17.5 9.5t-4.5 19.5q0 33 5.5 43t16.5 10q5 0 33.5 -4.5t50.5 -4.5q44 0 61 16.5t22 66.5l46 427q2 18 12.5 24t39.5 6z" />
    <glyph glyph-name="K" unicode="K" horiz-adv-x="463" 
d="M149 618q26 0 35.5 -4.5t9.5 -17.5q0 -12 -14 -143l-11 -105h14l197 254q13 16 60 16q26 0 35.5 -4t9.5 -14q0 -13 -16 -33l-207 -253l164 -264q10 -17 10 -26q0 -13 -11.5 -18.5t-44.5 -5.5q-25 0 -34.5 3.5t-15.5 13.5l-154 266h-14l-26 -253q-2 -18 -12.5 -24
t-39.5 -6q-26 0 -35.5 4.5t-9.5 17.5t14 144l44 422q2 18 12.5 24t39.5 6z" />
    <glyph glyph-name="L" unicode="L" horiz-adv-x="423" 
d="M142 87h228q11 0 15.5 -5t4.5 -20q0 -36 -7 -49t-22 -13h-293q-17 0 -23.5 4t-6.5 15q0 8 3 36l56 533q2 18 12.5 24t39.5 6q26 0 35.5 -4.5t9.5 -17.5q0 -6 -4 -45z" />
    <glyph glyph-name="M" unicode="M" horiz-adv-x="643" 
d="M619 545l-53 -515q-2 -18 -12.5 -24t-39.5 -6q-26 0 -35.5 4.5t-9.5 17.5q0 11 14 142l32 311h-7l-135 -281q-10 -21 -21 -27.5t-36 -6.5q-26 0 -35 6t-15 28l-77 281h-7l-46 -445q-2 -18 -12.5 -24t-39.5 -6q-26 0 -35.5 4.5t-9.5 17.5t14 144l43 417q2 20 14.5 27.5
t50.5 7.5q46 0 61.5 -8t24.5 -42l78 -299h5l142 300q16 33 33 41t59 8q35 0 47 -6t12 -20q0 -10 -4 -47z" />
    <glyph glyph-name="N" unicode="N" horiz-adv-x="549" 
d="M482 618q26 0 35.5 -4.5t9.5 -17.5q0 -12 -14 -143l-44 -423q-2 -19 -14.5 -24.5t-48.5 -5.5q-29 0 -40.5 5t-17.5 21l-160 434h-10q-10 -117 -42 -430q-2 -18 -12.5 -24t-39.5 -6q-26 0 -35.5 4.5t-9.5 17.5t14 144l44 422q2 19 14 24.5t48 5.5q32 0 44 -5t18 -21
l158 -425h10q22 235 42 421q2 19 12 24.5t39 5.5z" />
    <glyph glyph-name="O" unicode="O" horiz-adv-x="515" 
d="M301 623q41 0 68 -3t53.5 -14t41 -31t23.5 -54.5t9 -84.5q0 -61 -14 -173t-34 -164q-25 -66 -72.5 -86.5t-140.5 -20.5q-41 0 -67.5 3t-53 14t-41 31t-23.5 54.5t-9 84.5q0 61 14 173t34 164q25 66 72 86.5t140 20.5zM293 539q-52 0 -77 -11t-39 -47q-13 -34 -26 -141.5
t-13 -159.5q0 -65 22.5 -84.5t83.5 -19.5q52 0 77 11t39 47q13 34 26 141.5t13 159.5q0 65 -22.5 84.5t-83.5 19.5z" />
    <glyph glyph-name="P" unicode="P" horiz-adv-x="493" 
d="M84 0q-26 0 -35.5 4.5t-9.5 17.5q0 2 14 144l42 412q2 18 10.5 26t25.5 10q78 9 166 9q98 0 140 -28t42 -113q0 -166 -85 -221q-51 -33 -163 -33h-75l-20 -198q-2 -18 -12.5 -24t-39.5 -6zM188 537l-24 -229h82q60 0 88 22q43 34 43 141q0 42 -21.5 56.5t-80.5 14.5
q-29 0 -87 -5z" />
    <glyph glyph-name="Q" unicode="Q" horiz-adv-x="515" 
d="M375 -116q-26 0 -36.5 5.5t-17.5 20.5l-37 83q-15 -1 -49 -1q-41 0 -67.5 3t-53 14t-41 31t-23.5 54.5t-9 84.5q0 61 14 173t34 164q25 66 72 86.5t140 20.5q41 0 68 -3t53.5 -14t41 -31t23.5 -54.5t9 -84.5q0 -61 -14 -173t-34 -164q-25 -66 -78 -89l39 -78q9 -18 9 -27
q0 -21 -43 -21zM293 539q-52 0 -77 -11t-39 -47q-13 -34 -26 -141.5t-13 -159.5q0 -65 22.5 -84.5t83.5 -19.5q52 0 77 11t39 47q13 34 26 141.5t13 159.5q0 65 -22.5 84.5t-83.5 19.5z" />
    <glyph glyph-name="R" unicode="R" horiz-adv-x="497" 
d="M188 537l-22 -209h76q74 0 103 24q35 29 35 117q0 43 -23 58t-81 15q-30 0 -88 -5zM84 0q-26 0 -35.5 4.5t-9.5 17.5q0 2 14 144l42 412q2 18 10.5 26t25.5 10q78 9 163 9q99 0 142.5 -26.5t43.5 -107.5q0 -94 -29.5 -145.5t-91.5 -72.5l80 -221q8 -20 8 -29
q0 -12 -10 -16.5t-36 -4.5q-33 0 -43 4.5t-15 21.5l-70 230q-14 -1 -43 -1h-71l-23 -225q-2 -18 -12.5 -24t-39.5 -6z" />
    <glyph glyph-name="S" unicode="S" horiz-adv-x="444" 
d="M179 -8q-85 0 -144 18q-14 5 -19 11t-5 20q0 24 7 39.5t18 15.5q3 0 49 -9t88 -9q78 0 104 23q14 13 22.5 39.5t8.5 52.5q0 45 -42 63l-115 51q-45 20 -65 47t-20 75q0 78 33 130q41 64 157 64q87 0 152 -20q19 -4 19 -26q0 -58 -23 -58q-4 0 -23 4.5t-49.5 9t-61.5 4.5
q-76 0 -94 -30q-15 -23 -15 -66q0 -21 9 -32.5t33 -22.5l120 -54q44 -20 62.5 -46.5t18.5 -72.5q0 -57 -19 -105.5t-54 -75.5q-49 -38 -152 -40z" />
    <glyph glyph-name="T" unicode="T" horiz-adv-x="438" 
d="M195 0q-26 0 -35.5 4.5t-9.5 17.5t14 144l39 365h-131q-11 0 -15.5 5t-4.5 20q0 36 7 49t22 13h358q20 0 20 -25q0 -36 -7 -49t-22 -13h-130l-53 -501q-2 -18 -12.5 -24t-39.5 -6z" />
    <glyph glyph-name="U" unicode="U" horiz-adv-x="519" 
d="M486 453l-28 -273q-10 -103 -62 -145.5t-162 -42.5q-98 0 -142 33.5t-44 112.5q0 16 9 106l37 344q2 18 12.5 24t39.5 6q26 0 35.5 -4.5t9.5 -17.5q0 -12 -14 -143l-22 -207q-9 -88 -9 -98q0 -40 21 -55.5t76 -15.5q63 0 86.5 21t29.5 78l44 412q2 18 12.5 24t39.5 6
q26 0 35.5 -4.5t9.5 -17.5q0 -12 -14 -143z" />
    <glyph glyph-name="V" unicode="V" horiz-adv-x="516" 
d="M236 0q-49 0 -64 7t-19 32l-92 516q-5 31 -5 38q0 15 10 20t40 5q31 0 41 -5t12 -22l79 -508h13l183 508q6 17 17.5 22t42.5 5q27 0 36 -3.5t9 -14.5t-24 -75l-187 -486q-10 -25 -26 -32t-66 -7z" />
    <glyph glyph-name="W" unicode="W" horiz-adv-x="796" 
d="M193 0q-45 0 -61 7t-19 32l-44 441q-10 98 -10 110q0 15 10 21t39 6q30 0 40.5 -5.5t12.5 -21.5l41 -500h11l153 486q6 20 21.5 26t51.5 6q35 0 49.5 -6.5t16.5 -25.5l52 -486h12l145 500q5 16 16.5 21.5t41.5 5.5q26 0 35 -4.5t9 -15.5q0 -6 -9 -40l-160 -518
q-7 -25 -24.5 -32t-63.5 -7q-44 0 -60 8t-19 33l-51 423h-10l-138 -423q-8 -25 -26.5 -33t-61.5 -8z" />
    <glyph glyph-name="X" unicode="X" horiz-adv-x="465" 
d="M42 0q-27 0 -36.5 4t-9.5 15q0 13 18 39l177 258l-111 240q-12 25 -12 37q0 14 11 19.5t41 5.5t40 -5t17 -22l77 -181h4l113 185q8 13 19 18t39 5q49 0 49 -21q0 -10 -18 -38l-161 -237l120 -264q11 -23 11 -35q0 -23 -51 -23q-29 0 -40 5.5t-18 21.5l-83 200h-4
l-129 -200q-10 -16 -22 -21.5t-41 -5.5z" />
    <glyph glyph-name="Y" unicode="Y" horiz-adv-x="467" 
d="M177 167l7 66l-120 321q-11 29 -11 39q0 14 10.5 19.5t40.5 5.5t41 -5t16 -22l79 -255h5l133 255q8 17 20 22t43 5q26 0 35 -4.5t9 -14.5q0 -15 -20 -49l-185 -317l-21 -203q-2 -18 -12.5 -24t-39.5 -6q-26 0 -35.5 4.5t-9.5 17.5q0 7 15 145z" />
    <glyph glyph-name="Z" unicode="Z" horiz-adv-x="426" 
d="M320 531h-222q-11 0 -15.5 5t-4.5 20q0 36 7 49t22 13h307q14 0 19 -6.5t5 -23.5q0 -35 -23 -69l-293 -432h244q19 0 19 -25q0 -36 -7 -49t-22 -13h-330q-14 0 -18.5 6.5t-4.5 24.5q0 35 30 79z" />
    <glyph glyph-name="bracketleft" unicode="[" horiz-adv-x="253" 
d="M138 23h77q18 0 18 -23q0 -33 -6.5 -45t-20.5 -12h-137q-32 0 -32 22q0 4 6 59l64 612q2 17 10 24t27 7h133q11 0 15 -5t4 -18q0 -57 -27 -57h-72z" />
    <glyph glyph-name="backslash" unicode="\" horiz-adv-x="254" 
d="M64 672q24 0 33 -5.5t13 -25.5l127 -629q9 -45 9 -53q0 -21 -44 -21q-24 0 -33 5.5t-13 25.5l-127 629q-9 45 -9 53q0 21 44 21z" />
    <glyph glyph-name="bracketright" unicode="]" horiz-adv-x="253" 
d="M135 587h-77q-18 0 -18 23q0 33 6.5 45t20.5 12h137q32 0 32 -22q0 -4 -6 -59l-64 -612q-2 -17 -10 -24t-27 -7h-133q-11 0 -15 5t-4 18q0 57 27 57h72z" />
    <glyph glyph-name="asciicircum" unicode="^" horiz-adv-x="470" 
d="M276 535h-6l-88 -163q-9 -17 -19.5 -21.5t-41.5 -4.5q-39 0 -39 17q0 7 12 29l108 191q12 22 25.5 28.5t53.5 6.5t51.5 -6.5t18.5 -28.5l62 -186q10 -30 10 -34q0 -17 -41 -17q-31 0 -39 4.5t-14 23.5z" />
    <glyph glyph-name="underscore" unicode="_" horiz-adv-x="474" 
d="M-4 -81q0 35 7 49q6 14 24 14h376q12 0 16.5 -4.5t4.5 -17.5q0 -32 -8 -50q-6 -14 -24 -14h-376q-11 0 -15.5 5t-4.5 18z" />
    <glyph glyph-name="grave" unicode="`" horiz-adv-x="226" 
d="M63 680q1 14 11.5 17.5t41.5 3.5q30 0 38.5 -4.5t18.5 -22.5q51 -99 51 -113q0 -22 -39 -22q-25 0 -34 3.5t-18 16.5l-51 79q-19 28 -19 42z" />
    <glyph glyph-name="a" unicode="a" horiz-adv-x="497" 
d="M425 127q0 -12 4 -54t4 -50q0 -23 -46 -23q-25 0 -33 5.5t-10 21.5l-8 64q-54 -101 -175 -101q-63 0 -93 29t-30 96q0 62 10.5 146.5t24.5 124.5q22 63 62 89.5t103 26.5q100 0 126 -61l3 21q2 18 12 24t38 6q25 0 33 -4.5t8 -16.5q0 -11 -16.5 -165t-16.5 -179zM204 72
q58 0 93 42t43 115q11 103 11 128q0 32 -19 47.5t-68 15.5q-40 0 -63.5 -13.5t-35.5 -47.5q-9 -26 -18.5 -98t-9.5 -122q0 -38 16 -52.5t51 -14.5z" />
    <glyph glyph-name="b" unicode="b" horiz-adv-x="511" 
d="M153 654q27 0 36.5 -4t9.5 -18q0 -8 -9 -92l-11 -107q49 69 159 69q70 0 100.5 -28t30.5 -106q0 -67 -13 -158t-41 -137t-77 -64.5t-128 -18.5q-90 0 -126 24t-36 71q0 22 6 77l48 462q2 19 12 24.5t39 5.5zM295 420q-65 0 -96 -42t-40 -122q-15 -144 -15 -147
q0 -21 17.5 -30t67.5 -9q43 0 67 11.5t39 41.5q14 28 24.5 102.5t10.5 119.5t-16.5 60t-58.5 15z" />
    <glyph glyph-name="c" unicode="c" horiz-adv-x="412" 
d="M259 502q67 0 112 -15q14 -5 19 -10.5t5 -19.5q0 -51 -24 -51q-2 0 -41.5 6.5t-70.5 6.5q-43 0 -64 -12t-33 -48q-28 -88 -28 -206q0 -48 18 -64t69 -16q25 0 54 5.5t48.5 11t22.5 5.5q14 0 14 -22q0 -29 -6 -41.5t-20 -18.5q-58 -23 -137 -23q-85 0 -122 31.5t-37 122.5
q0 144 37 250q16 45 46.5 70t61.5 31.5t76 6.5z" />
    <glyph glyph-name="d" unicode="d" horiz-adv-x="500" 
d="M204 72q58 0 93 42t43 115q11 103 11 128q0 32 -19 47.5t-68 15.5q-40 0 -63.5 -13.5t-35.5 -47.5q-9 -26 -18.5 -98t-9.5 -122q0 -38 16 -52.5t51 -14.5zM430 654q27 0 36 -4t9 -18q0 -7 -9 -91l-30 -284q-11 -103 -11 -130q0 -12 4 -54t4 -50q0 -23 -46 -23
q-25 0 -33 5.5t-10 21.5l-8 64q-54 -101 -175 -101q-63 0 -93 29t-30 96q0 62 10.5 146.5t24.5 124.5q22 63 62 89.5t103 26.5q98 0 124 -57l18 179q2 19 11.5 24.5t38.5 5.5z" />
    <glyph glyph-name="e" unicode="e" horiz-adv-x="448" 
d="M208 -10q-93 0 -131.5 31t-38.5 123q0 144 37 250q16 45 46.5 70t63.5 31.5t84 6.5q86 0 117 -26t31 -80q0 -131 -68 -165q-60 -30 -199 -30h-14q-2 -34 -2 -50q0 -47 18.5 -63t71.5 -16q29 0 60.5 6t52.5 12t25 6q16 0 16 -24q0 -28 -6 -38.5t-21 -17.5
q-62 -26 -143 -26zM161 357q-13 -43 -19 -90q114 0 152 19q33 18 33 91q0 22 -13.5 33t-54.5 11q-42 0 -64 -13.5t-34 -50.5z" />
    <glyph glyph-name="f" unicode="f" horiz-adv-x="302" 
d="M36 430q0 31 7 49q5 11 17 11h54q9 98 26 129q28 49 103 49q42 0 74 -9q14 -4 18.5 -9t4.5 -18q0 -50 -23 -50q-5 0 -25 3t-34 3q-25 0 -34 -11t-14 -52l-4 -35h89q16 0 16 -17q0 -28 -8 -49q-4 -11 -17 -11h-84l-49 -471q-7 -73 -39.5 -104.5t-96.5 -31.5q-44 0 -69 7
q-21 6 -21 28q0 53 22 53q4 0 24 -2t34 -2q28 0 37.5 12t14.5 59l47 452h-54q-16 0 -16 17z" />
    <glyph glyph-name="g" unicode="g" horiz-adv-x="492" 
d="M161 -10q-63 0 -93 29t-30 96q0 62 10.5 146.5t24.5 124.5q22 63 62 89.5t103 26.5q100 0 126 -61l3 21q2 18 12 24t38 6q25 0 33 -4.5t8 -16.5q0 -11 -11 -113l-33 -318q-7 -71 -27.5 -118.5t-54.5 -72t-71.5 -34t-89.5 -9.5q-75 0 -138 13q-22 5 -22 29q0 55 24 55
q1 0 46 -5.5t92 -5.5q77 0 106 31t38 114l3 28q-54 -75 -159 -75zM204 72q58 0 93 42t43 115q11 103 11 128q0 32 -19 47.5t-68 15.5q-40 0 -63.5 -13.5t-35.5 -47.5q-9 -26 -18.5 -98t-9.5 -122q0 -38 16 -52.5t51 -14.5z" />
    <glyph glyph-name="h" unicode="h" horiz-adv-x="508" 
d="M86 0q-27 0 -36.5 4t-9.5 18q0 8 9 93l53 509q2 19 12 24.5t39 5.5q27 0 36.5 -4t9.5 -18q0 -9 -9 -93l-11 -106q47 69 159 69q65 0 92.5 -24.5t27.5 -75.5q0 -19 -13.5 -142t-13.5 -155q0 -19 4.5 -47t4.5 -30q0 -9 -2 -14t-12.5 -9.5t-31.5 -4.5q-24 0 -33.5 4.5
t-14.5 16.5q-12 38 -12 75q0 29 12.5 141t12.5 132q0 27 -13 38t-47 11q-65 0 -97 -34.5t-40 -110.5l-25 -243q-2 -19 -12 -24.5t-39 -5.5z" />
    <glyph glyph-name="i" unicode="i" horiz-adv-x="223" 
d="M109 0q-24 0 -33.5 4.5t-14.5 16.5q-12 38 -12 75q0 32 11 133l24 233q2 19 12.5 24.5t40.5 5.5q27 0 36 -4t9 -17q0 -10 -18 -172t-18 -194q0 -19 4.5 -47t4.5 -30q0 -9 -2 -14t-12.5 -9.5t-31.5 -4.5zM142 562q-27 0 -37 6t-10 22q0 28 7 45q5 12 16.5 15.5t38.5 3.5
t37.5 -6t10.5 -22q0 -28 -7 -45q-5 -12 -17 -15.5t-39 -3.5z" />
    <glyph glyph-name="j" unicode="j" horiz-adv-x="216" 
d="M137 492q27 0 36 -4t9 -18q0 -11 -9 -96l-45 -432q-7 -72 -39.5 -104t-93.5 -32q-41 0 -72 9q-22 5 -22 27q0 53 22 53q5 0 25 -2.5t36 -2.5q35 0 41 23q4 12 9 61l50 488q2 19 12.5 24.5t40.5 5.5zM142 562q-27 0 -37 6t-10 22q0 28 7 45q5 12 16.5 15.5t38.5 3.5
t37.5 -6t10.5 -22q0 -28 -7 -45q-5 -12 -17 -15.5t-39 -3.5z" />
    <glyph glyph-name="k" unicode="k" horiz-adv-x="440" 
d="M49 114l53 510q2 19 12 24.5t39 5.5q27 0 36.5 -4t9.5 -18q0 -8 -9 -92l-26 -251h11q32 31 74.5 82.5t67.5 90.5q13 20 22.5 25t39.5 5q46 0 46 -22q0 -27 -58.5 -95.5t-113.5 -118.5q65 -112 152 -213q10 -11 10 -19q0 -24 -48 -24q-31 0 -44 5.5t-29 23.5
q-26 31 -65.5 92t-59.5 102h-12l-20 -193q-2 -19 -12 -24.5t-39 -5.5q-27 0 -36.5 4t-9.5 18q0 8 9 92z" />
    <glyph glyph-name="l" unicode="l" horiz-adv-x="223" 
d="M109 0q-24 0 -33.5 4.5t-14.5 16.5q-12 38 -12 75q0 32 11 133l41 395q2 19 12.5 24.5t40.5 5.5q27 0 36 -4t9 -17q0 -9 -12 -118l-28 -258q-13 -119 -13 -152q0 -19 4.5 -47t4.5 -30q0 -9 -2 -14t-12.5 -9.5t-31.5 -4.5z" />
    <glyph glyph-name="m" unicode="m" horiz-adv-x="765" 
d="M358 0q-26 0 -35 4t-9 17q0 5 13 123q23 203 23 225q0 27 -12.5 38t-46.5 11q-59 0 -88.5 -35.5t-37.5 -113.5l-25 -239q-2 -19 -12.5 -24.5t-40.5 -5.5q-26 0 -35 4t-9 17q0 9 12 118q21 197 21 229q0 12 -4 51.5t-4 44.5q0 14 9.5 20.5t37.5 6.5t36.5 -4.5t10.5 -21.5
l6 -57q45 94 160 94q58 0 85 -19t33 -61q46 80 150 80q66 0 93.5 -24.5t27.5 -75.5q0 -19 -14.5 -142t-14.5 -155q0 -19 4 -47t4 -30q0 -9 -2 -14t-12.5 -9.5t-30.5 -4.5q-24 0 -34 4.5t-15 16.5q-11 35 -11 75q0 29 13 141t13 132q0 27 -13 38t-47 11q-58 0 -85.5 -35
t-35.5 -114l-25 -239q-2 -19 -12.5 -24.5t-40.5 -5.5z" />
    <glyph glyph-name="n" unicode="n" horiz-adv-x="510" 
d="M165 269l-25 -239q-2 -19 -12.5 -24.5t-40.5 -5.5q-26 0 -35 4t-9 17q0 9 12 118q21 197 21 229q0 12 -4 52t-4 44q0 15 9.5 21.5t37.5 6.5t36.5 -4.5t10.5 -21.5l7 -58q22 48 62.5 71t109.5 23q65 0 92.5 -24.5t27.5 -75.5q0 -19 -14.5 -142t-14.5 -155q0 -19 4.5 -47
t4.5 -30q0 -9 -2 -14t-12.5 -9.5t-31.5 -4.5q-24 0 -33.5 4.5t-14.5 16.5q-12 38 -12 75q0 29 13.5 141t13.5 132q0 27 -13.5 38t-46.5 11q-66 0 -97.5 -36t-39.5 -113z" />
    <glyph glyph-name="o" unicode="o" horiz-adv-x="480" 
d="M217 74q68 0 89 34q17 29 28 108.5t11 121.5q0 49 -17 65t-66 16q-67 0 -89 -35q-17 -29 -28 -108.5t-11 -121.5q0 -49 17 -64.5t66 -15.5zM211 -10q-93 0 -133 32t-40 122q0 62 14.5 147.5t41.5 132.5q24 42 65.5 60t108.5 18q93 0 133 -32t40 -122q0 -62 -14.5 -147.5
t-41.5 -132.5q-24 -42 -65.5 -60t-108.5 -18z" />
    <glyph glyph-name="p" unicode="p" horiz-adv-x="505" 
d="M296 420q-65 0 -96 -42t-40 -122q-11 -96 -11 -125q0 -30 19.5 -45.5t69.5 -15.5q37 0 59.5 10.5t36.5 36.5q16 30 26 105.5t10 122.5q0 45 -16 60t-58 15zM70 -188q-27 0 -36.5 4t-9.5 18q0 8 9 93l33 318q10 100 10 123q0 13 -2.5 51t-2.5 46q0 14 9.5 20.5t35.5 6.5
q27 0 36.5 -7.5t11.5 -30.5l3 -44q26 52 66.5 72t103.5 20q74 0 103.5 -30t29.5 -109q0 -71 -15 -168t-47 -140q-27 -37 -62.5 -51t-88.5 -14q-83 0 -117 48l-19 -196q-2 -19 -12 -24.5t-39 -5.5z" />
    <glyph glyph-name="q" unicode="q" horiz-adv-x="492" 
d="M204 72q58 0 93 42t43 115q11 103 11 128q0 32 -19 47.5t-68 15.5q-40 0 -63.5 -13.5t-35.5 -47.5q-9 -26 -18.5 -98t-9.5 -122q0 -38 16 -52.5t51 -14.5zM447 358l-53 -516q-2 -19 -12 -24.5t-39 -5.5q-27 0 -36.5 4t-9.5 18q0 8 9 93l14 139q-53 -76 -159 -76
q-63 0 -93 29t-30 96q0 62 10.5 146.5t24.5 124.5q22 63 62 89.5t103 26.5q100 0 126 -61l3 21q2 18 12 24t38 6q25 0 33 -4.5t8 -16.5q0 -11 -11 -113z" />
    <glyph glyph-name="r" unicode="r" horiz-adv-x="355" 
d="M162 242l-22 -212q-2 -19 -12.5 -24.5t-40.5 -5.5q-26 0 -35 4t-9 17q0 9 12 118q21 197 21 229q0 12 -4 52t-4 44q0 14 9.5 20.5t37.5 6.5t36.5 -4.5t10.5 -21.5l6 -56q46 91 146 91q29 0 36 -9q5 -5 5 -19q0 -31 -9 -49q-7 -11 -17 -11q-2 0 -14.5 1t-22.5 1
q-56 0 -88.5 -40.5t-41.5 -131.5z" />
    <glyph glyph-name="s" unicode="s" horiz-adv-x="403" 
d="M160 -10q-72 0 -122 16q-24 7 -24 30q0 53 22 53q2 0 43.5 -8t80.5 -8q54 0 78 18t24 59q0 34 -37 49l-94 39q-45 19 -64 44t-19 65q0 33 12 66.5t31 51.5q38 37 128 37q73 0 123 -15q13 -4 18 -10t5 -20q0 -51 -23 -51q-3 0 -48.5 7.5t-76.5 7.5q-32 0 -46 -9
q-23 -12 -23 -54q0 -31 34 -45l91 -37q50 -21 69 -45.5t19 -62.5q0 -96 -54 -140q-48 -38 -147 -38z" />
    <glyph glyph-name="t" unicode="t" horiz-adv-x="325" 
d="M313 473q0 -31 -7 -49q-4 -11 -17 -11h-83l-28 -264q-1 -8 -2 -18.5l-1.5 -16t-0.5 -9.5q0 -18 7.5 -23.5t27.5 -5.5q14 0 32.5 2.5t21.5 2.5q18 0 18 -27q0 -26 -6.5 -37t-23.5 -16q-37 -11 -81 -11q-50 0 -72.5 20t-22.5 67q0 18 4 57l29 279h-54q-15 0 -15 17
q0 31 7 49q4 11 17 11h53l8 74q2 19 11.5 24.5t39.5 5.5q27 0 35.5 -5t8.5 -21q0 -4 -1.5 -15t-3.5 -29.5t-4 -33.5h88q15 0 15 -17z" />
    <glyph glyph-name="u" unicode="u" horiz-adv-x="503" 
d="M393 0q-26 0 -34 5.5t-10 21.5l-7 64q-45 -101 -173 -101q-62 0 -90.5 23t-28.5 75q0 35 17 150q15 102 15 146q0 16 -4.5 46.5t-4.5 33.5q0 16 9.5 22t37.5 6q26 0 34.5 -5.5t12.5 -21.5q10 -37 10 -78q0 -25 -14 -135t-14 -131q0 -28 13.5 -38.5t47.5 -10.5q65 0 94 38
t38 122l24 230q2 19 12.5 24.5t40.5 5.5q27 0 36 -4t9 -17q0 -14 -16.5 -168.5t-16.5 -175.5q0 -12 3.5 -54t3.5 -50q0 -23 -45 -23z" />
    <glyph glyph-name="v" unicode="v" horiz-adv-x="437" 
d="M193 82h10q20 49 43.5 117l49 146.5l36.5 110.5q8 24 18.5 30t42.5 6q27 0 37 -4.5t10 -18.5q0 -16 -29 -91q-94 -245 -142 -344q-9 -19 -26.5 -26.5t-61.5 -7.5q-40 0 -54.5 7.5t-18.5 32.5l-49 283q-22 128 -22 139q0 19 11.5 24.5t40.5 5.5q32 0 41 -6t13 -30
q3 -21 22.5 -170.5t27.5 -203.5z" />
    <glyph glyph-name="w" unicode="w" horiz-adv-x="701" 
d="M471 82h11q17 47 36.5 113.5l43 153.5l30.5 112q5 20 16.5 25.5t44.5 5.5q24 0 34 -4.5t10 -17.5t-29 -109q-58 -189 -113 -325q-9 -21 -26 -28.5t-60 -7.5q-39 0 -52 8t-17 34l-41 303h-6q-55 -176 -106 -308q-8 -22 -25.5 -29.5t-61.5 -7.5q-40 0 -55 7t-17 29l-29 263
q-16 143 -16 160t11 25t40 8q33 0 42.5 -6t10.5 -30q1 -12 12 -165t18 -209h11l116 365q7 21 20.5 28t48.5 7q33 0 45.5 -7.5t14.5 -28.5z" />
    <glyph glyph-name="x" unicode="x" horiz-adv-x="433" 
d="M338 0q-27 0 -37 4.5t-17 18.5l-77 164h-4l-107 -167q-8 -12 -18.5 -16t-35.5 -4q-49 0 -49 22q0 12 56 91l101 143l-74 154q-22 45 -22 57q0 15 11.5 20t40.5 5q28 0 38.5 -5t15.5 -23l63 -141h4l99 149q8 12 17 16t33 4q30 0 40.5 -4t10.5 -17q0 -15 -23 -46l-126 -173
l97 -187q14 -27 14 -40q0 -25 -51 -25z" />
    <glyph glyph-name="y" unicode="y" horiz-adv-x="447" 
d="M445 470q0 -14 -29 -102q-32 -99 -90.5 -255t-91.5 -219q-46 -88 -154 -88q-50 0 -78 9q-21 7 -21 30q0 51 25 51q3 0 28.5 -3t45.5 -3q35 0 53.5 13.5t33.5 51.5l17 45q-36 1 -50 10.5t-19 36.5l-68 362q-8 45 -8 53q0 18 12 25q10 5 42 5q28 0 37.5 -4.5t11.5 -20.5
q23 -173 60 -384h12l52 152l51.5 155.5t24.5 76.5q5 16 16 20.5t41 4.5q28 0 37 -5t9 -17z" />
    <glyph glyph-name="z" unicode="z" horiz-adv-x="389" 
d="M341 69q0 -32 -8 -51q-4 -13 -20 -13h-291q-22 0 -22 22q0 32 9 50q7 13 28 39q144 171 226 293h-178q-20 0 -20 17q0 31 7 51q5 13 21 13h265q13 0 17 -4.5t4 -16.5q0 -40 -16 -66q-109 -159 -243 -317h201q20 0 20 -17z" />
    <glyph glyph-name="braceleft" unicode="{" horiz-adv-x="286" 
d="M66 21q0 26 11.5 107t11.5 104q0 36 -38 36q-20 0 -20 19q0 26 7 42t24 16q41 0 45 49q3 24 8.5 85t8.5 87q5 53 28.5 79.5t74.5 26.5q47 0 85 -8q17 -4 17 -23q0 -54 -23 -54q-7 0 -30 1.5t-35 1.5t-17 -8.5t-7 -29.5q-3 -26 -8 -82t-7 -76q-9 -74 -59 -85l-1 -5
q42 -8 42 -66q0 -16 -10.5 -96t-10.5 -99q0 -23 16 -23q17 0 38.5 1.5t26.5 1.5q17 0 17 -23q0 -48 -24 -54q-42 -8 -88 -8q-44 0 -63.5 20.5t-19.5 62.5z" />
    <glyph glyph-name="bar" unicode="|" horiz-adv-x="172" 
d="M42 -188q-21 0 -28.5 3.5t-7.5 14.5q0 12 9 96l75 720q1 16 10 21t34 5q21 0 28.5 -3.5t7.5 -14.5q0 -12 -9 -96l-75 -720q-1 -16 -10 -21t-34 -5z" />
    <glyph glyph-name="braceright" unicode="}" horiz-adv-x="286" 
d="M235 589q0 -26 -11.5 -107t-11.5 -104q0 -36 38 -36q20 0 20 -19q0 -26 -7 -42t-24 -16q-41 0 -45 -49q-3 -24 -8.5 -85t-8.5 -87q-5 -53 -28.5 -79.5t-74.5 -26.5q-47 0 -85 8q-17 4 -17 23q0 54 23 54q7 0 30 -1.5t35 -1.5t17 8.5t7 29.5q3 26 8 82t7 76q9 74 59 85
l1 5q-42 8 -42 66q0 16 10.5 96t10.5 99q0 23 -16 23q-17 0 -38.5 -1.5t-26.5 -1.5q-17 0 -17 23q0 48 24 54q42 8 88 8q44 0 63.5 -20.5t19.5 -62.5z" />
    <glyph glyph-name="asciitilde" unicode="~" 
d="M82 251q0 34 17 54q28 25 79 25q22 0 67 -11t65 -11t43 9.5t25 9.5q14 0 14 -21q0 -36 -18 -54q-26 -26 -78 -26q-22 0 -67 11.5t-65 11.5q-21 0 -43.5 -10t-25.5 -10q-13 0 -13 22z" />
    <glyph glyph-name="exclamdown" unicode="&#xa1;" horiz-adv-x="196" 
d="M121 467q22 0 30.5 -5.5t8.5 -20.5q0 -8 -5 -77l-25 -334q-1 -18 -12.5 -24t-40.5 -6q-28 0 -37.5 5t-9.5 21q0 5 6 57l41 354q2 19 10.5 24.5t33.5 5.5zM127 520q-28 0 -38 4.5t-10 18.5q0 17 3 40q3 22 13 28.5t42 6.5q28 0 38 -4.5t10 -18.5q0 -17 -3 -40
q-3 -22 -13 -28.5t-42 -6.5z" />
    <glyph glyph-name="cent" unicode="&#xa2;" 
d="M187 64l4 38q-65 6 -96 37.5t-31 101.5q0 110 35 192q20 45 53.5 64.5t85.5 23.5l9 73q1 14 10.5 19t33.5 5q22 0 30 -3.5t8 -15.5q0 -1 -5 -45l-4 -33q50 -5 79 -15q14 -5 18.5 -10t4.5 -18q0 -50 -22 -50q-1 0 -42.5 7t-74.5 7q-44 0 -66.5 -10t-33.5 -39
q-22 -59 -22 -141q0 -41 21 -55.5t77 -14.5q29 0 56 5t44 9.5t20 4.5q13 0 13 -23q0 -30 -6.5 -41t-20.5 -16q-43 -16 -92 -20l-8 -76q-1 -15 -10.5 -20t-33.5 -5q-22 0 -30 3.5t-8 15.5q0 10 4 45z" />
    <glyph glyph-name="sterling" unicode="&#xa3;" 
d="M54 288q0 26 6 38q5 12 19 12h49l13 120q10 95 49.5 130t118.5 35q61 0 125 -16q12 -3 16 -7.5t4 -15.5q0 -58 -22 -58q-5 0 -40 5.5t-63 5.5q-51 0 -69.5 -17t-24.5 -73l-11 -109h74q16 0 16 -16q0 -26 -6 -38q-5 -12 -19 -12h-72l-3 -31q-9 -98 -45 -154h234
q11 0 15.5 -5t4.5 -20q0 -36 -7 -49t-22 -13h-309q-17 0 -23.5 4t-6.5 16q0 23 28 83.5t34 118.5l5 50h-52q-16 0 -16 16z" />
    <glyph glyph-name="currency" unicode="&#xa4;" 
d="M334 154l12 -36q10 -31 10 -40q0 -15 -36 -15q-23 0 -31 3.5t-12 15.5l-15 47q-22 -2 -38 -2q-15 0 -39 2l-26 -47q-7 -12 -15.5 -15.5t-33.5 -3.5q-34 0 -34 12q0 9 18 42l20 37q-22 23 -22 73q0 89 28 133q7 12 22 25l-11 35q-10 31 -10 40q0 15 36 15q23 0 31 -3.5
t12 -15.5l15 -47q22 2 38 2q15 0 39 -2l26 47q7 12 15.5 15.5t33.5 3.5q34 0 34 -12q0 -11 -18 -42l-21 -38q22 -22 22 -72q0 -88 -28 -132q-10 -15 -22 -25zM231 195q41 0 55 21q16 24 16 86q0 26 -11.5 33.5t-44.5 7.5q-43 0 -56 -20q-16 -26 -16 -87q0 -26 11.5 -33.5
t45.5 -7.5z" />
    <glyph glyph-name="yen" unicode="&#xa5;" 
d="M84 244q0 23 6 39q5 13 20 13h72l-103 259q-10 27 -10 39q0 24 49 24q30 0 39 -4t14 -20l78 -236h5l128 235q9 17 19 21t41 4q44 0 44 -19q0 -14 -45 -86l-135 -217h75q16 0 16 -17q0 -26 -5 -38q-6 -14 -20 -14h-87l-5 -51h89q15 0 15 -18q0 -25 -5 -38t-20 -13h-86
l-8 -77q-2 -18 -12.5 -24t-39.5 -6q-27 0 -36 4t-9 18q0 6 5 54l3 31h-88q-16 0 -16 17q0 26 5 38q5 14 20 14h86l5 51h-88q-16 0 -16 17z" />
    <glyph glyph-name="brokenbar" unicode="&#xa6;" horiz-adv-x="172" 
d="M42 -188q-21 0 -28.5 3.5t-7.5 14.5q0 12 9 96l25 253q1 16 10 21t34 5q21 0 28.5 -3.5t7.5 -14.5q0 -12 -9 -96l-25 -253q-1 -16 -10 -21t-34 -5zM92 279q-21 0 -28.5 3.5t-7.5 14.5q0 12 9 96l25 253q1 16 10 21t34 5q21 0 28.5 -3.5t7.5 -14.5q0 -12 -9 -96l-25 -253
q-1 -16 -10 -21t-34 -5z" />
    <glyph glyph-name="section" unicode="&#xa7;" horiz-adv-x="442" 
d="M41 209q0 92 41 127q10 8 20 13q-34 28 -34 82q0 90 48 143q45 49 142 49q82 0 150 -19q12 -4 16.5 -9t4.5 -17q0 -59 -23 -59l-50 9q-50 10 -92 10q-67 0 -84 -26q-16 -24 -16 -68q0 -17 8.5 -27t32.5 -20l115 -49q48 -20 68 -46t20 -69q0 -38 -11 -76.5t-33 -56.5
q-8 -6 -13 -8q33 -27 33 -84q0 -46 -17 -93.5t-49 -70.5q-51 -38 -153 -38q-89 0 -145 18q-24 7 -24 30q0 54 25 54q1 0 49.5 -9t89.5 -9q78 0 101 21q13 12 20 36t7 42q0 22 -9 35t-33 23l-109 47q-51 21 -73.5 46t-22.5 69zM312 209q0 42 -43 60l-106 46q-27 -22 -27 -82
q0 -21 10 -34t36 -25l103 -46q27 26 27 81z" />
    <glyph glyph-name="dieresis" unicode="&#xa8;" horiz-adv-x="313" 
d="M114 562q-26 0 -34.5 6t-8.5 22q0 24 9 46q4 11 15 14.5t37 3.5t34.5 -6t8.5 -22q0 -24 -9 -46q-4 -11 -15 -14.5t-37 -3.5zM263 562q-26 0 -34.5 6t-8.5 22q0 24 9 46q4 11 15 14.5t37 3.5t34.5 -6t8.5 -22q0 -24 -9 -46q-4 -11 -15 -14.5t-37 -3.5z" />
    <glyph glyph-name="copyright" unicode="&#xa9;" horiz-adv-x="902" 
d="M460 -57q107 0 172.5 19t102 67t48.5 113.5t12 175.5q0 107 -12 171.5t-48.5 112t-102 66.5t-172.5 19t-172.5 -19t-101.5 -66.5t-48 -112t-12 -171.5q0 -110 12 -175.5t48 -113.5t101.5 -67t172.5 -19zM460 -130q-77 0 -137 10t-103.5 28t-75 47.5t-51 64t-31 83
t-15.5 97.5t-4 115t4 115t15.5 97.5t31 83t51 64t75 47.5t103.5 28t137 10q90 0 156.5 -12.5t112.5 -40t75.5 -62.5t45 -88t21.5 -109t6 -133t-6 -133t-21.5 -109t-45 -88t-75.5 -62.5t-112.5 -40t-156.5 -12.5zM469 60q-54 0 -87 8.5t-60 34t-38 76t-11 132.5q0 58 6 101.5
t18.5 71.5t28 46t39.5 27t47 12t57 3q64 0 125 -18q15 -5 20 -13t5 -30q0 -39 -17 -39q-2 0 -47.5 8.5t-75.5 8.5q-45 0 -65.5 -10t-32 -46.5t-11.5 -111.5q0 -117 19 -147t93 -30q40 0 80 9.5t41 9.5q16 0 16 -39q0 -21 -5 -29.5t-20 -13.5q-58 -21 -125 -21z" />
    <glyph glyph-name="ordfeminine" unicode="&#xaa;" horiz-adv-x="361" 
d="M327 352q0 -10 2.5 -40.5t2.5 -36.5q0 -18 -36 -18q-21 0 -26.5 4t-7.5 17l-5 47q-38 -75 -127 -75q-46 0 -69 21.5t-23 71.5q0 49 7.5 111t21.5 94q33 75 118 75q72 0 90 -47l2 18q2 13 9.5 18t30.5 5q20 0 26.5 -3.5t6.5 -13.5q0 -8 -11.5 -118.5t-11.5 -129.5z
M163 317q82 0 93 110q7 75 7 88q0 24 -11 33.5t-47 9.5q-28 0 -44 -9t-25 -33q-7 -18 -13 -69.5t-6 -83.5q0 -28 9.5 -37t36.5 -9z" />
    <glyph glyph-name="guillemotleft" unicode="&#xab;" horiz-adv-x="585" 
d="M398 254l-1 -8l122 -109q19 -18 19 -37q0 -60 -23 -60q-10 0 -40 23l-146 114q-17 13 -23 22t-6 28q0 42 10 65q8 18 32 33l181 120q27 18 36 18q15 0 15 -23q0 -54 -32 -78zM130 254l-1 -8l123 -99q19 -16 19 -37q0 -60 -22 -60q-8 0 -25 11l-164 116q-17 12 -23 21.5
t-6 28.5q0 42 10 65q8 19 33 33l193 119q16 9 24 9q15 0 15 -23q0 -55 -32 -78z" />
    <glyph glyph-name="logicalnot" unicode="&#xac;" 
d="M74 265q0 29 7 47q6 15 25 15h264q17 0 23.5 -3.5t6.5 -15.5q0 -9 -4 -47l-9 -91q-1 -17 -11 -22.5t-36 -5.5q-24 0 -33 4.5t-9 16.5q0 2 3 35l4 46h-211q-11 0 -15.5 4.5t-4.5 16.5z" />
    <glyph glyph-name="registered" unicode="&#xae;" horiz-adv-x="902" 
d="M460 -130q-77 0 -137 10t-103.5 28t-75 47.5t-51 64t-31 83t-15.5 97.5t-4 115t4 115t15.5 97.5t31 83t51 64t75 47.5t103.5 28t137 10q90 0 156.5 -12.5t112.5 -40t75.5 -62.5t45 -88t21.5 -109t6 -133t-6 -133t-21.5 -109t-45 -88t-75.5 -62.5t-112.5 -40t-156.5 -12.5
zM460 -57q107 0 172.5 19t102 67t48.5 113.5t12 175.5q0 107 -12 171.5t-48.5 112t-102 66.5t-172.5 19t-172.5 -19t-101.5 -66.5t-48 -112t-12 -171.5q0 -110 12 -175.5t48 -113.5t101.5 -67t172.5 -19zM331 70q-30 0 -39.5 5.5t-9.5 24.5v431q0 30 31 35q66 9 152 9
q109 0 148.5 -29.5t39.5 -125.5q0 -61 -19.5 -94.5t-64.5 -47.5l80 -148q18 -33 18 -41q0 -11 -9.5 -15t-35.5 -4q-32 0 -41 3.5t-15 15.5l-80 176h-106v-165q0 -18 -10 -24t-39 -6zM380 489v-153h74q65 0 83 15t18 72q0 45 -17.5 57.5t-78.5 12.5q-35 0 -79 -4z" />
    <glyph glyph-name="macron" unicode="&#xaf;" horiz-adv-x="277" 
d="M281 626q0 -34 -6.5 -46.5t-20.5 -12.5h-167q-19 0 -19 24q0 59 28 59h166q11 0 15 -5t4 -19z" />
    <glyph glyph-name="degree" unicode="&#xb0;" horiz-adv-x="330" 
d="M171 333q-70 0 -98 21.5t-28 74.5q0 114 33 155q32 39 125 39q70 0 98 -22t28 -75q0 -114 -33 -154q-31 -39 -125 -39zM178 404q26 0 38.5 4.5t18.5 19.5q12 24 12 81q0 25 -10.5 33.5t-40.5 8.5q-25 0 -38 -4.5t-19 -19.5q-11 -25 -11 -81q0 -25 10.5 -33.5t39.5 -8.5z
" />
    <glyph glyph-name="plusminus" unicode="&#xb1;" 
d="M257 463q22 0 30 -3.5t8 -14.5q0 -7 -5 -51l-5 -50h89q17 0 17 -18q0 -26 -7 -42q-5 -13 -21 -13h-86l-10 -91q-1 -16 -9.5 -21t-33.5 -5q-22 0 -30 3.5t-8 14.5q0 7 5 51l5 48h-89q-18 0 -18 18q0 27 7 41q5 14 21 14h86l10 93q2 16 10 21t34 5zM80 50q0 30 6 43
q7 15 23 15h223q19 0 19 -20q0 -27 -7 -43q-7 -15 -23 -15h-223q-18 0 -18 20z" />
    <glyph glyph-name="twosuperior" unicode="&#xb2;" horiz-adv-x="339" 
d="M219 669q50 0 77 -15.5t27 -58.5q0 -44 -16 -73.5t-50 -62.5l-97 -94h127q16 0 16 -20q0 -50 -22 -50h-203q-25 0 -25 18q0 17 4 36q4 18 34 46l99 95q44 42 44 79q0 17 -8.5 22.5t-30.5 5.5q-21 0 -49.5 -6t-32.5 -6q-12 0 -12 22q0 25 5.5 35.5t21.5 14.5q50 12 91 12z
" />
    <glyph glyph-name="threesuperior" unicode="&#xb3;" horiz-adv-x="323" 
d="M143 511q50 0 67 13.5t17 45.5q0 18 -10 24.5t-34 6.5q-22 0 -52 -5.5t-34 -5.5q-7 0 -9 2.5t-2 13.5q0 26 5.5 36.5t20.5 14.5q52 13 95 13q49 0 76 -15.5t27 -59.5q0 -101 -80 -112q71 -1 71 -74q0 -120 -138 -120q-51 0 -97 13q-19 6 -19 23q0 13 4.5 28t13.5 15
q4 0 33 -5.5t52 -5.5q33 0 50 12.5t17 46.5q0 21 -16 30t-64 9q-17 0 -17 19q0 37 23 37z" />
    <glyph glyph-name="acute" unicode="&#xb4;" horiz-adv-x="214" 
d="M112 539q-37 0 -37 17q0 10 11 31l47 83q8 14 12.5 19t16 8.5t34.5 3.5q31 0 40 -4t9 -13q0 -14 -21 -44l-55 -78q-6 -9 -10.5 -13t-16 -7t-30.5 -3z" />
    <glyph glyph-name="mu" unicode="&#xb5;" horiz-adv-x="507" 
d="M69 -188q-27 0 -36.5 4t-9.5 18q0 8 9 93l35 331q2 24 5.5 53.5l5.5 47t2 25.5q0 16 -4.5 46.5t-4.5 33.5q0 16 9.5 22t37.5 6q40 0 48 -21q10 -29 10 -73q0 -31 -12.5 -144t-12.5 -133q0 -28 15.5 -38.5t49.5 -10.5q63 0 93 37t38 113l25 240q2 19 12.5 24.5t40.5 5.5
q27 0 36 -4t9 -17q0 -14 -16.5 -168.5t-16.5 -175.5q0 -12 3.5 -54t3.5 -50q0 -23 -45 -23q-26 0 -34 5.5t-10 21.5l-7 60q-47 -97 -170 -97q-26 0 -42 4l-16 -152q-2 -19 -12 -24.5t-39 -5.5z" />
    <glyph glyph-name="paragraph" unicode="&#xb6;" horiz-adv-x="530" 
d="M482 531l-51 -491q-7 -71 -28 -118.5t-55 -72t-72.5 -34t-91.5 -9.5q-73 0 -122 11q-22 5 -22 29q0 54 24 54q3 0 46.5 -4t79.5 -4q77 0 108 31t39 113l52 495h-78l-37 -347q-3 -26 -20 -30q-38 -11 -93 -11q-121 0 -121 124q0 64 13.5 155.5t36.5 127.5q25 40 60.5 54
t83.5 14h303q11 0 15.5 -5.5t4.5 -19.5q0 -36 -7 -49t-22 -13h-46z" />
    <glyph glyph-name="middot" unicode="&#xb7;" horiz-adv-x="178" 
d="M91 222q-29 0 -39 5t-10 21q0 5 5 43q3 23 13 29.5t42 6.5q29 0 39 -5t10 -21q0 -5 -5 -43q-3 -23 -13 -29.5t-42 -6.5z" />
    <glyph glyph-name="cedilla" unicode="&#xb8;" horiz-adv-x="208" 
d="M94 -31q0 -10 18 -22q27 -18 37 -30t10 -35q0 -95 -105 -95q-36 0 -60 7q-19 4 -19 24q0 46 23 46q4 0 19.5 -2t29.5 -2q27 0 27 18q0 9 -23 23q-29 19 -29 43q0 4 8 74h69q-5 -43 -5 -49z" />
    <glyph glyph-name="onesuperior" unicode="&#xb9;" horiz-adv-x="308" 
d="M78 589q0 41 21 49l68 23q18 7 47 7q17 0 23.5 -3.5t6.5 -15.5q0 -8 -13 -125l-17 -159h52q15 0 15 -19q0 -50 -22 -50h-183q-17 0 -17 19q0 50 23 50h52l22 221l-40 -12q-19 -5 -26 -5q-12 0 -12 20z" />
    <glyph glyph-name="ordmasculine" unicode="&#xba;" horiz-adv-x="349" 
d="M244 343q11 18 18 66.5t7 88.5q0 35 -14.5 46.5t-46.5 11.5q-42 0 -59 -27q-11 -18 -18 -66.5t-7 -87.5q0 -35 14.5 -47t46.5 -12q42 0 59 27zM177 249q-65 0 -98.5 24.5t-33.5 91.5q0 58 11.5 124.5t36.5 93.5q37 40 123 40q66 0 99.5 -24.5t33.5 -91.5
q0 -57 -11.5 -124t-36.5 -94q-37 -40 -124 -40z" />
    <glyph glyph-name="guillemotright" unicode="&#xbb;" horiz-adv-x="585" 
d="M203 249l1 8l-122 109q-19 18 -19 37q0 60 23 60q10 0 40 -23l146 -114q17 -13 23 -22t6 -28q0 -42 -10 -65q-8 -18 -32 -33l-181 -120q-27 -18 -36 -18q-15 0 -15 23q0 54 32 78zM471 249l1 8l-123 99q-19 16 -19 37q0 60 22 60q8 0 25 -11l164 -116q17 -12 23 -21.5
t6 -28.5q0 -42 -10 -65q-8 -19 -33 -33l-193 -119q-16 -9 -24 -9q-15 0 -15 23q0 55 32 78z" />
    <glyph glyph-name="onequarter" unicode="&#xbc;" horiz-adv-x="774" 
d="M563 580l-264 -557q-7 -14 -16.5 -18.5t-32.5 -4.5q-33 0 -33 14q0 9 11 32l264 557q7 14 16.5 18.5t32.5 4.5q33 0 33 -14q0 -9 -11 -32zM628 1q-37 0 -37 17q0 13 5 59h-147q-18 0 -18 23q0 42 17 66l137 186q10 13 23.5 17.5t45.5 4.5q28 0 38.5 -4t10.5 -18
q0 -7 -5 -52l-17 -160h33q9 0 12 -3.5t3 -13.5q0 -46 -21 -46h-34l-5 -53q-1 -14 -10.5 -18.5t-30.5 -4.5zM625 305l-117 -165h98zM72 544q0 41 21 49l68 23q18 7 47 7q17 0 23.5 -3.5t6.5 -15.5q0 -8 -13 -125l-17 -159h52q15 0 15 -19q0 -50 -22 -50h-183q-17 0 -17 19
q0 50 23 50h52l22 221l-40 -12q-19 -5 -26 -5q-12 0 -12 20z" />
    <glyph glyph-name="onehalf" unicode="&#xbd;" horiz-adv-x="766" 
d="M563 580l-264 -557q-7 -14 -16.5 -18.5t-32.5 -4.5q-33 0 -33 14q0 9 11 32l264 557q7 14 16.5 18.5t32.5 4.5q33 0 33 -14q0 -9 -11 -32zM72 544q0 41 21 49l68 23q18 7 47 7q17 0 23.5 -3.5t6.5 -15.5q0 -8 -13 -125l-17 -159h52q15 0 15 -19q0 -50 -22 -50h-183
q-17 0 -17 19q0 50 23 50h52l22 221l-40 -12q-19 -5 -26 -5q-12 0 -12 20zM630 374q50 0 77 -15.5t27 -58.5q0 -44 -16 -73.5t-50 -62.5l-97 -94h127q16 0 16 -20q0 -50 -22 -50h-203q-25 0 -25 18q0 17 4 36q4 18 34 46l99 95q44 42 44 79q0 17 -8.5 22.5t-30.5 5.5
q-21 0 -49.5 -6t-32.5 -6q-12 0 -12 22q0 25 5.5 35.5t21.5 14.5q50 12 91 12z" />
    <glyph glyph-name="threequarters" unicode="&#xbe;" horiz-adv-x="776" 
d="M565 580l-264 -557q-7 -14 -16.5 -18.5t-32.5 -4.5q-33 0 -33 14q0 9 11 32l264 557q7 14 16.5 18.5t32.5 4.5q33 0 33 -14q0 -9 -11 -32zM629 1q-37 0 -37 17q0 13 5 59h-147q-18 0 -18 23q0 42 17 66l137 186q10 13 23.5 17.5t45.5 4.5q28 0 38.5 -4t10.5 -18
q0 -7 -5 -52l-17 -160h33q9 0 12 -3.5t3 -13.5q0 -46 -21 -46h-34l-5 -53q-1 -14 -10.5 -18.5t-30.5 -4.5zM626 305l-117 -165h98zM142 464q50 0 67 13.5t17 45.5q0 18 -10 24.5t-34 6.5q-22 0 -52 -5.5t-34 -5.5q-7 0 -9 2.5t-2 13.5q0 26 5.5 36.5t20.5 14.5q52 13 95 13
q49 0 76 -15.5t27 -59.5q0 -101 -80 -112q71 -1 71 -74q0 -120 -138 -120q-51 0 -97 13q-19 6 -19 23q0 13 4.5 28t13.5 15q4 0 33 -5.5t52 -5.5q33 0 50 12.5t17 46.5q0 21 -16 30t-64 9q-17 0 -17 19q0 37 23 37z" />
    <glyph glyph-name="questiondown" unicode="&#xbf;" horiz-adv-x="358" 
d="M228 467q24 0 33 -4.5t9 -18.5q0 -9 -5 -50q-6 -54 -45 -93l-77 -77q-39 -39 -39 -96q0 -30 16.5 -39t61.5 -9q38 0 82.5 9t47.5 9q15 0 15 -21q0 -53 -24 -60q-62 -22 -148 -22q-71 0 -111 22t-40 87q0 50 15.5 86.5t55.5 76.5l71 70q27 27 31 67l3 33q1 18 11.5 24
t36.5 6zM233 520q-28 0 -38 4.5t-10 18.5q0 17 3 40q3 22 13 28.5t42 6.5q28 0 38 -4.5t10 -18.5q0 -17 -3 -40q-3 -22 -13 -28.5t-42 -6.5z" />
    <glyph glyph-name="Agrave" unicode="&#xc0;" horiz-adv-x="525" 
d="M43 0q-45 0 -45 18q0 15 20 65l193 491q11 29 28 36.5t67 7.5t65.5 -7.5t20.5 -36.5l87 -477q11 -61 11 -70q0 -16 -9.5 -21.5t-39.5 -5.5q-31 0 -40 5t-13 24l-27 148h-205l-56 -150q-6 -17 -16.5 -22t-40.5 -5zM292 535l-107 -282h167l-47 282h-13zM193 803
q1 14 11.5 17.5t41.5 3.5q30 0 38.5 -4.5t18.5 -22.5q51 -99 51 -113q0 -22 -39 -22q-25 0 -34 3.5t-18 16.5l-51 79q-19 29 -19 42z" />
    <glyph glyph-name="Aacute" unicode="&#xc1;" horiz-adv-x="525" 
d="M43 0q-45 0 -45 18q0 15 20 65l193 491q11 29 28 36.5t67 7.5t65.5 -7.5t20.5 -36.5l87 -477q11 -61 11 -70q0 -16 -9.5 -21.5t-39.5 -5.5q-31 0 -40 5t-13 24l-27 148h-205l-56 -150q-6 -17 -16.5 -22t-40.5 -5zM292 535l-107 -282h167l-47 282h-13zM305 662
q-37 0 -37 17q0 10 11 31l47 83q8 14 12.5 19t16 8.5t34.5 3.5q31 0 40 -4t9 -13q0 -14 -21 -44l-55 -78q-6 -9 -10.5 -13t-16 -7t-30.5 -3z" />
    <glyph glyph-name="Acircumflex" unicode="&#xc2;" horiz-adv-x="525" 
d="M43 0q-45 0 -45 18q0 15 20 65l193 491q11 29 28 36.5t67 7.5t65.5 -7.5t20.5 -36.5l87 -477q11 -61 11 -70q0 -16 -9.5 -21.5t-39.5 -5.5q-31 0 -40 5t-13 24l-27 148h-205l-56 -150q-6 -17 -16.5 -22t-40.5 -5zM292 535l-107 -282h167l-47 282h-13zM318 753l-52 -68
q-12 -15 -21 -19t-32 -4q-36 0 -36 14q0 7 18 33l68 92q10 13 20 18t31 5h26q20 0 28.5 -5t15.5 -18l49 -93q12 -24 12 -30q0 -10 -7.5 -13t-29.5 -3t-30.5 4t-16.5 18l-39 69h-4z" />
    <glyph glyph-name="Atilde" unicode="&#xc3;" horiz-adv-x="525" 
d="M43 0q-45 0 -45 18q0 15 20 65l193 491q11 29 28 36.5t67 7.5t65.5 -7.5t20.5 -36.5l87 -477q11 -61 11 -70q0 -16 -9.5 -21.5t-39.5 -5.5q-31 0 -40 5t-13 24l-27 148h-205l-56 -150q-6 -17 -16.5 -22t-40.5 -5zM292 535l-107 -282h167l-47 282h-13zM184 681
q-11 0 -11 16q0 49 29 65q32 16 64 16q23 0 56 -9.5t49 -9.5q20 0 42.5 8t25.5 8q11 0 11 -16q0 -27 -6.5 -41t-22.5 -23q-28 -17 -65 -17q-23 0 -56 10t-49 10q-21 0 -43 -8.5t-24 -8.5z" />
    <glyph glyph-name="Adieresis" unicode="&#xc4;" horiz-adv-x="525" 
d="M43 0q-45 0 -45 18q0 15 20 65l193 491q11 29 28 36.5t67 7.5t65.5 -7.5t20.5 -36.5l87 -477q11 -61 11 -70q0 -16 -9.5 -21.5t-39.5 -5.5q-31 0 -40 5t-13 24l-27 148h-205l-56 -150q-6 -17 -16.5 -22t-40.5 -5zM292 535l-107 -282h167l-47 282h-13zM231 685
q-26 0 -34.5 6t-8.5 22q0 24 9 46q4 11 15 14.5t37 3.5t34.5 -6t8.5 -22q0 -24 -9 -46q-4 -11 -15 -14.5t-37 -3.5zM380 685q-26 0 -34.5 6t-8.5 22q0 24 9 46q4 11 15 14.5t37 3.5t34.5 -6t8.5 -22q0 -24 -9 -46q-4 -11 -15 -14.5t-37 -3.5z" />
    <glyph glyph-name="Aring" unicode="&#xc5;" horiz-adv-x="525" 
d="M43 0q-45 0 -45 18q0 15 20 65l193 491q11 29 28 36.5t67 7.5t65.5 -7.5t20.5 -36.5l87 -477q11 -61 11 -70q0 -16 -9.5 -21.5t-39.5 -5.5q-31 0 -40 5t-13 24l-27 148h-205l-56 -150q-6 -17 -16.5 -22t-40.5 -5zM292 535l-107 -282h167l-47 282h-13zM310 734
q28 0 37.5 9.5t9.5 35.5q0 14 -8 18.5t-32 4.5q-29 0 -38.5 -9t-9.5 -35q0 -14 8.5 -19t32.5 -5zM304 671q-58 0 -82 19t-24 59q0 116 124 116q59 0 83 -18.5t24 -58.5q0 -56 -28.5 -86.5t-96.5 -30.5z" />
    <glyph glyph-name="AE" unicode="&#xc6;" horiz-adv-x="718" 
d="M292 535l-107 -282h154l30 282h-77zM43 0q-45 0 -45 18q0 15 20 65l193 491q11 29 28 36.5t67 7.5h392q20 0 20 -25q0 -36 -7 -49t-22 -13h-223l-18 -163h165q12 0 16.5 -5t4.5 -18q0 -37 -7 -49.5t-23 -12.5h-164l-21 -196h232q11 0 15.5 -5t4.5 -20q0 -36 -7 -49
t-22 -13h-296q-17 0 -23.5 4t-6.5 15q0 9 6 68l9 90h-175l-56 -150q-6 -17 -16.5 -22t-40.5 -5z" />
    <glyph glyph-name="Ccedilla" unicode="&#xc7;" horiz-adv-x="456" 
d="M234 -122q0 9 -23 23q-29 19 -29 43q0 11 5 49q-72 5 -109.5 41t-37.5 129q0 72 14 174.5t31 154.5q14 43 34.5 70.5t49 40t54 16.5t64.5 4q77 0 146 -19q20 -7 20 -25q0 -59 -22 -59q-1 0 -47 8.5t-84 8.5q-56 0 -83 -13t-42 -59q-13 -41 -24.5 -129.5t-11.5 -156.5
q0 -65 25.5 -83t90.5 -18q44 0 86.5 8.5t45.5 8.5q13 0 13 -18q0 -34 -7 -47.5t-23 -18.5q-48 -15 -114 -18q-2 -20 -2 -24q0 -10 18 -22q27 -18 37 -30t10 -35q0 -95 -105 -95q-36 0 -60 7q-19 4 -19 24q0 46 23 46q4 0 19.5 -2t29.5 -2q27 0 27 18z" />
    <glyph glyph-name="Egrave" unicode="&#xc8;" horiz-adv-x="453" 
d="M189 531l-18 -163h177q12 0 16.5 -5t4.5 -18q0 -37 -7 -49.5t-22 -12.5h-178l-20 -196h245q11 0 15.5 -5t4.5 -20q0 -62 -30 -62h-309q-16 0 -22.5 4t-6.5 15q0 10 8 80l51 491q1 16 8.5 22t27.5 6h299q20 0 20 -25q0 -36 -7 -49t-22 -13h-235zM179 803q1 14 11.5 17.5
t41.5 3.5q30 0 38.5 -4.5t18.5 -22.5q51 -99 51 -113q0 -22 -39 -22q-25 0 -34 3.5t-18 16.5l-51 79q-19 29 -19 42z" />
    <glyph glyph-name="Eacute" unicode="&#xc9;" horiz-adv-x="453" 
d="M189 531l-18 -163h177q12 0 16.5 -5t4.5 -18q0 -37 -7 -49.5t-22 -12.5h-178l-20 -196h245q11 0 15.5 -5t4.5 -20q0 -62 -30 -62h-309q-16 0 -22.5 4t-6.5 15q0 10 8 80l51 491q1 16 8.5 22t27.5 6h299q20 0 20 -25q0 -36 -7 -49t-22 -13h-235zM244 662q-37 0 -37 17
q0 10 11 31l47 83q8 14 12.5 19t16 8.5t34.5 3.5q31 0 40 -4t9 -13q0 -14 -21 -44l-55 -78q-6 -9 -10.5 -13t-16 -7t-30.5 -3z" />
    <glyph glyph-name="Ecircumflex" unicode="&#xca;" horiz-adv-x="453" 
d="M189 531l-18 -163h177q12 0 16.5 -5t4.5 -18q0 -37 -7 -49.5t-22 -12.5h-178l-20 -196h245q11 0 15.5 -5t4.5 -20q0 -62 -30 -62h-309q-16 0 -22.5 4t-6.5 15q0 10 8 80l51 491q1 16 8.5 22t27.5 6h299q20 0 20 -25q0 -36 -7 -49t-22 -13h-235zM288 753l-52 -68
q-12 -15 -21 -19t-32 -4q-36 0 -36 14q0 7 18 33l68 92q10 13 20 18t31 5h26q20 0 28.5 -5t15.5 -18l49 -93q12 -24 12 -30q0 -10 -7.5 -13t-29.5 -3t-30.5 4t-16.5 18l-39 69h-4z" />
    <glyph glyph-name="Edieresis" unicode="&#xcb;" horiz-adv-x="453" 
d="M189 531l-18 -163h177q12 0 16.5 -5t4.5 -18q0 -37 -7 -49.5t-22 -12.5h-178l-20 -196h245q11 0 15.5 -5t4.5 -20q0 -62 -30 -62h-309q-16 0 -22.5 4t-6.5 15q0 10 8 80l51 491q1 16 8.5 22t27.5 6h299q20 0 20 -25q0 -36 -7 -49t-22 -13h-235zM204 685q-26 0 -34.5 6
t-8.5 22q0 24 9 46q4 11 15 14.5t37 3.5t34.5 -6t8.5 -22q0 -24 -9 -46q-4 -11 -15 -14.5t-37 -3.5zM353 685q-26 0 -34.5 6t-8.5 22q0 24 9 46q4 11 15 14.5t37 3.5t34.5 -6t8.5 -22q0 -24 -9 -46q-4 -11 -15 -14.5t-37 -3.5z" />
    <glyph glyph-name="Igrave" unicode="&#xcc;" horiz-adv-x="213" 
d="M149 618q26 0 35.5 -4.5t9.5 -17.5t-14 -144l-44 -422q-2 -18 -12.5 -24t-39.5 -6q-26 0 -35.5 4.5t-9.5 17.5t14 144l44 422q2 18 12.5 24t39.5 6zM36 803q1 14 11.5 17.5t41.5 3.5q30 0 38.5 -4.5t18.5 -22.5q51 -99 51 -113q0 -22 -39 -22q-25 0 -34 3.5t-18 16.5
l-51 79q-19 29 -19 42z" />
    <glyph glyph-name="Iacute" unicode="&#xcd;" horiz-adv-x="213" 
d="M149 618q26 0 35.5 -4.5t9.5 -17.5t-14 -144l-44 -422q-2 -18 -12.5 -24t-39.5 -6q-26 0 -35.5 4.5t-9.5 17.5t14 144l44 422q2 18 12.5 24t39.5 6zM150 662q-37 0 -37 17q0 10 11 31l47 83q8 14 12.5 19t16 8.5t34.5 3.5q31 0 40 -4t9 -13q0 -14 -21 -44l-55 -78
q-6 -9 -10.5 -13t-16 -7t-30.5 -3z" />
    <glyph glyph-name="Icircumflex" unicode="&#xce;" horiz-adv-x="213" 
d="M149 618q26 0 35.5 -4.5t9.5 -17.5t-14 -144l-44 -422q-2 -18 -12.5 -24t-39.5 -6q-26 0 -35.5 4.5t-9.5 17.5t14 144l44 422q2 18 12.5 24t39.5 6zM161 753l-52 -68q-12 -15 -21 -19t-32 -4q-36 0 -36 14q0 7 18 33l68 92q10 13 20 18t31 5h26q20 0 28.5 -5t15.5 -18
l49 -93q12 -24 12 -30q0 -10 -7.5 -13t-29.5 -3t-30.5 4t-16.5 18l-39 69h-4z" />
    <glyph glyph-name="Idieresis" unicode="&#xcf;" horiz-adv-x="213" 
d="M149 618q26 0 35.5 -4.5t9.5 -17.5t-14 -144l-44 -422q-2 -18 -12.5 -24t-39.5 -6q-26 0 -35.5 4.5t-9.5 17.5t14 144l44 422q2 18 12.5 24t39.5 6zM79 685q-26 0 -34.5 6t-8.5 22q0 24 9 46q4 11 15 14.5t37 3.5t34.5 -6t8.5 -22q0 -24 -9 -46q-4 -11 -15 -14.5
t-37 -3.5zM228 685q-26 0 -34.5 6t-8.5 22q0 24 9 46q4 11 15 14.5t37 3.5t34.5 -6t8.5 -22q0 -24 -9 -46q-4 -11 -15 -14.5t-37 -3.5z" />
    <glyph glyph-name="Eth" unicode="&#xd0;" horiz-adv-x="519" 
d="M500 438q0 -71 -15.5 -189.5t-43.5 -167.5q-31 -55 -81 -72t-133 -17q-85 0 -157 8q-32 4 -32 25q0 5 10 99l15 148h-30q-10 0 -14 5t-4 19q0 34 6.5 46.5t20.5 12.5h30l24 224q4 32 35 36q59 8 147 8q47 0 77 -3t60.5 -13.5t47 -30.5t27 -54t10.5 -84zM273 542
q-34 0 -84 -5l-19 -182h41q11 0 15 -5t4 -19q0 -34 -6.5 -46.5t-20.5 -12.5h-42l-20 -191q32 -4 96 -4q52 0 79.5 10t43.5 42q18 35 30 140.5t12 152.5q0 75 -26.5 97.5t-102.5 22.5z" />
    <glyph glyph-name="Ntilde" unicode="&#xd1;" horiz-adv-x="549" 
d="M482 618q26 0 35.5 -4.5t9.5 -17.5q0 -12 -14 -143l-44 -423q-2 -19 -14.5 -24.5t-48.5 -5.5q-29 0 -40.5 5t-17.5 21l-160 434h-10q-10 -117 -42 -430q-2 -18 -12.5 -24t-39.5 -6q-26 0 -35.5 4.5t-9.5 17.5t14 144l44 422q2 19 14 24.5t48 5.5q32 0 44 -5t18 -21
l158 -425h10q22 235 42 421q2 19 12 24.5t39 5.5zM196 681q-11 0 -11 16q0 49 29 65q32 16 64 16q23 0 56 -9.5t49 -9.5q20 0 42.5 8t25.5 8q11 0 11 -16q0 -27 -6.5 -41t-22.5 -23q-28 -17 -65 -17q-23 0 -56 10t-49 10q-21 0 -43 -8.5t-24 -8.5z" />
    <glyph glyph-name="Ograve" unicode="&#xd2;" horiz-adv-x="515" 
d="M301 623q41 0 68 -3t53.5 -14t41 -31t23.5 -54.5t9 -84.5q0 -61 -14 -173t-34 -164q-25 -66 -72.5 -86.5t-140.5 -20.5q-41 0 -67.5 3t-53 14t-41 31t-23.5 54.5t-9 84.5q0 61 14 173t34 164q25 66 72 86.5t140 20.5zM293 539q-52 0 -77 -11t-39 -47q-13 -34 -26 -141.5
t-13 -159.5q0 -65 22.5 -84.5t83.5 -19.5q52 0 77 11t39 47q13 34 26 141.5t13 159.5q0 65 -22.5 84.5t-83.5 19.5zM190 803q1 14 11.5 17.5t41.5 3.5q30 0 38.5 -4.5t18.5 -22.5q51 -99 51 -113q0 -22 -39 -22q-25 0 -34 3.5t-18 16.5l-51 79q-19 29 -19 42z" />
    <glyph glyph-name="Oacute" unicode="&#xd3;" horiz-adv-x="515" 
d="M301 623q41 0 68 -3t53.5 -14t41 -31t23.5 -54.5t9 -84.5q0 -61 -14 -173t-34 -164q-25 -66 -72.5 -86.5t-140.5 -20.5q-41 0 -67.5 3t-53 14t-41 31t-23.5 54.5t-9 84.5q0 61 14 173t34 164q25 66 72 86.5t140 20.5zM293 539q-52 0 -77 -11t-39 -47q-13 -34 -26 -141.5
t-13 -159.5q0 -65 22.5 -84.5t83.5 -19.5q52 0 77 11t39 47q13 34 26 141.5t13 159.5q0 65 -22.5 84.5t-83.5 19.5zM279 662q-37 0 -37 17q0 10 11 31l47 83q8 14 12.5 19t16 8.5t34.5 3.5q31 0 40 -4t9 -13q0 -14 -21 -44l-55 -78q-6 -9 -10.5 -13t-16 -7t-30.5 -3z" />
    <glyph glyph-name="Ocircumflex" unicode="&#xd4;" horiz-adv-x="515" 
d="M301 623q41 0 68 -3t53.5 -14t41 -31t23.5 -54.5t9 -84.5q0 -61 -14 -173t-34 -164q-25 -66 -72.5 -86.5t-140.5 -20.5q-41 0 -67.5 3t-53 14t-41 31t-23.5 54.5t-9 84.5q0 61 14 173t34 164q25 66 72 86.5t140 20.5zM293 539q-52 0 -77 -11t-39 -47q-13 -34 -26 -141.5
t-13 -159.5q0 -65 22.5 -84.5t83.5 -19.5q52 0 77 11t39 47q13 34 26 141.5t13 159.5q0 65 -22.5 84.5t-83.5 19.5zM305 753l-52 -68q-12 -15 -21 -19t-32 -4q-36 0 -36 14q0 7 18 33l68 92q10 13 20 18t31 5h26q20 0 28.5 -5t15.5 -18l49 -93q12 -24 12 -30q0 -10 -7.5 -13
t-29.5 -3t-30.5 4t-16.5 18l-39 69h-4z" />
    <glyph glyph-name="Otilde" unicode="&#xd5;" horiz-adv-x="515" 
d="M301 623q41 0 68 -3t53.5 -14t41 -31t23.5 -54.5t9 -84.5q0 -61 -14 -173t-34 -164q-25 -66 -72.5 -86.5t-140.5 -20.5q-41 0 -67.5 3t-53 14t-41 31t-23.5 54.5t-9 84.5q0 61 14 173t34 164q25 66 72 86.5t140 20.5zM293 539q-52 0 -77 -11t-39 -47q-13 -34 -26 -141.5
t-13 -159.5q0 -65 22.5 -84.5t83.5 -19.5q52 0 77 11t39 47q13 34 26 141.5t13 159.5q0 65 -22.5 84.5t-83.5 19.5zM177 681q-11 0 -11 16q0 49 29 65q32 16 64 16q23 0 56 -9.5t49 -9.5q20 0 42.5 8t25.5 8q11 0 11 -16q0 -27 -6.5 -41t-22.5 -23q-28 -17 -65 -17
q-23 0 -56 10t-49 10q-20 0 -42 -8.5t-25 -8.5z" />
    <glyph glyph-name="Odieresis" unicode="&#xd6;" horiz-adv-x="515" 
d="M301 623q41 0 68 -3t53.5 -14t41 -31t23.5 -54.5t9 -84.5q0 -61 -14 -173t-34 -164q-25 -66 -72.5 -86.5t-140.5 -20.5q-41 0 -67.5 3t-53 14t-41 31t-23.5 54.5t-9 84.5q0 61 14 173t34 164q25 66 72 86.5t140 20.5zM293 539q-52 0 -77 -11t-39 -47q-13 -34 -26 -141.5
t-13 -159.5q0 -65 22.5 -84.5t83.5 -19.5q52 0 77 11t39 47q13 34 26 141.5t13 159.5q0 65 -22.5 84.5t-83.5 19.5zM225 685q-26 0 -34.5 6t-8.5 22q0 24 9 46q4 11 15 14.5t37 3.5t34.5 -6t8.5 -22q0 -24 -9 -46q-4 -11 -15 -14.5t-37 -3.5zM374 685q-26 0 -34.5 6t-8.5 22
q0 24 9 46q4 11 15 14.5t37 3.5t34.5 -6t8.5 -22q0 -24 -9 -46q-4 -11 -15 -14.5t-37 -3.5z" />
    <glyph glyph-name="multiply" unicode="&#xd7;" 
d="M76 125q0 8 19 30l97 114l-71 118q-14 24 -14 32q0 16 41 16q38 0 47 -16l50 -88l69 88q13 16 49 16q39 0 39 -14q0 -11 -26 -42l-91 -111l69 -105q18 -27 18 -36q0 -18 -41 -18q-37 0 -47 17l-52 82l-67 -82q-14 -17 -49 -17q-40 0 -40 16z" />
    <glyph glyph-name="Oslash" unicode="&#xd8;" horiz-adv-x="515" 
d="M301 623q41 0 68 -3t53.5 -14t41 -31t23.5 -54.5t9 -84.5q0 -61 -14 -173t-34 -164q-25 -66 -72.5 -86.5t-140.5 -20.5q-41 0 -67.5 3t-53 14t-41 31t-23.5 54.5t-9 84.5q0 61 14 173t34 164q25 66 72 86.5t140 20.5zM293 539q-52 0 -77 -11t-39 -47q-12 -31 -24 -121
t-15 -156l253 292q-9 26 -31.5 34.5t-66.5 8.5zM360 134q11 28 22 110.5t15 151.5l-247 -288q11 -19 32.5 -25.5t61.5 -6.5q52 0 77 11t39 47z" />
    <glyph glyph-name="Ugrave" unicode="&#xd9;" horiz-adv-x="519" 
d="M486 453l-28 -273q-10 -103 -62 -145.5t-162 -42.5q-98 0 -142 33.5t-44 112.5q0 16 9 106l37 344q2 18 12.5 24t39.5 6q26 0 35.5 -4.5t9.5 -17.5q0 -12 -14 -143l-22 -207q-9 -88 -9 -98q0 -40 21 -55.5t76 -15.5q63 0 86.5 21t29.5 78l44 412q2 18 12.5 24t39.5 6
q26 0 35.5 -4.5t9.5 -17.5q0 -12 -14 -143zM188 803q1 14 11.5 17.5t41.5 3.5q30 0 38.5 -4.5t18.5 -22.5q51 -99 51 -113q0 -22 -39 -22q-25 0 -34 3.5t-18 16.5l-51 79q-19 29 -19 42z" />
    <glyph glyph-name="Uacute" unicode="&#xda;" horiz-adv-x="519" 
d="M486 453l-28 -273q-10 -103 -62 -145.5t-162 -42.5q-98 0 -142 33.5t-44 112.5q0 16 9 106l37 344q2 18 12.5 24t39.5 6q26 0 35.5 -4.5t9.5 -17.5q0 -12 -14 -143l-22 -207q-9 -88 -9 -98q0 -40 21 -55.5t76 -15.5q63 0 86.5 21t29.5 78l44 412q2 18 12.5 24t39.5 6
q26 0 35.5 -4.5t9.5 -17.5q0 -12 -14 -143zM270 662q-37 0 -37 17q0 10 11 31l47 83q8 14 12.5 19t16 8.5t34.5 3.5q31 0 40 -4t9 -13q0 -14 -21 -44l-55 -78q-6 -9 -10.5 -13t-16 -7t-30.5 -3z" />
    <glyph glyph-name="Ucircumflex" unicode="&#xdb;" horiz-adv-x="519" 
d="M486 453l-28 -273q-10 -103 -62 -145.5t-162 -42.5q-98 0 -142 33.5t-44 112.5q0 16 9 106l37 344q2 18 12.5 24t39.5 6q26 0 35.5 -4.5t9.5 -17.5q0 -12 -14 -143l-22 -207q-9 -88 -9 -98q0 -40 21 -55.5t76 -15.5q63 0 86.5 21t29.5 78l44 412q2 18 12.5 24t39.5 6
q26 0 35.5 -4.5t9.5 -17.5q0 -12 -14 -143zM305 753l-52 -68q-12 -15 -21 -19t-32 -4q-36 0 -36 14q0 7 18 33l68 92q10 13 20 18t31 5h26q20 0 28.5 -5t15.5 -18l49 -93q12 -24 12 -30q0 -10 -7.5 -13t-29.5 -3t-30.5 4t-16.5 18l-39 69h-4z" />
    <glyph glyph-name="Udieresis" unicode="&#xdc;" horiz-adv-x="519" 
d="M486 453l-28 -273q-10 -103 -62 -145.5t-162 -42.5q-98 0 -142 33.5t-44 112.5q0 16 9 106l37 344q2 18 12.5 24t39.5 6q26 0 35.5 -4.5t9.5 -17.5q0 -12 -14 -143l-22 -207q-9 -88 -9 -98q0 -40 21 -55.5t76 -15.5q63 0 86.5 21t29.5 78l44 412q2 18 12.5 24t39.5 6
q26 0 35.5 -4.5t9.5 -17.5q0 -12 -14 -143zM221 685q-26 0 -34.5 6t-8.5 22q0 24 9 46q4 11 15 14.5t37 3.5t34.5 -6t8.5 -22q0 -24 -9 -46q-4 -11 -15 -14.5t-37 -3.5zM370 685q-26 0 -34.5 6t-8.5 22q0 24 9 46q4 11 15 14.5t37 3.5t34.5 -6t8.5 -22q0 -24 -9 -46
q-4 -11 -15 -14.5t-37 -3.5z" />
    <glyph glyph-name="Yacute" unicode="&#xdd;" horiz-adv-x="467" 
d="M177 167l7 66l-120 321q-11 29 -11 39q0 14 10.5 19.5t40.5 5.5t41 -5t16 -22l79 -255h5l133 255q8 17 20 22t43 5q26 0 35 -4.5t9 -14.5q0 -15 -20 -49l-185 -317l-21 -203q-2 -18 -12.5 -24t-39.5 -6q-26 0 -35.5 4.5t-9.5 17.5q0 7 15 145zM246 662q-37 0 -37 17
q0 10 11 31l47 83q8 14 12.5 19t16 8.5t34.5 3.5q31 0 40 -4t9 -13q0 -14 -21 -44l-55 -78q-6 -9 -10.5 -13t-16 -7t-30.5 -3z" />
    <glyph glyph-name="Thorn" unicode="&#xde;" horiz-adv-x="490" 
d="M459 367q0 -139 -57 -191.5t-187 -52.5h-66l-9 -93q-2 -18 -12.5 -24t-39.5 -6q-26 0 -35.5 4.5t-9.5 17.5t14 144l44 422q2 18 12.5 24t39.5 6q26 0 35.5 -4.5t9.5 -17.5q0 -8 -9 -93q48 3 88 3q98 0 140 -28t42 -111zM256 425q-23 0 -75 -2l-23 -220h74q70 0 97.5 34
t27.5 117q0 42 -21.5 56.5t-79.5 14.5z" />
    <glyph glyph-name="germandbls" unicode="&#xdf;" horiz-adv-x="500" 
d="M66 -188q-27 0 -36.5 4t-9.5 18q0 8 9 93l64 620q7 69 40.5 95t124.5 26q86 0 123 -20t37 -75q0 -50 -33.5 -111t-33.5 -91t33 -63l35 -36q48 -51 48 -107q0 -86 -44.5 -130.5t-117.5 -44.5q-54 0 -94 14q-21 7 -21 30q0 53 20 53q2 0 30 -6t56 -6q40 0 56.5 21t16.5 62
q0 32 -29 62l-38 39q-40 44 -40 94q0 40 31.5 101.5t31.5 91.5q0 26 -16.5 34t-57.5 8q-37 0 -48 -10.5t-15 -51.5l-71 -684q-2 -19 -12 -24.5t-39 -5.5z" />
    <glyph glyph-name="agrave" unicode="&#xe0;" horiz-adv-x="497" 
d="M425 127q0 -12 4 -54t4 -50q0 -23 -46 -23q-25 0 -33 5.5t-10 21.5l-8 64q-54 -101 -175 -101q-63 0 -93 29t-30 96q0 62 10.5 146.5t24.5 124.5q22 63 62 89.5t103 26.5q100 0 126 -61l3 21q2 18 12 24t38 6q25 0 33 -4.5t8 -16.5q0 -11 -16.5 -165t-16.5 -179zM204 72
q58 0 93 42t43 115q11 103 11 128q0 32 -19 47.5t-68 15.5q-40 0 -63.5 -13.5t-35.5 -47.5q-9 -26 -18.5 -98t-9.5 -122q0 -38 16 -52.5t51 -14.5zM187 680q1 14 11.5 17.5t41.5 3.5q30 0 38.5 -4.5t18.5 -22.5q51 -99 51 -113q0 -22 -39 -22q-25 0 -34 3.5t-18 16.5l-51 79
q-19 29 -19 42z" />
    <glyph glyph-name="aacute" unicode="&#xe1;" horiz-adv-x="497" 
d="M425 127q0 -12 4 -54t4 -50q0 -23 -46 -23q-25 0 -33 5.5t-10 21.5l-8 64q-54 -101 -175 -101q-63 0 -93 29t-30 96q0 62 10.5 146.5t24.5 124.5q22 63 62 89.5t103 26.5q100 0 126 -61l3 21q2 18 12 24t38 6q25 0 33 -4.5t8 -16.5q0 -11 -16.5 -165t-16.5 -179zM204 72
q58 0 93 42t43 115q11 103 11 128q0 32 -19 47.5t-68 15.5q-40 0 -63.5 -13.5t-35.5 -47.5q-9 -26 -18.5 -98t-9.5 -122q0 -38 16 -52.5t51 -14.5zM257 539q-37 0 -37 17q0 10 11 31l47 83q8 14 12.5 19t16 8.5t34.5 3.5q31 0 40 -4t9 -13q0 -14 -21 -44l-55 -78
q-6 -9 -10.5 -13t-16 -7t-30.5 -3z" />
    <glyph glyph-name="acircumflex" unicode="&#xe2;" horiz-adv-x="497" 
d="M425 127q0 -12 4 -54t4 -50q0 -23 -46 -23q-25 0 -33 5.5t-10 21.5l-8 64q-54 -101 -175 -101q-63 0 -93 29t-30 96q0 62 10.5 146.5t24.5 124.5q22 63 62 89.5t103 26.5q100 0 126 -61l3 21q2 18 12 24t38 6q25 0 33 -4.5t8 -16.5q0 -11 -16.5 -165t-16.5 -179zM204 72
q58 0 93 42t43 115q11 103 11 128q0 32 -19 47.5t-68 15.5q-40 0 -63.5 -13.5t-35.5 -47.5q-9 -26 -18.5 -98t-9.5 -122q0 -38 16 -52.5t51 -14.5zM295 630l-52 -68q-12 -15 -21 -19t-32 -4q-36 0 -36 14q0 7 18 33l68 92q10 13 20 18t31 5h26q20 0 28.5 -5t15.5 -18l49 -93
q12 -24 12 -30q0 -10 -7.5 -13t-29.5 -3t-30.5 4t-16.5 18l-39 69h-4z" />
    <glyph glyph-name="atilde" unicode="&#xe3;" horiz-adv-x="497" 
d="M425 127q0 -12 4 -54t4 -50q0 -23 -46 -23q-25 0 -33 5.5t-10 21.5l-8 64q-54 -101 -175 -101q-63 0 -93 29t-30 96q0 62 10.5 146.5t24.5 124.5q22 63 62 89.5t103 26.5q100 0 126 -61l3 21q2 18 12 24t38 6q25 0 33 -4.5t8 -16.5q0 -11 -16.5 -165t-16.5 -179zM204 72
q58 0 93 42t43 115q11 103 11 128q0 32 -19 47.5t-68 15.5q-40 0 -63.5 -13.5t-35.5 -47.5q-9 -26 -18.5 -98t-9.5 -122q0 -38 16 -52.5t51 -14.5zM169 564q-11 0 -11 16q0 49 29 65q32 16 64 16q23 0 56 -9.5t49 -9.5q20 0 42.5 8t25.5 8q11 0 11 -16q0 -27 -6.5 -41
t-22.5 -23q-28 -17 -65 -17q-23 0 -56 10t-49 10q-20 0 -42 -8.5t-25 -8.5z" />
    <glyph glyph-name="adieresis" unicode="&#xe4;" horiz-adv-x="497" 
d="M425 127q0 -12 4 -54t4 -50q0 -23 -46 -23q-25 0 -33 5.5t-10 21.5l-8 64q-54 -101 -175 -101q-63 0 -93 29t-30 96q0 62 10.5 146.5t24.5 124.5q22 63 62 89.5t103 26.5q100 0 126 -61l3 21q2 18 12 24t38 6q25 0 33 -4.5t8 -16.5q0 -11 -16.5 -165t-16.5 -179zM204 72
q58 0 93 42t43 115q11 103 11 128q0 32 -19 47.5t-68 15.5q-40 0 -63.5 -13.5t-35.5 -47.5q-9 -26 -18.5 -98t-9.5 -122q0 -38 16 -52.5t51 -14.5zM215 562q-26 0 -34.5 6t-8.5 22q0 24 9 46q4 11 15 14.5t37 3.5t34.5 -6t8.5 -22q0 -24 -9 -46q-4 -11 -15 -14.5t-37 -3.5z
M364 562q-26 0 -34.5 6t-8.5 22q0 24 9 46q4 11 15 14.5t37 3.5t34.5 -6t8.5 -22q0 -24 -9 -46q-4 -11 -15 -14.5t-37 -3.5z" />
    <glyph glyph-name="aring" unicode="&#xe5;" horiz-adv-x="497" 
d="M425 127q0 -12 4 -54t4 -50q0 -23 -46 -23q-25 0 -33 5.5t-10 21.5l-8 64q-54 -101 -175 -101q-63 0 -93 29t-30 96q0 62 10.5 146.5t24.5 124.5q22 63 62 89.5t103 26.5q100 0 126 -61l3 21q2 18 12 24t38 6q25 0 33 -4.5t8 -16.5q0 -11 -16.5 -165t-16.5 -179zM204 72
q58 0 93 42t43 115q11 103 11 128q0 32 -19 47.5t-68 15.5q-40 0 -63.5 -13.5t-35.5 -47.5q-9 -26 -18.5 -98t-9.5 -122q0 -38 16 -52.5t51 -14.5zM295 613q28 0 37.5 9.5t9.5 35.5q0 14 -8 18.5t-32 4.5q-29 0 -38.5 -9t-9.5 -35q0 -14 8.5 -19t32.5 -5zM289 550
q-58 0 -82 19t-24 59q0 116 124 116q59 0 83 -18.5t24 -58.5q0 -56 -28.5 -86.5t-96.5 -30.5z" />
    <glyph glyph-name="ae" unicode="&#xe6;" horiz-adv-x="735" 
d="M495 -10q-82 0 -118 17.5t-45 76.5q-54 -94 -171 -94q-63 0 -93 29t-30 96q0 62 10.5 146.5t24.5 124.5q22 63 62 89.5t103 26.5q59 0 92 -17.5t50 -54.5q24 44 66 58t110 14q86 0 117 -26t31 -80q0 -131 -68 -165q-60 -30 -199 -30h-14q-2 -34 -2 -50q0 -47 18.5 -63
t71.5 -16q29 0 60.5 6t52.5 12t25 6q16 0 16 -24q0 -28 -6 -38.5t-21 -17.5q-62 -26 -143 -26zM204 72q58 0 93 42t43 115q11 103 11 128q0 32 -19 47.5t-68 15.5q-40 0 -63.5 -13.5t-35.5 -47.5q-9 -26 -18.5 -98t-9.5 -122q0 -38 16 -52.5t51 -14.5zM448 357
q-13 -43 -19 -90q114 0 152 19q33 18 33 91q0 22 -13.5 33t-54.5 11q-42 0 -64 -13.5t-34 -50.5z" />
    <glyph glyph-name="ccedilla" unicode="&#xe7;" horiz-adv-x="412" 
d="M232 -31q0 -10 18 -22q27 -18 37 -30t10 -35q0 -95 -105 -95q-36 0 -60 7q-19 4 -19 24q0 46 23 46q4 0 19.5 -2t29.5 -2q27 0 27 18q0 9 -23 23q-29 19 -29 43q0 10 4 47q-66 5 -96 38t-30 115q0 144 37 250q16 45 46.5 70t61.5 31.5t76 6.5q67 0 112 -15
q14 -5 19 -10.5t5 -19.5q0 -51 -24 -51q-2 0 -41.5 6.5t-70.5 6.5q-43 0 -64 -12t-33 -48q-28 -88 -28 -206q0 -48 18 -64t69 -16q25 0 54 5.5t48.5 11t22.5 5.5q14 0 14 -22q0 -29 -6 -41.5t-20 -18.5q-43 -17 -100 -21q-2 -19 -2 -23z" />
    <glyph glyph-name="egrave" unicode="&#xe8;" horiz-adv-x="448" 
d="M208 -10q-93 0 -131.5 31t-38.5 123q0 144 37 250q16 45 46.5 70t63.5 31.5t84 6.5q86 0 117 -26t31 -80q0 -131 -68 -165q-60 -30 -199 -30h-14q-2 -34 -2 -50q0 -47 18.5 -63t71.5 -16q29 0 60.5 6t52.5 12t25 6q16 0 16 -24q0 -28 -6 -38.5t-21 -17.5
q-62 -26 -143 -26zM161 357q-13 -43 -19 -90q114 0 152 19q33 18 33 91q0 22 -13.5 33t-54.5 11q-42 0 -64 -13.5t-34 -50.5zM173 680q1 14 11.5 17.5t41.5 3.5q30 0 38.5 -4.5t18.5 -22.5q51 -99 51 -113q0 -22 -39 -22q-25 0 -34 3.5t-18 16.5l-51 79q-19 29 -19 42z" />
    <glyph glyph-name="eacute" unicode="&#xe9;" horiz-adv-x="448" 
d="M208 -10q-93 0 -131.5 31t-38.5 123q0 144 37 250q16 45 46.5 70t63.5 31.5t84 6.5q86 0 117 -26t31 -80q0 -131 -68 -165q-60 -30 -199 -30h-14q-2 -34 -2 -50q0 -47 18.5 -63t71.5 -16q29 0 60.5 6t52.5 12t25 6q16 0 16 -24q0 -28 -6 -38.5t-21 -17.5
q-62 -26 -143 -26zM161 357q-13 -43 -19 -90q114 0 152 19q33 18 33 91q0 22 -13.5 33t-54.5 11q-42 0 -64 -13.5t-34 -50.5zM241 539q-37 0 -37 17q0 10 11 31l47 83q8 14 12.5 19t16 8.5t34.5 3.5q31 0 40 -4t9 -13q0 -14 -21 -44l-55 -78q-6 -9 -10.5 -13t-16 -7
t-30.5 -3z" />
    <glyph glyph-name="ecircumflex" unicode="&#xea;" horiz-adv-x="448" 
d="M208 -10q-93 0 -131.5 31t-38.5 123q0 144 37 250q16 45 46.5 70t63.5 31.5t84 6.5q86 0 117 -26t31 -80q0 -131 -68 -165q-60 -30 -199 -30h-14q-2 -34 -2 -50q0 -47 18.5 -63t71.5 -16q29 0 60.5 6t52.5 12t25 6q16 0 16 -24q0 -28 -6 -38.5t-21 -17.5
q-62 -26 -143 -26zM161 357q-13 -43 -19 -90q114 0 152 19q33 18 33 91q0 22 -13.5 33t-54.5 11q-42 0 -64 -13.5t-34 -50.5zM277 630l-52 -68q-12 -15 -21 -19t-32 -4q-36 0 -36 14q0 7 18 33l68 92q10 13 20 18t31 5h26q20 0 28.5 -5t15.5 -18l49 -93q12 -24 12 -30
q0 -10 -7.5 -13t-29.5 -3t-30.5 4t-16.5 18l-39 69h-4z" />
    <glyph glyph-name="edieresis" unicode="&#xeb;" horiz-adv-x="448" 
d="M208 -10q-93 0 -131.5 31t-38.5 123q0 144 37 250q16 45 46.5 70t63.5 31.5t84 6.5q86 0 117 -26t31 -80q0 -131 -68 -165q-60 -30 -199 -30h-14q-2 -34 -2 -50q0 -47 18.5 -63t71.5 -16q29 0 60.5 6t52.5 12t25 6q16 0 16 -24q0 -28 -6 -38.5t-21 -17.5
q-62 -26 -143 -26zM161 357q-13 -43 -19 -90q114 0 152 19q33 18 33 91q0 22 -13.5 33t-54.5 11q-42 0 -64 -13.5t-34 -50.5zM192 562q-26 0 -34.5 6t-8.5 22q0 24 9 46q4 11 15 14.5t37 3.5t34.5 -6t8.5 -22q0 -24 -9 -46q-4 -11 -15 -14.5t-37 -3.5zM341 562
q-26 0 -34.5 6t-8.5 22q0 24 9 46q4 11 15 14.5t37 3.5t34.5 -6t8.5 -22q0 -24 -9 -46q-4 -11 -15 -14.5t-37 -3.5z" />
    <glyph glyph-name="igrave" unicode="&#xec;" horiz-adv-x="223" 
d="M30 680q1 14 11.5 17.5t41.5 3.5q30 0 38.5 -4.5t18.5 -22.5q51 -99 51 -113q0 -22 -39 -22q-25 0 -34 3.5t-18 16.5l-51 79q-19 28 -19 42zM109 0q-24 0 -33.5 4.5t-14.5 16.5q-12 38 -12 75q0 32 11 133l24 233q2 19 12.5 24.5t40.5 5.5q27 0 36 -4t9 -17
q0 -10 -18 -172t-18 -194q0 -19 4.5 -47t4.5 -30q0 -9 -2 -14t-12.5 -9.5t-31.5 -4.5z" />
    <glyph glyph-name="iacute" unicode="&#xed;" horiz-adv-x="223" 
d="M129 539q-37 0 -37 17q0 10 11 31l47 83q8 14 12.5 19t16 8.5t34.5 3.5q31 0 40 -4t9 -13q0 -14 -21 -44l-55 -78q-6 -9 -10.5 -13t-16 -7t-30.5 -3zM109 0q-24 0 -33.5 4.5t-14.5 16.5q-12 38 -12 75q0 32 11 133l24 233q2 19 12.5 24.5t40.5 5.5q27 0 36 -4t9 -17
q0 -10 -18 -172t-18 -194q0 -19 4.5 -47t4.5 -30q0 -9 -2 -14t-12.5 -9.5t-31.5 -4.5z" />
    <glyph glyph-name="icircumflex" unicode="&#xee;" horiz-adv-x="223" 
d="M124 630l-52 -68q-12 -15 -21 -19t-32 -4q-36 0 -36 14q0 7 18 33l68 92q10 13 20 18t31 5h26q20 0 28.5 -5t15.5 -18l49 -93q12 -24 12 -30q0 -10 -7.5 -13t-29.5 -3t-30.5 4t-16.5 18l-39 69h-4zM87 0q-24 0 -33.5 4.5t-14.5 16.5q-12 38 -12 75q0 32 11 133l24 233
q2 19 12.5 24.5t40.5 5.5q27 0 36 -4t9 -17q0 -10 -18 -172t-18 -194q0 -19 4.5 -47t4.5 -30q0 -9 -2 -14t-12.5 -9.5t-31.5 -4.5z" />
    <glyph glyph-name="idieresis" unicode="&#xef;" horiz-adv-x="223" 
d="M61 562q-26 0 -34.5 6t-8.5 22q0 24 9 46q4 11 15 14.5t37 3.5t34.5 -6t8.5 -22q0 -24 -9 -46q-4 -11 -15 -14.5t-37 -3.5zM210 562q-26 0 -34.5 6t-8.5 22q0 24 9 46q4 11 15 14.5t37 3.5t34.5 -6t8.5 -22q0 -24 -9 -46q-4 -11 -15 -14.5t-37 -3.5zM109 0
q-24 0 -33.5 4.5t-14.5 16.5q-12 38 -12 75q0 32 11 133l24 233q2 19 12.5 24.5t40.5 5.5q27 0 36 -4t9 -17q0 -10 -18 -172t-18 -194q0 -19 4.5 -47t4.5 -30q0 -9 -2 -14t-12.5 -9.5t-31.5 -4.5z" />
    <glyph glyph-name="eth" unicode="&#xf0;" horiz-adv-x="487" 
d="M220 72q43 0 66.5 12.5t34.5 42.5q29 79 29 198q0 58 -18 78t-68 20q-47 0 -70 -15t-34 -54q-23 -83 -23 -195q0 -53 16.5 -70t66.5 -17zM234 570q0 13 16 17l40 10q-18 34 -18 46q0 21 37 21q22 0 29.5 -3t13.5 -13l19 -30l45 12q12 3 17 3q8 0 13 -14.5t5 -25.5
q0 -13 -16 -17l-39 -10q50 -119 50 -241q0 -147 -37 -231q-26 -58 -72.5 -81t-127.5 -23q-94 0 -132.5 32.5t-38.5 127.5q0 56 10 128.5t23 112.5q21 61 61 86t106 25q67 0 96 -31q-10 42 -21 74l-44 -12q-12 -3 -17 -3q-8 0 -13 14.5t-5 25.5z" />
    <glyph glyph-name="ntilde" unicode="&#xf1;" horiz-adv-x="510" 
d="M165 269l-25 -239q-2 -19 -12.5 -24.5t-40.5 -5.5q-26 0 -35 4t-9 17q0 9 12 118q21 197 21 229q0 12 -4 52t-4 44q0 15 9.5 21.5t37.5 6.5t36.5 -4.5t10.5 -21.5l7 -58q22 48 62.5 71t109.5 23q65 0 92.5 -24.5t27.5 -75.5q0 -19 -14.5 -142t-14.5 -155q0 -19 4.5 -47
t4.5 -30q0 -9 -2 -14t-12.5 -9.5t-31.5 -4.5q-24 0 -33.5 4.5t-14.5 16.5q-12 38 -12 75q0 29 13.5 141t13.5 132q0 27 -13.5 38t-46.5 11q-66 0 -97.5 -36t-39.5 -113zM158 564q-11 0 -11 16q0 49 29 65q32 16 64 16q23 0 56 -9.5t49 -9.5q20 0 42.5 8t25.5 8q11 0 11 -16
q0 -27 -6.5 -41t-22.5 -23q-28 -17 -65 -17q-23 0 -56 10t-49 10q-21 0 -43 -8.5t-24 -8.5z" />
    <glyph glyph-name="ograve" unicode="&#xf2;" horiz-adv-x="480" 
d="M217 74q68 0 89 34q17 29 28 108.5t11 121.5q0 49 -17 65t-66 16q-67 0 -89 -35q-17 -29 -28 -108.5t-11 -121.5q0 -49 17 -64.5t66 -15.5zM211 -10q-93 0 -133 32t-40 122q0 62 14.5 147.5t41.5 132.5q24 42 65.5 60t108.5 18q93 0 133 -32t40 -122q0 -62 -14.5 -147.5
t-41.5 -132.5q-24 -42 -65.5 -60t-108.5 -18zM165 680q1 14 11.5 17.5t41.5 3.5q30 0 38.5 -4.5t18.5 -22.5q51 -99 51 -113q0 -22 -39 -22q-25 0 -34 3.5t-18 16.5l-51 79q-19 29 -19 42z" />
    <glyph glyph-name="oacute" unicode="&#xf3;" horiz-adv-x="480" 
d="M217 74q68 0 89 34q17 29 28 108.5t11 121.5q0 49 -17 65t-66 16q-67 0 -89 -35q-17 -29 -28 -108.5t-11 -121.5q0 -49 17 -64.5t66 -15.5zM211 -10q-93 0 -133 32t-40 122q0 62 14.5 147.5t41.5 132.5q24 42 65.5 60t108.5 18q93 0 133 -32t40 -122q0 -62 -14.5 -147.5
t-41.5 -132.5q-24 -42 -65.5 -60t-108.5 -18zM257 539q-37 0 -37 17q0 10 11 31l47 83q8 14 12.5 19t16 8.5t34.5 3.5q31 0 40 -4t9 -13q0 -14 -21 -44l-55 -78q-6 -9 -10.5 -13t-16 -7t-30.5 -3z" />
    <glyph glyph-name="ocircumflex" unicode="&#xf4;" horiz-adv-x="480" 
d="M217 74q68 0 89 34q17 29 28 108.5t11 121.5q0 49 -17 65t-66 16q-67 0 -89 -35q-17 -29 -28 -108.5t-11 -121.5q0 -49 17 -64.5t66 -15.5zM211 -10q-93 0 -133 32t-40 122q0 62 14.5 147.5t41.5 132.5q24 42 65.5 60t108.5 18q93 0 133 -32t40 -122q0 -62 -14.5 -147.5
t-41.5 -132.5q-24 -42 -65.5 -60t-108.5 -18zM280 630l-52 -68q-12 -15 -21 -19t-32 -4q-36 0 -36 14q0 7 18 33l68 92q10 13 20 18t31 5h26q20 0 28.5 -5t15.5 -18l49 -93q12 -24 12 -30q0 -10 -7.5 -13t-29.5 -3t-30.5 4t-16.5 18l-39 69h-4z" />
    <glyph glyph-name="otilde" unicode="&#xf5;" horiz-adv-x="480" 
d="M217 74q68 0 89 34q17 29 28 108.5t11 121.5q0 49 -17 65t-66 16q-67 0 -89 -35q-17 -29 -28 -108.5t-11 -121.5q0 -49 17 -64.5t66 -15.5zM211 -10q-93 0 -133 32t-40 122q0 62 14.5 147.5t41.5 132.5q24 42 65.5 60t108.5 18q93 0 133 -32t40 -122q0 -62 -14.5 -147.5
t-41.5 -132.5q-24 -42 -65.5 -60t-108.5 -18zM158 564q-11 0 -11 16q0 49 29 65q32 16 64 16q23 0 56 -9.5t49 -9.5q20 0 42.5 8t25.5 8q11 0 11 -16q0 -27 -6.5 -41t-22.5 -23q-28 -17 -65 -17q-23 0 -56 10t-49 10q-21 0 -43 -8.5t-24 -8.5z" />
    <glyph glyph-name="odieresis" unicode="&#xf6;" horiz-adv-x="480" 
d="M217 74q68 0 89 34q17 29 28 108.5t11 121.5q0 49 -17 65t-66 16q-67 0 -89 -35q-17 -29 -28 -108.5t-11 -121.5q0 -49 17 -64.5t66 -15.5zM211 -10q-93 0 -133 32t-40 122q0 62 14.5 147.5t41.5 132.5q24 42 65.5 60t108.5 18q93 0 133 -32t40 -122q0 -62 -14.5 -147.5
t-41.5 -132.5q-24 -42 -65.5 -60t-108.5 -18zM196 562q-26 0 -34.5 6t-8.5 22q0 24 9 46q4 11 15 14.5t37 3.5t34.5 -6t8.5 -22q0 -24 -9 -46q-4 -11 -15 -14.5t-37 -3.5zM345 562q-26 0 -34.5 6t-8.5 22q0 24 9 46q4 11 15 14.5t37 3.5t34.5 -6t8.5 -22q0 -24 -9 -46
q-4 -11 -15 -14.5t-37 -3.5z" />
    <glyph glyph-name="divide" unicode="&#xf7;" 
d="M86 250q0 27 7 43q6 15 24 15h241q11 0 15 -4t4 -16q0 -30 -6 -43q-7 -15 -24 -15h-241q-11 0 -15.5 4t-4.5 16zM242 369q-24 0 -32 4t-8 17q0 4 3 38q2 19 11 24.5t35 5.5q24 0 32 -4.5t8 -17.5q0 -4 -3 -38q-2 -19 -10.5 -24t-35.5 -5zM210 66q-23 0 -31.5 4t-8.5 17
q0 3 3 38q2 19 11 24.5t36 5.5q23 0 31.5 -4.5t8.5 -17.5q0 -7 -4 -38q-2 -19 -10.5 -24t-35.5 -5z" />
    <glyph glyph-name="oslash" unicode="&#xf8;" horiz-adv-x="480" 
d="M211 -10q-93 0 -133 32t-40 122q0 62 14.5 147.5t41.5 132.5q24 42 65.5 60t108.5 18q93 0 133 -32t40 -122q0 -62 -14.5 -147.5t-41.5 -132.5q-24 -42 -65.5 -60t-108.5 -18zM217 74q68 0 89 34q15 25 25.5 93t13.5 121l-203 -221q14 -27 75 -27zM173 384
q-28 -47 -39 -207l200 218q-16 24 -72 24q-67 0 -89 -35z" />
    <glyph glyph-name="ugrave" unicode="&#xf9;" horiz-adv-x="503" 
d="M393 0q-26 0 -34 5.5t-10 21.5l-7 64q-45 -101 -173 -101q-62 0 -90.5 23t-28.5 75q0 35 17 150q15 102 15 146q0 16 -4.5 46.5t-4.5 33.5q0 16 9.5 22t37.5 6q26 0 34.5 -5.5t12.5 -21.5q10 -37 10 -78q0 -25 -14 -135t-14 -131q0 -28 13.5 -38.5t47.5 -10.5q65 0 94 38
t38 122l24 230q2 19 12.5 24.5t40.5 5.5q27 0 36 -4t9 -17q0 -14 -16.5 -168.5t-16.5 -175.5q0 -12 3.5 -54t3.5 -50q0 -23 -45 -23zM169 680q1 14 11.5 17.5t41.5 3.5q30 0 38.5 -4.5t18.5 -22.5q51 -99 51 -113q0 -22 -39 -22q-25 0 -34 3.5t-18 16.5l-51 79
q-19 29 -19 42z" />
    <glyph glyph-name="uacute" unicode="&#xfa;" horiz-adv-x="503" 
d="M393 0q-26 0 -34 5.5t-10 21.5l-7 64q-45 -101 -173 -101q-62 0 -90.5 23t-28.5 75q0 35 17 150q15 102 15 146q0 16 -4.5 46.5t-4.5 33.5q0 16 9.5 22t37.5 6q26 0 34.5 -5.5t12.5 -21.5q10 -37 10 -78q0 -25 -14 -135t-14 -131q0 -28 13.5 -38.5t47.5 -10.5q65 0 94 38
t38 122l24 230q2 19 12.5 24.5t40.5 5.5q27 0 36 -4t9 -17q0 -14 -16.5 -168.5t-16.5 -175.5q0 -12 3.5 -54t3.5 -50q0 -23 -45 -23zM259 539q-37 0 -37 17q0 10 11 31l47 83q8 14 12.5 19t16 8.5t34.5 3.5q31 0 40 -4t9 -13q0 -14 -21 -44l-55 -78q-6 -9 -10.5 -13t-16 -7
t-30.5 -3z" />
    <glyph glyph-name="ucircumflex" unicode="&#xfb;" horiz-adv-x="503" 
d="M393 0q-26 0 -34 5.5t-10 21.5l-7 64q-45 -101 -173 -101q-62 0 -90.5 23t-28.5 75q0 35 17 150q15 102 15 146q0 16 -4.5 46.5t-4.5 33.5q0 16 9.5 22t37.5 6q26 0 34.5 -5.5t12.5 -21.5q10 -37 10 -78q0 -25 -14 -135t-14 -131q0 -28 13.5 -38.5t47.5 -10.5q65 0 94 38
t38 122l24 230q2 19 12.5 24.5t40.5 5.5q27 0 36 -4t9 -17q0 -14 -16.5 -168.5t-16.5 -175.5q0 -12 3.5 -54t3.5 -50q0 -23 -45 -23zM281 630l-52 -68q-12 -15 -21 -19t-32 -4q-36 0 -36 14q0 7 18 33l68 92q10 13 20 18t31 5h26q20 0 28.5 -5t15.5 -18l49 -93
q12 -24 12 -30q0 -10 -7.5 -13t-29.5 -3t-30.5 4t-16.5 18l-39 69h-4z" />
    <glyph glyph-name="udieresis" unicode="&#xfc;" horiz-adv-x="503" 
d="M393 0q-26 0 -34 5.5t-10 21.5l-7 64q-45 -101 -173 -101q-62 0 -90.5 23t-28.5 75q0 35 17 150q15 102 15 146q0 16 -4.5 46.5t-4.5 33.5q0 16 9.5 22t37.5 6q26 0 34.5 -5.5t12.5 -21.5q10 -37 10 -78q0 -25 -14 -135t-14 -131q0 -28 13.5 -38.5t47.5 -10.5q65 0 94 38
t38 122l24 230q2 19 12.5 24.5t40.5 5.5q27 0 36 -4t9 -17q0 -14 -16.5 -168.5t-16.5 -175.5q0 -12 3.5 -54t3.5 -50q0 -23 -45 -23zM194 562q-26 0 -34.5 6t-8.5 22q0 24 9 46q4 11 15 14.5t37 3.5t34.5 -6t8.5 -22q0 -24 -9 -46q-4 -11 -15 -14.5t-37 -3.5zM343 562
q-26 0 -34.5 6t-8.5 22q0 24 9 46q4 11 15 14.5t37 3.5t34.5 -6t8.5 -22q0 -24 -9 -46q-4 -11 -15 -14.5t-37 -3.5z" />
    <glyph glyph-name="yacute" unicode="&#xfd;" horiz-adv-x="447" 
d="M445 470q0 -14 -29 -102q-32 -99 -90.5 -255t-91.5 -219q-46 -88 -154 -88q-50 0 -78 9q-21 7 -21 30q0 51 25 51q3 0 28.5 -3t45.5 -3q35 0 53.5 13.5t33.5 51.5l17 45q-36 1 -50 10.5t-19 36.5l-68 362q-8 45 -8 53q0 18 12 25q10 5 42 5q28 0 37.5 -4.5t11.5 -20.5
q23 -173 60 -384h12l52 152l51.5 155.5t24.5 76.5q5 16 16 20.5t41 4.5q28 0 37 -5t9 -17zM222 539q-37 0 -37 17q0 10 11 31l47 83q8 14 12.5 19t16 8.5t34.5 3.5q31 0 40 -4t9 -13q0 -14 -21 -44l-55 -78q-6 -9 -10.5 -13t-16 -7t-30.5 -3z" />
    <glyph glyph-name="thorn" unicode="&#xfe;" horiz-adv-x="505" 
d="M140 38l-19 -196q-2 -19 -12 -24.5t-39 -5.5q-27 0 -36.5 4t-9.5 18q0 10 9 94l72 696q2 19 12 24.5t39 5.5q27 0 36.5 -4t9.5 -18q0 -10 -9 -94l-11 -103q49 67 157 67q73 0 102 -30t29 -109q0 -71 -15 -168t-47 -140q-27 -37 -62.5 -51t-88.5 -14q-83 0 -117 48z
M238 70q37 0 59.5 10.5t36.5 36.5q16 30 26 105.5t10 122.5q0 45 -16 60t-59 15q-65 0 -95.5 -42t-39.5 -122q-11 -106 -11 -125q0 -30 19.5 -45.5t69.5 -15.5z" />
    <glyph glyph-name="ydieresis" unicode="&#xff;" horiz-adv-x="447" 
d="M445 470q0 -14 -29 -102q-32 -99 -90.5 -255t-91.5 -219q-46 -88 -154 -88q-50 0 -78 9q-21 7 -21 30q0 51 25 51q3 0 28.5 -3t45.5 -3q35 0 53.5 13.5t33.5 51.5l17 45q-36 1 -50 10.5t-19 36.5l-68 362q-8 45 -8 53q0 18 12 25q10 5 42 5q28 0 37.5 -4.5t11.5 -20.5
q23 -173 60 -384h12l52 152l51.5 155.5t24.5 76.5q5 16 16 20.5t41 4.5q28 0 37 -5t9 -17zM167 562q-26 0 -34.5 6t-8.5 22q0 24 9 46q4 11 15 14.5t37 3.5t34.5 -6t8.5 -22q0 -24 -9 -46q-4 -11 -15 -14.5t-37 -3.5zM316 562q-26 0 -34.5 6t-8.5 22q0 24 9 46q4 11 15 14.5
t37 3.5t34.5 -6t8.5 -22q0 -24 -9 -46q-4 -11 -15 -14.5t-37 -3.5z" />
    <glyph glyph-name="Amacron" unicode="&#x100;" horiz-adv-x="525" 
d="M43 0q-45 0 -45 18q0 15 20 65l193 491q11 29 28 36.5t67 7.5t65.5 -7.5t20.5 -36.5l87 -477q11 -61 11 -70q0 -16 -9.5 -21.5t-39.5 -5.5q-31 0 -40 5t-13 24l-27 148h-205l-56 -150q-6 -17 -16.5 -22t-40.5 -5zM292 535l-107 -282h167l-47 282h-13zM422 749
q0 -34 -6.5 -46.5t-20.5 -12.5h-167q-19 0 -19 24q0 59 28 59h166q11 0 15 -5t4 -19z" />
    <glyph glyph-name="amacron" unicode="&#x101;" horiz-adv-x="497" 
d="M425 127q0 -12 4 -54t4 -50q0 -23 -46 -23q-25 0 -33 5.5t-10 21.5l-8 64q-54 -101 -175 -101q-63 0 -93 29t-30 96q0 62 10.5 146.5t24.5 124.5q22 63 62 89.5t103 26.5q100 0 126 -61l3 21q2 18 12 24t38 6q25 0 33 -4.5t8 -16.5q0 -11 -16.5 -165t-16.5 -179zM204 72
q58 0 93 42t43 115q11 103 11 128q0 32 -19 47.5t-68 15.5q-40 0 -63.5 -13.5t-35.5 -47.5q-9 -26 -18.5 -98t-9.5 -122q0 -38 16 -52.5t51 -14.5zM409 626q0 -34 -6.5 -46.5t-20.5 -12.5h-167q-19 0 -19 24q0 59 28 59h166q11 0 15 -5t4 -19z" />
    <glyph glyph-name="Abreve" unicode="&#x102;" horiz-adv-x="525" 
d="M43 0q-45 0 -45 18q0 15 20 65l193 491q11 29 28 36.5t67 7.5t65.5 -7.5t20.5 -36.5l87 -477q11 -61 11 -70q0 -16 -9.5 -21.5t-39.5 -5.5q-31 0 -40 5t-13 24l-27 148h-205l-56 -150q-6 -17 -16.5 -22t-40.5 -5zM292 535l-107 -282h167l-47 282h-13zM304 672
q-60 0 -83 17t-23 57q0 15 2 33q3 15 10.5 20t30.5 5q19 0 25.5 -4.5t6.5 -14.5q0 -2 -1 -8.5t-1 -8.5q1 -14 8.5 -19t32.5 -5q28 0 35.5 6.5t11.5 28.5q2 16 9 20.5t29 4.5q19 0 26 -4t7 -16q0 -61 -26 -87q-25 -25 -100 -25z" />
    <glyph glyph-name="abreve" unicode="&#x103;" horiz-adv-x="497" 
d="M425 127q0 -12 4 -54t4 -50q0 -23 -46 -23q-25 0 -33 5.5t-10 21.5l-8 64q-54 -101 -175 -101q-63 0 -93 29t-30 96q0 62 10.5 146.5t24.5 124.5q22 63 62 89.5t103 26.5q100 0 126 -61l3 21q2 18 12 24t38 6q25 0 33 -4.5t8 -16.5q0 -11 -16.5 -165t-16.5 -179zM204 72
q58 0 93 42t43 115q11 103 11 128q0 32 -19 47.5t-68 15.5q-40 0 -63.5 -13.5t-35.5 -47.5q-9 -26 -18.5 -98t-9.5 -122q0 -38 16 -52.5t51 -14.5zM286 551q-60 0 -83 17t-23 57q0 15 2 33q3 15 10.5 20t30.5 5q19 0 25.5 -4.5t6.5 -14.5q0 -2 -1 -8.5t-1 -8.5
q1 -14 8.5 -19t32.5 -5q28 0 35.5 6.5t11.5 28.5q2 16 9 20.5t29 4.5q19 0 26 -4t7 -16q0 -61 -26 -87q-25 -25 -100 -25z" />
    <glyph glyph-name="Aogonek" unicode="&#x104;" horiz-adv-x="525" 
d="M490 27q0 -11 -5 -19t-24 -25q-52 -45 -52 -85q0 -14 13 -14q5 0 14.5 1.5t15.5 1.5q12 0 12 -20q0 -28 -6 -37.5t-21 -14.5q-29 -9 -59 -9q-63 0 -63 58q0 39 19.5 69t65.5 72q-9 5 -12 24l-27 148h-205l-56 -150q-6 -17 -16.5 -22t-40.5 -5q-45 0 -45 18q0 15 20 65
l193 491q11 29 28 36.5t67 7.5t65.5 -7.5t20.5 -36.5l87 -477q11 -61 11 -70zM292 535l-107 -282h167l-47 282h-13z" />
    <glyph glyph-name="aogonek" unicode="&#x105;" horiz-adv-x="497" 
d="M204 72q58 0 93 42t43 115q11 103 11 128q0 32 -19 47.5t-68 15.5q-40 0 -63.5 -13.5t-35.5 -47.5q-9 -26 -18.5 -98t-9.5 -122q0 -38 16 -52.5t51 -14.5zM433 23q0 -15 -16 -28q-37 -29 -52 -54q-13 -21 -13 -43q0 -14 14 -14q5 0 14.5 1.5t15.5 1.5q12 0 12 -20
q0 -28 -6 -37.5t-21 -14.5q-31 -9 -59 -9q-63 0 -63 58q0 40 20 70t70 76q-4 7 -13 81q-54 -101 -175 -101q-63 0 -93 29t-30 96q0 62 10.5 146.5t24.5 124.5q22 63 62 89.5t103 26.5q100 0 126 -61l3 21q2 18 12 24t38 6q25 0 33 -4.5t8 -16.5q0 -11 -16.5 -165t-16.5 -179
q0 -12 4 -54t4 -50z" />
    <glyph glyph-name="Cacute" unicode="&#x106;" horiz-adv-x="456" 
d="M224 -8q-44 0 -73 5.5t-56.5 22t-41 52.5t-13.5 91q0 72 14 174.5t31 154.5q14 43 34.5 70.5t49 40t54 16.5t64.5 4q77 0 146 -19q20 -7 20 -25q0 -59 -22 -59q-1 0 -47 8.5t-84 8.5q-56 0 -83 -13t-42 -59q-13 -41 -24.5 -129.5t-11.5 -156.5q0 -65 25.5 -83t90.5 -18
q44 0 86.5 8.5t45.5 8.5q13 0 13 -18q0 -34 -7 -47.5t-23 -18.5q-61 -19 -146 -19zM280 662q-37 0 -37 17q0 10 11 31l47 83q8 14 12.5 19t16 8.5t34.5 3.5q31 0 40 -4t9 -13q0 -14 -21 -44l-55 -78q-6 -9 -10.5 -13t-16 -7t-30.5 -3z" />
    <glyph glyph-name="cacute" unicode="&#x107;" horiz-adv-x="412" 
d="M259 502q67 0 112 -15q14 -5 19 -10.5t5 -19.5q0 -51 -24 -51q-2 0 -41.5 6.5t-70.5 6.5q-43 0 -64 -12t-33 -48q-28 -88 -28 -206q0 -48 18 -64t69 -16q25 0 54 5.5t48.5 11t22.5 5.5q14 0 14 -22q0 -29 -6 -41.5t-20 -18.5q-58 -23 -137 -23q-85 0 -122 31.5t-37 122.5
q0 144 37 250q16 45 46.5 70t61.5 31.5t76 6.5zM240 539q-37 0 -37 17q0 10 11 31l47 83q8 14 12.5 19t16 8.5t34.5 3.5q31 0 40 -4t9 -13q0 -14 -21 -44l-55 -78q-6 -9 -10.5 -13t-16 -7t-30.5 -3z" />
    <glyph glyph-name="Ccircumflex" unicode="&#x108;" horiz-adv-x="456" 
d="M224 -8q-44 0 -73 5.5t-56.5 22t-41 52.5t-13.5 91q0 72 14 174.5t31 154.5q14 43 34.5 70.5t49 40t54 16.5t64.5 4q77 0 146 -19q20 -7 20 -25q0 -59 -22 -59q-1 0 -47 8.5t-84 8.5q-56 0 -83 -13t-42 -59q-13 -41 -24.5 -129.5t-11.5 -156.5q0 -65 25.5 -83t90.5 -18
q44 0 86.5 8.5t45.5 8.5q13 0 13 -18q0 -34 -7 -47.5t-23 -18.5q-61 -19 -146 -19zM294 753l-52 -68q-12 -15 -21 -19t-32 -4q-36 0 -36 14q0 7 18 33l68 92q10 13 20 18t31 5h26q20 0 28.5 -5t15.5 -18l49 -93q12 -24 12 -30q0 -10 -7.5 -13t-29.5 -3t-30.5 4t-16.5 18
l-39 69h-4z" />
    <glyph glyph-name="ccircumflex" unicode="&#x109;" horiz-adv-x="412" 
d="M259 502q67 0 112 -15q14 -5 19 -10.5t5 -19.5q0 -51 -24 -51q-2 0 -41.5 6.5t-70.5 6.5q-43 0 -64 -12t-33 -48q-28 -88 -28 -206q0 -48 18 -64t69 -16q25 0 54 5.5t48.5 11t22.5 5.5q14 0 14 -22q0 -29 -6 -41.5t-20 -18.5q-58 -23 -137 -23q-85 0 -122 31.5t-37 122.5
q0 144 37 250q16 45 46.5 70t61.5 31.5t76 6.5zM263 630l-52 -68q-12 -15 -21 -19t-32 -4q-36 0 -36 14q0 7 18 33l68 92q10 13 20 18t31 5h26q20 0 28.5 -5t15.5 -18l49 -93q12 -24 12 -30q0 -10 -7.5 -13t-29.5 -3t-30.5 4t-16.5 18l-39 69h-4z" />
    <glyph glyph-name="Cdotaccent" unicode="&#x10a;" horiz-adv-x="456" 
d="M224 -8q-44 0 -73 5.5t-56.5 22t-41 52.5t-13.5 91q0 72 14 174.5t31 154.5q14 43 34.5 70.5t49 40t54 16.5t64.5 4q77 0 146 -19q20 -7 20 -25q0 -59 -22 -59q-1 0 -47 8.5t-84 8.5q-56 0 -83 -13t-42 -59q-13 -41 -24.5 -129.5t-11.5 -156.5q0 -65 25.5 -83t90.5 -18
q44 0 86.5 8.5t45.5 8.5q13 0 13 -18q0 -34 -7 -47.5t-23 -18.5q-61 -19 -146 -19zM290 685q-27 0 -37 6t-10 22q0 28 7 45q5 12 16.5 15.5t38.5 3.5t37.5 -6t10.5 -22q0 -28 -7 -45q-5 -12 -17 -15.5t-39 -3.5z" />
    <glyph glyph-name="cdotaccent" unicode="&#x10b;" horiz-adv-x="412" 
d="M259 502q67 0 112 -15q14 -5 19 -10.5t5 -19.5q0 -51 -24 -51q-2 0 -41.5 6.5t-70.5 6.5q-43 0 -64 -12t-33 -48q-28 -88 -28 -206q0 -48 18 -64t69 -16q25 0 54 5.5t48.5 11t22.5 5.5q14 0 14 -22q0 -29 -6 -41.5t-20 -18.5q-58 -23 -137 -23q-85 0 -122 31.5t-37 122.5
q0 144 37 250q16 45 46.5 70t61.5 31.5t76 6.5zM260 562q-27 0 -37 6t-10 22q0 28 7 45q5 12 16.5 15.5t38.5 3.5t37.5 -6t10.5 -22q0 -28 -7 -45q-5 -12 -17 -15.5t-39 -3.5z" />
    <glyph glyph-name="Ccaron" unicode="&#x10c;" horiz-adv-x="456" 
d="M224 -8q-44 0 -73 5.5t-56.5 22t-41 52.5t-13.5 91q0 72 14 174.5t31 154.5q14 43 34.5 70.5t49 40t54 16.5t64.5 4q77 0 146 -19q20 -7 20 -25q0 -59 -22 -59q-1 0 -47 8.5t-84 8.5q-56 0 -83 -13t-42 -59q-13 -41 -24.5 -129.5t-11.5 -156.5q0 -65 25.5 -83t90.5 -18
q44 0 86.5 8.5t45.5 8.5q13 0 13 -18q0 -34 -7 -47.5t-23 -18.5q-61 -19 -146 -19zM289 733l52 68q12 15 21 19t32 4q36 0 36 -14q0 -7 -18 -33l-68 -92q-10 -13 -20 -18t-31 -5h-26q-20 0 -28.5 5t-15.5 18l-49 93q-12 24 -12 30q0 10 7.5 13t29.5 3t30.5 -4t16.5 -18
l39 -69h4z" />
    <glyph glyph-name="ccaron" unicode="&#x10d;" horiz-adv-x="412" 
d="M259 502q67 0 112 -15q14 -5 19 -10.5t5 -19.5q0 -51 -24 -51q-2 0 -41.5 6.5t-70.5 6.5q-43 0 -64 -12t-33 -48q-28 -88 -28 -206q0 -48 18 -64t69 -16q25 0 54 5.5t48.5 11t22.5 5.5q14 0 14 -22q0 -29 -6 -41.5t-20 -18.5q-58 -23 -137 -23q-85 0 -122 31.5t-37 122.5
q0 144 37 250q16 45 46.5 70t61.5 31.5t76 6.5zM273 610l52 68q12 15 21 19t32 4q36 0 36 -14q0 -7 -18 -33l-68 -92q-10 -13 -20 -18t-31 -5h-26q-20 0 -28.5 5t-15.5 18l-49 93q-12 24 -12 30q0 10 7.5 13t29.5 3t30.5 -4t16.5 -18l39 -69h4z" />
    <glyph glyph-name="Dcaron" unicode="&#x10e;" horiz-adv-x="519" 
d="M273 542q-34 0 -84 -5l-48 -456q32 -4 96 -4q52 0 79.5 10t43.5 42q18 35 30 140.5t12 152.5q0 75 -26.5 97.5t-102.5 22.5zM500 438q0 -71 -15.5 -189.5t-43.5 -167.5q-31 -55 -81 -72t-133 -17q-85 0 -157 8q-32 4 -32 25q0 5 10 99l48 455q4 32 35 36q59 8 147 8
q47 0 77 -3t60.5 -13.5t47 -30.5t27 -54t10.5 -84zM297 733l52 68q12 15 21 19t32 4q36 0 36 -14q0 -7 -18 -33l-68 -92q-10 -13 -20 -18t-31 -5h-26q-20 0 -28.5 5t-15.5 18l-49 93q-12 24 -12 30q0 10 7.5 13t29.5 3t30.5 -4t16.5 -18l39 -69h4z" />
    <glyph glyph-name="dcaron" unicode="&#x10f;" horiz-adv-x="628" 
d="M204 72q58 0 93 42t43 115q11 103 11 128q0 32 -19 47.5t-68 15.5q-40 0 -63.5 -13.5t-35.5 -47.5q-9 -26 -18.5 -98t-9.5 -122q0 -38 16 -52.5t51 -14.5zM430 654q27 0 36 -4t9 -18q0 -7 -9 -91l-30 -284q-11 -103 -11 -130q0 -12 4 -54t4 -50q0 -23 -46 -23
q-25 0 -33 5.5t-10 21.5l-8 64q-54 -101 -175 -101q-63 0 -93 29t-30 96q0 62 10.5 146.5t24.5 124.5q22 63 62 89.5t103 26.5q98 0 124 -57l18 179q2 19 11.5 24.5t38.5 5.5zM594 654q28 0 37 -5t9 -20q0 -8 -3 -38q-2 -32 -23 -84l-20 -51q-10 -23 -21 -30t-36 -7
q-28 0 -28 16q0 9 11.5 54.5t14.5 72.5l6 56q2 22 12 29t41 7z" />
    <glyph glyph-name="Dcroat" unicode="&#x110;" horiz-adv-x="519" 
d="M500 438q0 -71 -15.5 -189.5t-43.5 -167.5q-31 -55 -81 -72t-133 -17q-85 0 -157 8q-32 4 -32 25q0 5 10 99l15 148h-30q-10 0 -14 5t-4 19q0 34 6.5 46.5t20.5 12.5h30l24 224q4 32 35 36q59 8 147 8q47 0 77 -3t60.5 -13.5t47 -30.5t27 -54t10.5 -84zM273 542
q-34 0 -84 -5l-19 -182h78q19 0 19 -24q0 -59 -28 -59h-78l-20 -191q32 -4 96 -4q52 0 79.5 10t43.5 42q18 35 30 140.5t12 152.5q0 75 -26.5 97.5t-102.5 22.5z" />
    <glyph glyph-name="dcroat" unicode="&#x111;" horiz-adv-x="500" 
d="M430 654q27 0 36 -4t9 -18q0 -7 -4 -40h47q9 0 12.5 -4t3.5 -15q0 -44 -21 -44h-49l-28 -272q-11 -103 -11 -130q0 -12 4 -54t4 -50q0 -23 -46 -23q-25 0 -33 5.5t-10 21.5l-8 64q-54 -101 -175 -101q-63 0 -93 29t-30 96q0 62 10.5 146.5t24.5 124.5q22 63 62 89.5
t103 26.5q98 0 124 -57l8 84h-43q-15 0 -15 19q0 44 21 44h44l3 32q2 19 11.5 24.5t38.5 5.5zM204 72q58 0 93 42t43 115q11 103 11 128q0 32 -19 47.5t-68 15.5q-40 0 -63.5 -13.5t-35.5 -47.5q-9 -26 -18.5 -98t-9.5 -122q0 -38 16 -52.5t51 -14.5z" />
    <glyph glyph-name="Emacron" unicode="&#x112;" horiz-adv-x="453" 
d="M189 531l-18 -163h177q12 0 16.5 -5t4.5 -18q0 -37 -7 -49.5t-22 -12.5h-178l-20 -196h245q11 0 15.5 -5t4.5 -20q0 -62 -30 -62h-309q-16 0 -22.5 4t-6.5 15q0 10 8 80l51 491q1 16 8.5 22t27.5 6h299q20 0 20 -25q0 -36 -7 -49t-22 -13h-235zM389 749q0 -34 -6.5 -46.5
t-20.5 -12.5h-167q-19 0 -19 24q0 59 28 59h166q11 0 15 -5t4 -19z" />
    <glyph glyph-name="emacron" unicode="&#x113;" horiz-adv-x="448" 
d="M208 -10q-93 0 -131.5 31t-38.5 123q0 144 37 250q16 45 46.5 70t63.5 31.5t84 6.5q86 0 117 -26t31 -80q0 -131 -68 -165q-60 -30 -199 -30h-14q-2 -34 -2 -50q0 -47 18.5 -63t71.5 -16q29 0 60.5 6t52.5 12t25 6q16 0 16 -24q0 -28 -6 -38.5t-21 -17.5
q-62 -26 -143 -26zM161 357q-13 -43 -19 -90q114 0 152 19q33 18 33 91q0 22 -13.5 33t-54.5 11q-42 0 -64 -13.5t-34 -50.5zM383 626q0 -34 -6.5 -46.5t-20.5 -12.5h-167q-19 0 -19 24q0 59 28 59h166q11 0 15 -5t4 -19z" />
    <glyph glyph-name="Ebreve" unicode="&#x114;" horiz-adv-x="453" 
d="M189 531l-18 -163h177q12 0 16.5 -5t4.5 -18q0 -37 -7 -49.5t-22 -12.5h-178l-20 -196h245q11 0 15.5 -5t4.5 -20q0 -62 -30 -62h-309q-16 0 -22.5 4t-6.5 15q0 10 8 80l51 491q1 16 8.5 22t27.5 6h299q20 0 20 -25q0 -36 -7 -49t-22 -13h-235zM281 672q-60 0 -83 17
t-23 57q0 15 2 33q3 15 10.5 20t30.5 5q19 0 25.5 -4.5t6.5 -14.5q0 -2 -1 -8.5t-1 -8.5q1 -14 8.5 -19t32.5 -5q28 0 35.5 6.5t11.5 28.5q2 16 9 20.5t29 4.5q19 0 26 -4t7 -16q0 -61 -26 -87q-25 -25 -100 -25z" />
    <glyph glyph-name="ebreve" unicode="&#x115;" horiz-adv-x="448" 
d="M208 -10q-93 0 -131.5 31t-38.5 123q0 144 37 250q16 45 46.5 70t63.5 31.5t84 6.5q86 0 117 -26t31 -80q0 -131 -68 -165q-60 -30 -199 -30h-14q-2 -34 -2 -50q0 -47 18.5 -63t71.5 -16q29 0 60.5 6t52.5 12t25 6q16 0 16 -24q0 -28 -6 -38.5t-21 -17.5
q-62 -26 -143 -26zM161 357q-13 -43 -19 -90q114 0 152 19q33 18 33 91q0 22 -13.5 33t-54.5 11q-42 0 -64 -13.5t-34 -50.5zM262 551q-60 0 -83 17t-23 57q0 15 2 33q3 15 10.5 20t30.5 5q19 0 25.5 -4.5t6.5 -14.5q0 -2 -1 -8.5t-1 -8.5q1 -14 8.5 -19t32.5 -5
q28 0 35.5 6.5t11.5 28.5q2 16 9 20.5t29 4.5q19 0 26 -4t7 -16q0 -61 -26 -87q-25 -25 -100 -25z" />
    <glyph glyph-name="Edotaccent" unicode="&#x116;" horiz-adv-x="453" 
d="M189 531l-18 -163h177q12 0 16.5 -5t4.5 -18q0 -37 -7 -49.5t-22 -12.5h-178l-20 -196h245q11 0 15.5 -5t4.5 -20q0 -62 -30 -62h-309q-16 0 -22.5 4t-6.5 15q0 10 8 80l51 491q1 16 8.5 22t27.5 6h299q20 0 20 -25q0 -36 -7 -49t-22 -13h-235zM273 685q-27 0 -37 6
t-10 22q0 28 7 45q5 12 16.5 15.5t38.5 3.5t37.5 -6t10.5 -22q0 -28 -7 -45q-5 -12 -17 -15.5t-39 -3.5z" />
    <glyph glyph-name="edotaccent" unicode="&#x117;" horiz-adv-x="448" 
d="M208 -10q-93 0 -131.5 31t-38.5 123q0 144 37 250q16 45 46.5 70t63.5 31.5t84 6.5q86 0 117 -26t31 -80q0 -131 -68 -165q-60 -30 -199 -30h-14q-2 -34 -2 -50q0 -47 18.5 -63t71.5 -16q29 0 60.5 6t52.5 12t25 6q16 0 16 -24q0 -28 -6 -38.5t-21 -17.5
q-62 -26 -143 -26zM161 357q-13 -43 -19 -90q114 0 152 19q33 18 33 91q0 22 -13.5 33t-54.5 11q-42 0 -64 -13.5t-34 -50.5zM266 562q-27 0 -37 6t-10 22q0 28 7 45q5 12 16.5 15.5t38.5 3.5t37.5 -6t10.5 -22q0 -28 -7 -45q-5 -12 -17 -15.5t-39 -3.5z" />
    <glyph glyph-name="Eogonek" unicode="&#x118;" horiz-adv-x="453" 
d="M407 62q0 -29 -4 -41.5t-20 -29.5q-56 -65 -56 -93q0 -14 14 -14q5 0 14.5 1.5t15.5 1.5q12 0 12 -20q0 -28 -6 -37.5t-21 -14.5q-29 -9 -59 -9q-63 0 -63 58q0 38 18 67.5t58 68.5h-242q-16 0 -22.5 4t-6.5 15q0 10 8 80l51 491q1 17 8.5 22.5t27.5 5.5h299q20 0 20 -25
q0 -36 -7 -49t-22 -13h-235l-18 -163h177q12 0 16.5 -5t4.5 -18q0 -37 -7 -49.5t-22 -12.5h-178l-20 -196h245q11 0 15.5 -5t4.5 -20z" />
    <glyph glyph-name="eogonek" unicode="&#x119;" horiz-adv-x="448" 
d="M205 -136q0 37 16.5 66.5t53.5 65.5q-31 -6 -67 -6q-93 0 -131.5 31t-38.5 123q0 144 37 250q16 45 46.5 70t63.5 31.5t84 6.5q86 0 117 -26t31 -80q0 -131 -68 -165q-60 -30 -199 -30h-14q-2 -34 -2 -50q0 -47 18.5 -63t71.5 -16q29 0 60.5 6t52.5 12t25 6q16 0 16 -24
q0 -25 -5.5 -39.5t-25.5 -39.5q-48 -59 -48 -95q0 -14 13 -14q5 0 14.5 1.5t15.5 1.5q12 0 12 -20q0 -28 -6 -37.5t-21 -14.5q-29 -9 -59 -9q-63 0 -63 58zM161 357q-13 -43 -19 -90q114 0 152 19q33 18 33 91q0 22 -13.5 33t-54.5 11q-42 0 -64 -13.5t-34 -50.5z" />
    <glyph glyph-name="Ecaron" unicode="&#x11a;" horiz-adv-x="453" 
d="M189 531l-18 -163h177q12 0 16.5 -5t4.5 -18q0 -37 -7 -49.5t-22 -12.5h-178l-20 -196h245q11 0 15.5 -5t4.5 -20q0 -62 -30 -62h-309q-16 0 -22.5 4t-6.5 15q0 10 8 80l51 491q1 16 8.5 22t27.5 6h299q20 0 20 -25q0 -36 -7 -49t-22 -13h-235zM286 733l52 68
q12 15 21 19t32 4q36 0 36 -14q0 -7 -18 -33l-68 -92q-10 -13 -20 -18t-31 -5h-26q-20 0 -28.5 5t-15.5 18l-49 93q-12 24 -12 30q0 10 7.5 13t29.5 3t30.5 -4t16.5 -18l39 -69h4z" />
    <glyph glyph-name="ecaron" unicode="&#x11b;" horiz-adv-x="448" 
d="M208 -10q-93 0 -131.5 31t-38.5 123q0 144 37 250q16 45 46.5 70t63.5 31.5t84 6.5q86 0 117 -26t31 -80q0 -131 -68 -165q-60 -30 -199 -30h-14q-2 -34 -2 -50q0 -47 18.5 -63t71.5 -16q29 0 60.5 6t52.5 12t25 6q16 0 16 -24q0 -28 -6 -38.5t-21 -17.5
q-62 -26 -143 -26zM161 357q-13 -43 -19 -90q114 0 152 19q33 18 33 91q0 22 -13.5 33t-54.5 11q-42 0 -64 -13.5t-34 -50.5zM271 610l52 68q12 15 21 19t32 4q36 0 36 -14q0 -7 -18 -33l-68 -92q-10 -13 -20 -18t-31 -5h-26q-20 0 -28.5 5t-15.5 18l-49 93q-12 24 -12 30
q0 10 7.5 13t29.5 3t30.5 -4t16.5 -18l39 -69h4z" />
    <glyph glyph-name="Gcircumflex" unicode="&#x11c;" horiz-adv-x="495" 
d="M366 256h-85q-16 0 -16 22q0 61 25 61h136q20 0 26.5 -4.5t6.5 -16.5q0 -10 -1 -22l-13 -120q-12 -107 -57.5 -145.5t-154.5 -38.5q-49 0 -79 5t-58.5 22t-41.5 54t-13 97q0 70 15 181t38 165q29 66 76.5 86.5t127.5 20.5q72 0 141 -19q22 -6 22 -25q0 -59 -22 -59
q-2 0 -47 8.5t-84 8.5q-56 0 -84 -11t-44 -49q-15 -36 -28 -133.5t-13 -157.5q0 -70 24 -89t85 -19q58 0 81 22.5t31 95.5zM300 753l-52 -68q-12 -15 -21 -19t-32 -4q-36 0 -36 14q0 7 18 33l68 92q10 13 20 18t31 5h26q20 0 28.5 -5t15.5 -18l49 -93q12 -24 12 -30
q0 -10 -7.5 -13t-29.5 -3t-30.5 4t-16.5 18l-39 69h-4z" />
    <glyph glyph-name="gcircumflex" unicode="&#x11d;" horiz-adv-x="492" 
d="M161 -10q-63 0 -93 29t-30 96q0 62 10.5 146.5t24.5 124.5q22 63 62 89.5t103 26.5q100 0 126 -61l3 21q2 18 12 24t38 6q25 0 33 -4.5t8 -16.5q0 -11 -11 -113l-33 -318q-7 -71 -27.5 -118.5t-54.5 -72t-71.5 -34t-89.5 -9.5q-75 0 -138 13q-22 5 -22 29q0 55 24 55
q1 0 46 -5.5t92 -5.5q77 0 106 31t38 114l3 28q-54 -75 -159 -75zM204 72q58 0 93 42t43 115q11 103 11 128q0 32 -19 47.5t-68 15.5q-40 0 -63.5 -13.5t-35.5 -47.5q-9 -26 -18.5 -98t-9.5 -122q0 -38 16 -52.5t51 -14.5zM285 630l-52 -68q-12 -15 -21 -19t-32 -4
q-36 0 -36 14q0 7 18 33l68 92q10 13 20 18t31 5h26q20 0 28.5 -5t15.5 -18l49 -93q12 -24 12 -30q0 -10 -7.5 -13t-29.5 -3t-30.5 4t-16.5 18l-39 69h-4z" />
    <glyph glyph-name="Gbreve" unicode="&#x11e;" horiz-adv-x="495" 
d="M366 256h-85q-16 0 -16 22q0 61 25 61h136q20 0 26.5 -4.5t6.5 -16.5q0 -10 -1 -22l-13 -120q-12 -107 -57.5 -145.5t-154.5 -38.5q-49 0 -79 5t-58.5 22t-41.5 54t-13 97q0 70 15 181t38 165q29 66 76.5 86.5t127.5 20.5q72 0 141 -19q22 -6 22 -25q0 -59 -22 -59
q-2 0 -47 8.5t-84 8.5q-56 0 -84 -11t-44 -49q-15 -36 -28 -133.5t-13 -157.5q0 -70 24 -89t85 -19q58 0 81 22.5t31 95.5zM295 672q-60 0 -83 17t-23 57q0 15 2 33q3 15 10.5 20t30.5 5q19 0 25.5 -4.5t6.5 -14.5q0 -2 -1 -8.5t-1 -8.5q1 -14 8.5 -19t32.5 -5
q28 0 35.5 6.5t11.5 28.5q2 16 9 20.5t29 4.5q19 0 26 -4t7 -16q0 -61 -26 -87q-25 -25 -100 -25z" />
    <glyph glyph-name="gbreve" unicode="&#x11f;" horiz-adv-x="492" 
d="M161 -10q-63 0 -93 29t-30 96q0 62 10.5 146.5t24.5 124.5q22 63 62 89.5t103 26.5q100 0 126 -61l3 21q2 18 12 24t38 6q25 0 33 -4.5t8 -16.5q0 -11 -11 -113l-33 -318q-7 -71 -27.5 -118.5t-54.5 -72t-71.5 -34t-89.5 -9.5q-75 0 -138 13q-22 5 -22 29q0 55 24 55
q1 0 46 -5.5t92 -5.5q77 0 106 31t38 114l3 28q-54 -75 -159 -75zM204 72q58 0 93 42t43 115q11 103 11 128q0 32 -19 47.5t-68 15.5q-40 0 -63.5 -13.5t-35.5 -47.5q-9 -26 -18.5 -98t-9.5 -122q0 -38 16 -52.5t51 -14.5zM286 551q-60 0 -83 17t-23 57q0 15 2 33
q3 15 10.5 20t30.5 5q19 0 25.5 -4.5t6.5 -14.5q0 -2 -1 -8.5t-1 -8.5q1 -14 8.5 -19t32.5 -5q28 0 35.5 6.5t11.5 28.5q2 16 9 20.5t29 4.5q19 0 26 -4t7 -16q0 -61 -26 -87q-25 -25 -100 -25z" />
    <glyph glyph-name="Gdotaccent" unicode="&#x120;" horiz-adv-x="495" 
d="M366 256h-85q-16 0 -16 22q0 61 25 61h136q20 0 26.5 -4.5t6.5 -16.5q0 -10 -1 -22l-13 -120q-12 -107 -57.5 -145.5t-154.5 -38.5q-49 0 -79 5t-58.5 22t-41.5 54t-13 97q0 70 15 181t38 165q29 66 76.5 86.5t127.5 20.5q72 0 141 -19q22 -6 22 -25q0 -59 -22 -59
q-2 0 -47 8.5t-84 8.5q-56 0 -84 -11t-44 -49q-15 -36 -28 -133.5t-13 -157.5q0 -70 24 -89t85 -19q58 0 81 22.5t31 95.5zM295 685q-27 0 -37 6t-10 22q0 28 7 45q5 12 16.5 15.5t38.5 3.5t37.5 -6t10.5 -22q0 -28 -7 -45q-5 -12 -17 -15.5t-39 -3.5z" />
    <glyph glyph-name="gdotaccent" unicode="&#x121;" horiz-adv-x="492" 
d="M161 -10q-63 0 -93 29t-30 96q0 62 10.5 146.5t24.5 124.5q22 63 62 89.5t103 26.5q100 0 126 -61l3 21q2 18 12 24t38 6q25 0 33 -4.5t8 -16.5q0 -11 -11 -113l-33 -318q-7 -71 -27.5 -118.5t-54.5 -72t-71.5 -34t-89.5 -9.5q-75 0 -138 13q-22 5 -22 29q0 55 24 55
q1 0 46 -5.5t92 -5.5q77 0 106 31t38 114l3 28q-54 -75 -159 -75zM204 72q58 0 93 42t43 115q11 103 11 128q0 32 -19 47.5t-68 15.5q-40 0 -63.5 -13.5t-35.5 -47.5q-9 -26 -18.5 -98t-9.5 -122q0 -38 16 -52.5t51 -14.5zM281 562q-27 0 -37 6t-10 22q0 28 7 45
q5 12 16.5 15.5t38.5 3.5t37.5 -6t10.5 -22q0 -28 -7 -45q-5 -12 -17 -15.5t-39 -3.5z" />
    <glyph glyph-name="Gcommaaccent" unicode="&#x122;" horiz-adv-x="495" 
d="M366 256h-85q-16 0 -16 22q0 61 25 61h136q20 0 26.5 -4.5t6.5 -16.5q0 -10 -1 -22l-13 -120q-12 -107 -57.5 -145.5t-154.5 -38.5q-49 0 -79 5t-58.5 22t-41.5 54t-13 97q0 70 15 181t38 165q29 66 76.5 86.5t127.5 20.5q72 0 141 -19q22 -6 22 -25q0 -59 -22 -59
q-2 0 -47 8.5t-84 8.5q-56 0 -84 -11t-44 -49q-15 -36 -28 -133.5t-13 -157.5q0 -70 24 -89t85 -19q58 0 81 22.5t31 95.5zM248 -44q28 0 37 -5t9 -19q0 -48 -41 -138q-8 -16 -17.5 -21t-32.5 -5q-20 0 -26.5 3.5t-6.5 12.5q0 7 12 58.5t12 80.5q0 20 11 26.5t43 6.5z" />
    <glyph glyph-name="gcommaaccent" unicode="&#x123;" horiz-adv-x="492" 
d="M161 -10q-63 0 -93 29t-30 96q0 62 10.5 146.5t24.5 124.5q22 63 62 89.5t103 26.5q100 0 126 -61l3 21q2 18 12 24t38 6q25 0 33 -4.5t8 -16.5q0 -11 -11 -113l-33 -318q-7 -71 -27.5 -118.5t-54.5 -72t-71.5 -34t-89.5 -9.5q-75 0 -138 13q-22 5 -22 29q0 55 24 55
q1 0 46 -5.5t92 -5.5q77 0 106 31t38 114l3 28q-54 -75 -159 -75zM204 72q58 0 93 42t43 115q11 103 11 128q0 32 -19 47.5t-68 15.5q-40 0 -63.5 -13.5t-35.5 -47.5q-9 -26 -18.5 -98t-9.5 -122q0 -38 16 -52.5t51 -14.5zM275 535q-28 0 -37 5t-9 19q0 48 41 138
q8 16 17.5 21t32.5 5q20 0 26.5 -3.5t6.5 -12.5q0 -7 -12 -58.5t-12 -80.5q0 -20 -11 -26.5t-43 -6.5z" />
    <glyph glyph-name="Hcircumflex" unicode="&#x124;" horiz-adv-x="526" 
d="M383 360l24 228q2 18 12.5 24t39.5 6q26 0 35.5 -4.5t9.5 -17.5q0 -12 -14 -143l-44 -423q-2 -18 -12.5 -24t-39.5 -6q-26 0 -35.5 4.5t-9.5 17.5q0 11 14 142l12 112h-214l-25 -246q-2 -18 -12.5 -24t-39.5 -6q-26 0 -35.5 4.5t-9.5 17.5t14 144l44 422q2 18 12.5 24
t39.5 6q26 0 35.5 -4.5t9.5 -17.5q0 -12 -14 -143l-10 -93h213zM309 753l-52 -68q-12 -15 -21 -19t-32 -4q-36 0 -36 14q0 7 18 33l68 92q10 13 20 18t31 5h26q20 0 28.5 -5t15.5 -18l49 -93q12 -24 12 -30q0 -10 -7.5 -13t-29.5 -3t-30.5 4t-16.5 18l-39 69h-4z" />
    <glyph glyph-name="hcircumflex" unicode="&#x125;" horiz-adv-x="508" 
d="M86 0q-27 0 -36.5 4t-9.5 18q0 8 9 93l53 509q2 19 12 24.5t39 5.5q27 0 36.5 -4t9.5 -18q0 -9 -9 -93l-11 -106q47 69 159 69q65 0 92.5 -24.5t27.5 -75.5q0 -19 -13.5 -142t-13.5 -155q0 -19 4.5 -47t4.5 -30q0 -9 -2 -14t-12.5 -9.5t-31.5 -4.5q-24 0 -33.5 4.5
t-14.5 16.5q-12 38 -12 75q0 29 12.5 141t12.5 132q0 27 -13 38t-47 11q-65 0 -97 -34.5t-40 -110.5l-25 -243q-2 -19 -12 -24.5t-39 -5.5zM317 764l-52 -68q-12 -15 -21 -19t-32 -4q-36 0 -36 14q0 7 18 33l68 92q10 13 20 18t31 5h26q20 0 28.5 -5t15.5 -18l49 -93
q12 -24 12 -30q0 -10 -7.5 -13t-29.5 -3t-30.5 4t-16.5 18l-39 69h-4z" />
    <glyph glyph-name="Hbar" unicode="&#x126;" horiz-adv-x="526" 
d="M34 469q0 53 28 53h28l7 66q2 18 12.5 24t39.5 6q26 0 35.5 -4.5t9.5 -17.5q0 -6 -7 -74h213l7 66q2 18 12.5 24t39.5 6q26 0 35.5 -4.5t9.5 -17.5q0 -6 -7 -74h26q11 0 15 -4t4 -18q0 -53 -27 -53h-26l-43 -417q-2 -18 -12.5 -24t-39.5 -6q-26 0 -35.5 4.5t-9.5 17.5
q0 11 14 142l12 112h-214l-25 -246q-2 -18 -12.5 -24t-39.5 -6q-26 0 -35.5 4.5t-9.5 17.5t14 144l29 281h-29q-11 0 -15 4.5t-4 17.5zM383 360l9 87h-213l-9 -87h213z" />
    <glyph glyph-name="hbar" unicode="&#x127;" horiz-adv-x="508" 
d="M86 0q-27 0 -36.5 4t-9.5 18q0 8 9 93l43 414h-42q-9 0 -12.5 4t-3.5 15q0 44 21 44h43l4 32q2 19 12 24.5t39 5.5q27 0 36.5 -4t9.5 -18q0 -7 -4 -40h49q15 0 15 -19q0 -44 -21 -44h-49l-10 -96q47 69 159 69q65 0 92.5 -24.5t27.5 -75.5q0 -19 -13.5 -142t-13.5 -155
q0 -19 4.5 -47t4.5 -30q0 -9 -2 -14t-12.5 -9.5t-31.5 -4.5q-24 0 -33.5 4.5t-14.5 16.5q-12 38 -12 75q0 29 12.5 141t12.5 132q0 27 -13 38t-47 11q-65 0 -97 -34.5t-40 -110.5l-25 -243q-2 -19 -12 -24.5t-39 -5.5z" />
    <glyph glyph-name="Itilde" unicode="&#x128;" horiz-adv-x="213" 
d="M149 618q26 0 35.5 -4.5t9.5 -17.5t-14 -144l-44 -422q-2 -18 -12.5 -24t-39.5 -6q-26 0 -35.5 4.5t-9.5 17.5t14 144l44 422q2 18 12.5 24t39.5 6zM35 681q-11 0 -11 16q0 49 29 65q32 16 64 16q23 0 56 -9.5t49 -9.5q20 0 42.5 8t25.5 8q11 0 11 -16q0 -27 -6.5 -41
t-22.5 -23q-28 -17 -65 -17q-23 0 -56 10t-49 10q-20 0 -42 -8.5t-25 -8.5z" />
    <glyph glyph-name="itilde" unicode="&#x129;" horiz-adv-x="223" 
d="M18 564q-11 0 -11 16q0 49 29 65q32 16 64 16q23 0 56 -9.5t49 -9.5q20 0 42.5 8t25.5 8q11 0 11 -16q0 -27 -6.5 -41t-22.5 -23q-28 -17 -65 -17q-23 0 -56 10t-49 10q-21 0 -43 -8.5t-24 -8.5zM109 0q-24 0 -33.5 4.5t-14.5 16.5q-12 38 -12 75q0 32 11 133l24 233
q2 19 12.5 24.5t40.5 5.5q27 0 36 -4t9 -17q0 -10 -18 -172t-18 -194q0 -19 4.5 -47t4.5 -30q0 -9 -2 -14t-12.5 -9.5t-31.5 -4.5z" />
    <glyph glyph-name="Imacron" unicode="&#x12a;" horiz-adv-x="213" 
d="M149 618q26 0 35.5 -4.5t9.5 -17.5t-14 -144l-44 -422q-2 -18 -12.5 -24t-39.5 -6q-26 0 -35.5 4.5t-9.5 17.5t14 144l44 422q2 18 12.5 24t39.5 6zM268 749q0 -34 -6.5 -46.5t-20.5 -12.5h-167q-19 0 -19 24q0 59 28 59h166q11 0 15 -5t4 -19z" />
    <glyph glyph-name="imacron" unicode="&#x12b;" horiz-adv-x="223" 
d="M251 626q0 -34 -6.5 -46.5t-20.5 -12.5h-167q-19 0 -19 24q0 59 28 59h166q11 0 15 -5t4 -19zM109 0q-24 0 -33.5 4.5t-14.5 16.5q-12 38 -12 75q0 32 11 133l24 233q2 19 12.5 24.5t40.5 5.5q27 0 36 -4t9 -17q0 -10 -18 -172t-18 -194q0 -19 4.5 -47t4.5 -30
q0 -9 -2 -14t-12.5 -9.5t-31.5 -4.5z" />
    <glyph glyph-name="Ibreve" unicode="&#x12c;" horiz-adv-x="213" 
d="M149 618q26 0 35.5 -4.5t9.5 -17.5t-14 -144l-44 -422q-2 -18 -12.5 -24t-39.5 -6q-26 0 -35.5 4.5t-9.5 17.5t14 144l44 422q2 18 12.5 24t39.5 6zM149 674q-60 0 -83 17t-23 57q0 15 2 33q3 15 10.5 20t30.5 5q19 0 25.5 -4.5t6.5 -14.5q0 -2 -1 -8.5t-1 -8.5
q1 -14 8.5 -19t32.5 -5q28 0 35.5 6.5t11.5 28.5q2 16 9 20.5t29 4.5q19 0 26 -4t7 -16q0 -61 -26 -87q-25 -25 -100 -25z" />
    <glyph glyph-name="ibreve" unicode="&#x12d;" horiz-adv-x="223" 
d="M140 551q-60 0 -83 17t-23 57q0 15 2 33q3 15 10.5 20t30.5 5q19 0 25.5 -4.5t6.5 -14.5q0 -2 -1 -8.5t-1 -8.5q1 -14 8.5 -19t32.5 -5q28 0 35.5 6.5t11.5 28.5q2 16 9 20.5t29 4.5q19 0 26 -4t7 -16q0 -61 -26 -87q-25 -25 -100 -25zM109 0q-24 0 -33.5 4.5t-14.5 16.5
q-12 38 -12 75q0 32 11 133l24 233q2 19 12.5 24.5t40.5 5.5q27 0 36 -4t9 -17q0 -10 -18 -172t-18 -194q0 -19 4.5 -47t4.5 -30q0 -9 -2 -14t-12.5 -9.5t-31.5 -4.5z" />
    <glyph glyph-name="Iogonek" unicode="&#x12e;" horiz-adv-x="213" 
d="M39 22q0 13 14 144l44 422q2 18 12.5 24t39.5 6q26 0 35.5 -4.5t9.5 -17.5t-14 -144l-42 -407q-2 -20 -5.5 -28t-16.5 -22q-56 -61 -56 -97q0 -14 14 -14q5 0 14.5 1.5t15.5 1.5q12 0 12 -20q0 -28 -6 -37.5t-21 -14.5q-29 -9 -59 -9q-63 0 -63 58q0 38 18.5 69t61.5 72
q-8 5 -8 17z" />
    <glyph glyph-name="iogonek" unicode="&#x12f;" horiz-adv-x="223" 
d="M68 9q-7 7 -10 23q-9 41 -9 64q0 21 11 133l24 233q2 19 12.5 24.5t40.5 5.5q27 0 36 -4t9 -17q0 -10 -18 -172t-18 -194q0 -18 4.5 -46t4.5 -33q0 -17 -20 -35q-36 -30 -50 -54q-13 -21 -13 -39q0 -14 13 -14q5 0 15 1.5t16 1.5q12 0 12 -20q0 -28 -6.5 -37.5
t-21.5 -14.5q-29 -9 -59 -9q-62 0 -62 58q0 40 20 69.5t69 75.5zM104 635q8 19 54 19q27 0 37 -6t10 -22q0 -26 -9 -45q-8 -19 -54 -19q-27 0 -37 6t-10 22q0 26 9 45z" />
    <glyph glyph-name="Idotaccent" unicode="&#x130;" horiz-adv-x="213" 
d="M149 618q26 0 35.5 -4.5t9.5 -17.5t-14 -144l-44 -422q-2 -18 -12.5 -24t-39.5 -6q-26 0 -35.5 4.5t-9.5 17.5t14 144l44 422q2 18 12.5 24t39.5 6zM153 685q-27 0 -37 6t-10 22q0 28 7 45q5 12 16.5 15.5t38.5 3.5t37.5 -6t10.5 -22q0 -28 -7 -45q-5 -12 -17 -15.5
t-39 -3.5z" />
    <glyph glyph-name="dotlessi" unicode="&#x131;" horiz-adv-x="223" 
d="M109 0q-24 0 -33.5 4.5t-14.5 16.5q-12 38 -12 75q0 32 11 133l24 233q2 19 12.5 24.5t40.5 5.5q27 0 36 -4t9 -17q0 -10 -18 -172t-18 -194q0 -19 4.5 -47t4.5 -30q0 -9 -2 -14t-12.5 -9.5t-31.5 -4.5z" />
    <glyph glyph-name="IJ" unicode="&#x132;" horiz-adv-x="570" 
d="M149 618q26 0 35.5 -4.5t9.5 -17.5t-14 -144l-44 -422q-2 -18 -12.5 -24t-39.5 -6q-26 0 -35.5 4.5t-9.5 17.5t14 144l44 422q2 18 12.5 24t39.5 6zM508 618q26 0 35.5 -4.5t9.5 -17.5q0 -12 -14 -143l-32 -295q-10 -89 -49.5 -127.5t-116.5 -38.5q-53 0 -98 13
q-13 4 -17.5 9.5t-4.5 19.5q0 33 5.5 43t16.5 10q5 0 33.5 -4.5t50.5 -4.5q44 0 61 16.5t22 66.5l46 427q2 18 12.5 24t39.5 6z" />
    <glyph glyph-name="ij" unicode="&#x133;" horiz-adv-x="439" 
d="M109 0q-24 0 -33.5 4.5t-14.5 16.5q-12 38 -12 75q0 32 11 133l24 233q2 19 12.5 24.5t40.5 5.5q27 0 36 -4t9 -17q0 -10 -18 -172t-18 -194q0 -19 4.5 -47t4.5 -30q0 -9 -2 -14t-12.5 -9.5t-31.5 -4.5zM142 562q-27 0 -37 6t-10 22q0 28 7 45q5 12 16.5 15.5t38.5 3.5
t37.5 -6t10.5 -22q0 -28 -7 -45q-5 -12 -17 -15.5t-39 -3.5zM360 492q27 0 36 -4t9 -18q0 -11 -9 -96l-45 -432q-7 -72 -39.5 -104t-93.5 -32q-41 0 -72 9q-22 5 -22 27q0 53 22 53q5 0 25 -2.5t36 -2.5q35 0 41 23q4 12 9 61l50 488q2 19 12.5 24.5t40.5 5.5zM365 562
q-27 0 -37 6t-10 22q0 28 7 45q5 12 16.5 15.5t38.5 3.5t37.5 -6t10.5 -22q0 -28 -7 -45q-5 -12 -17 -15.5t-39 -3.5z" />
    <glyph glyph-name="Jcircumflex" unicode="&#x134;" horiz-adv-x="356" 
d="M295 618q26 0 35.5 -4.5t9.5 -17.5q0 -12 -14 -143l-32 -295q-10 -89 -49.5 -127.5t-116.5 -38.5q-52 0 -98 13q-13 4 -17.5 9.5t-4.5 19.5q0 33 5.5 43t16.5 10q5 0 33.5 -4.5t50.5 -4.5q44 0 61 16.5t22 66.5l46 427q2 18 12.5 24t39.5 6zM301 753l-52 -68
q-12 -15 -21 -19t-32 -4q-36 0 -36 14q0 7 18 33l68 92q10 13 20 18t31 5h26q20 0 28.5 -5t15.5 -18l49 -93q12 -24 12 -30q0 -10 -7.5 -13t-29.5 -3t-30.5 4t-16.5 18l-39 69h-4z" />
    <glyph glyph-name="jcircumflex" unicode="&#x135;" horiz-adv-x="216" 
d="M137 492q27 0 36 -4t9 -18q0 -11 -9 -96l-45 -432q-7 -72 -39.5 -104t-93.5 -32q-41 0 -72 9q-22 5 -22 27q0 53 22 53q5 0 25 -2.5t36 -2.5q35 0 41 23q4 12 9 61l50 488q2 19 12.5 24.5t40.5 5.5zM148 630l-52 -68q-12 -15 -21 -19t-32 -4q-36 0 -36 14q0 7 18 33
l68 92q10 13 20 18t31 5h26q20 0 28.5 -5t15.5 -18l49 -93q12 -24 12 -30q0 -10 -7.5 -13t-29.5 -3t-30.5 4t-16.5 18l-39 69h-4z" />
    <glyph glyph-name="Kcommaaccent" unicode="&#x136;" horiz-adv-x="463" 
d="M149 618q26 0 35.5 -4.5t9.5 -17.5q0 -12 -14 -143l-11 -105h14l197 254q13 16 60 16q26 0 35.5 -4t9.5 -14q0 -13 -16 -33l-207 -253l164 -264q10 -17 10 -26q0 -13 -11.5 -18.5t-44.5 -5.5q-25 0 -34.5 3.5t-15.5 13.5l-154 266h-14l-26 -253q-2 -18 -12.5 -24
t-39.5 -6q-26 0 -35.5 4.5t-9.5 17.5t14 144l44 422q2 18 12.5 24t39.5 6zM202 -44q28 0 37 -5t9 -19q0 -48 -41 -138q-8 -16 -17.5 -21t-32.5 -5q-20 0 -26.5 3.5t-6.5 12.5q0 7 12 58.5t12 80.5q0 20 11 26.5t43 6.5z" />
    <glyph glyph-name="kcommaaccent" unicode="&#x137;" horiz-adv-x="440" 
d="M49 114l53 510q2 19 12 24.5t39 5.5q27 0 36.5 -4t9.5 -18q0 -8 -9 -92l-26 -251h11q32 31 74.5 82.5t67.5 90.5q13 20 22.5 25t39.5 5q46 0 46 -22q0 -27 -58.5 -95.5t-113.5 -118.5q65 -112 152 -213q10 -11 10 -19q0 -24 -48 -24q-31 0 -44 5.5t-29 23.5
q-26 31 -65.5 92t-59.5 102h-12l-20 -193q-2 -19 -12 -24.5t-39 -5.5q-27 0 -36.5 4t-9.5 18q0 8 9 92zM210 -44q28 0 37 -5t9 -19q0 -48 -41 -138q-8 -16 -17.5 -21t-32.5 -5q-20 0 -26.5 3.5t-6.5 12.5q0 7 12 58.5t12 80.5q0 20 11 26.5t43 6.5z" />
    <glyph glyph-name="Lacute" unicode="&#x139;" horiz-adv-x="423" 
d="M142 87h228q11 0 15.5 -5t4.5 -20q0 -36 -7 -49t-22 -13h-293q-17 0 -23.5 4t-6.5 15q0 8 3 36l56 533q2 18 12.5 24t39.5 6q26 0 35.5 -4.5t9.5 -17.5q0 -6 -4 -45zM156 662q-37 0 -37 17q0 10 11 31l47 83q8 14 12.5 19t16 8.5t34.5 3.5q31 0 40 -4t9 -13
q0 -14 -21 -44l-55 -78q-6 -9 -10.5 -13t-16 -7t-30.5 -3z" />
    <glyph glyph-name="lacute" unicode="&#x13a;" horiz-adv-x="223" 
d="M109 0q-24 0 -33.5 4.5t-14.5 16.5q-12 38 -12 75q0 32 11 133l41 395q2 19 12.5 24.5t40.5 5.5q27 0 36 -4t9 -17q0 -9 -12 -118l-28 -258q-13 -119 -13 -152q0 -19 4.5 -47t4.5 -30q0 -9 -2 -14t-12.5 -9.5t-31.5 -4.5zM150 689q-37 0 -37 17q0 10 11 31l47 83
q8 14 12.5 19t16 8.5t34.5 3.5q31 0 40 -4t9 -13q0 -14 -21 -44l-55 -78q-6 -9 -10.5 -13t-16 -7t-30.5 -3z" />
    <glyph glyph-name="Lcommaaccent" unicode="&#x13b;" horiz-adv-x="423" 
d="M142 87h228q11 0 15.5 -5t4.5 -20q0 -36 -7 -49t-22 -13h-293q-17 0 -23.5 4t-6.5 15q0 8 3 36l56 533q2 18 12.5 24t39.5 6q26 0 35.5 -4.5t9.5 -17.5q0 -6 -4 -45zM207 -44q28 0 37 -5t9 -19q0 -48 -41 -138q-8 -16 -17.5 -21t-32.5 -5q-20 0 -26.5 3.5t-6.5 12.5
q0 7 12 58.5t12 80.5q0 20 11 26.5t43 6.5z" />
    <glyph glyph-name="lcommaaccent" unicode="&#x13c;" horiz-adv-x="223" 
d="M109 0q-24 0 -33.5 4.5t-14.5 16.5q-12 38 -12 75q0 32 11 133l41 395q2 19 12.5 24.5t40.5 5.5q27 0 36 -4t9 -17q0 -9 -12 -118l-28 -258q-13 -119 -13 -152q0 -19 4.5 -47t4.5 -30q0 -9 -2 -14t-12.5 -9.5t-31.5 -4.5zM105 -44q28 0 37 -5t9 -19q0 -48 -41 -138
q-8 -16 -17.5 -21t-32.5 -5q-20 0 -26.5 3.5t-6.5 12.5q0 7 12 58.5t12 80.5q0 20 11 26.5t43 6.5z" />
    <glyph glyph-name="Lcaron" unicode="&#x13d;" horiz-adv-x="423" 
d="M142 87h228q11 0 15.5 -5t4.5 -20q0 -36 -7 -49t-22 -13h-293q-17 0 -23.5 4t-6.5 15q0 8 3 36l56 533q2 18 12.5 24t39.5 6q26 0 35.5 -4.5t9.5 -17.5q0 -6 -4 -45zM336 618q28 0 37 -5t9 -20q0 -8 -3 -38q-2 -32 -23 -84l-20 -51q-10 -23 -21 -30t-36 -7q-28 0 -28 16
q0 9 11.5 54.5t14.5 72.5l6 56q2 22 12 29t41 7z" />
    <glyph glyph-name="lcaron" unicode="&#x13e;" horiz-adv-x="387" 
d="M109 0q-24 0 -33.5 4.5t-14.5 16.5q-12 38 -12 75q0 32 11 133l41 395q2 19 12.5 24.5t40.5 5.5q27 0 36 -4t9 -17q0 -9 -12 -118l-28 -258q-13 -119 -13 -152q0 -19 4.5 -47t4.5 -30q0 -9 -2 -14t-12.5 -9.5t-31.5 -4.5zM313 654q28 0 37 -5t9 -20q0 -8 -3 -38
q-2 -32 -23 -84l-20 -51q-10 -23 -21 -30t-36 -7q-28 0 -28 16q0 9 11.5 54.5t14.5 72.5l6 56q2 22 12 29t41 7z" />
    <glyph glyph-name="Ldot" unicode="&#x13f;" horiz-adv-x="423" 
d="M142 87h228q11 0 15.5 -5t4.5 -20q0 -36 -7 -49t-22 -13h-293q-17 0 -23.5 4t-6.5 15q0 8 3 36l56 533q2 18 12.5 24t39.5 6q26 0 35.5 -4.5t9.5 -17.5q0 -6 -4 -45zM279 289q-27 0 -37 6t-10 22q0 28 7 45q5 12 16.5 15.5t38.5 3.5t37.5 -6t10.5 -22q0 -28 -7 -45
q-5 -12 -17 -15.5t-39 -3.5z" />
    <glyph glyph-name="ldot" unicode="&#x140;" horiz-adv-x="308" 
d="M109 0q-24 0 -33.5 4.5t-14.5 16.5q-12 38 -12 75q0 32 11 133l41 395q2 19 12.5 24.5t40.5 5.5q27 0 36 -4t9 -17q0 -9 -12 -118l-28 -258q-13 -119 -13 -152q0 -19 4.5 -47t4.5 -30q0 -9 -2 -14t-12.5 -9.5t-31.5 -4.5zM256 214q-27 0 -37 6t-10 22q0 28 7 45
q5 12 16.5 15.5t38.5 3.5t37.5 -6t10.5 -22q0 -28 -7 -45q-5 -12 -17 -15.5t-39 -3.5z" />
    <glyph glyph-name="Lslash" unicode="&#x141;" horiz-adv-x="423" 
d="M142 87h228q11 0 15.5 -5t4.5 -20q0 -36 -7 -49t-22 -13h-293q-17 0 -23.5 4t-6.5 15q0 8 3 36l17 165l-20 -12q-14 -9 -22 -9q-12 0 -12 28q0 48 25 63l39 23l29 275q2 18 12.5 24t39.5 6q26 0 35.5 -4.5t9.5 -17.5q0 -6 -4 -45l-19 -177l110 65q13 9 21 9q12 0 12 -28
q0 -49 -24 -63l-128 -76z" />
    <glyph glyph-name="lslash" unicode="&#x142;" horiz-adv-x="223" 
d="M-1 246q0 49 24 63l48 28l30 287q2 19 12.5 24.5t40.5 5.5q27 0 36 -4t9 -17q0 -9 -12 -118l-13 -118l19 11q24 14 30 14q12 0 12 -28q0 -49 -24 -63l-47 -28l-5 -46q-13 -119 -13 -152q0 -19 4.5 -47t4.5 -30q0 -9 -2 -14t-12.5 -9.5t-31.5 -4.5q-24 0 -33.5 4.5
t-14.5 16.5q-12 38 -12 75q0 25 11 134l1 14l-20 -12q-24 -14 -30 -14q-12 0 -12 28z" />
    <glyph glyph-name="Nacute" unicode="&#x143;" horiz-adv-x="549" 
d="M482 618q26 0 35.5 -4.5t9.5 -17.5q0 -12 -14 -143l-44 -423q-2 -19 -14.5 -24.5t-48.5 -5.5q-29 0 -40.5 5t-17.5 21l-160 434h-10q-10 -117 -42 -430q-2 -18 -12.5 -24t-39.5 -6q-26 0 -35.5 4.5t-9.5 17.5t14 144l44 422q2 19 14 24.5t48 5.5q32 0 44 -5t18 -21
l158 -425h10q22 235 42 421q2 19 12 24.5t39 5.5zM300 662q-37 0 -37 17q0 10 11 31l47 83q8 14 12.5 19t16 8.5t34.5 3.5q31 0 40 -4t9 -13q0 -14 -21 -44l-55 -78q-6 -9 -10.5 -13t-16 -7t-30.5 -3z" />
    <glyph glyph-name="nacute" unicode="&#x144;" horiz-adv-x="510" 
d="M165 269l-25 -239q-2 -19 -12.5 -24.5t-40.5 -5.5q-26 0 -35 4t-9 17q0 9 12 118q21 197 21 229q0 12 -4 52t-4 44q0 15 9.5 21.5t37.5 6.5t36.5 -4.5t10.5 -21.5l7 -58q22 48 62.5 71t109.5 23q65 0 92.5 -24.5t27.5 -75.5q0 -19 -14.5 -142t-14.5 -155q0 -19 4.5 -47
t4.5 -30q0 -9 -2 -14t-12.5 -9.5t-31.5 -4.5q-24 0 -33.5 4.5t-14.5 16.5q-12 38 -12 75q0 29 13.5 141t13.5 132q0 27 -13.5 38t-46.5 11q-66 0 -97.5 -36t-39.5 -113zM251 539q-37 0 -37 17q0 10 11 31l47 83q8 14 12.5 19t16 8.5t34.5 3.5q31 0 40 -4t9 -13
q0 -14 -21 -44l-55 -78q-6 -9 -10.5 -13t-16 -7t-30.5 -3z" />
    <glyph glyph-name="Ncommaaccent" unicode="&#x145;" horiz-adv-x="549" 
d="M482 618q26 0 35.5 -4.5t9.5 -17.5q0 -12 -14 -143l-44 -423q-2 -19 -14.5 -24.5t-48.5 -5.5q-29 0 -40.5 5t-17.5 21l-160 434h-10q-10 -117 -42 -430q-2 -18 -12.5 -24t-39.5 -6q-26 0 -35.5 4.5t-9.5 17.5t14 144l44 422q2 19 14 24.5t48 5.5q32 0 44 -5t18 -21
l158 -425h10q22 235 42 421q2 19 12 24.5t39 5.5zM254 -44q28 0 37 -5t9 -19q0 -48 -41 -138q-8 -16 -17.5 -21t-32.5 -5q-20 0 -26.5 3.5t-6.5 12.5q0 7 12 58.5t12 80.5q0 20 11 26.5t43 6.5z" />
    <glyph glyph-name="ncommaaccent" unicode="&#x146;" horiz-adv-x="510" 
d="M165 269l-25 -239q-2 -19 -12.5 -24.5t-40.5 -5.5q-26 0 -35 4t-9 17q0 9 12 118q21 197 21 229q0 12 -4 52t-4 44q0 15 9.5 21.5t37.5 6.5t36.5 -4.5t10.5 -21.5l7 -58q22 48 62.5 71t109.5 23q65 0 92.5 -24.5t27.5 -75.5q0 -19 -14.5 -142t-14.5 -155q0 -19 4.5 -47
t4.5 -30q0 -9 -2 -14t-12.5 -9.5t-31.5 -4.5q-24 0 -33.5 4.5t-14.5 16.5q-12 38 -12 75q0 29 13.5 141t13.5 132q0 27 -13.5 38t-46.5 11q-66 0 -97.5 -36t-39.5 -113zM234 -44q28 0 37 -5t9 -19q0 -48 -41 -138q-8 -16 -17.5 -21t-32.5 -5q-20 0 -26.5 3.5t-6.5 12.5
q0 7 12 58.5t12 80.5q0 20 11 26.5t43 6.5z" />
    <glyph glyph-name="Ncaron" unicode="&#x147;" horiz-adv-x="549" 
d="M482 618q26 0 35.5 -4.5t9.5 -17.5q0 -12 -14 -143l-44 -423q-2 -19 -14.5 -24.5t-48.5 -5.5q-29 0 -40.5 5t-17.5 21l-160 434h-10q-10 -117 -42 -430q-2 -18 -12.5 -24t-39.5 -6q-26 0 -35.5 4.5t-9.5 17.5t14 144l44 422q2 19 14 24.5t48 5.5q32 0 44 -5t18 -21
l158 -425h10q22 235 42 421q2 19 12 24.5t39 5.5zM317 733l52 68q12 15 21 19t32 4q36 0 36 -14q0 -7 -18 -33l-68 -92q-10 -13 -20 -18t-31 -5h-26q-20 0 -28.5 5t-15.5 18l-49 93q-12 24 -12 30q0 10 7.5 13t29.5 3t30.5 -4t16.5 -18l39 -69h4z" />
    <glyph glyph-name="ncaron" unicode="&#x148;" horiz-adv-x="510" 
d="M165 269l-25 -239q-2 -19 -12.5 -24.5t-40.5 -5.5q-26 0 -35 4t-9 17q0 9 12 118q21 197 21 229q0 12 -4 52t-4 44q0 15 9.5 21.5t37.5 6.5t36.5 -4.5t10.5 -21.5l7 -58q22 48 62.5 71t109.5 23q65 0 92.5 -24.5t27.5 -75.5q0 -19 -14.5 -142t-14.5 -155q0 -19 4.5 -47
t4.5 -30q0 -9 -2 -14t-12.5 -9.5t-31.5 -4.5q-24 0 -33.5 4.5t-14.5 16.5q-12 38 -12 75q0 29 13.5 141t13.5 132q0 27 -13.5 38t-46.5 11q-66 0 -97.5 -36t-39.5 -113zM290 610l52 68q12 15 21 19t32 4q36 0 36 -14q0 -7 -18 -33l-68 -92q-10 -13 -20 -18t-31 -5h-26
q-20 0 -28.5 5t-15.5 18l-49 93q-12 24 -12 30q0 10 7.5 13t29.5 3t30.5 -4t16.5 -18l39 -69h4z" />
    <glyph glyph-name="Eng" unicode="&#x14a;" horiz-adv-x="549" 
d="M482 618q26 0 35.5 -4.5t9.5 -17.5q0 -12 -14 -143l-53 -511q-7 -72 -39.5 -104t-93.5 -32q-41 0 -72 9q-22 5 -22 27q0 53 22 53q5 0 25 -2.5t36 -2.5q32 0 41 23q7 18 10 56l3 34q-15 4 -22 23l-160 434h-10q-10 -117 -42 -430q-2 -18 -12.5 -24t-39.5 -6
q-26 0 -35.5 4.5t-9.5 17.5t14 144l44 422q2 19 14 24.5t48 5.5q32 0 44 -5t18 -21l158 -425h10q22 235 42 421q2 19 12 24.5t39 5.5z" />
    <glyph glyph-name="eng" unicode="&#x14b;" horiz-adv-x="510" 
d="M322 -26l32 305q8 76 8 90q0 27 -13.5 38t-46.5 11q-66 0 -97.5 -35.5t-39.5 -112.5l-25 -240q-2 -19 -12.5 -24.5t-40.5 -5.5q-26 0 -35 4t-9 17q0 9 12 118q21 197 21 229q0 12 -4 52t-4 44q0 15 9.5 21.5t37.5 6.5t36.5 -4.5t10.5 -21.5l7 -58q22 48 62.5 71t109.5 23
q65 0 92.5 -24.5t27.5 -75.5q0 -20 -9 -101l-37 -359q-7 -72 -39.5 -104t-93.5 -32q-41 0 -72 9q-22 5 -22 27q0 53 22 53q5 0 25 -2.5t36 -2.5q19 0 28 5t13 19q5 17 10 60z" />
    <glyph glyph-name="Omacron" unicode="&#x14c;" horiz-adv-x="515" 
d="M301 623q41 0 68 -3t53.5 -14t41 -31t23.5 -54.5t9 -84.5q0 -61 -14 -173t-34 -164q-25 -66 -72.5 -86.5t-140.5 -20.5q-41 0 -67.5 3t-53 14t-41 31t-23.5 54.5t-9 84.5q0 61 14 173t34 164q25 66 72 86.5t140 20.5zM293 539q-52 0 -77 -11t-39 -47q-13 -34 -26 -141.5
t-13 -159.5q0 -65 22.5 -84.5t83.5 -19.5q52 0 77 11t39 47q13 34 26 141.5t13 159.5q0 65 -22.5 84.5t-83.5 19.5zM412 749q0 -34 -6.5 -46.5t-20.5 -12.5h-167q-19 0 -19 24q0 59 28 59h166q11 0 15 -5t4 -19z" />
    <glyph glyph-name="omacron" unicode="&#x14d;" horiz-adv-x="480" 
d="M217 74q68 0 89 34q17 29 28 108.5t11 121.5q0 49 -17 65t-66 16q-67 0 -89 -35q-17 -29 -28 -108.5t-11 -121.5q0 -49 17 -64.5t66 -15.5zM211 -10q-93 0 -133 32t-40 122q0 62 14.5 147.5t41.5 132.5q24 42 65.5 60t108.5 18q93 0 133 -32t40 -122q0 -62 -14.5 -147.5
t-41.5 -132.5q-24 -42 -65.5 -60t-108.5 -18zM382 626q0 -34 -6.5 -46.5t-20.5 -12.5h-167q-19 0 -19 24q0 59 28 59h166q11 0 15 -5t4 -19z" />
    <glyph glyph-name="Obreve" unicode="&#x14e;" horiz-adv-x="515" 
d="M301 623q41 0 68 -3t53.5 -14t41 -31t23.5 -54.5t9 -84.5q0 -61 -14 -173t-34 -164q-25 -66 -72.5 -86.5t-140.5 -20.5q-41 0 -67.5 3t-53 14t-41 31t-23.5 54.5t-9 84.5q0 61 14 173t34 164q25 66 72 86.5t140 20.5zM293 539q-52 0 -77 -11t-39 -47q-13 -34 -26 -141.5
t-13 -159.5q0 -65 22.5 -84.5t83.5 -19.5q52 0 77 11t39 47q13 34 26 141.5t13 159.5q0 65 -22.5 84.5t-83.5 19.5zM303 672q-60 0 -83 17t-23 57q0 15 2 33q3 15 10.5 20t30.5 5q19 0 25.5 -4.5t6.5 -14.5q0 -2 -1 -8.5t-1 -8.5q1 -14 8.5 -19t32.5 -5q28 0 35.5 6.5
t11.5 28.5q2 16 9 20.5t29 4.5q19 0 26 -4t7 -16q0 -61 -26 -87q-25 -25 -100 -25z" />
    <glyph glyph-name="obreve" unicode="&#x14f;" horiz-adv-x="480" 
d="M217 74q68 0 89 34q17 29 28 108.5t11 121.5q0 49 -17 65t-66 16q-67 0 -89 -35q-17 -29 -28 -108.5t-11 -121.5q0 -49 17 -64.5t66 -15.5zM211 -10q-93 0 -133 32t-40 122q0 62 14.5 147.5t41.5 132.5q24 42 65.5 60t108.5 18q93 0 133 -32t40 -122q0 -62 -14.5 -147.5
t-41.5 -132.5q-24 -42 -65.5 -60t-108.5 -18zM278 551q-60 0 -83 17t-23 57q0 15 2 33q3 15 10.5 20t30.5 5q19 0 25.5 -4.5t6.5 -14.5q0 -2 -1 -8.5t-1 -8.5q1 -14 8.5 -19t32.5 -5q28 0 35.5 6.5t11.5 28.5q2 16 9 20.5t29 4.5q19 0 26 -4t7 -16q0 -61 -26 -87
q-25 -25 -100 -25z" />
    <glyph glyph-name="Ohungarumlaut" unicode="&#x150;" horiz-adv-x="515" 
d="M301 623q41 0 68 -3t53.5 -14t41 -31t23.5 -54.5t9 -84.5q0 -61 -14 -173t-34 -164q-25 -66 -72.5 -86.5t-140.5 -20.5q-41 0 -67.5 3t-53 14t-41 31t-23.5 54.5t-9 84.5q0 61 14 173t34 164q25 66 72 86.5t140 20.5zM293 539q-52 0 -77 -11t-39 -47q-13 -34 -26 -141.5
t-13 -159.5q0 -65 22.5 -84.5t83.5 -19.5q52 0 77 11t39 47q13 34 26 141.5t13 159.5q0 65 -22.5 84.5t-83.5 19.5zM216 662q-35 0 -35 15q0 8 12 36l41 91q6 12 16 16t41 4q29 0 38.5 -3.5t9.5 -13.5t-18 -40l-51 -83q-8 -13 -17.5 -17.5t-36.5 -4.5zM350 662q-34 0 -34 15
q0 11 13 33l58 95q7 11 17 15t39 4q49 0 49 -18q0 -11 -18 -34l-68 -88q-10 -13 -19.5 -17.5t-36.5 -4.5z" />
    <glyph glyph-name="ohungarumlaut" unicode="&#x151;" horiz-adv-x="480" 
d="M217 74q68 0 89 34q17 29 28 108.5t11 121.5q0 49 -17 65t-66 16q-67 0 -89 -35q-17 -29 -28 -108.5t-11 -121.5q0 -49 17 -64.5t66 -15.5zM211 -10q-93 0 -133 32t-40 122q0 62 14.5 147.5t41.5 132.5q24 42 65.5 60t108.5 18q93 0 133 -32t40 -122q0 -62 -14.5 -147.5
t-41.5 -132.5q-24 -42 -65.5 -60t-108.5 -18zM191 539q-35 0 -35 15q0 8 12 36l41 91q6 12 16 16t41 4q29 0 38.5 -3.5t9.5 -13.5t-18 -40l-51 -83q-8 -13 -17.5 -17.5t-36.5 -4.5zM325 539q-34 0 -34 15q0 11 13 33l58 95q7 11 17 15t39 4q49 0 49 -18q0 -11 -18 -34
l-68 -88q-10 -13 -19.5 -17.5t-36.5 -4.5z" />
    <glyph glyph-name="OE" unicode="&#x152;" horiz-adv-x="770" 
d="M506 531l-18 -163h177q12 0 16.5 -5t4.5 -18q0 -37 -7 -49.5t-22 -12.5h-178l-20 -196h245q11 0 15.5 -5t4.5 -20q0 -62 -30 -62h-308q-24 0 -28 10q-43 -18 -123 -18q-41 0 -67.5 3t-53 14t-41 31t-23.5 54.5t-9 84.5q0 61 14 173t34 164q25 66 72 86.5t140 20.5
q78 0 117 -20q7 15 34 15h298q20 0 20 -25q0 -36 -7 -49t-22 -13h-235zM293 539q-52 0 -77 -11t-39 -47q-13 -34 -26 -141.5t-13 -159.5q0 -65 22.5 -84.5t83.5 -19.5q52 0 77 11t39 47q13 34 26 141.5t13 159.5q0 65 -22.5 84.5t-83.5 19.5z" />
    <glyph glyph-name="oe" unicode="&#x153;" horiz-adv-x="735" 
d="M211 -10q-93 0 -133 32t-40 122q0 62 14.5 147.5t41.5 132.5q24 42 65.5 60t108.5 18q108 0 140 -46q41 45 148 45q86 0 117 -26t31 -80q0 -131 -68 -165q-60 -30 -199 -30h-14q-2 -34 -2 -50q0 -47 18.5 -63t71.5 -16q29 0 60.5 6t52.5 12t25 6q16 0 16 -24
q0 -28 -6 -38.5t-21 -17.5q-62 -26 -143 -26q-58 0 -91 11t-50 38q-43 -48 -143 -48zM217 74q68 0 89 34q17 29 28 108.5t11 121.5q0 49 -17 65t-66 16q-67 0 -89 -35q-17 -29 -28 -108.5t-11 -121.5q0 -49 17 -64.5t66 -15.5zM448 356q-13 -43 -19 -90q114 0 152 19
q33 18 33 91q0 22 -13.5 33t-54.5 11q-42 0 -64 -13.5t-34 -50.5z" />
    <glyph glyph-name="Racute" unicode="&#x154;" horiz-adv-x="497" 
d="M188 537l-22 -209h76q74 0 103 24q35 29 35 117q0 43 -23 58t-81 15q-30 0 -88 -5zM84 0q-26 0 -35.5 4.5t-9.5 17.5q0 2 14 144l42 412q2 18 10.5 26t25.5 10q78 9 163 9q99 0 142.5 -26.5t43.5 -107.5q0 -94 -29.5 -145.5t-91.5 -72.5l80 -221q8 -20 8 -29
q0 -12 -10 -16.5t-36 -4.5q-33 0 -43 4.5t-15 21.5l-70 230q-14 -1 -43 -1h-71l-23 -225q-2 -18 -12.5 -24t-39.5 -6zM261 662q-37 0 -37 17q0 10 11 31l47 83q8 14 12.5 19t16 8.5t34.5 3.5q31 0 40 -4t9 -13q0 -14 -21 -44l-55 -78q-6 -9 -10.5 -13t-16 -7t-30.5 -3z" />
    <glyph glyph-name="racute" unicode="&#x155;" horiz-adv-x="355" 
d="M162 242l-22 -212q-2 -19 -12.5 -24.5t-40.5 -5.5q-26 0 -35 4t-9 17q0 9 12 118q21 197 21 229q0 12 -4 52t-4 44q0 14 9.5 20.5t37.5 6.5t36.5 -4.5t10.5 -21.5l6 -56q46 91 146 91q29 0 36 -9q5 -5 5 -19q0 -31 -9 -49q-7 -11 -17 -11q-2 0 -14.5 1t-22.5 1
q-56 0 -88.5 -40.5t-41.5 -131.5zM176 539q-37 0 -37 17q0 10 11 31l47 83q8 14 12.5 19t16 8.5t34.5 3.5q31 0 40 -4t9 -13q0 -14 -21 -44l-55 -78q-6 -9 -10.5 -13t-16 -7t-30.5 -3z" />
    <glyph glyph-name="Rcommaaccent" unicode="&#x156;" horiz-adv-x="497" 
d="M188 537l-22 -209h76q74 0 103 24q35 29 35 117q0 43 -23 58t-81 15q-30 0 -88 -5zM84 0q-26 0 -35.5 4.5t-9.5 17.5q0 2 14 144l42 412q2 18 10.5 26t25.5 10q78 9 163 9q99 0 142.5 -26.5t43.5 -107.5q0 -94 -29.5 -145.5t-91.5 -72.5l80 -221q8 -20 8 -29
q0 -12 -10 -16.5t-36 -4.5q-33 0 -43 4.5t-15 21.5l-70 230q-14 -1 -43 -1h-71l-23 -225q-2 -18 -12.5 -24t-39.5 -6zM224 -44q28 0 37 -5t9 -19q0 -48 -41 -138q-8 -16 -17.5 -21t-32.5 -5q-20 0 -26.5 3.5t-6.5 12.5q0 7 12 58.5t12 80.5q0 20 11 26.5t43 6.5z" />
    <glyph glyph-name="rcommaaccent" unicode="&#x157;" horiz-adv-x="355" 
d="M162 242l-22 -212q-2 -19 -12.5 -24.5t-40.5 -5.5q-26 0 -35 4t-9 17q0 9 12 118q21 197 21 229q0 12 -4 52t-4 44q0 14 9.5 20.5t37.5 6.5t36.5 -4.5t10.5 -21.5l6 -56q46 91 146 91q29 0 36 -9q5 -5 5 -19q0 -31 -9 -49q-7 -11 -17 -11q-2 0 -14.5 1t-22.5 1
q-56 0 -88.5 -40.5t-41.5 -131.5zM83 -44q28 0 37 -5t9 -19q0 -48 -41 -138q-8 -16 -17.5 -21t-32.5 -5q-20 0 -26.5 3.5t-6.5 12.5q0 7 12 58.5t12 80.5q0 20 11 26.5t43 6.5z" />
    <glyph glyph-name="Rcaron" unicode="&#x158;" horiz-adv-x="497" 
d="M188 537l-22 -209h76q74 0 103 24q35 29 35 117q0 43 -23 58t-81 15q-30 0 -88 -5zM84 0q-26 0 -35.5 4.5t-9.5 17.5q0 2 14 144l42 412q2 18 10.5 26t25.5 10q78 9 163 9q99 0 142.5 -26.5t43.5 -107.5q0 -94 -29.5 -145.5t-91.5 -72.5l80 -221q8 -20 8 -29
q0 -12 -10 -16.5t-36 -4.5q-33 0 -43 4.5t-15 21.5l-70 230q-14 -1 -43 -1h-71l-23 -225q-2 -18 -12.5 -24t-39.5 -6zM289 733l52 68q12 15 21 19t32 4q36 0 36 -14q0 -7 -18 -33l-68 -92q-10 -13 -20 -18t-31 -5h-26q-20 0 -28.5 5t-15.5 18l-49 93q-12 24 -12 30
q0 10 7.5 13t29.5 3t30.5 -4t16.5 -18l39 -69h4z" />
    <glyph glyph-name="rcaron" unicode="&#x159;" horiz-adv-x="355" 
d="M162 242l-22 -212q-2 -19 -12.5 -24.5t-40.5 -5.5q-26 0 -35 4t-9 17q0 9 12 118q21 197 21 229q0 12 -4 52t-4 44q0 14 9.5 20.5t37.5 6.5t36.5 -4.5t10.5 -21.5l6 -56q46 91 146 91q29 0 36 -9q5 -5 5 -19q0 -31 -9 -49q-7 -11 -17 -11q-2 0 -14.5 1t-22.5 1
q-56 0 -88.5 -40.5t-41.5 -131.5zM213 610l52 68q12 15 21 19t32 4q36 0 36 -14q0 -7 -18 -33l-68 -92q-10 -13 -20 -18t-31 -5h-26q-20 0 -28.5 5t-15.5 18l-49 93q-12 24 -12 30q0 10 7.5 13t29.5 3t30.5 -4t16.5 -18l39 -69h4z" />
    <glyph glyph-name="Sacute" unicode="&#x15a;" horiz-adv-x="444" 
d="M179 -8q-85 0 -144 18q-14 5 -19 11t-5 20q0 24 7 39.5t18 15.5q3 0 49 -9t88 -9q78 0 104 23q14 13 22.5 39.5t8.5 52.5q0 45 -42 63l-115 51q-45 20 -65 47t-20 75q0 78 33 130q41 64 157 64q87 0 152 -20q19 -4 19 -26q0 -58 -23 -58q-4 0 -23 4.5t-49.5 9t-61.5 4.5
q-76 0 -94 -30q-15 -23 -15 -66q0 -21 9 -32.5t33 -22.5l120 -54q44 -20 62.5 -46.5t18.5 -72.5q0 -57 -19 -105.5t-54 -75.5q-49 -38 -152 -40zM257 662q-37 0 -37 17q0 10 11 31l47 83q8 14 12.5 19t16 8.5t34.5 3.5q31 0 40 -4t9 -13q0 -14 -21 -44l-55 -78
q-6 -9 -10.5 -13t-16 -7t-30.5 -3z" />
    <glyph glyph-name="sacute" unicode="&#x15b;" horiz-adv-x="403" 
d="M160 -10q-72 0 -122 16q-24 7 -24 30q0 53 22 53q2 0 43.5 -8t80.5 -8q54 0 78 18t24 59q0 34 -37 49l-94 39q-45 19 -64 44t-19 65q0 33 12 66.5t31 51.5q38 37 128 37q73 0 123 -15q13 -4 18 -10t5 -20q0 -51 -23 -51q-3 0 -48.5 7.5t-76.5 7.5q-32 0 -46 -9
q-23 -12 -23 -54q0 -31 34 -45l91 -37q50 -21 69 -45.5t19 -62.5q0 -96 -54 -140q-48 -38 -147 -38zM215 539q-37 0 -37 17q0 10 11 31l47 83q8 14 12.5 19t16 8.5t34.5 3.5q31 0 40 -4t9 -13q0 -14 -21 -44l-55 -78q-6 -9 -10.5 -13t-16 -7t-30.5 -3z" />
    <glyph glyph-name="Scircumflex" unicode="&#x15c;" horiz-adv-x="444" 
d="M179 -8q-85 0 -144 18q-14 5 -19 11t-5 20q0 24 7 39.5t18 15.5q3 0 49 -9t88 -9q78 0 104 23q14 13 22.5 39.5t8.5 52.5q0 45 -42 63l-115 51q-45 20 -65 47t-20 75q0 78 33 130q41 64 157 64q87 0 152 -20q19 -4 19 -26q0 -58 -23 -58q-4 0 -23 4.5t-49.5 9t-61.5 4.5
q-76 0 -94 -30q-15 -23 -15 -66q0 -21 9 -32.5t33 -22.5l120 -54q44 -20 62.5 -46.5t18.5 -72.5q0 -57 -19 -105.5t-54 -75.5q-49 -38 -152 -40zM276 753l-52 -68q-12 -15 -21 -19t-32 -4q-36 0 -36 14q0 7 18 33l68 92q10 13 20 18t31 5h26q20 0 28.5 -5t15.5 -18l49 -93
q12 -24 12 -30q0 -10 -7.5 -13t-29.5 -3t-30.5 4t-16.5 18l-39 69h-4z" />
    <glyph glyph-name="scircumflex" unicode="&#x15d;" horiz-adv-x="403" 
d="M160 -10q-72 0 -122 16q-24 7 -24 30q0 53 22 53q2 0 43.5 -8t80.5 -8q54 0 78 18t24 59q0 34 -37 49l-94 39q-45 19 -64 44t-19 65q0 33 12 66.5t31 51.5q38 37 128 37q73 0 123 -15q13 -4 18 -10t5 -20q0 -51 -23 -51q-3 0 -48.5 7.5t-76.5 7.5q-32 0 -46 -9
q-23 -12 -23 -54q0 -31 34 -45l91 -37q50 -21 69 -45.5t19 -62.5q0 -96 -54 -140q-48 -38 -147 -38zM237 630l-52 -68q-12 -15 -21 -19t-32 -4q-36 0 -36 14q0 7 18 33l68 92q10 13 20 18t31 5h26q20 0 28.5 -5t15.5 -18l49 -93q12 -24 12 -30q0 -10 -7.5 -13t-29.5 -3
t-30.5 4t-16.5 18l-39 69h-4z" />
    <glyph glyph-name="Scedilla" unicode="&#x15e;" horiz-adv-x="444" 
d="M214 -31q0 -10 18 -22q27 -18 37 -30t10 -35q0 -95 -105 -95q-36 0 -60 7q-19 4 -19 24q0 46 23 46q4 0 19.5 -2t29.5 -2q27 0 27 18q0 9 -23 23q-29 19 -29 43q0 11 5 49q-69 3 -112 17q-14 5 -19 11t-5 20q0 24 7 39.5t18 15.5q3 0 49 -9t88 -9q78 0 104 23
q14 13 22.5 39.5t8.5 52.5q0 45 -42 63l-115 51q-45 20 -65 47t-20 75q0 78 33 130q41 64 157 64q87 0 152 -20q19 -4 19 -26q0 -58 -23 -58q-4 0 -23 4.5t-49.5 9t-61.5 4.5q-76 0 -94 -30q-15 -23 -15 -66q0 -21 9 -32.5t33 -22.5l120 -54q44 -20 62.5 -46.5t18.5 -72.5
q0 -57 -19 -105.5t-54 -75.5q-41 -32 -115 -38q-2 -20 -2 -25z" />
    <glyph glyph-name="scedilla" unicode="&#x15f;" horiz-adv-x="403" 
d="M192 -31q0 -10 18 -22q27 -18 37 -30t10 -35q0 -95 -105 -95q-36 0 -60 7q-19 4 -19 24q0 46 23 46q4 0 19.5 -2t29.5 -2q27 0 27 18q0 9 -23 23q-29 19 -29 43q0 10 4 47q-46 3 -86 15q-24 7 -24 30q0 53 22 53q2 0 43.5 -8t80.5 -8q54 0 78 18t24 59q0 34 -37 49
l-94 39q-45 19 -64 44t-19 65q0 33 12 66.5t31 51.5q38 37 128 37q73 0 123 -15q13 -4 18 -10t5 -20q0 -51 -23 -51q-3 0 -48.5 7.5t-76.5 7.5q-32 0 -46 -9q-23 -12 -23 -54q0 -31 34 -45l91 -37q50 -21 69 -45.5t19 -62.5q0 -96 -54 -140q-39 -31 -113 -37q-2 -18 -2 -22z
" />
    <glyph glyph-name="Scaron" unicode="&#x160;" horiz-adv-x="444" 
d="M179 -8q-85 0 -144 18q-14 5 -19 11t-5 20q0 24 7 39.5t18 15.5q3 0 49 -9t88 -9q78 0 104 23q14 13 22.5 39.5t8.5 52.5q0 45 -42 63l-115 51q-45 20 -65 47t-20 75q0 78 33 130q41 64 157 64q87 0 152 -20q19 -4 19 -26q0 -58 -23 -58q-4 0 -23 4.5t-49.5 9t-61.5 4.5
q-76 0 -94 -30q-15 -23 -15 -66q0 -21 9 -32.5t33 -22.5l120 -54q44 -20 62.5 -46.5t18.5 -72.5q0 -57 -19 -105.5t-54 -75.5q-49 -38 -152 -40zM275 733l52 68q12 15 21 19t32 4q36 0 36 -14q0 -7 -18 -33l-68 -92q-10 -13 -20 -18t-31 -5h-26q-20 0 -28.5 5t-15.5 18
l-49 93q-12 24 -12 30q0 10 7.5 13t29.5 3t30.5 -4t16.5 -18l39 -69h4z" />
    <glyph glyph-name="scaron" unicode="&#x161;" horiz-adv-x="403" 
d="M160 -10q-72 0 -122 16q-24 7 -24 30q0 53 22 53q2 0 43.5 -8t80.5 -8q54 0 78 18t24 59q0 34 -37 49l-94 39q-45 19 -64 44t-19 65q0 33 12 66.5t31 51.5q38 37 128 37q73 0 123 -15q13 -4 18 -10t5 -20q0 -51 -23 -51q-3 0 -48.5 7.5t-76.5 7.5q-32 0 -46 -9
q-23 -12 -23 -54q0 -31 34 -45l91 -37q50 -21 69 -45.5t19 -62.5q0 -96 -54 -140q-48 -38 -147 -38zM237 610l52 68q12 15 21 19t32 4q36 0 36 -14q0 -7 -18 -33l-68 -92q-10 -13 -20 -18t-31 -5h-26q-20 0 -28.5 5t-15.5 18l-49 93q-12 24 -12 30q0 10 7.5 13t29.5 3
t30.5 -4t16.5 -18l39 -69h4z" />
    <glyph glyph-name="Tcommaaccent" unicode="&#x162;" horiz-adv-x="438" 
d="M195 0q-26 0 -35.5 4.5t-9.5 17.5t14 144l39 365h-131q-11 0 -15.5 5t-4.5 20q0 36 7 49t22 13h358q20 0 20 -25q0 -36 -7 -49t-22 -13h-130l-53 -501q-2 -18 -12.5 -24t-39.5 -6zM192 -44q28 0 37 -5t9 -19q0 -48 -41 -138q-8 -16 -17.5 -21t-32.5 -5q-20 0 -26.5 3.5
t-6.5 12.5q0 7 12 58.5t12 80.5q0 20 11 26.5t43 6.5z" />
    <glyph glyph-name="tcommaaccent" unicode="&#x163;" horiz-adv-x="325" 
d="M313 473q0 -31 -7 -49q-4 -11 -17 -11h-83l-28 -264q-1 -8 -2 -18.5l-1.5 -16t-0.5 -9.5q0 -18 7.5 -23.5t27.5 -5.5q14 0 32.5 2.5t21.5 2.5q18 0 18 -27q0 -26 -6.5 -37t-23.5 -16q-37 -11 -81 -11q-50 0 -72.5 20t-22.5 67q0 18 4 57l29 279h-54q-15 0 -15 17
q0 31 7 49q4 11 17 11h53l8 74q2 19 11.5 24.5t39.5 5.5q27 0 35.5 -5t8.5 -21q0 -4 -1.5 -15t-3.5 -29.5t-4 -33.5h88q15 0 15 -17zM165 -44q28 0 37 -5t9 -19q0 -48 -41 -138q-8 -16 -17.5 -21t-32.5 -5q-20 0 -26.5 3.5t-6.5 12.5q0 7 12 58.5t12 80.5q0 20 11 26.5
t43 6.5z" />
    <glyph glyph-name="Tcaron" unicode="&#x164;" horiz-adv-x="438" 
d="M195 0q-26 0 -35.5 4.5t-9.5 17.5t14 144l39 365h-131q-11 0 -15.5 5t-4.5 20q0 36 7 49t22 13h358q20 0 20 -25q0 -36 -7 -49t-22 -13h-130l-53 -501q-2 -18 -12.5 -24t-39.5 -6zM266 733l52 68q12 15 21 19t32 4q36 0 36 -14q0 -7 -18 -33l-68 -92q-10 -13 -20 -18
t-31 -5h-26q-20 0 -28.5 5t-15.5 18l-49 93q-12 24 -12 30q0 10 7.5 13t29.5 3t30.5 -4t16.5 -18l39 -69h4z" />
    <glyph glyph-name="tcaron" unicode="&#x165;" horiz-adv-x="480" 
d="M313 473q0 -31 -7 -49q-4 -11 -17 -11h-83l-28 -264q-1 -8 -2 -18.5l-1.5 -16t-0.5 -9.5q0 -18 7.5 -23.5t27.5 -5.5q14 0 32.5 2.5t21.5 2.5q18 0 18 -27q0 -26 -6.5 -37t-23.5 -16q-37 -11 -81 -11q-50 0 -72.5 20t-22.5 67q0 18 4 57l29 279h-54q-15 0 -15 17
q0 31 7 49q4 11 17 11h53l8 74q2 19 11.5 24.5t39.5 5.5q27 0 35.5 -5t8.5 -21q0 -4 -1.5 -15t-3.5 -29.5t-4 -33.5h88q15 0 15 -17zM430 654q28 0 37 -5t9 -20q0 -8 -3 -38q-2 -32 -23 -84l-20 -51q-10 -23 -21 -30t-36 -7q-28 0 -28 16q0 9 11.5 54.5t14.5 72.5l6 56
q2 22 12 29t41 7z" />
    <glyph glyph-name="Tbar" unicode="&#x166;" horiz-adv-x="438" 
d="M195 0q-26 0 -35.5 4.5t-9.5 17.5t14 144l12 110h-121q-11 0 -15 4t-4 18q0 53 25 53h123l19 180h-131q-11 0 -15.5 5t-4.5 20q0 36 7 49t22 13h358q20 0 20 -25q0 -36 -7 -49t-22 -13h-130l-19 -180h122q11 0 15 -4.5t4 -17.5q0 -53 -26 -53h-123l-26 -246
q-2 -18 -12.5 -24t-39.5 -6z" />
    <glyph glyph-name="tbar" unicode="&#x167;" horiz-adv-x="325" 
d="M313 473q0 -31 -7 -49q-4 -11 -17 -11h-83l-14 -124h87q16 0 16 -17q0 -31 -7 -49q-5 -11 -17 -11h-87l-6 -63q-1 -8 -2 -18.5l-1.5 -16t-0.5 -9.5q0 -18 7.5 -23.5t27.5 -5.5q14 0 32.5 2.5t21.5 2.5q18 0 18 -27q0 -26 -6.5 -37t-23.5 -16q-37 -11 -81 -11
q-50 0 -72.5 20t-22.5 67q0 18 4 57l8 78h-51q-16 0 -16 17q0 31 7 49q5 11 17 11h51l13 124h-54q-15 0 -15 17q0 31 7 49q4 11 17 11h53l8 74q2 19 11.5 24.5t39.5 5.5q27 0 35.5 -5t8.5 -21q0 -4 -1.5 -15t-3.5 -29.5t-4 -33.5h88q15 0 15 -17z" />
    <glyph glyph-name="Utilde" unicode="&#x168;" horiz-adv-x="519" 
d="M486 453l-28 -273q-10 -103 -62 -145.5t-162 -42.5q-98 0 -142 33.5t-44 112.5q0 16 9 106l37 344q2 18 12.5 24t39.5 6q26 0 35.5 -4.5t9.5 -17.5q0 -12 -14 -143l-22 -207q-9 -88 -9 -98q0 -40 21 -55.5t76 -15.5q63 0 86.5 21t29.5 78l44 412q2 18 12.5 24t39.5 6
q26 0 35.5 -4.5t9.5 -17.5q0 -12 -14 -143zM180 681q-11 0 -11 16q0 49 29 65q32 16 64 16q23 0 56 -9.5t49 -9.5q20 0 42.5 8t25.5 8q11 0 11 -16q0 -27 -6.5 -41t-22.5 -23q-28 -17 -65 -17q-23 0 -56 10t-49 10q-21 0 -43 -8.5t-24 -8.5z" />
    <glyph glyph-name="utilde" unicode="&#x169;" horiz-adv-x="503" 
d="M393 0q-26 0 -34 5.5t-10 21.5l-7 64q-45 -101 -173 -101q-62 0 -90.5 23t-28.5 75q0 35 17 150q15 102 15 146q0 16 -4.5 46.5t-4.5 33.5q0 16 9.5 22t37.5 6q26 0 34.5 -5.5t12.5 -21.5q10 -37 10 -78q0 -25 -14 -135t-14 -131q0 -28 13.5 -38.5t47.5 -10.5q65 0 94 38
t38 122l24 230q2 19 12.5 24.5t40.5 5.5q27 0 36 -4t9 -17q0 -14 -16.5 -168.5t-16.5 -175.5q0 -12 3.5 -54t3.5 -50q0 -23 -45 -23zM148 564q-11 0 -11 16q0 49 29 65q32 16 64 16q23 0 56 -9.5t49 -9.5q20 0 42.5 8t25.5 8q11 0 11 -16q0 -27 -6.5 -41t-22.5 -23
q-28 -17 -65 -17q-23 0 -56 10t-49 10q-21 0 -43 -8.5t-24 -8.5z" />
    <glyph glyph-name="Umacron" unicode="&#x16a;" horiz-adv-x="519" 
d="M486 453l-28 -273q-10 -103 -62 -145.5t-162 -42.5q-98 0 -142 33.5t-44 112.5q0 16 9 106l37 344q2 18 12.5 24t39.5 6q26 0 35.5 -4.5t9.5 -17.5q0 -12 -14 -143l-22 -207q-9 -88 -9 -98q0 -40 21 -55.5t76 -15.5q63 0 86.5 21t29.5 78l44 412q2 18 12.5 24t39.5 6
q26 0 35.5 -4.5t9.5 -17.5q0 -12 -14 -143zM415 749q0 -34 -6.5 -46.5t-20.5 -12.5h-167q-19 0 -19 24q0 59 28 59h166q11 0 15 -5t4 -19z" />
    <glyph glyph-name="umacron" unicode="&#x16b;" horiz-adv-x="503" 
d="M393 0q-26 0 -34 5.5t-10 21.5l-7 64q-45 -101 -173 -101q-62 0 -90.5 23t-28.5 75q0 35 17 150q15 102 15 146q0 16 -4.5 46.5t-4.5 33.5q0 16 9.5 22t37.5 6q26 0 34.5 -5.5t12.5 -21.5q10 -37 10 -78q0 -25 -14 -135t-14 -131q0 -28 13.5 -38.5t47.5 -10.5q65 0 94 38
t38 122l24 230q2 19 12.5 24.5t40.5 5.5q27 0 36 -4t9 -17q0 -14 -16.5 -168.5t-16.5 -175.5q0 -12 3.5 -54t3.5 -50q0 -23 -45 -23zM386 626q0 -34 -6.5 -46.5t-20.5 -12.5h-167q-19 0 -19 24q0 59 28 59h166q11 0 15 -5t4 -19z" />
    <glyph glyph-name="Ubreve" unicode="&#x16c;" horiz-adv-x="519" 
d="M486 453l-28 -273q-10 -103 -62 -145.5t-162 -42.5q-98 0 -142 33.5t-44 112.5q0 16 9 106l37 344q2 18 12.5 24t39.5 6q26 0 35.5 -4.5t9.5 -17.5q0 -12 -14 -143l-22 -207q-9 -88 -9 -98q0 -40 21 -55.5t76 -15.5q63 0 86.5 21t29.5 78l44 412q2 18 12.5 24t39.5 6
q26 0 35.5 -4.5t9.5 -17.5q0 -12 -14 -143zM295 672q-60 0 -83 17t-23 57q0 15 2 33q3 15 10.5 20t30.5 5q19 0 25.5 -4.5t6.5 -14.5q0 -2 -1 -8.5t-1 -8.5q1 -14 8.5 -19t32.5 -5q28 0 35.5 6.5t11.5 28.5q2 16 9 20.5t29 4.5q19 0 26 -4t7 -16q0 -61 -26 -87
q-25 -25 -100 -25z" />
    <glyph glyph-name="ubreve" unicode="&#x16d;" horiz-adv-x="503" 
d="M393 0q-26 0 -34 5.5t-10 21.5l-7 64q-45 -101 -173 -101q-62 0 -90.5 23t-28.5 75q0 35 17 150q15 102 15 146q0 16 -4.5 46.5t-4.5 33.5q0 16 9.5 22t37.5 6q26 0 34.5 -5.5t12.5 -21.5q10 -37 10 -78q0 -25 -14 -135t-14 -131q0 -28 13.5 -38.5t47.5 -10.5q65 0 94 38
t38 122l24 230q2 19 12.5 24.5t40.5 5.5q27 0 36 -4t9 -17q0 -14 -16.5 -168.5t-16.5 -175.5q0 -12 3.5 -54t3.5 -50q0 -23 -45 -23zM268 551q-60 0 -83 17t-23 57q0 15 2 33q3 15 10.5 20t30.5 5q19 0 25.5 -4.5t6.5 -14.5q0 -2 -1 -8.5t-1 -8.5q1 -14 8.5 -19t32.5 -5
q28 0 35.5 6.5t11.5 28.5q2 16 9 20.5t29 4.5q19 0 26 -4t7 -16q0 -61 -26 -87q-25 -25 -100 -25z" />
    <glyph glyph-name="Uring" unicode="&#x16e;" horiz-adv-x="519" 
d="M486 453l-28 -273q-10 -103 -62 -145.5t-162 -42.5q-98 0 -142 33.5t-44 112.5q0 16 9 106l37 344q2 18 12.5 24t39.5 6q26 0 35.5 -4.5t9.5 -17.5q0 -12 -14 -143l-22 -207q-9 -88 -9 -98q0 -40 21 -55.5t76 -15.5q63 0 86.5 21t29.5 78l44 412q2 18 12.5 24t39.5 6
q26 0 35.5 -4.5t9.5 -17.5q0 -12 -14 -143zM305 734q28 0 37.5 9.5t9.5 35.5q0 14 -8 18.5t-32 4.5q-29 0 -38.5 -9t-9.5 -35q0 -14 8.5 -19t32.5 -5zM299 671q-58 0 -82 19t-24 59q0 116 124 116q59 0 83 -18.5t24 -58.5q0 -56 -28.5 -86.5t-96.5 -30.5z" />
    <glyph glyph-name="uring" unicode="&#x16f;" horiz-adv-x="503" 
d="M393 0q-26 0 -34 5.5t-10 21.5l-7 64q-45 -101 -173 -101q-62 0 -90.5 23t-28.5 75q0 35 17 150q15 102 15 146q0 16 -4.5 46.5t-4.5 33.5q0 16 9.5 22t37.5 6q26 0 34.5 -5.5t12.5 -21.5q10 -37 10 -78q0 -25 -14 -135t-14 -131q0 -28 13.5 -38.5t47.5 -10.5q65 0 94 38
t38 122l24 230q2 19 12.5 24.5t40.5 5.5q27 0 36 -4t9 -17q0 -14 -16.5 -168.5t-16.5 -175.5q0 -12 3.5 -54t3.5 -50q0 -23 -45 -23zM278 613q28 0 37.5 9.5t9.5 35.5q0 14 -8 18.5t-32 4.5q-29 0 -38.5 -9t-9.5 -35q0 -14 8.5 -19t32.5 -5zM272 550q-58 0 -82 19t-24 59
q0 116 124 116q59 0 83 -18.5t24 -58.5q0 -56 -28.5 -86.5t-96.5 -30.5z" />
    <glyph glyph-name="Uhungarumlaut" unicode="&#x170;" horiz-adv-x="519" 
d="M486 453l-28 -273q-10 -103 -62 -145.5t-162 -42.5q-98 0 -142 33.5t-44 112.5q0 16 9 106l37 344q2 18 12.5 24t39.5 6q26 0 35.5 -4.5t9.5 -17.5q0 -12 -14 -143l-22 -207q-9 -88 -9 -98q0 -40 21 -55.5t76 -15.5q63 0 86.5 21t29.5 78l44 412q2 18 12.5 24t39.5 6
q26 0 35.5 -4.5t9.5 -17.5q0 -12 -14 -143zM204 662q-35 0 -35 15q0 8 12 36l41 91q6 12 16 16t41 4q29 0 38.5 -3.5t9.5 -13.5t-18 -40l-51 -83q-8 -13 -17.5 -17.5t-36.5 -4.5zM338 662q-34 0 -34 15q0 11 13 33l58 95q7 11 17 15t39 4q49 0 49 -18q0 -11 -18 -34l-68 -88
q-10 -13 -19.5 -17.5t-36.5 -4.5z" />
    <glyph glyph-name="uhungarumlaut" unicode="&#x171;" horiz-adv-x="503" 
d="M393 0q-26 0 -34 5.5t-10 21.5l-7 64q-45 -101 -173 -101q-62 0 -90.5 23t-28.5 75q0 35 17 150q15 102 15 146q0 16 -4.5 46.5t-4.5 33.5q0 16 9.5 22t37.5 6q26 0 34.5 -5.5t12.5 -21.5q10 -37 10 -78q0 -25 -14 -135t-14 -131q0 -28 13.5 -38.5t47.5 -10.5q65 0 94 38
t38 122l24 230q2 19 12.5 24.5t40.5 5.5q27 0 36 -4t9 -17q0 -14 -16.5 -168.5t-16.5 -175.5q0 -12 3.5 -54t3.5 -50q0 -23 -45 -23zM181 539q-35 0 -35 15q0 8 12 36l41 91q6 12 16 16t41 4q29 0 38.5 -3.5t9.5 -13.5t-18 -40l-51 -83q-8 -13 -17.5 -17.5t-36.5 -4.5z
M315 539q-34 0 -34 15q0 11 13 33l58 95q7 11 17 15t39 4q49 0 49 -18q0 -11 -18 -34l-68 -88q-10 -13 -19.5 -17.5t-36.5 -4.5z" />
    <glyph glyph-name="Uogonek" unicode="&#x172;" horiz-adv-x="519" 
d="M48 138q0 16 9 106l37 344q2 18 12.5 24t39.5 6q26 0 35.5 -4.5t9.5 -17.5q0 -12 -14 -143l-22 -207q-9 -88 -9 -98q0 -40 21 -55.5t76 -15.5q63 0 86.5 21t29.5 78l44 412q2 18 12.5 24t39.5 6q26 0 35.5 -4.5t9.5 -17.5q0 -12 -14 -143l-28 -273q-9 -83 -43.5 -125.5
t-97.5 -55.5q-50 -10 -78 -41q-23 -26 -23 -60q0 -14 13 -14q5 0 15 1.5t16 1.5q12 0 12 -20q0 -28 -6.5 -37.5t-21.5 -14.5q-29 -9 -59 -9q-63 0 -63 58q0 69 74 129q-77 5 -112.5 39.5t-35.5 105.5z" />
    <glyph glyph-name="uogonek" unicode="&#x173;" horiz-adv-x="503" 
d="M169 -10q-62 0 -90.5 23t-28.5 75q0 35 17 150q15 102 15 146q0 16 -4.5 46.5t-4.5 33.5q0 16 9.5 22t37.5 6q26 0 34.5 -5.5t12.5 -21.5q10 -37 10 -78q0 -25 -14 -135t-14 -131q0 -28 13.5 -38.5t47.5 -10.5q65 0 94 38t38 122l24 230q2 19 12.5 24.5t40.5 5.5
q27 0 36 -4t9 -17q0 -14 -16.5 -168.5t-16.5 -175.5q0 -13 3.5 -54t3.5 -47q0 -19 -12 -31q-40 -40 -49 -50q-20 -24 -20 -47q0 -14 13 -14q5 0 15 1.5t16 1.5q12 0 12 -20q0 -28 -6.5 -38t-20.5 -14q-27 -9 -59 -9q-63 0 -63 58q0 40 20 69.5t71 75.5q-5 6 -6 18l-7 64
q-45 -101 -173 -101z" />
    <glyph glyph-name="Wcircumflex" unicode="&#x174;" horiz-adv-x="796" 
d="M193 0q-45 0 -61 7t-19 32l-44 441q-10 98 -10 110q0 15 10 21t39 6q30 0 40.5 -5.5t12.5 -21.5l41 -500h11l153 486q6 20 21.5 26t51.5 6q35 0 49.5 -6.5t16.5 -25.5l52 -486h12l145 500q5 16 16.5 21.5t41.5 5.5q26 0 35 -4.5t9 -15.5q0 -6 -9 -40l-160 -518
q-7 -25 -24.5 -32t-63.5 -7q-44 0 -60 8t-19 33l-51 423h-10l-138 -423q-8 -25 -26.5 -33t-61.5 -8zM451 753l-52 -68q-12 -15 -21 -19t-32 -4q-36 0 -36 14q0 7 18 33l68 92q10 13 20 18t31 5h26q20 0 28.5 -5t15.5 -18l49 -93q12 -24 12 -30q0 -10 -7.5 -13t-29.5 -3
t-30.5 4t-16.5 18l-39 69h-4z" />
    <glyph glyph-name="wcircumflex" unicode="&#x175;" horiz-adv-x="701" 
d="M471 82h11q17 47 36.5 113.5l43 153.5l30.5 112q5 20 16.5 25.5t44.5 5.5q24 0 34 -4.5t10 -17.5t-29 -109q-58 -189 -113 -325q-9 -21 -26 -28.5t-60 -7.5q-39 0 -52 8t-17 34l-41 303h-6q-55 -176 -106 -308q-8 -22 -25.5 -29.5t-61.5 -7.5q-40 0 -55 7t-17 29l-29 263
q-16 143 -16 160t11 25t40 8q33 0 42.5 -6t10.5 -30q1 -12 12 -165t18 -209h11l116 365q7 21 20.5 28t48.5 7q33 0 45.5 -7.5t14.5 -28.5zM381 630l-52 -68q-12 -15 -21 -19t-32 -4q-36 0 -36 14q0 7 18 33l68 92q10 13 20 18t31 5h26q20 0 28.5 -5t15.5 -18l49 -93
q12 -24 12 -30q0 -10 -7.5 -13t-29.5 -3t-30.5 4t-16.5 18l-39 69h-4z" />
    <glyph glyph-name="Ycircumflex" unicode="&#x176;" horiz-adv-x="467" 
d="M177 167l7 66l-120 321q-11 29 -11 39q0 14 10.5 19.5t40.5 5.5t41 -5t16 -22l79 -255h5l133 255q8 17 20 22t43 5q26 0 35 -4.5t9 -14.5q0 -15 -20 -49l-185 -317l-21 -203q-2 -18 -12.5 -24t-39.5 -6q-26 0 -35.5 4.5t-9.5 17.5q0 7 15 145zM283 753l-52 -68
q-12 -15 -21 -19t-32 -4q-36 0 -36 14q0 7 18 33l68 92q10 13 20 18t31 5h26q20 0 28.5 -5t15.5 -18l49 -93q12 -24 12 -30q0 -10 -7.5 -13t-29.5 -3t-30.5 4t-16.5 18l-39 69h-4z" />
    <glyph glyph-name="ycircumflex" unicode="&#x177;" horiz-adv-x="447" 
d="M445 470q0 -14 -29 -102q-32 -99 -90.5 -255t-91.5 -219q-46 -88 -154 -88q-50 0 -78 9q-21 7 -21 30q0 51 25 51q3 0 28.5 -3t45.5 -3q35 0 53.5 13.5t33.5 51.5l17 45q-36 1 -50 10.5t-19 36.5l-68 362q-8 45 -8 53q0 18 12 25q10 5 42 5q28 0 37.5 -4.5t11.5 -20.5
q23 -173 60 -384h12l52 152l51.5 155.5t24.5 76.5q5 16 16 20.5t41 4.5q28 0 37 -5t9 -17zM255 630l-52 -68q-12 -15 -21 -19t-32 -4q-36 0 -36 14q0 7 18 33l68 92q10 13 20 18t31 5h26q20 0 28.5 -5t15.5 -18l49 -93q12 -24 12 -30q0 -10 -7.5 -13t-29.5 -3t-30.5 4
t-16.5 18l-39 69h-4z" />
    <glyph glyph-name="Ydieresis" unicode="&#x178;" horiz-adv-x="467" 
d="M177 167l7 66l-120 321q-11 29 -11 39q0 14 10.5 19.5t40.5 5.5t41 -5t16 -22l79 -255h5l133 255q8 17 20 22t43 5q26 0 35 -4.5t9 -14.5q0 -15 -20 -49l-185 -317l-21 -203q-2 -18 -12.5 -24t-39.5 -6q-26 0 -35.5 4.5t-9.5 17.5q0 7 15 145zM197 685q-26 0 -34.5 6
t-8.5 22q0 24 9 46q4 11 15 14.5t37 3.5t34.5 -6t8.5 -22q0 -24 -9 -46q-4 -11 -15 -14.5t-37 -3.5zM346 685q-26 0 -34.5 6t-8.5 22q0 24 9 46q4 11 15 14.5t37 3.5t34.5 -6t8.5 -22q0 -24 -9 -46q-4 -11 -15 -14.5t-37 -3.5z" />
    <glyph glyph-name="Zacute" unicode="&#x179;" horiz-adv-x="426" 
d="M320 531h-222q-11 0 -15.5 5t-4.5 20q0 36 7 49t22 13h307q14 0 19 -6.5t5 -23.5q0 -35 -23 -69l-293 -432h244q19 0 19 -25q0 -36 -7 -49t-22 -13h-330q-14 0 -18.5 6.5t-4.5 24.5q0 35 30 79zM233 662q-37 0 -37 17q0 10 11 31l47 83q8 14 12.5 19t16 8.5t34.5 3.5
q31 0 40 -4t9 -13q0 -14 -21 -44l-55 -78q-6 -9 -10.5 -13t-16 -7t-30.5 -3z" />
    <glyph glyph-name="zacute" unicode="&#x17a;" horiz-adv-x="389" 
d="M341 69q0 -32 -8 -51q-4 -13 -20 -13h-291q-22 0 -22 22q0 32 9 50q7 13 28 39q144 171 226 293h-178q-20 0 -20 17q0 31 7 51q5 13 21 13h265q13 0 17 -4.5t4 -16.5q0 -40 -16 -66q-109 -159 -243 -317h201q20 0 20 -17zM203 539q-37 0 -37 17q0 10 11 31l47 83
q8 14 12.5 19t16 8.5t34.5 3.5q31 0 40 -4t9 -13q0 -14 -21 -44l-55 -78q-6 -9 -10.5 -13t-16 -7t-30.5 -3z" />
    <glyph glyph-name="Zdotaccent" unicode="&#x17b;" horiz-adv-x="426" 
d="M320 531h-222q-11 0 -15.5 5t-4.5 20q0 36 7 49t22 13h307q14 0 19 -6.5t5 -23.5q0 -35 -23 -69l-293 -432h244q19 0 19 -25q0 -36 -7 -49t-22 -13h-330q-14 0 -18.5 6.5t-4.5 24.5q0 35 30 79zM260 685q-27 0 -37 6t-10 22q0 28 7 45q5 12 16.5 15.5t38.5 3.5t37.5 -6
t10.5 -22q0 -28 -7 -45q-5 -12 -17 -15.5t-39 -3.5z" />
    <glyph glyph-name="zdotaccent" unicode="&#x17c;" horiz-adv-x="389" 
d="M341 69q0 -32 -8 -51q-4 -13 -20 -13h-291q-22 0 -22 22q0 32 9 50q7 13 28 39q144 171 226 293h-178q-20 0 -20 17q0 31 7 51q5 13 21 13h265q13 0 17 -4.5t4 -16.5q0 -40 -16 -66q-109 -159 -243 -317h201q20 0 20 -17zM234 562q-27 0 -37 6t-10 22q0 28 7 45
q5 12 16.5 15.5t38.5 3.5t37.5 -6t10.5 -22q0 -28 -7 -45q-5 -12 -17 -15.5t-39 -3.5z" />
    <glyph glyph-name="Zcaron" unicode="&#x17d;" horiz-adv-x="426" 
d="M320 531h-222q-11 0 -15.5 5t-4.5 20q0 36 7 49t22 13h307q14 0 19 -6.5t5 -23.5q0 -35 -23 -69l-293 -432h244q19 0 19 -25q0 -36 -7 -49t-22 -13h-330q-14 0 -18.5 6.5t-4.5 24.5q0 35 30 79zM265 733l52 68q12 15 21 19t32 4q36 0 36 -14q0 -7 -18 -33l-68 -92
q-10 -13 -20 -18t-31 -5h-26q-20 0 -28.5 5t-15.5 18l-49 93q-12 24 -12 30q0 10 7.5 13t29.5 3t30.5 -4t16.5 -18l39 -69h4z" />
    <glyph glyph-name="zcaron" unicode="&#x17e;" horiz-adv-x="389" 
d="M341 69q0 -32 -8 -51q-4 -13 -20 -13h-291q-22 0 -22 22q0 32 9 50q7 13 28 39q144 171 226 293h-178q-20 0 -20 17q0 31 7 51q5 13 21 13h265q13 0 17 -4.5t4 -16.5q0 -40 -16 -66q-109 -159 -243 -317h201q20 0 20 -17zM233 610l52 68q12 15 21 19t32 4q36 0 36 -14
q0 -7 -18 -33l-68 -92q-10 -13 -20 -18t-31 -5h-26q-20 0 -28.5 5t-15.5 18l-49 93q-12 24 -12 30q0 10 7.5 13t29.5 3t30.5 -4t16.5 -18l39 -69h4z" />
    <glyph glyph-name="florin" unicode="&#x192;" 
d="M127 369q0 27 7 43q5 14 21 14h59l11 76q10 68 34.5 94.5t81.5 26.5q38 0 74 -9q15 -4 20 -10.5t5 -27.5q0 -38 -18 -38q-3 0 -23.5 2.5t-36.5 2.5q-24 0 -31 -10t-13 -52l-8 -55h70q10 0 14 -4t4 -15q0 -29 -6 -43q-5 -13 -23 -13h-70l-34 -240q-10 -68 -35 -94.5
t-82 -26.5q-36 0 -70 9q-15 4 -20.5 10.5t-5.5 26.5q0 39 19 39q3 0 21 -2.5t35 -2.5q25 0 32.5 10.5t13.5 51.5l30 219h-58q-18 0 -18 18z" />
    <glyph glyph-name="AEacute" unicode="&#x1fc;" horiz-adv-x="718" 
d="M292 535l-107 -282h154l30 282h-77zM43 0q-45 0 -45 18q0 15 20 65l193 491q11 29 28 36.5t67 7.5h392q20 0 20 -25q0 -36 -7 -49t-22 -13h-223l-18 -163h165q12 0 16.5 -5t4.5 -18q0 -37 -7 -49.5t-23 -12.5h-164l-21 -196h232q11 0 15.5 -5t4.5 -20q0 -36 -7 -49
t-22 -13h-296q-17 0 -23.5 4t-6.5 15q0 9 6 68l9 90h-175l-56 -150q-6 -17 -16.5 -22t-40.5 -5zM432 662q-37 0 -37 17q0 10 11 31l47 83q8 14 12.5 19t16 8.5t34.5 3.5q31 0 40 -4t9 -13q0 -14 -21 -44l-55 -78q-6 -9 -10.5 -13t-16 -7t-30.5 -3z" />
    <glyph glyph-name="aeacute" unicode="&#x1fd;" horiz-adv-x="735" 
d="M495 -10q-82 0 -118 17.5t-45 76.5q-54 -94 -171 -94q-63 0 -93 29t-30 96q0 62 10.5 146.5t24.5 124.5q22 63 62 89.5t103 26.5q59 0 92 -17.5t50 -54.5q24 44 66 58t110 14q86 0 117 -26t31 -80q0 -131 -68 -165q-60 -30 -199 -30h-14q-2 -34 -2 -50q0 -47 18.5 -63
t71.5 -16q29 0 60.5 6t52.5 12t25 6q16 0 16 -24q0 -28 -6 -38.5t-21 -17.5q-62 -26 -143 -26zM204 72q58 0 93 42t43 115q11 103 11 128q0 32 -19 47.5t-68 15.5q-40 0 -63.5 -13.5t-35.5 -47.5q-9 -26 -18.5 -98t-9.5 -122q0 -38 16 -52.5t51 -14.5zM448 357
q-13 -43 -19 -90q114 0 152 19q33 18 33 91q0 22 -13.5 33t-54.5 11q-42 0 -64 -13.5t-34 -50.5zM381 539q-37 0 -37 17q0 10 11 31l47 83q8 14 12.5 19t16 8.5t34.5 3.5q31 0 40 -4t9 -13q0 -14 -21 -44l-55 -78q-6 -9 -10.5 -13t-16 -7t-30.5 -3z" />
    <glyph glyph-name="Oslashacute" unicode="&#x1fe;" horiz-adv-x="515" 
d="M272 662q-37 0 -37 17q0 10 11 31l47 83q8 14 12.5 19t16 8.5t34.5 3.5q31 0 40 -4t9 -13q0 -14 -21 -44l-55 -78q-6 -9 -10.5 -13t-16 -7t-30.5 -3zM301 623q41 0 68 -3t53.5 -14t41 -31t23.5 -54.5t9 -84.5q0 -61 -14 -173t-34 -164q-25 -66 -72.5 -86.5t-140.5 -20.5
q-41 0 -67.5 3t-53 14t-41 31t-23.5 54.5t-9 84.5q0 61 14 173t34 164q25 66 72 86.5t140 20.5zM293 539q-52 0 -77 -11t-39 -47q-12 -31 -24 -121t-15 -156l253 292q-9 26 -31.5 34.5t-66.5 8.5zM360 134q11 28 22 110.5t15 151.5l-247 -288q11 -19 32.5 -25.5t61.5 -6.5
q52 0 77 11t39 47z" />
    <glyph glyph-name="oslashacute" unicode="&#x1ff;" horiz-adv-x="480" 
d="M211 -10q-93 0 -133 32t-40 122q0 62 14.5 147.5t41.5 132.5q24 42 65.5 60t108.5 18q93 0 133 -32t40 -122q0 -62 -14.5 -147.5t-41.5 -132.5q-24 -42 -65.5 -60t-108.5 -18zM217 74q68 0 89 34q15 25 25.5 93t13.5 121l-203 -221q14 -27 75 -27zM173 384
q-28 -47 -39 -207l200 218q-16 24 -72 24q-67 0 -89 -35zM257 539q-37 0 -37 17q0 10 11 31l47 83q8 14 12.5 19t16 8.5t34.5 3.5q31 0 40 -4t9 -13q0 -14 -21 -44l-55 -78q-6 -9 -10.5 -13t-16 -7t-30.5 -3z" />
    <glyph glyph-name="Scommaaccent" unicode="&#x218;" horiz-adv-x="444" 
d="M179 -8q-85 0 -144 18q-14 5 -19 11t-5 20q0 24 7 39.5t18 15.5q3 0 49 -9t88 -9q78 0 104 23q14 13 22.5 39.5t8.5 52.5q0 45 -42 63l-115 51q-45 20 -65 47t-20 75q0 78 33 130q41 64 157 64q87 0 152 -20q19 -4 19 -26q0 -58 -23 -58q-4 0 -23 4.5t-49.5 9t-61.5 4.5
q-76 0 -94 -30q-15 -23 -15 -66q0 -21 9 -32.5t33 -22.5l120 -54q44 -20 62.5 -46.5t18.5 -72.5q0 -57 -19 -105.5t-54 -75.5q-49 -38 -152 -40zM175 -44q28 0 37 -5t9 -19q0 -48 -41 -138q-8 -16 -17.5 -21t-32.5 -5q-20 0 -26.5 3.5t-6.5 12.5q0 7 12 58.5t12 80.5
q0 20 11 26.5t43 6.5z" />
    <glyph glyph-name="scommaaccent" unicode="&#x219;" horiz-adv-x="403" 
d="M160 -10q-72 0 -122 16q-24 7 -24 30q0 53 22 53q2 0 43.5 -8t80.5 -8q54 0 78 18t24 59q0 34 -37 49l-94 39q-45 19 -64 44t-19 65q0 33 12 66.5t31 51.5q38 37 128 37q73 0 123 -15q13 -4 18 -10t5 -20q0 -51 -23 -51q-3 0 -48.5 7.5t-76.5 7.5q-32 0 -46 -9
q-23 -12 -23 -54q0 -31 34 -45l91 -37q50 -21 69 -45.5t19 -62.5q0 -96 -54 -140q-48 -38 -147 -38zM161 -44q28 0 37 -5t9 -19q0 -48 -41 -138q-8 -16 -17.5 -21t-32.5 -5q-20 0 -26.5 3.5t-6.5 12.5q0 7 12 58.5t12 80.5q0 20 11 26.5t43 6.5z" />
    <glyph glyph-name="dotlessj" unicode="&#x237;" horiz-adv-x="216" 
d="M137 492q27 0 36 -4t9 -18q0 -11 -9 -96l-45 -432q-7 -72 -39.5 -104t-93.5 -32q-41 0 -72 9q-22 5 -22 27q0 53 22 53q5 0 25 -2.5t36 -2.5q35 0 41 23q4 12 9 61l50 488q2 19 12.5 24.5t40.5 5.5z" />
    <glyph glyph-name="circumflex" unicode="&#x2c6;" horiz-adv-x="298" 
d="M193 630l-52 -68q-12 -15 -21 -19t-32 -4q-36 0 -36 14q0 7 18 33l68 92q10 13 20 18t31 5h26q20 0 28.5 -5t15.5 -18l49 -93q12 -24 12 -30q0 -10 -7.5 -13t-29.5 -3t-30.5 4t-16.5 18l-39 69h-4z" />
    <glyph glyph-name="caron" unicode="&#x2c7;" horiz-adv-x="298" 
d="M199 610l52 68q12 15 21 19t32 4q36 0 36 -14q0 -7 -18 -33l-68 -92q-10 -13 -20 -18t-31 -5h-26q-20 0 -28.5 5t-15.5 18l-49 93q-12 24 -12 30q0 10 7.5 13t29.5 3t30.5 -4t16.5 -18l39 -69h4z" />
    <glyph glyph-name="breve" unicode="&#x2d8;" horiz-adv-x="271" 
d="M172 551q-60 0 -83 17t-23 57q0 15 2 33q3 15 10.5 20t30.5 5q19 0 25.5 -4.5t6.5 -14.5q0 -2 -1 -8.5t-1 -8.5q1 -14 8.5 -19t32.5 -5q28 0 35.5 6.5t11.5 28.5q2 16 9 20.5t29 4.5q19 0 26 -4t7 -16q0 -61 -26 -87q-25 -25 -100 -25z" />
    <glyph glyph-name="dotaccent" unicode="&#x2d9;" horiz-adv-x="155" 
d="M112 562q-27 0 -37 6t-10 22q0 28 7 45q5 12 16.5 15.5t38.5 3.5t37.5 -6t10.5 -22q0 -28 -7 -45q-5 -12 -17 -15.5t-39 -3.5z" />
    <glyph glyph-name="ring" unicode="&#x2da;" horiz-adv-x="291" 
d="M186 613q28 0 37.5 9.5t9.5 35.5q0 14 -8 18.5t-32 4.5q-29 0 -38.5 -9t-9.5 -35q0 -14 8.5 -19t32.5 -5zM180 550q-58 0 -82 19t-24 59q0 116 124 116q59 0 83 -18.5t24 -58.5q0 -56 -28.5 -86.5t-96.5 -30.5z" />
    <glyph glyph-name="ogonek" unicode="&#x2db;" horiz-adv-x="198" 
d="M32 -194q-63 0 -63 58q0 34 17.5 65t39.5 53.5t78 71.5h37q-3 -23 -10.5 -38t-30.5 -42q-37 -44 -37 -76q0 -14 13 -14q5 0 15 1.5t16 1.5q12 0 12 -20q0 -19 -4 -30.5t-9 -14.5t-15 -7q-29 -9 -59 -9z" />
    <glyph glyph-name="tilde" unicode="&#x2dc;" horiz-adv-x="326" 
d="M81 564q-11 0 -11 16q0 49 29 65q32 16 64 16q23 0 56 -9.5t49 -9.5q20 0 42.5 8t25.5 8q11 0 11 -16q0 -27 -6.5 -41t-22.5 -23q-28 -17 -65 -17q-23 0 -56 10t-49 10q-20 0 -42 -8.5t-25 -8.5z" />
    <glyph glyph-name="hungarumlaut" unicode="&#x2dd;" horiz-adv-x="332" 
d="M100 539q-35 0 -35 15q0 8 12 36l41 91q6 12 16 16t41 4q29 0 38.5 -3.5t9.5 -13.5t-18 -40l-51 -83q-8 -13 -17.5 -17.5t-36.5 -4.5zM234 539q-34 0 -34 15q0 11 13 33l58 95q7 11 17 15t39 4q49 0 49 -18q0 -11 -18 -34l-68 -88q-10 -13 -19.5 -17.5t-36.5 -4.5z" />
    <glyph glyph-name="commaaccent" unicode="&#x326;" horiz-adv-x="155" 
d="M55 -44q28 0 37 -5t9 -19q0 -48 -41 -138q-8 -16 -17.5 -21t-32.5 -5q-20 0 -26.5 3.5t-6.5 12.5q0 7 12 58.5t12 80.5q0 20 11 26.5t43 6.5z" />
    <glyph glyph-name="afii10023" unicode="&#x401;" horiz-adv-x="453" 
d="M189 531l-18 -163h177q12 0 16.5 -5t4.5 -18q0 -37 -7 -49.5t-22 -12.5h-178l-20 -196h245q11 0 15.5 -5t4.5 -20q0 -62 -30 -62h-309q-16 0 -22.5 4t-6.5 15q0 10 8 80l51 491q1 16 8.5 22t27.5 6h299q20 0 20 -25q0 -36 -7 -49t-22 -13h-235zM204 685q-26 0 -34.5 6
t-8.5 22q0 24 9 46q4 11 15 14.5t37 3.5t34.5 -6t8.5 -22q0 -24 -9 -46q-4 -11 -15 -14.5t-37 -3.5zM353 685q-26 0 -34.5 6t-8.5 22q0 24 9 46q4 11 15 14.5t37 3.5t34.5 -6t8.5 -22q0 -24 -9 -46q-4 -11 -15 -14.5t-37 -3.5z" />
    <glyph glyph-name="afii10051" unicode="&#x402;" horiz-adv-x="540" 
d="M151 0q-27 0 -36 4t-9 17q0 9 12 118l41 392h-124q-11 0 -15.5 5t-4.5 20q0 36 7 49t22 13h346q20 0 20 -25q0 -36 -7 -49t-22 -13h-125l-15 -141q43 70 145 70q66 0 93.5 -24.5t27.5 -74.5q0 -9 -7 -82l-15 -153q-7 -74 -38 -105t-85 -31q-35 0 -64 9q-22 6 -22 27
q0 53 23 53q3 0 19.5 -2.5t29.5 -2.5q23 0 31 11.5t12 56.5l11 117q5 52 5 68q0 27 -13 38t-47 11q-58 0 -86.5 -34t-36.5 -111l-21 -201q-2 -19 -12 -24.5t-40 -5.5z" />
    <glyph glyph-name="afii10052" unicode="&#x403;" horiz-adv-x="405" 
d="M245 662q-37 0 -37 17q0 10 11 31l47 83q8 14 12.5 19t16 8.5t34.5 3.5q31 0 40 -4t9 -13q0 -14 -21 -44l-55 -78q-6 -9 -10.5 -13t-16 -7t-30.5 -3zM84 0q-26 0 -35.5 4t-9.5 17q0 6 12 121l46 448q1 17 9 22.5t27 5.5h269q20 0 20 -25q0 -36 -7 -49t-22 -13h-204
l-53 -501q-2 -19 -12 -24.5t-40 -5.5z" />
    <glyph glyph-name="afii10053" unicode="&#x404;" horiz-adv-x="456" 
d="M224 -8q-44 0 -73 5.5t-56.5 23t-41 54.5t-13.5 95q0 62 16 182.5t36 163.5q31 66 76.5 86.5t118.5 20.5q77 0 146 -19q20 -7 20 -25q0 -59 -22 -59q-1 0 -47 8.5t-84 8.5q-39 0 -60.5 -4.5t-40.5 -22.5t-29 -52.5t-18 -95.5h184q11 0 15.5 -5t4.5 -18q0 -34 -7 -46.5
t-22 -12.5h-184q-6 -58 -6 -94q0 -69 26 -88.5t92 -19.5q44 0 86.5 8.5t45.5 8.5q13 0 13 -18q0 -34 -7 -47.5t-23 -18.5q-61 -19 -146 -19z" />
    <glyph glyph-name="afii10054" unicode="&#x405;" horiz-adv-x="444" 
d="M179 -8q-85 0 -144 18q-14 5 -19 11t-5 20q0 24 7 39.5t18 15.5q3 0 49 -9t88 -9q78 0 104 23q14 13 22.5 39.5t8.5 52.5q0 45 -42 63l-115 51q-45 20 -65 47t-20 75q0 78 33 130q41 64 157 64q87 0 152 -20q19 -4 19 -26q0 -58 -23 -58q-4 0 -23 4.5t-49.5 9t-61.5 4.5
q-76 0 -94 -30q-15 -23 -15 -66q0 -21 9 -32.5t33 -22.5l120 -54q44 -20 62.5 -46.5t18.5 -72.5q0 -57 -19 -105.5t-54 -75.5q-49 -38 -152 -40z" />
    <glyph glyph-name="afii10055" unicode="&#x406;" horiz-adv-x="213" 
d="M149 618q26 0 35.5 -4.5t9.5 -17.5t-14 -144l-44 -422q-2 -18 -12.5 -24t-39.5 -6q-26 0 -35.5 4.5t-9.5 17.5t14 144l44 422q2 18 12.5 24t39.5 6z" />
    <glyph glyph-name="afii10056" unicode="&#x407;" horiz-adv-x="213" 
d="M149 618q26 0 35.5 -4.5t9.5 -17.5t-14 -144l-44 -422q-2 -18 -12.5 -24t-39.5 -6q-26 0 -35.5 4.5t-9.5 17.5t14 144l44 422q2 18 12.5 24t39.5 6zM79 685q-26 0 -34.5 6t-8.5 22q0 24 9 46q4 11 15 14.5t37 3.5t34.5 -6t8.5 -22q0 -24 -9 -46q-4 -11 -15 -14.5
t-37 -3.5zM228 685q-26 0 -34.5 6t-8.5 22q0 24 9 46q4 11 15 14.5t37 3.5t34.5 -6t8.5 -22q0 -24 -9 -46q-4 -11 -15 -14.5t-37 -3.5z" />
    <glyph glyph-name="afii10057" unicode="&#x408;" horiz-adv-x="356" 
d="M295 618q26 0 35.5 -4.5t9.5 -17.5q0 -12 -14 -143l-32 -295q-10 -89 -49.5 -127.5t-116.5 -38.5q-52 0 -98 13q-13 4 -17.5 9.5t-4.5 19.5q0 33 5.5 43t16.5 10q5 0 33.5 -4.5t50.5 -4.5q44 0 61 16.5t22 66.5l46 427q2 18 12.5 24t39.5 6z" />
    <glyph glyph-name="afii10058" unicode="&#x409;" horiz-adv-x="822" 
d="M533 599q0 -7 -14 -136l-11 -102q70 8 139 8q85 0 117.5 -31t32.5 -108q0 -152 -63 -200q-51 -38 -171 -38q-74 0 -156 8q-18 1 -24.5 7t-6.5 18q0 5 9 92l44 414h-159l-96 -452q-10 -45 -31.5 -66t-67.5 -21q-28 0 -58 6q-13 3 -17.5 8.5t-4.5 20.5q0 51 22 51
q6 0 17.5 -1.5t19.5 -1.5q17 0 24.5 8.5t13.5 37.5l98 470q3 16 10 21.5t26 5.5h277q17 0 23.5 -4t6.5 -15zM575 71q74 0 98 30q23 30 23 117q0 46 -19.5 59t-77.5 13q-15 0 -99 -4l-22 -210q42 -5 97 -5z" />
    <glyph glyph-name="afii10059" unicode="&#x40a;" horiz-adv-x="797" 
d="M546 71q74 0 98 30q23 30 23 117q0 46 -19.5 59t-77.5 13q-14 0 -100 -4l-21 -210q42 -5 97 -5zM381 360l24 228q2 19 12 24.5t40 5.5q27 0 36 -4t9 -17q0 -6 -12 -121l-12 -115q70 8 140 8q85 0 117.5 -31t32.5 -108q0 -152 -63 -200q-51 -38 -171 -38q-74 0 -156 8
q-18 1 -24.5 7t-6.5 18q0 5 9 92l17 159h-212l-25 -246q-2 -19 -12 -24.5t-40 -5.5q-26 0 -35.5 4t-9.5 17q0 6 12 121l46 446q2 19 12 24.5t40 5.5q27 0 36 -4t9 -17q0 -6 -12 -121l-12 -116h211z" />
    <glyph glyph-name="afii10060" unicode="&#x40b;" horiz-adv-x="554" 
d="M151 0q-27 0 -36 4t-9 17q0 6 12 121l41 389h-124q-11 0 -15.5 5t-4.5 20q0 36 7 49t22 13h346q20 0 20 -25q0 -36 -7 -49t-22 -13h-125l-15 -139q43 68 143 68q66 0 93.5 -24.5t27.5 -74.5q0 -19 -11.5 -121.5t-11.5 -134.5q0 -19 4.5 -47t4.5 -30q0 -9 -2 -14
t-12.5 -9.5t-31.5 -4.5q-24 0 -33.5 4.5t-14.5 16.5q-12 33 -12 75q0 29 10 121t10 110q0 27 -13 38t-47 11q-58 0 -85.5 -34t-35.5 -111l-21 -201q-2 -19 -12 -24.5t-40 -5.5z" />
    <glyph glyph-name="afii10061" unicode="&#x40c;" horiz-adv-x="463" 
d="M149 618q26 0 35.5 -4.5t9.5 -17.5q0 -12 -14 -143l-11 -105h14l197 254q13 16 60 16q26 0 35.5 -4t9.5 -14q0 -13 -16 -33l-207 -253l164 -264q10 -17 10 -26q0 -13 -11.5 -18.5t-44.5 -5.5q-25 0 -34.5 3.5t-15.5 13.5l-154 266h-14l-26 -253q-2 -18 -12.5 -24
t-39.5 -6q-26 0 -35.5 4.5t-9.5 17.5t14 144l44 422q2 18 12.5 24t39.5 6zM271 662q-37 0 -37 17q0 10 11 31l47 83q8 14 12.5 19t16 8.5t34.5 3.5q31 0 40 -4t9 -13q0 -14 -21 -44l-55 -78q-6 -9 -10.5 -13t-16 -7t-30.5 -3z" />
    <glyph glyph-name="afii10062" unicode="&#x40e;" horiz-adv-x="476" 
d="M282 672q-60 0 -83 17t-23 57q0 15 2 33q3 15 10.5 20t30.5 5q19 0 25.5 -4.5t6.5 -14.5q0 -2 -1 -8.5t-1 -8.5q1 -14 8.5 -19t32.5 -5q28 0 35.5 6.5t11.5 28.5q2 16 9 20.5t29 4.5q19 0 26 -4t7 -16q0 -61 -26 -87q-25 -25 -100 -25zM129 -5q-47 0 -82 8q-28 6 -28 30
q0 51 23 51q5 0 31.5 -3t47.5 -3q40 0 56.5 11.5t30.5 43.5l11 28h-9q-25 0 -35.5 9t-15.5 28l-82 299q-23 84 -23 95q0 13 9.5 19.5t39.5 6.5q29 0 37 -4.5t12 -20.5l86 -352h14l146 351q7 17 16.5 21.5t39.5 4.5q47 0 47 -18q0 -10 -18 -50l-204 -455q-44 -100 -150 -100z
" />
    <glyph glyph-name="afii10145" unicode="&#x40f;" horiz-adv-x="524" 
d="M228 -108q-21 0 -26.5 3.5t-5.5 15.5q0 5 4 89h-132q-16 0 -22.5 3.5t-6.5 15.5q0 9 11 115l48 454q2 19 12 24.5t40 5.5q26 0 35.5 -4t9.5 -17q0 -6 -12 -121l-41 -389h211l52 501q2 19 12 24.5t40 5.5q27 0 36 -4t9 -17q0 -6 -12 -121l-47 -448q-1 -17 -8.5 -22.5
t-27.5 -5.5h-129l-13 -82q-3 -17 -9 -21.5t-28 -4.5z" />
    <glyph glyph-name="afii10017" unicode="&#x410;" horiz-adv-x="525" 
d="M43 0q-45 0 -45 18q0 15 20 65l193 491q11 29 28 36.5t67 7.5t65.5 -7.5t20.5 -36.5l87 -477q11 -61 11 -70q0 -16 -9.5 -21.5t-39.5 -5.5q-31 0 -40 5t-13 24l-27 148h-205l-56 -150q-6 -17 -16.5 -22t-40.5 -5zM292 535l-107 -282h167l-47 282h-13z" />
    <glyph glyph-name="afii10018" unicode="&#x411;" horiz-adv-x="501" 
d="M272 287q-45 0 -110 -5l-22 -207q43 -5 105 -5q77 0 99 29q23 30 23 114q0 47 -18 60.5t-77 13.5zM233 -8q-83 0 -163 8q-18 1 -24.5 7t-6.5 18q0 5 9 92l50 473q1 17 9 22.5t27 5.5h301q20 0 20 -25q0 -36 -7 -49t-22 -13h-237l-19 -174q92 8 142 8q92 0 124 -30.5
t32 -105.5q0 -136 -53 -189q-49 -48 -182 -48z" />
    <glyph glyph-name="afii10019" unicode="&#x412;" horiz-adv-x="512" 
d="M475 505q0 -145 -91 -179q42 -10 61.5 -37.5t19.5 -79.5q0 -123 -50.5 -170t-182.5 -47q-97 0 -165 8q-17 2 -23 7.5t-6 16.5q0 5 12 115l46 440q2 19 9.5 26.5t25.5 9.5q74 8 145 8q110 0 154.5 -21.5t44.5 -96.5zM162 287l-23 -214q43 -5 105 -5q73 0 97.5 30t24.5 115
q0 41 -20.5 57.5t-75.5 16.5h-108zM189 537l-19 -178h87q42 0 64 6t33 24q20 33 20 100q0 32 -19.5 42.5t-76.5 10.5q-52 0 -89 -5z" />
    <glyph glyph-name="afii10020" unicode="&#x413;" horiz-adv-x="405" 
d="M84 0q-26 0 -35.5 4t-9.5 17q0 6 12 121l46 448q1 17 9 22.5t27 5.5h269q20 0 20 -25q0 -36 -7 -49t-22 -13h-204l-53 -501q-2 -19 -12 -24.5t-40 -5.5z" />
    <glyph glyph-name="afii10021" unicode="&#x414;" horiz-adv-x="539" 
d="M458 -108q-24 0 -31.5 5.5t-8.5 24.5l-5 78h-327l-22 -79q-5 -19 -14 -24t-32 -5q-21 0 -28 3t-7 14q0 1 8 79l7 67q2 20 10 26t29 6h18l106 504q4 16 10.5 21.5t25.5 5.5h283q17 0 23.5 -4t6.5 -15q0 -10 -14 -140l-40 -372h23q18 0 25.5 -4t7.5 -17q0 -6 -7 -74l-8 -76
q-1 -15 -9 -19.5t-30 -4.5zM241 531l-93 -444h212l46 444h-165z" />
    <glyph glyph-name="afii10022" unicode="&#x415;" horiz-adv-x="453" 
d="M189 531l-18 -163h177q12 0 16.5 -5t4.5 -18q0 -37 -7 -49.5t-22 -12.5h-178l-20 -196h245q11 0 15.5 -5t4.5 -20q0 -62 -30 -62h-309q-16 0 -22.5 4t-6.5 15q0 10 8 80l51 491q1 16 8.5 22t27.5 6h299q20 0 20 -25q0 -36 -7 -49t-22 -13h-235z" />
    <glyph glyph-name="afii10024" unicode="&#x416;" horiz-adv-x="697" 
d="M398 618q26 0 35.5 -4t9.5 -17q0 -7 -12 -123l-14 -128h15l187 255q8 11 19 14t43 3q46 0 46 -18q0 -13 -25 -44l-194 -243l134 -217q36 -59 36 -73q0 -23 -54 -23q-26 0 -36 3.5t-16 14.5l-148 263h-14l-25 -251q-2 -19 -12.5 -24.5t-40.5 -5.5q-26 0 -35.5 4t-9.5 17
q0 7 12 123l14 137h-13l-190 -258q-10 -14 -22 -18.5t-38 -4.5q-51 0 -51 20q0 15 35 59l189 236l-147 237q-20 33 -20 45q0 21 49 21q31 0 41 -3.5t16 -13.5l146 -255h12l25 242q2 19 12.5 24.5t40.5 5.5z" />
    <glyph glyph-name="afii10025" unicode="&#x417;" horiz-adv-x="457" 
d="M199 -8q-108 0 -160 17q-14 4 -19 10t-5 20q0 54 23 54q2 0 56 -8t95 -8q67 0 91.5 31t24.5 94q0 41 -22.5 58t-99.5 17h-64q-25 0 -25 24q0 31 7.5 43t25.5 12h64q69 0 100.5 29t31.5 95q0 35 -16.5 46.5t-57.5 11.5q-39 0 -92 -7.5t-56 -7.5q-15 0 -15 22q0 53 29 60
q70 18 167 18q71 0 106.5 -25.5t35.5 -95.5q0 -161 -131 -183q110 -8 110 -118q0 -209 -204 -209z" />
    <glyph glyph-name="afii10026" unicode="&#x418;" horiz-adv-x="550" 
d="M55 187l43 401q2 19 12 24.5t40 5.5q26 0 35.5 -4t9.5 -17q0 -6 -12 -121l-33 -315h9l241 428q11 19 24 24t47 5q33 0 45 -4t12 -17q0 -12 -11 -113l-48 -454q-2 -19 -12 -24.5t-40 -5.5q-27 0 -36 4t-9 17q0 6 12 121l33 315h-9l-240 -421q-14 -25 -27 -30.5t-48 -5.5
q-33 0 -43.5 4t-10.5 16t16 167z" />
    <glyph glyph-name="afii10027" unicode="&#x419;" horiz-adv-x="550" 
d="M316 672q-60 0 -83 17t-23 57q0 15 2 33q3 15 10.5 20t30.5 5q19 0 25.5 -4.5t6.5 -14.5q0 -2 -1 -8.5t-1 -8.5q1 -14 8.5 -19t32.5 -5q28 0 35.5 6.5t11.5 28.5q2 16 9 20.5t29 4.5q19 0 26 -4t7 -16q0 -61 -26 -87q-25 -25 -100 -25zM55 187l43 401q2 19 12 24.5
t40 5.5q26 0 35.5 -4t9.5 -17q0 -6 -12 -121l-33 -315h9l241 428q11 19 24 24t47 5q33 0 45 -4t12 -17q0 -12 -11 -113l-48 -454q-2 -19 -12 -24.5t-40 -5.5q-27 0 -36 4t-9 17q0 6 12 121l33 315h-9l-240 -421q-14 -25 -27 -30.5t-48 -5.5q-33 0 -43.5 4t-10.5 16t16 167z
" />
    <glyph glyph-name="afii10028" unicode="&#x41a;" horiz-adv-x="463" 
d="M149 618q26 0 35.5 -4.5t9.5 -17.5q0 -12 -14 -143l-11 -105h14l197 254q13 16 60 16q26 0 35.5 -4t9.5 -14q0 -13 -16 -33l-207 -253l164 -264q10 -17 10 -26q0 -13 -11.5 -18.5t-44.5 -5.5q-25 0 -34.5 3.5t-15.5 13.5l-154 266h-14l-26 -253q-2 -18 -12.5 -24
t-39.5 -6q-26 0 -35.5 4.5t-9.5 17.5t14 144l44 422q2 18 12.5 24t39.5 6z" />
    <glyph glyph-name="afii10029" unicode="&#x41b;" horiz-adv-x="560" 
d="M537 599q0 -9 -11 -115l-48 -454q-2 -19 -12 -24.5t-40 -5.5q-26 0 -35.5 4t-9.5 17q0 8 12 121l41 389h-164l-96 -452q-10 -45 -31.5 -66t-67.5 -21q-28 0 -58 6q-13 3 -17.5 8.5t-4.5 20.5q0 51 22 51q6 0 17.5 -1.5t19.5 -1.5q17 0 24.5 8.5t13.5 37.5l98 470
q3 16 10 21.5t26 5.5h282q16 0 22.5 -3.5t6.5 -15.5z" />
    <glyph glyph-name="afii10030" unicode="&#x41c;" horiz-adv-x="645" 
d="M619 545l-53 -515q-2 -18 -12.5 -24t-39.5 -6q-26 0 -35.5 4.5t-9.5 17.5q0 11 14 142l32 311h-7l-135 -281q-10 -21 -21 -27.5t-36 -6.5q-26 0 -35 6t-15 28l-77 281h-7l-46 -445q-2 -18 -12.5 -24t-39.5 -6q-26 0 -35.5 4.5t-9.5 17.5t14 144l43 417q2 20 14.5 27.5
t50.5 7.5q46 0 61.5 -8t24.5 -42l78 -299h5l142 300q16 33 33 41t59 8q35 0 47 -6t12 -20q0 -10 -4 -47z" />
    <glyph glyph-name="afii10031" unicode="&#x41d;" horiz-adv-x="526" 
d="M383 360l24 228q2 18 12.5 24t39.5 6q26 0 35.5 -4.5t9.5 -17.5q0 -12 -14 -143l-44 -423q-2 -18 -12.5 -24t-39.5 -6q-26 0 -35.5 4.5t-9.5 17.5q0 11 14 142l12 112h-214l-25 -246q-2 -18 -12.5 -24t-39.5 -6q-26 0 -35.5 4.5t-9.5 17.5t14 144l44 422q2 18 12.5 24
t39.5 6q26 0 35.5 -4.5t9.5 -17.5q0 -12 -14 -143l-10 -93h213z" />
    <glyph glyph-name="afii10032" unicode="&#x41e;" horiz-adv-x="517" 
d="M301 623q41 0 68 -3t53.5 -14t41 -31t23.5 -54.5t9 -84.5q0 -61 -14 -173t-34 -164q-25 -66 -72.5 -86.5t-140.5 -20.5q-41 0 -67.5 3t-53 14t-41 31t-23.5 54.5t-9 84.5q0 61 14 173t34 164q25 66 72 86.5t140 20.5zM293 539q-52 0 -77 -11t-39 -47q-13 -34 -26 -141.5
t-13 -159.5q0 -65 22.5 -84.5t83.5 -19.5q52 0 77 11t39 47q13 34 26 141.5t13 159.5q0 65 -22.5 84.5t-83.5 19.5z" />
    <glyph glyph-name="afii10033" unicode="&#x41f;" horiz-adv-x="524" 
d="M84 0q-26 0 -35.5 4t-9.5 17q0 6 12 121l47 448q1 17 8.5 22.5t27.5 5.5h339q16 0 22.5 -3.5t6.5 -15.5q0 -9 -11 -115l-48 -454q-2 -19 -12 -24.5t-40 -5.5q-26 0 -35.5 4t-9.5 17q0 6 12 121l41 389h-211l-52 -501q-2 -19 -12 -24.5t-40 -5.5z" />
    <glyph glyph-name="afii10034" unicode="&#x420;" horiz-adv-x="493" 
d="M84 0q-26 0 -35.5 4.5t-9.5 17.5q0 2 14 144l42 412q2 18 10.5 26t25.5 10q78 9 166 9q98 0 140 -28t42 -113q0 -166 -85 -221q-51 -33 -163 -33h-75l-20 -198q-2 -18 -12.5 -24t-39.5 -6zM188 537l-24 -229h82q60 0 88 22q43 34 43 141q0 42 -21.5 56.5t-80.5 14.5
q-29 0 -87 -5z" />
    <glyph glyph-name="afii10035" unicode="&#x421;" horiz-adv-x="456" 
d="M224 -8q-44 0 -73 5.5t-56.5 22t-41 52.5t-13.5 91q0 72 14 174.5t31 154.5q14 43 34.5 70.5t49 40t54 16.5t64.5 4q77 0 146 -19q20 -7 20 -25q0 -59 -22 -59q-1 0 -47 8.5t-84 8.5q-56 0 -83 -13t-42 -59q-13 -41 -24.5 -129.5t-11.5 -156.5q0 -65 25.5 -83t90.5 -18
q44 0 86.5 8.5t45.5 8.5q13 0 13 -18q0 -34 -7 -47.5t-23 -18.5q-61 -19 -146 -19z" />
    <glyph glyph-name="afii10036" unicode="&#x422;" horiz-adv-x="438" 
d="M195 0q-26 0 -35.5 4.5t-9.5 17.5t14 144l39 365h-131q-11 0 -15.5 5t-4.5 20q0 36 7 49t22 13h358q20 0 20 -25q0 -36 -7 -49t-22 -13h-130l-53 -501q-2 -18 -12.5 -24t-39.5 -6z" />
    <glyph glyph-name="afii10037" unicode="&#x423;" horiz-adv-x="476" 
d="M129 -5q-47 0 -82 8q-28 6 -28 30q0 51 23 51q5 0 31.5 -3t47.5 -3q40 0 56.5 11.5t30.5 43.5l11 28h-9q-25 0 -35.5 9t-15.5 28l-82 299q-23 84 -23 95q0 13 9.5 19.5t39.5 6.5q29 0 37 -4.5t12 -20.5l86 -352h14l146 351q7 17 16.5 21.5t39.5 4.5q47 0 47 -18
q0 -10 -18 -50l-204 -455q-44 -100 -150 -100z" />
    <glyph glyph-name="afii10038" unicode="&#x424;" horiz-adv-x="638" 
d="M359 192h30q70 0 96 29q31 34 31 147q0 49 -20 63.5t-81 14.5h-30zM133 270q0 -49 20 -63.5t81 -14.5h28l27 254h-28q-71 0 -97 -29q-31 -34 -31 -147zM614 375q0 -64 -14.5 -120.5t-41.5 -85.5q-54 -58 -178 -58h-29l-9 -85q-2 -18 -12.5 -24t-39.5 -6q-27 0 -36 4
t-9 18q0 7 2 25l7 68h-29q-98 0 -144 30t-46 122q0 64 14.5 120.5t41.5 85.5q54 58 178 58h28l7 65q1 18 12 24t40 6q26 0 35.5 -4.5t9.5 -17.5q0 -7 -2 -25l-5 -48h30q98 0 144 -30t46 -122z" />
    <glyph glyph-name="afii10039" unicode="&#x425;" horiz-adv-x="465" 
d="M42 0q-27 0 -36.5 4t-9.5 15q0 13 18 39l177 258l-111 240q-12 25 -12 37q0 14 11 19.5t41 5.5t40 -5t17 -22l77 -181h4l113 185q8 13 19 18t39 5q49 0 49 -21q0 -10 -18 -38l-161 -237l120 -264q11 -23 11 -35q0 -23 -51 -23q-29 0 -40 5.5t-18 21.5l-83 200h-4
l-129 -200q-10 -16 -22 -21.5t-41 -5.5z" />
    <glyph glyph-name="afii10040" unicode="&#x426;" horiz-adv-x="539" 
d="M455 -108q-24 0 -32 4.5t-9 19.5l-5 84h-341q-16 0 -22.5 3.5t-6.5 15.5q0 9 11 115l48 454q2 19 12 24.5t40 5.5q26 0 35.5 -4t9.5 -17q0 -6 -12 -121l-41 -389h210l53 501q2 19 12 24.5t40 5.5q27 0 36 -4t9 -17q0 -6 -12 -121l-41 -389h29q18 0 25 -4t7 -17
q0 -6 -6 -64l-9 -86q-1 -15 -9.5 -19.5t-30.5 -4.5z" />
    <glyph glyph-name="afii10041" unicode="&#x427;" horiz-adv-x="486" 
d="M353 0q-27 0 -36 4t-9 17q0 6 12 121l11 107q-71 -11 -129 -11q-82 0 -116 24t-34 87q0 25 7 95l15 144q2 19 12 24.5t40 5.5q27 0 36 -4t9 -17q0 -6 -12 -121q-9 -85 -9 -103q0 -28 16.5 -39t67.5 -11q44 0 106 5l27 260q2 19 12 24.5t40 5.5q27 0 36 -4t9 -17
q0 -6 -12 -121l-47 -446q-2 -19 -12 -24.5t-40 -5.5z" />
    <glyph glyph-name="afii10042" unicode="&#x428;" horiz-adv-x="805" 
d="M444 618q26 0 35.5 -4t9.5 -17q0 -6 -12 -121l-41 -389h197l53 501q2 19 12 24.5t40 5.5q26 0 35.5 -4t9.5 -17q0 -6 -12 -121l-47 -448q-1 -17 -8.5 -22.5t-27.5 -5.5h-620q-16 0 -22.5 3.5t-6.5 15.5q0 9 11 115l48 454q2 19 12 24.5t40 5.5q26 0 35.5 -4t9.5 -17
q0 -6 -12 -121l-41 -389h197l53 501q2 19 12 24.5t40 5.5z" />
    <glyph glyph-name="afii10043" unicode="&#x429;" horiz-adv-x="820" 
d="M736 -108q-24 0 -32 4.5t-9 19.5l-5 84h-622q-16 0 -22.5 3.5t-6.5 15.5q0 9 11 115l48 454q2 19 12 24.5t40 5.5q26 0 35.5 -4t9.5 -17q0 -6 -12 -121l-41 -389h197l53 501q2 19 12 24.5t40 5.5q26 0 35.5 -4t9.5 -17q0 -6 -12 -121l-41 -389h197l53 501q2 19 12 24.5
t40 5.5q26 0 35.5 -4t9.5 -17q0 -6 -12 -121l-41 -389h29q18 0 25 -4t7 -17q0 -6 -6 -64l-9 -86q-1 -15 -9.5 -19.5t-30.5 -4.5z" />
    <glyph glyph-name="afii10044" unicode="&#x42a;" horiz-adv-x="522" 
d="M71 618h123q16 0 22.5 -3.5t6.5 -15.5q0 -9 -11 -115l-13 -123q72 8 144 8q85 0 117.5 -31.5t32.5 -107.5q0 -147 -60 -197q-48 -41 -174 -41q-79 0 -161 8q-18 1 -24.5 7t-6.5 18q0 4 12 121l41 385h-57q-11 0 -15.5 5t-4.5 20q0 36 6.5 49t21.5 13zM271 71q77 0 99 31
q22 32 22 116q0 45 -20 58.5t-77 13.5q-16 0 -104 -4l-22 -210q42 -5 102 -5z" />
    <glyph glyph-name="afii10045" unicode="&#x42b;" horiz-adv-x="707" 
d="M643 618q26 0 35.5 -4.5t9.5 -17.5t-14 -144l-44 -422q-2 -18 -12.5 -24t-39.5 -6q-26 0 -35.5 4.5t-9.5 17.5t14 144l44 422q2 18 12.5 24t39.5 6zM267 290q-16 0 -104 -4l-22 -210q42 -5 102 -5q77 0 99 31q22 32 22 116q0 45 -20 58.5t-77 13.5zM39 25q0 4 12 121
l47 442q2 18 12.5 24t39.5 6q26 0 35.5 -4.5t9.5 -17.5q0 -7 -2 -25l-22 -210q70 8 144 8q85 0 117.5 -31.5t32.5 -107.5q0 -147 -60 -197q-48 -41 -175 -41q-78 0 -161 8q-18 1 -24 6.5t-6 18.5z" />
    <glyph glyph-name="afii10046" unicode="&#x42c;" horiz-adv-x="494" 
d="M267 290q-16 0 -104 -4l-22 -210q42 -5 102 -5q77 0 99 31q22 32 22 116q0 45 -20 58.5t-77 13.5zM39 25q0 4 12 121l47 442q2 18 12.5 24t39.5 6q26 0 35.5 -4.5t9.5 -17.5q0 -7 -2 -25l-22 -210q70 8 144 8q85 0 117.5 -31.5t32.5 -107.5q0 -147 -60 -197
q-48 -41 -175 -41q-78 0 -161 8q-18 1 -24 6.5t-6 18.5z" />
    <glyph glyph-name="afii10047" unicode="&#x42d;" horiz-adv-x="448" 
d="M181 -8q-83 0 -146 19q-7 2 -10.5 4t-6.5 7t-3 14q0 59 22 59q1 0 47 -8.5t84 -8.5q42 0 63.5 5t41 26t29 60.5t17.5 110.5h-200q-12 0 -16 4.5t-4 17.5q0 34 7 47t22 13h199q4 41 4 66q0 70 -24.5 89.5t-90.5 19.5q-46 0 -89.5 -8.5t-45.5 -8.5q-13 0 -13 18q0 34 7 47
t23 19q61 19 149 19q44 0 72.5 -5.5t55.5 -23t40 -54.5t13 -95q0 -90 -18 -212t-53 -172q-30 -43 -70.5 -56t-105.5 -13z" />
    <glyph glyph-name="afii10048" unicode="&#x42e;" horiz-adv-x="742" 
d="M522 623q41 0 68 -3t53.5 -14t41 -31t23.5 -54.5t9 -84.5q0 -61 -14 -173t-34 -164q-25 -66 -72.5 -86.5t-140.5 -20.5q-41 0 -67.5 3t-53 14t-41 31t-23.5 54.5t-9 84.5q0 38 6 101h-106l-26 -250q-2 -18 -12.5 -24t-39.5 -6q-26 0 -35.5 4.5t-9.5 17.5t14 144l44 422
q2 18 12.5 24t39.5 6q26 0 35.5 -4.5t9.5 -17.5t-14 -144l-9 -86h107q14 104 32 150q25 66 72 86.5t140 20.5zM514 539q-52 0 -77 -11t-39 -47q-13 -34 -26 -141.5t-13 -159.5q0 -65 22.5 -84.5t83.5 -19.5q52 0 77 11t39 47q13 34 26 141.5t13 159.5q0 65 -22.5 84.5
t-83.5 19.5z" />
    <glyph glyph-name="afii10049" unicode="&#x42f;" horiz-adv-x="496" 
d="M163 406q0 -41 25 -59.5t86 -18.5h77l22 208q-46 4 -87 4q-46 0 -70 -8t-36 -29q-17 -30 -17 -97zM364 0q-26 0 -35.5 4t-9.5 17q0 6 12 121l12 113h-73q-28 0 -40 1l-120 -230q-8 -17 -18.5 -21.5t-45.5 -4.5q-42 0 -42 17q0 10 14 32l129 223q-85 32 -85 132
q0 106 39 157q47 62 184 62q85 0 160 -9q29 -4 29 -25q0 -2 -2 -28l-56 -531q-2 -19 -12 -24.5t-40 -5.5z" />
    <glyph glyph-name="afii10065" unicode="&#x430;" horiz-adv-x="497" 
d="M425 127q0 -12 4 -54t4 -50q0 -23 -46 -23q-25 0 -33 5.5t-10 21.5l-8 64q-54 -101 -175 -101q-63 0 -93 29t-30 96q0 62 10.5 146.5t24.5 124.5q22 63 62 89.5t103 26.5q100 0 126 -61l3 21q2 18 12 24t38 6q25 0 33 -4.5t8 -16.5q0 -11 -16.5 -165t-16.5 -179zM204 72
q58 0 93 42t43 115q11 103 11 128q0 32 -19 47.5t-68 15.5q-40 0 -63.5 -13.5t-35.5 -47.5q-9 -26 -18.5 -98t-9.5 -122q0 -38 16 -52.5t51 -14.5z" />
    <glyph glyph-name="afii10066" unicode="&#x431;" horiz-adv-x="515" 
d="M226 -10q-98 0 -138.5 34.5t-40.5 124.5q0 34 27 295q14 130 66.5 176.5t164.5 46.5q85 0 155 -14q19 -3 19 -28q0 -50 -22 -50q-5 0 -54.5 5t-88.5 5q-75 0 -102.5 -21t-36.5 -99l-4 -32q40 69 156 69q74 0 106 -32t32 -126q0 -62 -12.5 -145t-40.5 -128
q-27 -44 -71.5 -62.5t-114.5 -18.5zM235 72q38 0 60.5 9t35.5 33q15 26 25 103.5t10 117.5q0 52 -19 68.5t-69 16.5q-64 0 -90 -33.5t-37 -141.5q-6 -64 -6 -87q0 -50 19.5 -68t70.5 -18z" />
    <glyph glyph-name="afii10067" unicode="&#x432;" horiz-adv-x="477" 
d="M147 220l-15 -138q40 -5 94 -5q66 0 87 16.5t21 69.5q0 32 -23 44.5t-84 12.5h-80zM61 1q-13 2 -18.5 3.5t-9 6t-3.5 13.5q0 6 13 135l31 297q2 19 10 26.5t26 9.5q72 8 160 8q95 0 133.5 -18.5t38.5 -78.5q0 -75 -30 -109t-87 -40q55 -6 79 -26t24 -69
q0 -101 -49.5 -134t-167.5 -33q-79 0 -150 9zM166 410l-12 -124h80q62 0 86 18t24 67q0 28 -17 36t-67 8q-54 0 -94 -5z" />
    <glyph glyph-name="afii10068" unicode="&#x433;" horiz-adv-x="419" 
d="M199 -10q-86 0 -128.5 20.5t-42.5 83.5q0 50 21 84t70 65l132 82q24 15 33.5 29t9.5 35q0 19 -15.5 25t-57.5 6q-36 0 -80 -6.5t-45 -6.5q-15 0 -15 25q0 30 7.5 41.5t23.5 14.5q65 14 135 14q74 0 110 -19t36 -78q0 -52 -22.5 -82.5t-67.5 -60.5l-133 -86
q-44 -28 -44 -67q0 -23 20.5 -29t77.5 -6q38 0 82.5 7t48.5 7q12 0 12 -23q0 -30 -7 -42t-24 -17q-62 -16 -137 -16z" />
    <glyph glyph-name="afii10069" unicode="&#x434;" horiz-adv-x="494" 
d="M214 -10q-95 0 -135.5 33t-40.5 129q0 58 10.5 134t27.5 118q23 55 61.5 76.5t107.5 21.5q103 0 125 -77q8 77 8 93q0 42 -18.5 54.5t-70.5 12.5q-32 0 -71 -2.5t-45 -2.5q-15 0 -15 21q0 51 24 55q70 11 134 11q83 0 121 -32.5t38 -118.5q0 -57 -15.5 -204t-35.5 -201
q-25 -67 -75 -94t-135 -27zM223 72q48 0 72.5 14t37.5 54q10 30 17 90t7 89q0 60 -20 80.5t-69 20.5q-43 0 -66 -11t-37 -42q-12 -26 -20.5 -97t-8.5 -113q0 -52 18 -68.5t69 -16.5z" />
    <glyph glyph-name="afii10070" unicode="&#x435;" horiz-adv-x="448" 
d="M208 -10q-93 0 -131.5 31t-38.5 123q0 144 37 250q16 45 46.5 70t63.5 31.5t84 6.5q86 0 117 -26t31 -80q0 -131 -68 -165q-60 -30 -199 -30h-14q-2 -34 -2 -50q0 -47 18.5 -63t71.5 -16q29 0 60.5 6t52.5 12t25 6q16 0 16 -24q0 -28 -6 -38.5t-21 -17.5
q-62 -26 -143 -26zM161 357q-13 -43 -19 -90q114 0 152 19q33 18 33 91q0 22 -13.5 33t-54.5 11q-42 0 -64 -13.5t-34 -50.5z" />
    <glyph glyph-name="afii10072" unicode="&#x436;" horiz-adv-x="634" 
d="M286 0q-26 0 -35.5 4t-9.5 17q0 6 12 121l8 81h-8q-30 -30 -78 -92t-73 -101q-13 -20 -22.5 -25t-39.5 -5q-47 0 -47 22q0 26 66.5 107.5t117.5 127.5q-53 87 -119 165q-5 6 -12 13.5t-10 11t-6.5 8t-5 7.5t-1.5 6q0 24 49 24q31 0 42 -4t23 -19q63 -72 122 -180h9
l18 173q2 19 12.5 24.5t40.5 5.5q27 0 36 -4t9 -17q0 -9 -9 -90l-10 -92h10q32 31 76 83.5t68 89.5q13 19 22.5 24.5t39.5 5.5q46 0 46 -22q0 -26 -59 -94t-116 -121q26 -46 67 -104.5t74 -95.5q20 -23 20 -31q0 -24 -48 -24q-31 0 -40.5 3t-20.5 14q-28 28 -69 91t-66 115
h-11l-20 -193q-2 -19 -12 -24.5t-40 -5.5z" />
    <glyph glyph-name="afii10073" unicode="&#x437;" horiz-adv-x="433" 
d="M29 7q-14 4 -18.5 9.5t-4.5 18.5q0 56 23 56q2 0 49.5 -7t91.5 -7q69 0 90 16t21 69q0 31 -23 43t-86 12h-39q-14 0 -19.5 5t-5.5 18q0 27 7 38.5t26 11.5h37q65 0 89 17.5t24 67.5q0 25 -15.5 32.5t-63.5 7.5q-42 0 -86 -5.5t-45 -5.5q-16 0 -16 22q0 30 7 43t23 17
q59 14 151 14q75 0 111 -19.5t36 -76.5q0 -81 -29.5 -111.5t-88.5 -38.5q57 -7 80.5 -25.5t23.5 -66.5q0 -101 -47.5 -135.5t-147.5 -34.5q-87 0 -155 15z" />
    <glyph glyph-name="afii10074" unicode="&#x438;" horiz-adv-x="503" 
d="M393 0q-26 0 -34 5.5t-10 21.5l-7 64q-45 -101 -173 -101q-62 0 -90.5 23t-28.5 75q0 35 17 150q15 102 15 146q0 16 -4.5 46.5t-4.5 33.5q0 16 9.5 22t37.5 6q26 0 34.5 -5.5t12.5 -21.5q10 -37 10 -78q0 -25 -14 -135t-14 -131q0 -28 13.5 -38.5t47.5 -10.5q65 0 94 38
t38 122l24 230q2 19 12.5 24.5t40.5 5.5q27 0 36 -4t9 -17q0 -14 -16.5 -168.5t-16.5 -175.5q0 -12 3.5 -54t3.5 -50q0 -23 -45 -23z" />
    <glyph glyph-name="afii10075" unicode="&#x439;" horiz-adv-x="503" 
d="M393 0q-26 0 -34 5.5t-10 21.5l-7 64q-45 -101 -173 -101q-62 0 -90.5 23t-28.5 75q0 35 17 150q15 102 15 146q0 16 -4.5 46.5t-4.5 33.5q0 16 9.5 22t37.5 6q26 0 34.5 -5.5t12.5 -21.5q10 -37 10 -78q0 -25 -14 -135t-14 -131q0 -28 13.5 -38.5t47.5 -10.5q65 0 94 38
t38 122l24 230q2 19 12.5 24.5t40.5 5.5q27 0 36 -4t9 -17q0 -14 -16.5 -168.5t-16.5 -175.5q0 -12 3.5 -54t3.5 -50q0 -23 -45 -23zM268 551q-60 0 -83 17t-23 57q0 15 2 33q3 15 10.5 20t30.5 5q19 0 25.5 -4.5t6.5 -14.5q0 -2 -1 -8.5t-1 -8.5q1 -14 8.5 -19t32.5 -5
q28 0 35.5 6.5t11.5 28.5q2 16 9 20.5t29 4.5q19 0 26 -4t7 -16q0 -61 -26 -87q-25 -25 -100 -25z" />
    <glyph glyph-name="afii10076" unicode="&#x43a;" horiz-adv-x="443" 
d="M87 0q-26 0 -35 4t-9 17q0 10 16.5 168.5t16.5 179.5q0 12 -4 51.5t-4 43.5q0 15 9.5 21.5t37.5 6.5q27 0 36 -5t13 -22q10 -55 10 -83q0 -21 -8 -95h11q33 32 79 86t67 89q12 20 22 25t40 5q47 0 47 -22q0 -28 -60.5 -98t-115.5 -118q41 -74 132 -184q33 -38 33 -46
q0 -24 -48 -24q-29 0 -39 3t-21 14q-27 26 -72 90t-70 114h-12l-19 -191q-2 -19 -12.5 -24.5t-40.5 -5.5z" />
    <glyph glyph-name="afii10077" unicode="&#x43b;" horiz-adv-x="454" 
d="M255 413h-10q-77 -267 -131 -378q-10 -22 -22 -28.5t-43 -6.5q-27 0 -37 4.5t-10 18.5q0 8 11 29q65 131 153 398q10 28 27.5 36.5t67.5 8.5q46 0 62.5 -8t20.5 -32l57 -343q11 -66 11 -82q0 -19 -11.5 -24.5t-41.5 -5.5q-31 0 -40 5t-12 23q-3 15 -22 167t-30 218z" />
    <glyph glyph-name="afii10078" unicode="&#x43c;" horiz-adv-x="714" 
d="M222 495q45 0 60.5 -7.5t18.5 -32.5l43 -358q21 59 115 353q9 29 25 37t62 8q43 0 58.5 -8t18.5 -32l37 -311q12 -105 12 -114q0 -19 -11.5 -24.5t-41.5 -5.5q-32 0 -40.5 6t-11.5 29q-5 34 -16 185.5t-15 192.5h-8q-77 -247 -131 -380q-6 -15 -17 -20.5t-45 -5.5
q-35 0 -45 6t-14 27q-27 158 -49 373h-10q-61 -270 -106 -378q-9 -22 -20 -28.5t-42 -6.5q-27 0 -37 4.5t-10 16.5q0 9 9 30q79 187 125 399q6 28 24 36.5t62 8.5z" />
    <glyph glyph-name="afii10079" unicode="&#x43d;" horiz-adv-x="493" 
d="M87 0q-26 0 -35 4t-9 17q0 10 16.5 168.5t16.5 179.5q0 12 -4 51.5t-4 43.5q0 15 9.5 21.5t37.5 6.5q27 0 36.5 -5t12.5 -22q10 -52 10 -83q0 -8 -7 -87h167l17 167q2 19 12.5 24.5t40.5 5.5q26 0 35 -4t9 -17q0 -10 -17.5 -172t-17.5 -194q0 -19 4.5 -47t4.5 -30
q0 -9 -2 -14t-12.5 -9.5t-31.5 -4.5q-24 0 -33.5 4.5t-14.5 16.5q-12 33 -12 75q0 28 10 119h-168l-18 -185q-2 -19 -12.5 -24.5t-40.5 -5.5z" />
    <glyph glyph-name="afii10080" unicode="&#x43e;" horiz-adv-x="480" 
d="M217 74q68 0 89 34q17 29 28 108.5t11 121.5q0 49 -17 65t-66 16q-67 0 -89 -35q-17 -29 -28 -108.5t-11 -121.5q0 -49 17 -64.5t66 -15.5zM211 -10q-93 0 -133 32t-40 122q0 62 14.5 147.5t41.5 132.5q24 42 65.5 60t108.5 18q93 0 133 -32t40 -122q0 -62 -14.5 -147.5
t-41.5 -132.5q-24 -42 -65.5 -60t-108.5 -18z" />
    <glyph glyph-name="afii10081" unicode="&#x43f;" horiz-adv-x="510" 
d="M165 269l-25 -239q-2 -19 -12.5 -24.5t-40.5 -5.5q-26 0 -35 4t-9 17q0 9 12 118q21 197 21 229q0 12 -4 52t-4 44q0 15 9.5 21.5t37.5 6.5t36.5 -4.5t10.5 -21.5l7 -58q22 48 62.5 71t109.5 23q65 0 92.5 -24.5t27.5 -75.5q0 -19 -14.5 -142t-14.5 -155q0 -19 4.5 -47
t4.5 -30q0 -9 -2 -14t-12.5 -9.5t-31.5 -4.5q-24 0 -33.5 4.5t-14.5 16.5q-12 38 -12 75q0 29 13.5 141t13.5 132q0 27 -13.5 38t-46.5 11q-66 0 -97.5 -36t-39.5 -113z" />
    <glyph glyph-name="afii10082" unicode="&#x440;" horiz-adv-x="505" 
d="M296 420q-65 0 -96 -42t-40 -122q-11 -96 -11 -125q0 -30 19.5 -45.5t69.5 -15.5q37 0 59.5 10.5t36.5 36.5q16 30 26 105.5t10 122.5q0 45 -16 60t-58 15zM70 -188q-27 0 -36.5 4t-9.5 18q0 8 9 93l33 318q10 100 10 123q0 13 -2.5 51t-2.5 46q0 14 9.5 20.5t35.5 6.5
q27 0 36.5 -7.5t11.5 -30.5l3 -44q26 52 66.5 72t103.5 20q74 0 103.5 -30t29.5 -109q0 -71 -15 -168t-47 -140q-27 -37 -62.5 -51t-88.5 -14q-83 0 -117 48l-19 -196q-2 -19 -12 -24.5t-39 -5.5z" />
    <glyph glyph-name="afii10083" unicode="&#x441;" horiz-adv-x="412" 
d="M259 502q67 0 112 -15q14 -5 19 -10.5t5 -19.5q0 -51 -24 -51q-2 0 -41.5 6.5t-70.5 6.5q-43 0 -64 -12t-33 -48q-28 -88 -28 -206q0 -48 18 -64t69 -16q25 0 54 5.5t48.5 11t22.5 5.5q14 0 14 -22q0 -29 -6 -41.5t-20 -18.5q-58 -23 -137 -23q-85 0 -122 31.5t-37 122.5
q0 144 37 250q16 45 46.5 70t61.5 31.5t76 6.5z" />
    <glyph glyph-name="afii10084" unicode="&#x442;" horiz-adv-x="765" 
d="M358 0q-26 0 -35 4t-9 17q0 5 13 123q23 203 23 225q0 27 -12.5 38t-46.5 11q-59 0 -88.5 -35.5t-37.5 -113.5l-25 -239q-2 -19 -12.5 -24.5t-40.5 -5.5q-26 0 -35 4t-9 17q0 9 12 118q21 197 21 229q0 12 -4 51.5t-4 44.5q0 14 9.5 20.5t37.5 6.5t36.5 -4.5t10.5 -21.5
l6 -57q45 94 160 94q58 0 85 -19t33 -61q46 80 150 80q66 0 93.5 -24.5t27.5 -75.5q0 -19 -14.5 -142t-14.5 -155q0 -19 4 -47t4 -30q0 -9 -2 -14t-12.5 -9.5t-30.5 -4.5q-24 0 -34 4.5t-15 16.5q-11 35 -11 75q0 29 13 141t13 132q0 27 -13 38t-47 11q-58 0 -85.5 -35
t-35.5 -114l-25 -239q-2 -19 -12.5 -24.5t-40.5 -5.5z" />
    <glyph glyph-name="afii10085" unicode="&#x443;" horiz-adv-x="447" 
d="M445 470q0 -14 -29 -102q-32 -99 -90.5 -255t-91.5 -219q-46 -88 -154 -88q-50 0 -78 9q-21 7 -21 30q0 51 25 51q3 0 28.5 -3t45.5 -3q35 0 53.5 13.5t33.5 51.5l17 45q-36 1 -50 10.5t-19 36.5l-68 362q-8 45 -8 53q0 18 12 25q10 5 42 5q28 0 37.5 -4.5t11.5 -20.5
q23 -173 60 -384h12l52 152l51.5 155.5t24.5 76.5q5 16 16 20.5t41 4.5q28 0 37 -5t9 -17z" />
    <glyph glyph-name="afii10086" unicode="&#x444;" horiz-adv-x="769" 
d="M264 420q-40 0 -64 -13.5t-36 -47.5q-9 -26 -18 -97.5t-9 -122.5q0 -38 16 -52.5t51 -14.5q113 0 130 157q11 103 11 128q0 32 -16.5 47.5t-64.5 15.5zM356 447l18 177q2 19 11.5 24.5t36.5 5.5t36.5 -4t9.5 -18q0 -8 -9 -93l-12 -108q25 40 62 55.5t92 15.5
q74 0 103.5 -30t29.5 -109q0 -70 -15.5 -167t-46.5 -141q-27 -38 -62 -51.5t-90 -13.5q-79 0 -110 46l-20 -194q-2 -19 -12 -24.5t-39 -5.5q-27 0 -36.5 4t-9.5 18q0 8 9 93l15 140q-51 -77 -156 -77q-63 0 -93 29t-30 96q0 62 10 146.5t24 124.5q22 63 62.5 89.5
t103.5 26.5q95 0 118 -55zM560 420q-64 0 -92.5 -41t-37.5 -123q-12 -104 -12 -125q0 -31 17 -46t67 -15q37 0 59.5 10.5t36.5 36.5q14 28 25 106.5t11 121.5q0 45 -16 60t-58 15z" />
    <glyph glyph-name="afii10087" unicode="&#x445;" horiz-adv-x="433" 
d="M338 0q-27 0 -37 4.5t-17 18.5l-77 164h-4l-107 -167q-8 -12 -18.5 -16t-35.5 -4q-49 0 -49 22q0 12 56 91l101 143l-74 154q-22 45 -22 57q0 15 11.5 20t40.5 5q28 0 38.5 -5t15.5 -23l63 -141h4l99 149q8 12 17 16t33 4q30 0 40.5 -4t10.5 -17q0 -15 -23 -46l-126 -173
l97 -187q14 -27 14 -40q0 -25 -51 -25z" />
    <glyph glyph-name="afii10088" unicode="&#x446;" horiz-adv-x="516" 
d="M169 -10q-62 0 -90.5 23t-28.5 75q0 35 17 150q15 102 15 146q0 16 -4.5 46.5t-4.5 33.5q0 16 9.5 22t37.5 6q26 0 34.5 -5.5t12.5 -21.5q10 -37 10 -78q0 -25 -14 -135t-14 -131q0 -28 13.5 -38.5t47.5 -10.5q65 0 94 38t38 122l24 230q2 19 12.5 24.5t40.5 5.5
q27 0 36 -4t9 -17t-17.5 -176t-17.5 -188q0 -21 5 -32t20 -22q18 -14 24 -23t6 -25q0 -40 -10 -96q-3 -16 -9.5 -20.5t-27.5 -4.5q-24 0 -32 5t-8 20v66q0 17 -5 25t-24 22q-25 20 -30 61q-46 -93 -169 -93z" />
    <glyph glyph-name="afii10089" unicode="&#x447;" horiz-adv-x="475" 
d="M145 387q0 -8 -4.5 -48t-4.5 -53q0 -39 60 -39q64 0 92.5 29.5t35.5 104.5l7 81q1 19 12 24.5t41 5.5q26 0 35.5 -4t9.5 -17q0 -10 -18 -172t-18 -194q0 -19 4.5 -47t4.5 -30q0 -9 -2 -14t-12.5 -9.5t-31.5 -4.5q-24 0 -33.5 4.5t-14.5 16.5q-11 35 -11 75q0 41 10 134
q-45 -67 -150 -67q-65 0 -93 23t-28 67q0 20 7 71t7 60q0 16 -4.5 46.5t-4.5 33.5q0 16 9.5 22t36.5 6q26 0 35 -5.5t13 -21.5q10 -44 10 -78z" />
    <glyph glyph-name="afii10090" unicode="&#x448;" horiz-adv-x="769" 
d="M169 -10q-62 0 -90.5 23t-28.5 75q0 35 17 150q15 102 15 146q0 16 -4.5 46.5t-4.5 33.5q0 16 9.5 22t37.5 6q26 0 34.5 -5.5t12.5 -21.5q10 -37 10 -78q0 -25 -14 -135t-14 -131q0 -28 13.5 -38.5t47.5 -10.5q60 0 87.5 38t36.5 122l22 230q1 19 12 24.5t41 5.5
q26 0 35 -4t9 -17q0 -15 -18 -175t-18 -175q0 -28 14 -38.5t48 -10.5q60 0 90.5 38.5t38.5 121.5l24 230q2 19 12.5 24.5t40.5 5.5q26 0 35 -4t9 -17q0 -14 -16.5 -168.5t-16.5 -175.5q0 -15 5.5 -56.5t5.5 -46.5q0 -12 -10 -18t-38 -6q-26 0 -33.5 5t-10.5 23l-10 58
q-45 -96 -168 -96q-58 0 -82.5 19t-29.5 61q-47 -80 -156 -80z" />
    <glyph glyph-name="afii10091" unicode="&#x449;" horiz-adv-x="781" 
d="M695 107q0 -21 5 -32t20 -22q18 -14 24 -23t6 -25q0 -40 -10 -96q-3 -16 -9.5 -20.5t-27.5 -4.5q-24 0 -32 5t-8 20v66q0 17 -5 25t-24 22q-25 20 -30 61q-47 -93 -167 -93q-58 0 -82.5 19t-29.5 61q-47 -80 -156 -80q-62 0 -90.5 23t-28.5 75q0 35 17 150q15 102 15 146
q0 16 -4.5 46.5t-4.5 33.5q0 16 9.5 22t37.5 6q26 0 34.5 -5.5t12.5 -21.5q10 -37 10 -78q0 -25 -14 -135t-14 -131q0 -28 13.5 -38.5t47.5 -10.5q60 0 87.5 38t36.5 122l22 230q1 19 12 24.5t41 5.5q26 0 35 -4t9 -17q0 -15 -18 -175t-18 -175q0 -28 14 -38.5t48 -10.5
q60 0 90.5 38.5t38.5 121.5l24 230q2 19 12.5 24.5t40.5 5.5q26 0 35 -4t9 -17t-17 -176t-17 -188z" />
    <glyph glyph-name="afii10092" unicode="&#x44a;" horiz-adv-x="496" 
d="M243 -8q-75 0 -146 9q-13 2 -18.5 3.5t-9.5 6t-4 13.5q0 5 9 86l32 296h-51q-12 0 -16.5 4.5t-4.5 17.5q0 38 7 51t23 13h115q17 0 23 -4t6 -17q0 -10 -9 -92l-10 -91q68 11 119 11q84 0 119 -25.5t35 -95.5q0 -120 -68 -159q-46 -27 -151 -27zM282 221q-36 0 -100 -4
l-15 -139q42 -4 90 -4q54 0 75 12q30 16 30 80q0 31 -17 43t-63 12z" />
    <glyph glyph-name="afii10093" unicode="&#x44b;" horiz-adv-x="686" 
d="M573 0q-24 0 -33.5 4.5t-14.5 16.5q-12 38 -12 75q0 32 11 133l24 233q2 19 12.5 24.5t40.5 5.5q27 0 36 -4t9 -17q0 -10 -18 -172t-18 -194q0 -19 4.5 -47t4.5 -30q0 -9 -2 -14t-12.5 -9.5t-31.5 -4.5zM234 74q54 0 75 12q30 16 30 80q0 31 -17 43t-63 12q-37 0 -101 -4
l-14 -139q42 -4 90 -4zM220 -8q-76 0 -146 9q-13 2 -18.5 3.5t-9 6t-3.5 13.5q0 11 9 95l20 189q4 38 4 61q0 12 -4.5 51.5t-4.5 43.5q0 15 10 21.5t38 6.5q27 0 36 -5t13 -22q9 -49 9 -83q0 -28 -7 -94q68 11 119 11q84 0 119 -25.5t35 -95.5q0 -120 -68 -159
q-46 -27 -151 -27z" />
    <glyph glyph-name="afii10094" unicode="&#x44c;" horiz-adv-x="473" 
d="M234 74q54 0 75 12q30 16 30 80q0 31 -17 43t-63 12q-37 0 -101 -4l-14 -139q42 -4 90 -4zM220 -8q-76 0 -146 9q-13 2 -18.5 3.5t-9 6t-3.5 13.5q0 11 9 95l20 189q4 38 4 61q0 12 -4.5 51.5t-4.5 43.5q0 15 10 21.5t38 6.5q27 0 36 -5t13 -22q9 -49 9 -83q0 -28 -7 -94
q68 11 119 11q84 0 119 -25.5t35 -95.5q0 -120 -68 -159q-46 -27 -151 -27z" />
    <glyph glyph-name="afii10095" unicode="&#x44d;" horiz-adv-x="406" 
d="M153 -10q-61 0 -112 15q-14 5 -18.5 11t-4.5 20q0 50 23 50q2 0 41.5 -6.5t70.5 -6.5q48 0 69.5 11.5t33.5 46.5q12 38 18 87h-145q-10 0 -14 4t-4 16q0 31 6 42t19 11h145q2 20 2 49q0 50 -16.5 65t-70.5 15q-25 0 -53.5 -5t-48 -10t-22.5 -5q-14 0 -14 21q0 51 26 61
q55 20 136 20q87 0 122.5 -30t35.5 -123q0 -155 -35 -256q-12 -34 -31.5 -56t-47 -31.5t-51.5 -12.5t-60 -3z" />
    <glyph glyph-name="afii10096" unicode="&#x44e;" horiz-adv-x="688" 
d="M421 -10q-93 0 -133 32t-40 122q0 34 4 71h-94l-18 -185q-2 -19 -12.5 -24.5t-40.5 -5.5q-26 0 -35 4t-9 17q0 10 16.5 168.5t16.5 179.5q0 12 -4 51.5t-4 43.5q0 15 9.5 21.5t37.5 6.5q27 0 36 -5t13 -22q10 -46 10 -83q0 -7 -7 -86h96q16 86 41 128q24 42 65.5 60
t108.5 18q93 0 133 -32t40 -122q0 -62 -14.5 -147.5t-41.5 -132.5q-24 -42 -65.5 -60t-108.5 -18zM427 74q68 0 89 34q17 29 28 108.5t11 121.5q0 49 -17 65t-66 16q-67 0 -89 -35q-17 -29 -28 -108.5t-11 -121.5q0 -49 17 -64.5t66 -15.5z" />
    <glyph glyph-name="afii10097" unicode="&#x44f;" horiz-adv-x="492" 
d="M376 0q-24 0 -33.5 4.5t-14.5 16.5q-12 33 -12 75q0 29 7 101q-37 -4 -86 -4q-47 -81 -107 -168q-12 -17 -22 -21t-42 -4q-45 0 -45 17q0 10 14 29l56 73t59 79q-54 10 -76.5 38.5t-22.5 80.5q0 43 12.5 84.5t36.5 62.5q25 22 64.5 29t105.5 7q60 0 145 -9q18 -2 25 -6.5
t7 -17.5q0 -10 -17 -170t-17 -192q0 -19 4 -47t4 -30q0 -7 -1 -10.5t-5 -8.5t-13.5 -7t-25.5 -2zM234 270q65 0 97 1l14 139q-42 5 -89 5q-74 0 -90 -21q-16 -20 -16 -69q0 -32 17.5 -43.5t66.5 -11.5z" />
    <glyph glyph-name="afii10071" unicode="&#x451;" horiz-adv-x="448" 
d="M208 -10q-93 0 -131.5 31t-38.5 123q0 144 37 250q16 45 46.5 70t63.5 31.5t84 6.5q86 0 117 -26t31 -80q0 -131 -68 -165q-60 -30 -199 -30h-14q-2 -34 -2 -50q0 -47 18.5 -63t71.5 -16q29 0 60.5 6t52.5 12t25 6q16 0 16 -24q0 -28 -6 -38.5t-21 -17.5
q-62 -26 -143 -26zM161 357q-13 -43 -19 -90q114 0 152 19q33 18 33 91q0 22 -13.5 33t-54.5 11q-42 0 -64 -13.5t-34 -50.5zM192 562q-26 0 -34.5 6t-8.5 22q0 24 9 46q4 11 15 14.5t37 3.5t34.5 -6t8.5 -22q0 -24 -9 -46q-4 -11 -15 -14.5t-37 -3.5zM341 562
q-26 0 -34.5 6t-8.5 22q0 24 9 46q4 11 15 14.5t37 3.5t34.5 -6t8.5 -22q0 -24 -9 -46q-4 -11 -15 -14.5t-37 -3.5z" />
    <glyph glyph-name="afii10099" unicode="&#x452;" horiz-adv-x="507" 
d="M297 392q-66 0 -98 -34t-40 -110l-22 -218q-2 -19 -12.5 -24.5t-40.5 -5.5q-26 0 -35.5 4t-9.5 17q0 9 12 118l41 390h-32q-9 0 -12.5 4t-3.5 15q0 44 21 44h33l4 32q2 19 12.5 24.5t40.5 5.5q26 0 35 -4t9 -17q0 -9 -4 -41h135q16 0 16 -19q0 -44 -22 -44h-135l-13 -124
q44 71 159 71q66 0 93.5 -24t27.5 -75q0 -19 -5 -74l-37 -361q-7 -72 -39.5 -104t-93.5 -32q-41 0 -72 9q-22 5 -22 27q0 53 22 53q5 0 25 -2.5t36 -2.5q35 0 41 23q4 12 9 61l30 291q6 64 6 79q0 27 -13 37.5t-46 10.5z" />
    <glyph glyph-name="afii10100" unicode="&#x453;" horiz-adv-x="419" 
d="M221 539q-37 0 -37 17q0 10 11 31l47 83q8 14 12.5 19t16 8.5t34.5 3.5q31 0 40 -4t9 -13q0 -14 -21 -44l-55 -78q-6 -9 -10.5 -13t-16 -7t-30.5 -3zM199 -10q-86 0 -128.5 20.5t-42.5 83.5q0 50 21 84t70 65l132 82q24 15 33.5 29t9.5 35q0 19 -15.5 25t-57.5 6
q-36 0 -80 -6.5t-45 -6.5q-15 0 -15 25q0 30 7.5 41.5t23.5 14.5q65 14 135 14q74 0 110 -19t36 -78q0 -52 -22.5 -82.5t-67.5 -60.5l-133 -86q-44 -28 -44 -67q0 -23 20.5 -29t77.5 -6q38 0 82.5 7t48.5 7q12 0 12 -23q0 -30 -7 -42t-24 -17q-62 -16 -137 -16z" />
    <glyph glyph-name="afii10101" unicode="&#x454;" horiz-adv-x="412" 
d="M197 -10q-85 0 -122 31.5t-37 122.5q0 146 37 252q12 34 31 56.5t45.5 32.5t51 13.5t58.5 3.5q67 0 112 -15q14 -5 18.5 -10.5t4.5 -19.5q0 -51 -23 -51q-2 0 -41.5 6.5t-70.5 6.5q-46 0 -67.5 -11t-32.5 -46q-8 -25 -16 -71h149q10 0 14 -4t4 -16q0 -31 -6 -42t-20 -11
h-149q-3 -35 -3 -65q0 -48 18 -64t69 -16q25 0 54 5.5t48.5 11t22.5 5.5q14 0 14 -22q0 -29 -6 -41.5t-20 -18.5q-58 -23 -137 -23z" />
    <glyph glyph-name="afii10102" unicode="&#x455;" horiz-adv-x="403" 
d="M160 -10q-72 0 -122 16q-24 7 -24 30q0 53 22 53q2 0 43.5 -8t80.5 -8q54 0 78 18t24 59q0 34 -37 49l-94 39q-45 19 -64 44t-19 65q0 33 12 66.5t31 51.5q38 37 128 37q73 0 123 -15q13 -4 18 -10t5 -20q0 -51 -23 -51q-3 0 -48.5 7.5t-76.5 7.5q-32 0 -46 -9
q-23 -12 -23 -54q0 -31 34 -45l91 -37q50 -21 69 -45.5t19 -62.5q0 -96 -54 -140q-48 -38 -147 -38z" />
    <glyph glyph-name="afii10103" unicode="&#x456;" horiz-adv-x="223" 
d="M109 0q-24 0 -33.5 4.5t-14.5 16.5q-12 38 -12 75q0 32 11 133l24 233q2 19 12.5 24.5t40.5 5.5q27 0 36 -4t9 -17q0 -10 -18 -172t-18 -194q0 -19 4.5 -47t4.5 -30q0 -9 -2 -14t-12.5 -9.5t-31.5 -4.5zM142 562q-27 0 -37 6t-10 22q0 28 7 45q5 12 16.5 15.5t38.5 3.5
t37.5 -6t10.5 -22q0 -28 -7 -45q-5 -12 -17 -15.5t-39 -3.5z" />
    <glyph glyph-name="afii10104" unicode="&#x457;" horiz-adv-x="223" 
d="M61 562q-26 0 -34.5 6t-8.5 22q0 24 9 46q4 11 15 14.5t37 3.5t34.5 -6t8.5 -22q0 -24 -9 -46q-4 -11 -15 -14.5t-37 -3.5zM210 562q-26 0 -34.5 6t-8.5 22q0 24 9 46q4 11 15 14.5t37 3.5t34.5 -6t8.5 -22q0 -24 -9 -46q-4 -11 -15 -14.5t-37 -3.5zM109 0
q-24 0 -33.5 4.5t-14.5 16.5q-12 38 -12 75q0 32 11 133l24 233q2 19 12.5 24.5t40.5 5.5q27 0 36 -4t9 -17q0 -10 -18 -172t-18 -194q0 -19 4.5 -47t4.5 -30q0 -9 -2 -14t-12.5 -9.5t-31.5 -4.5z" />
    <glyph glyph-name="afii10105" unicode="&#x458;" horiz-adv-x="216" 
d="M137 492q27 0 36 -4t9 -18q0 -11 -9 -96l-45 -432q-7 -72 -39.5 -104t-93.5 -32q-41 0 -72 9q-22 5 -22 27q0 53 22 53q5 0 25 -2.5t36 -2.5q35 0 41 23q4 12 9 61l50 488q2 19 12.5 24.5t40.5 5.5zM142 562q-27 0 -37 6t-10 22q0 28 7 45q5 12 16.5 15.5t38.5 3.5
t37.5 -6t10.5 -22q0 -28 -7 -45q-5 -12 -17 -15.5t-39 -3.5z" />
    <glyph glyph-name="afii10106" unicode="&#x459;" horiz-adv-x="688" 
d="M446 74q59 0 81 15q24 16 24 77q0 31 -17 43t-63 12q-45 0 -88 -3l22 -143q12 -1 41 -1zM496 299q84 0 119 -25.5t35 -95.5q0 -50 -15.5 -94t-45.5 -62q-49 -30 -157 -30q-47 0 -94 7q-16 2 -22 8.5t-9 21.5q-2 10 -11 80.5l-21 161.5t-20 142h-10q-77 -267 -131 -378
q-10 -22 -22 -28.5t-43 -6.5q-27 0 -37 4.5t-10 18.5q0 8 11 29q65 131 153 398q10 28 27.5 36.5t67.5 8.5q46 0 62.5 -8t20.5 -32l27 -167q84 11 125 11z" />
    <glyph glyph-name="afii10107" unicode="&#x45a;" horiz-adv-x="738" 
d="M87 0q-26 0 -35 4t-9 17q0 10 16.5 168.5t16.5 179.5q0 12 -4 51.5t-4 43.5q0 15 9.5 21.5t37.5 6.5q27 0 36 -5t13 -22q10 -55 10 -83q0 -8 -7 -87h167l17 167q2 19 12.5 24.5t40.5 5.5q26 0 35 -4t9 -17q0 -7 -2.5 -32t-8 -71.5t-8.5 -79.5q68 11 119 11
q84 0 119 -25.5t35 -95.5q0 -50 -15.5 -94t-45.5 -62q-49 -30 -157 -30q-75 0 -147 9q-13 2 -18.5 3.5t-9 6t-3.5 13.5q0 11 3 32l16 159h-167l-18 -185q-2 -19 -12.5 -24.5t-40.5 -5.5zM523 221q-37 0 -101 -4q-2 -16 -14 -139q42 -4 90 -4q59 0 81 15q24 16 24 77
q0 31 -17 43t-63 12z" />
    <glyph glyph-name="afii10108" unicode="&#x45b;" horiz-adv-x="507" 
d="M84 0q-26 0 -35.5 4t-9.5 17q0 9 12 118l41 390h-32q-9 0 -12.5 4t-3.5 15q0 44 21 44h33l4 32q2 19 12.5 24.5t40.5 5.5q26 0 35 -4t9 -17q0 -9 -4 -41h135q16 0 16 -19q0 -44 -22 -44h-135l-13 -124q44 71 159 71q66 0 93.5 -24t27.5 -75q0 -21 -12.5 -132.5
t-12.5 -139.5q0 -19 4.5 -47t4.5 -30q0 -9 -2 -14t-12.5 -9.5t-31.5 -4.5q-24 0 -33.5 4.5t-14.5 16.5q-12 38 -12 75q0 25 11.5 126t11.5 122q0 26 -13 37t-47 11q-66 0 -98 -34t-40 -110l-22 -218q-2 -19 -12.5 -24.5t-40.5 -5.5z" />
    <glyph glyph-name="afii10109" unicode="&#x45c;" horiz-adv-x="443" 
d="M87 0q-26 0 -35 4t-9 17q0 10 16.5 168.5t16.5 179.5q0 12 -4 51.5t-4 43.5q0 15 9.5 21.5t37.5 6.5q27 0 36 -5t13 -22q10 -55 10 -83q0 -21 -8 -95h11q33 32 79 86t67 89q12 20 22 25t40 5q47 0 47 -22q0 -28 -60.5 -98t-115.5 -118q41 -74 132 -184q33 -38 33 -46
q0 -24 -48 -24q-29 0 -39 3t-21 14q-27 26 -72 90t-70 114h-12l-19 -191q-2 -19 -12.5 -24.5t-40.5 -5.5zM223 539q-37 0 -37 17q0 10 11 31l47 83q8 14 12.5 19t16 8.5t34.5 3.5q31 0 40 -4t9 -13q0 -14 -21 -44l-55 -78q-6 -9 -10.5 -13t-16 -7t-30.5 -3z" />
    <glyph glyph-name="afii10110" unicode="&#x45e;" horiz-adv-x="447" 
d="M445 470q0 -14 -29 -102q-32 -99 -90.5 -255t-91.5 -219q-46 -88 -154 -88q-50 0 -78 9q-21 7 -21 30q0 51 25 51q3 0 28.5 -3t45.5 -3q35 0 53.5 13.5t33.5 51.5l17 45q-36 1 -50 10.5t-19 36.5l-68 362q-8 45 -8 53q0 18 12 25q10 5 42 5q28 0 37.5 -4.5t11.5 -20.5
q23 -173 60 -384h12l52 152l51.5 155.5t24.5 76.5q5 16 16 20.5t41 4.5q28 0 37 -5t9 -17zM250 551q-60 0 -83 17t-23 57q0 15 2 33q3 15 10.5 20t30.5 5q19 0 25.5 -4.5t6.5 -14.5q0 -2 -1 -8.5t-1 -8.5q1 -14 8.5 -19t32.5 -5q28 0 35.5 6.5t11.5 28.5q2 16 9 20.5t29 4.5
q19 0 26 -4t7 -16q0 -61 -26 -87q-25 -25 -100 -25z" />
    <glyph glyph-name="afii10193" unicode="&#x45f;" horiz-adv-x="503" 
d="M393 0q-26 0 -34 5.5t-10 21.5l-7 64q-45 -101 -173 -101q-62 0 -90.5 23t-28.5 75q0 35 17 150q15 102 15 146q0 16 -4.5 46.5t-4.5 33.5q0 16 9.5 22t37.5 6q26 0 34.5 -5.5t12.5 -21.5q10 -37 10 -78q0 -25 -14 -135t-14 -131q0 -28 13.5 -38.5t47.5 -10.5q65 0 94 38
t38 122l24 230q2 19 12.5 24.5t40.5 5.5q27 0 36 -4t9 -17q0 -14 -16.5 -168.5t-16.5 -175.5q0 -12 3.5 -54t3.5 -50q0 -23 -45 -23zM223 -44q28 0 37 -5t9 -19q0 -48 -41 -138q-8 -16 -17.5 -21t-32.5 -5q-20 0 -26.5 3.5t-6.5 12.5q0 7 12 58.5t12 80.5q0 20 11 26.5
t43 6.5z" />
    <glyph glyph-name="afii10050" unicode="&#x490;" horiz-adv-x="399" 
d="M189 531l-53 -501q-2 -19 -12 -24.5t-40 -5.5q-26 0 -35.5 4t-9.5 17q0 7 12 121l46 448q1 17 9 22.5t27 5.5h198l24 83q4 16 13 20.5t32 4.5q20 0 27 -3t7 -14q0 -7 -6 -65l-9 -81q-2 -20 -10 -26t-29 -6h-191z" />
    <glyph glyph-name="afii10098" unicode="&#x491;" horiz-adv-x="419" 
d="M247 502q74 0 110 -19t36 -78q0 -52 -22.5 -82.5t-67.5 -60.5l-133 -86q-44 -28 -44 -67q0 -23 20.5 -29t77.5 -6q38 0 82.5 7t48.5 7q12 0 12 -23q0 -30 -7 -42t-24 -17q-62 -16 -137 -16q-86 0 -128.5 20.5t-42.5 83.5q0 50 21 84t70 65l132 82q24 15 33.5 29t9.5 35
q0 19 -15.5 25t-57.5 6q-36 0 -80 -6.5t-45 -6.5q-15 0 -15 25q0 8 26 70.5t29 115.5q2 20 9.5 26t34.5 6q23 0 30 -4t7 -18q0 -59 -50 -131q43 5 80 5z" />
    <glyph glyph-name="Wgrave" unicode="&#x1e80;" horiz-adv-x="796" 
d="M193 0q-45 0 -61 7t-19 32l-44 441q-10 98 -10 110q0 15 10 21t39 6q30 0 40.5 -5.5t12.5 -21.5l41 -500h11l153 486q6 20 21.5 26t51.5 6q35 0 49.5 -6.5t16.5 -25.5l52 -486h12l145 500q5 16 16.5 21.5t41.5 5.5q26 0 35 -4.5t9 -15.5q0 -6 -9 -40l-160 -518
q-7 -25 -24.5 -32t-63.5 -7q-44 0 -60 8t-19 33l-51 423h-10l-138 -423q-8 -25 -26.5 -33t-61.5 -8zM324 803q1 14 11.5 17.5t41.5 3.5q30 0 38.5 -4.5t18.5 -22.5q51 -99 51 -113q0 -22 -39 -22q-25 0 -34 3.5t-18 16.5l-51 79q-19 29 -19 42z" />
    <glyph glyph-name="wgrave" unicode="&#x1e81;" horiz-adv-x="701" 
d="M471 82h11q17 47 36.5 113.5l43 153.5l30.5 112q5 20 16.5 25.5t44.5 5.5q24 0 34 -4.5t10 -17.5t-29 -109q-58 -189 -113 -325q-9 -21 -26 -28.5t-60 -7.5q-39 0 -52 8t-17 34l-41 303h-6q-55 -176 -106 -308q-8 -22 -25.5 -29.5t-61.5 -7.5q-40 0 -55 7t-17 29l-29 263
q-16 143 -16 160t11 25t40 8q33 0 42.5 -6t10.5 -30q1 -12 12 -165t18 -209h11l116 365q7 21 20.5 28t48.5 7q33 0 45.5 -7.5t14.5 -28.5zM269 680q1 14 11.5 17.5t41.5 3.5q30 0 38.5 -4.5t18.5 -22.5q51 -99 51 -113q0 -22 -39 -22q-25 0 -34 3.5t-18 16.5l-51 79
q-19 29 -19 42z" />
    <glyph glyph-name="Wacute" unicode="&#x1e82;" horiz-adv-x="796" 
d="M193 0q-45 0 -61 7t-19 32l-44 441q-10 98 -10 110q0 15 10 21t39 6q30 0 40.5 -5.5t12.5 -21.5l41 -500h11l153 486q6 20 21.5 26t51.5 6q35 0 49.5 -6.5t16.5 -25.5l52 -486h12l145 500q5 16 16.5 21.5t41.5 5.5q26 0 35 -4.5t9 -15.5q0 -6 -9 -40l-160 -518
q-7 -25 -24.5 -32t-63.5 -7q-44 0 -60 8t-19 33l-51 423h-10l-138 -423q-8 -25 -26.5 -33t-61.5 -8zM429 662q-37 0 -37 17q0 10 11 31l47 83q8 14 12.5 19t16 8.5t34.5 3.5q31 0 40 -4t9 -13q0 -14 -21 -44l-55 -78q-6 -9 -10.5 -13t-16 -7t-30.5 -3z" />
    <glyph glyph-name="wacute" unicode="&#x1e83;" horiz-adv-x="701" 
d="M471 82h11q17 47 36.5 113.5l43 153.5l30.5 112q5 20 16.5 25.5t44.5 5.5q24 0 34 -4.5t10 -17.5t-29 -109q-58 -189 -113 -325q-9 -21 -26 -28.5t-60 -7.5q-39 0 -52 8t-17 34l-41 303h-6q-55 -176 -106 -308q-8 -22 -25.5 -29.5t-61.5 -7.5q-40 0 -55 7t-17 29l-29 263
q-16 143 -16 160t11 25t40 8q33 0 42.5 -6t10.5 -30q1 -12 12 -165t18 -209h11l116 365q7 21 20.5 28t48.5 7q33 0 45.5 -7.5t14.5 -28.5zM336 539q-37 0 -37 17q0 10 11 31l47 83q8 14 12.5 19t16 8.5t34.5 3.5q31 0 40 -4t9 -13q0 -14 -21 -44l-55 -78q-6 -9 -10.5 -13
t-16 -7t-30.5 -3z" />
    <glyph glyph-name="Wdieresis" unicode="&#x1e84;" horiz-adv-x="796" 
d="M193 0q-45 0 -61 7t-19 32l-44 441q-10 98 -10 110q0 15 10 21t39 6q30 0 40.5 -5.5t12.5 -21.5l41 -500h11l153 486q6 20 21.5 26t51.5 6q35 0 49.5 -6.5t16.5 -25.5l52 -486h12l145 500q5 16 16.5 21.5t41.5 5.5q26 0 35 -4.5t9 -15.5q0 -6 -9 -40l-160 -518
q-7 -25 -24.5 -32t-63.5 -7q-44 0 -60 8t-19 33l-51 423h-10l-138 -423q-8 -25 -26.5 -33t-61.5 -8zM366 685q-26 0 -34.5 6t-8.5 22q0 24 9 46q4 11 15 14.5t37 3.5t34.5 -6t8.5 -22q0 -24 -9 -46q-4 -11 -15 -14.5t-37 -3.5zM515 685q-26 0 -34.5 6t-8.5 22q0 24 9 46
q4 11 15 14.5t37 3.5t34.5 -6t8.5 -22q0 -24 -9 -46q-4 -11 -15 -14.5t-37 -3.5z" />
    </font>
</defs>
</svg>
